<svg width="48" height="48" viewBox="0 0 48 48" fill="none" xmlns="http://www.w3.org/2000/svg">
<g clip-path="url(#clip0_325_7462)">
<path d="M47.5 24C47.5 36.9785 36.9785 47.5 24 47.5C11.0215 47.5 0.5 36.9785 0.5 24C0.5 11.0215 11.0215 0.5 24 0.5C36.9785 0.5 47.5 11.0215 47.5 24Z" fill="white" stroke="#23273D"/>
<path d="M24.0001 29.132C20.0454 29.132 17.4201 28.6707 14.1747 28.04C13.4321 27.8987 11.9907 28.04 11.9907 30.224C11.9907 34.5907 17.0081 40.0494 24.0001 40.0494C30.9921 40.0494 36.0094 34.5907 36.0094 30.224C36.0094 28.04 34.5667 27.8974 33.8254 28.04C30.5801 28.6707 27.9561 29.132 24.0001 29.132Z" fill="#23273D"/>
<path d="M22.2 4.37472C21.7623 3.13109 20.9408 2.05867 19.8541 1.31218C18.7674 0.565695 17.4716 0.183736 16.1538 0.221414C14.8359 0.259093 13.5641 0.714462 12.5218 1.52182C11.4795 2.32918 10.7206 3.44678 10.3547 4.71339C9.54474 4.14606 8.61123 3.77997 7.63154 3.64548C6.65185 3.51099 5.65422 3.61197 4.72135 3.94005C3.16485 4.48984 1.89036 5.63519 1.17804 7.12434C0.465717 8.61348 0.37387 10.3245 0.922687 11.8814C1.08535 12.3401 1.30135 12.7654 1.55202 13.1587C4.15335 17.9347 11.6694 21.2921 16.22 21.3334C19.736 18.4441 23.4814 11.1134 22.5107 5.76405C22.4601 5.29067 22.3559 4.82456 22.2 4.37472ZM25.8 4.37472C26.3495 2.81797 27.4948 1.54317 28.984 0.830586C30.4731 0.118001 32.1843 0.0259681 33.7414 0.574721C34.6743 0.904598 35.5153 1.4521 36.1944 2.17184C36.8736 2.89159 37.3714 3.76284 37.6467 4.71339C38.4566 4.14606 39.3901 3.77997 40.3698 3.64548C41.3495 3.51099 42.3472 3.61197 43.28 3.94005C44.8365 4.48987 46.1111 5.63515 46.8237 7.12423C47.5362 8.61331 47.6284 10.3244 47.08 11.8814C46.9188 12.3297 46.7072 12.7582 46.4494 13.1587C43.848 17.9347 36.332 21.2921 31.78 21.3334C28.264 18.4441 24.52 11.1134 25.4907 5.76405C25.54 5.30005 25.64 4.83339 25.8 4.37472Z" fill="#DD2E44"/>
</g>
<defs>
<clipPath id="clip0_325_7462">
<rect width="48" height="48" fill="white"/>
</clipPath>
</defs>
</svg>
