<svg width="40" height="40" viewBox="0 0 40 40" fill="none" xmlns="http://www.w3.org/2000/svg">
<g clip-path="url(#clip0_325_7435)">
<path d="M8.88893 21.1111C8.88893 23.5655 7.6456 25.5555 6.11115 25.5555C4.57671 25.5555 3.33337 23.5655 3.33337 21.1111C3.33337 18.6566 4.57671 16.6666 6.11115 16.6666C7.6456 16.6666 8.88893 18.6566 8.88893 21.1111ZM36.6667 21.1111C36.6667 23.5655 35.4234 25.5555 33.8889 25.5555C32.3545 25.5555 31.1112 23.5655 31.1112 21.1111C31.1112 18.6566 32.3545 16.6666 33.8889 16.6666C35.4234 16.6666 36.6667 18.6566 36.6667 21.1111Z" fill="#F7DECE"/>
<path d="M5.55554 22.8467C5.55554 13.3734 12.0222 5.69336 20 5.69336C27.9778 5.69336 34.4444 13.3734 34.4444 22.8467C34.4444 32.32 27.9778 40 20 40C12.0222 40 5.55554 32.32 5.55554 22.8467Z" fill="#F7DECE"/>
<path d="M14.4445 22.2223C14.1498 22.2223 13.8672 22.1052 13.6588 21.8968C13.4504 21.6885 13.3334 21.4059 13.3334 21.1112V18.8889C13.3334 18.5943 13.4504 18.3116 13.6588 18.1033C13.8672 17.8949 14.1498 17.7778 14.4445 17.7778C14.7392 17.7778 15.0218 17.8949 15.2302 18.1033C15.4385 18.3116 15.5556 18.5943 15.5556 18.8889V21.1112C15.5556 21.4059 15.4385 21.6885 15.2302 21.8968C15.0218 22.1052 14.7392 22.2223 14.4445 22.2223ZM25.5556 22.2223C25.2609 22.2223 24.9783 22.1052 24.7699 21.8968C24.5615 21.6885 24.4445 21.4059 24.4445 21.1112V18.8889C24.4445 18.5943 24.5615 18.3116 24.7699 18.1033C24.9783 17.8949 25.2609 17.7778 25.5556 17.7778C25.8503 17.7778 26.1329 17.8949 26.3413 18.1033C26.5496 18.3116 26.6667 18.5943 26.6667 18.8889V21.1112C26.6667 21.4059 26.5496 21.6885 26.3413 21.8968C26.1329 22.1052 25.8503 22.2223 25.5556 22.2223Z" fill="#23273D"/>
<path d="M21.1112 26.6667H18.8889C18.5943 26.6667 18.3116 26.5496 18.1033 26.3412C17.8949 26.1329 17.7778 25.8503 17.7778 25.5556C17.7778 25.2609 17.8949 24.9783 18.1033 24.7699C18.3116 24.5615 18.5943 24.4445 18.8889 24.4445H21.1112C21.4059 24.4445 21.6885 24.5615 21.8968 24.7699C22.1052 24.9783 22.2223 25.2609 22.2223 25.5556C22.2223 25.8503 22.1052 26.1329 21.8968 26.3412C21.6885 26.5496 21.4059 26.6667 21.1112 26.6667Z" fill="#C1694F"/>
<path d="M20 0C29.5722 0 35.5556 7.06445 35.5556 12.9511C35.5556 18.8378 34.3589 21.1922 33.1622 18.8378L30.77 14.1289C30.77 14.1289 23.59 14.1289 21.1978 11.7733C21.1978 11.7733 24.7867 18.8378 17.6078 11.7733C17.6078 11.7733 18.8045 16.4833 11.6245 10.5956C11.6245 10.5956 8.03557 12.9511 6.83779 18.8367C6.50557 20.47 4.44446 18.8378 4.44446 12.9511C4.44446 7.06333 9.23112 0 20 0ZM30.4167 26.86C29.2589 28.0822 26.9445 30.5267 24.63 29.3044C21.3567 27.5756 20 28.0822 20 28.0822C20 28.0822 18.6433 27.5767 15.37 29.3044C13.0556 30.5267 10.74 28.0822 9.58335 26.86C8.76446 25.9956 6.11112 24.4156 6.11112 26.86C6.11112 30.5267 8.42557 32.9711 8.42557 32.9711C10.74 39.0822 15.37 39.0822 15.37 39.0822C16.5278 40.3044 23.4722 40.3044 24.6289 39.0822C24.6289 39.0822 29.2589 39.0822 31.5733 32.9711C31.5733 32.9711 33.8878 30.5267 33.8878 26.86C33.8889 24.4156 31.2345 25.9967 30.4167 26.86Z" fill="#23273D"/>
<path d="M20 32.9723C15.37 32.9723 11.8977 30.5278 20 30.5278C28.1022 30.5278 24.63 32.9723 20 32.9723Z" fill="#F7DECE"/>
</g>
<defs>
<clipPath id="clip0_325_7435">
<rect width="40" height="40" fill="white"/>
</clipPath>
</defs>
</svg>
