<svg width="40" height="40" viewBox="0 0 40 40" fill="none" xmlns="http://www.w3.org/2000/svg">
<g clip-path="url(#clip0_325_7440)">
<path d="M39.42 33.8406L39.4191 33.8378C39.2078 33.177 38.5246 32.7222 37.7609 32.7222H35.5554C35.1281 32.7222 34.7183 32.5524 34.4161 32.2503C34.114 31.9482 33.9442 31.5384 33.9442 31.1111C33.9442 30.6838 34.114 30.274 34.4161 29.9718C34.7183 29.6697 35.1281 29.5 35.5554 29.5H37.2184C37.3705 29.4975 37.5208 29.4654 37.6607 29.4052C37.8014 29.3447 37.9289 29.2571 38.0358 29.1473C38.1427 29.0375 38.2269 28.9077 38.2837 28.7654C38.3404 28.6231 38.3685 28.471 38.3665 28.3177C38.3645 28.1645 38.3323 28.0132 38.2717 27.8724C38.2112 27.7317 38.1236 27.6042 38.0138 27.4973C37.904 27.3904 37.7742 27.3062 37.6319 27.2494C37.4904 27.193 37.3393 27.1649 37.187 27.1666C36.0181 27.1952 35.0554 26.254 35.0554 25.0855V25.0822C35.0554 24.6872 35.1365 24.3033 35.2918 23.9431L35.2942 23.9375L35.2942 23.9375C36.3791 21.5033 36.8579 18.8424 36.6897 16.1826L36.6897 16.1823C36.159 7.68772 29.0707 0.790073 20.5655 0.509696C11.0711 0.196812 3.27758 7.79942 3.27758 17.2222C3.27758 19.7785 3.86823 22.1924 4.89612 24.3626L4.94424 24.4642V24.5766V26.6655C4.94424 28.1228 3.7818 29.4169 2.2668 29.3877L2.26621 29.3876C2.02497 29.3827 1.78538 29.4285 1.56297 29.5221C1.34056 29.6156 1.1403 29.7549 0.975169 29.9308C0.810034 30.1068 0.683711 30.3155 0.604388 30.5433C0.525066 30.7712 0.494513 31.0132 0.514712 31.2537L0.514828 31.2551C0.586215 32.1341 1.40809 32.8333 2.3698 32.8333L11.3006 32.8333L11.302 32.8333M39.42 33.8406L12.222 35.5555C12.4049 35.3738 12.5296 35.1419 12.5804 34.8891C12.6311 34.6363 12.6055 34.3742 12.5069 34.136C12.4083 33.8978 12.2411 33.6943 12.0266 33.5514C11.812 33.4085 11.5598 33.3326 11.302 33.3333V32.8333M39.42 33.8406C39.5346 34.192 39.5267 34.5718 39.3975 34.9181C39.2684 35.2642 39.0258 35.5563 38.7092 35.7468M39.42 33.8406L38.7092 35.7468M11.302 32.8333C11.6585 32.8326 12.0071 32.9377 12.3038 33.1353C12.6008 33.3332 12.8324 33.615 12.9689 33.9448C13.1054 34.2746 13.1408 34.6375 13.0706 34.9875C13.0003 35.3375 12.8276 35.6586 12.5744 35.9102L12.4768 36.0072L12.3432 36.0406L8.97701 36.8816M11.302 32.8333L8.97701 36.8816M2.27647 28.8877C3.48313 28.9111 4.44424 27.8722 4.44424 26.6655V24.5766C3.38647 22.3433 2.77758 19.8566 2.77758 17.2222C2.77758 7.51775 10.8042 -0.312255 20.582 0.00996727C29.3454 0.298856 36.642 7.39997 37.1887 16.1511C37.362 18.8915 36.8687 21.633 35.7509 24.1411C35.622 24.44 35.5554 24.7566 35.5554 25.0822V25.0855C35.5554 25.9744 36.2887 26.69 37.1776 26.6666C37.3964 26.6637 37.6137 26.7039 37.8171 26.785C38.0204 26.8661 38.2058 26.9864 38.3626 27.1391C38.5194 27.2918 38.6446 27.4739 38.7311 27.675C38.8175 27.8761 38.8635 28.0922 38.8665 28.3111C38.8694 28.5299 38.8292 28.7472 38.7481 28.9506C38.667 29.1539 38.5467 29.3393 38.394 29.4961L2.27647 28.8877ZM2.27647 28.8877C1.96519 28.8814 1.65604 28.9405 1.36906 29.0612M2.27647 28.8877L1.36906 29.0612M8.97701 36.8816C8.77741 36.9317 8.60026 37.047 8.47368 37.2093C8.3471 37.3715 8.27835 37.5714 8.27835 37.7772C8.27835 37.983 8.3471 38.1829 8.47368 38.3451L8.09281 38.6422L8.47368 38.3451C8.60017 38.5073 8.77718 38.6225 8.97662 38.6727M8.97701 36.8816L8.97662 38.6727M8.97662 38.6727C11.0852 39.1998 13.2484 39.477 15.4213 39.4978L18.4346 39.5267H18.4348C19.9179 39.5414 21.3824 39.1995 22.6612 38.4798L22.6613 38.4797C24.6679 37.351 27.0103 36.9719 29.2705 37.4102L29.2707 37.4102C32.5138 38.04 35.876 37.4467 38.7092 35.7468M8.97662 38.6727L38.7092 35.7468M1.36906 29.0612C1.08208 29.1819 0.823683 29.3616 0.610605 29.5887M1.36906 29.0612L0.610605 29.5887M0.610605 29.5887C0.397528 29.8157 0.23453 30.0849 0.132178 30.379M0.610605 29.5887L0.132178 30.379M0.132178 30.379C0.0298264 30.673 -0.00959588 30.9853 0.0164669 31.2955L0.132178 30.379Z" fill="white" stroke="#23273D"/>
<path d="M22.8788 26.3079C21.5277 25.997 20.9826 25.155 20.5455 24.4791C20.1722 23.9032 19.9022 23.4868 19.1627 23.3167C18.4224 23.1463 17.9974 23.4036 17.4109 23.7578C16.7224 24.1748 15.8641 24.6939 14.5139 24.3832C13.1636 24.0725 12.6202 23.2309 12.1832 22.5549C11.8122 21.9805 11.5437 21.5654 10.8107 21.3949C10.2861 21.276 9.94062 21.3682 9.58398 21.5442C9.40194 21.6283 9.19398 21.6381 9.00444 21.5716C8.8149 21.5052 8.65878 21.3677 8.56937 21.1884C8.47995 21.0092 8.46431 20.8024 8.52579 20.6122C8.58726 20.4219 8.72098 20.2633 8.89844 20.17C9.58571 19.8139 10.3793 19.7166 11.1339 19.8959L11.1759 19.9056C12.505 20.2222 13.0439 21.0555 13.4775 21.7271C13.8497 22.3036 14.1191 22.719 14.8577 22.8889C15.598 23.0593 16.0231 22.8019 16.6103 22.448C17.2988 22.031 18.1571 21.5119 19.5074 21.8226C20.8577 22.1333 21.403 22.9744 21.8398 23.6512C22.214 24.2273 22.4832 24.6435 23.2235 24.8138C23.9638 24.9842 24.3889 24.7268 24.9761 24.3729C25.6648 23.955 26.5229 23.4368 27.8741 23.7477C28.6573 23.9279 29.255 24.3019 29.7557 24.9251C29.8213 25.0035 29.8707 25.0942 29.9007 25.1918C29.9308 25.2894 29.941 25.3919 29.9308 25.4934C29.9206 25.5949 29.8902 25.6933 29.8413 25.7829C29.7923 25.8724 29.726 25.9513 29.646 26.0149C29.566 26.0785 29.4741 26.1256 29.3755 26.1534C29.277 26.1811 29.1739 26.189 29.0721 26.1765C28.9704 26.1641 28.8722 26.1315 28.7832 26.0808C28.6942 26.0301 28.6162 25.9622 28.5538 25.8812C28.3474 25.6242 28.081 25.3687 27.5311 25.2422C26.7908 25.0718 26.3657 25.3291 25.7785 25.6831C25.0872 26.1004 24.2299 26.6188 22.8788 26.3079ZM14.7128 16.6879C13.8574 16.4902 13.115 15.9627 12.6485 15.2212C12.182 14.4798 12.0296 13.585 12.2247 12.7331C12.4216 11.8816 12.9497 11.1433 13.6933 10.6801C14.4369 10.217 15.3353 10.0668 16.1912 10.2626C17.2884 10.515 17.9763 11.6083 17.725 12.7004C17.4737 13.7925 16.3772 14.4753 15.28 14.2228C15.0809 14.177 14.9081 14.0544 14.7996 13.8819C14.6911 13.7094 14.6557 13.5011 14.7013 13.303C14.7469 13.1048 14.8697 12.933 15.0427 12.8253C15.2157 12.7175 15.4248 12.6827 15.6238 12.7286C15.75 12.7498 15.8794 12.7224 15.9857 12.6517C16.092 12.5811 16.1671 12.4726 16.1956 12.3485C16.2242 12.2245 16.2041 12.0941 16.1393 11.9841C16.0746 11.8741 15.9702 11.7928 15.8474 11.7569C15.3896 11.6522 14.9091 11.7326 14.5114 11.9804C14.1137 12.2281 13.8312 12.6231 13.7259 13.0785C13.508 14.0255 14.1053 14.9748 15.0566 15.1937C16.6917 15.5699 18.3259 14.5523 18.7004 12.9249C19.0748 11.2974 18.0497 9.66796 16.4146 9.29174C15.3 9.03669 14.1301 9.23215 13.1618 9.83524C12.1934 10.4383 11.5056 11.3998 11.2493 12.5087C11.2037 12.7068 11.0809 12.8787 10.9079 12.9864C10.7349 13.0941 10.5258 13.1289 10.3268 13.0831C10.1277 13.0373 9.95487 12.9147 9.84634 12.7421C9.73781 12.5696 9.70245 12.3614 9.74805 12.1633C10.096 10.6583 11.0295 9.35346 12.3438 8.535C13.658 7.71654 15.2457 7.4513 16.7584 7.79747C19.2213 8.36417 20.7657 10.8188 20.2016 13.2703C19.6376 15.7217 17.1766 17.2548 14.7128 16.6879ZM26.0442 19.2952C23.5813 18.7285 22.037 16.2738 22.601 13.8224C23.1651 11.3709 25.6269 9.83805 28.0898 10.4048C29.8699 10.8143 30.9863 12.5888 30.5788 14.3598C30.1714 16.1307 28.3915 17.2397 26.6114 16.8301C25.5151 16.5778 24.8272 15.4845 25.0785 14.3924C25.3298 13.3003 26.4263 12.6176 27.5226 12.8699C27.7217 12.9157 27.8945 13.0383 28.0031 13.2108C28.1116 13.3833 28.1469 13.5916 28.1014 13.7897C28.0558 13.9879 27.9329 14.1597 27.7599 14.2674C27.5869 14.3752 27.3779 14.4099 27.1788 14.3641C27.0527 14.3428 26.9232 14.3703 26.8169 14.441C26.7107 14.5116 26.6356 14.62 26.607 14.7441C26.5784 14.8682 26.5986 14.9986 26.6633 15.1086C26.7281 15.2186 26.8325 15.2998 26.9552 15.3358C27.4132 15.4405 27.8937 15.3602 28.2916 15.1124C28.6894 14.8647 28.9721 14.4698 29.0776 14.0143C29.1817 13.5586 29.1 13.08 28.8504 12.6834C28.6008 12.2869 28.2036 12.0048 27.746 11.899C26.9598 11.7191 26.1346 11.8569 25.4515 12.2822C24.7684 12.7075 24.2832 13.3857 24.1023 14.1678C23.9232 14.9504 24.0632 15.7724 24.4917 16.4535C24.9203 17.1346 25.6022 17.6192 26.388 17.8009C27.5025 18.056 28.6722 17.8606 29.6405 17.2577C30.6088 16.6548 31.2966 15.6935 31.5532 14.5848C31.5988 14.3867 31.7216 14.2149 31.8946 14.1071C32.0676 13.9994 32.2766 13.9646 32.4757 14.0104C32.6748 14.0562 32.8476 14.1789 32.9561 14.3514C33.0646 14.5239 33.1 14.7321 33.0544 14.9303C32.335 18.0607 29.1891 20.0188 26.0442 19.2952Z" fill="#23273D"/>
<g clip-path="url(#clip1_325_7440)">
<path d="M29.5398 27.0639L29.535 28.5002L31.8459 27.9013L30.5773 27.0371L29.5398 27.0639ZM38.8118 34.5911C38.8118 34.0993 39.1406 33.6962 39.5679 33.624V28.5862C37.8395 28.1705 24.8766 31.6934 24.8766 31.6934V33.2213C25.5524 33.3483 26.0649 33.9395 26.0649 34.6524C26.0649 35.3654 25.5524 35.9574 24.8766 36.0844V39.4185L39.5679 36.6176V35.5585C39.1406 35.4859 38.8118 35.0824 38.8118 34.5911Z" fill="#FFAC33"/>
<path d="M31.1787 25.4132L29.5182 27.0738C29.8366 27.1481 30.0618 27.3291 30.0618 27.5413C30.0618 27.82 29.6746 28.0456 29.1976 28.0456C28.9928 28.0456 28.8074 28.0023 28.6596 27.9332L24.8766 31.7158C30.566 30.458 34.4009 29.4317 39.6112 28.5935C37.5103 25.7926 32.5796 25.4132 31.1787 25.4132Z" fill="#FFD983"/>
<path d="M33.0865 26.6771C33.0865 26.9558 32.6993 27.1814 32.2223 27.1814C31.7452 27.1814 31.3581 26.9558 31.3581 26.6771C31.3581 26.3984 31.7452 26.1729 32.2223 26.1729C32.6993 26.1729 33.0865 26.3984 33.0865 26.6771ZM30.9571 29.4404C30.9571 29.863 30.3699 30.2056 29.6452 30.2056C28.9206 30.2056 28.3334 29.863 28.3334 29.4404C28.3334 29.0182 28.9206 28.6751 29.6452 28.6751C30.3694 28.6756 30.9571 29.0182 30.9571 29.4404ZM36.9753 28.0533C36.9753 28.5261 36.3181 28.9093 35.5079 28.9093C34.6978 28.9093 34.0405 28.5261 34.0405 28.0533C34.0405 27.5806 34.6978 27.1974 35.5079 27.1974C36.3181 27.1974 36.9753 27.5806 36.9753 28.0533Z" fill="#FFAC33"/>
<path d="M38.9738 31.1939C38.9738 31.7694 38.5508 32.2357 38.0284 32.2357C37.506 32.2357 37.0829 31.7694 37.0829 31.1939C37.0829 30.6183 37.506 30.1521 38.0284 30.1521C38.5508 30.1521 38.9738 30.6183 38.9738 31.1939ZM29.3596 33.2948C29.3596 33.837 28.9608 34.2765 28.4686 34.2765C27.9765 34.2765 27.5776 33.8366 27.5776 33.2948C27.5776 32.752 27.9765 32.3126 28.4686 32.3126C28.9608 32.3126 29.3596 32.7525 29.3596 33.2948ZM36.7727 35.4466C36.5554 35.7067 36.1872 35.7577 35.9504 35.5598C35.7141 35.3623 35.6989 34.9907 35.9171 34.7306C36.1354 34.4692 36.5031 34.4186 36.7394 34.6161C36.9762 34.814 36.9909 35.1852 36.7727 35.4466ZM32.5883 32.2586C32.2957 32.609 31.7997 32.6777 31.4812 32.4111C31.1632 32.1454 31.1429 31.645 31.4363 31.295C31.7301 30.9433 32.2253 30.8754 32.5433 31.1412C32.8618 31.4073 32.8821 31.9073 32.5883 32.2586ZM32.9655 36.5861C32.447 37.2791 31.5162 37.4593 30.8879 36.9892C30.2592 36.5191 30.1694 35.5754 30.6879 34.8827C31.2064 34.1892 32.1371 34.009 32.7654 34.4787C33.3941 34.9488 33.484 35.8925 32.9655 36.5861Z" fill="#F4900C"/>
</g>
</g>
<defs>
<clipPath id="clip0_325_7440">
<rect width="40" height="40" fill="white"/>
</clipPath>
<clipPath id="clip1_325_7440">
<rect width="15.5556" height="15.5556" fill="white" transform="translate(24.4445 24.4445)"/>
</clipPath>
</defs>
</svg>
