<svg width="48" height="48" viewBox="0 0 48 48" fill="none" xmlns="http://www.w3.org/2000/svg">
<g clip-path="url(#clip0_325_7465)">
<path d="M47.5 24C47.5 36.9785 36.9785 47.5 24 47.5C11.0215 47.5 0.5 36.9785 0.5 24C0.5 11.0215 11.0215 0.5 24 0.5C36.9785 0.5 47.5 11.0215 47.5 24Z" fill="white" stroke="#23273D"/>
<path d="M31.3133 38.5054C31.2987 38.4467 29.7867 32.6667 24 32.6667C18.2133 32.6667 16.7013 38.4467 16.6867 38.5054C16.6535 38.6435 16.6657 38.7886 16.7214 38.9192C16.7771 39.0498 16.8734 39.1591 16.996 39.2307C17.12 39.3029 17.2636 39.3341 17.4063 39.3197C17.549 39.3053 17.6836 39.2462 17.7907 39.1507C17.8027 39.1401 19.1413 38.0001 24 38.0001C28.7867 38.0001 30.156 39.1067 30.208 39.1507C30.3127 39.2499 30.4467 39.3125 30.59 39.329C30.7333 39.3456 30.8781 39.3152 31.0026 39.2425C31.1272 39.1698 31.2248 39.0586 31.2808 38.9257C31.3368 38.7928 31.3482 38.6453 31.3133 38.5054ZM38.6667 16.0001C31.2613 16.0001 28.264 10.1774 28.14 9.92939C27.981 9.61343 27.9541 9.24726 28.0651 8.91145C28.1762 8.57563 28.416 8.29768 28.732 8.13872C29.048 7.97977 29.4141 7.95284 29.7499 8.06386C30.0858 8.17489 30.3637 8.41476 30.5227 8.73072C30.6227 8.92539 32.9507 13.3334 38.6667 13.3334C39.0203 13.3334 39.3594 13.4739 39.6095 13.7239C39.8595 13.974 40 14.3131 40 14.6667C40 15.0203 39.8595 15.3595 39.6095 15.6095C39.3594 15.8596 39.0203 16.0001 38.6667 16.0001ZM9.33333 16.0001C8.97971 16.0001 8.64057 15.8596 8.39052 15.6095C8.14048 15.3595 8 15.0203 8 14.6667C8 14.3131 8.14048 13.974 8.39052 13.7239C8.64057 13.4739 8.97971 13.3334 9.33333 13.3334C16.1107 13.3334 17.328 9.17339 17.3773 8.99606C17.4705 8.65706 17.693 8.36815 17.9969 8.19139C18.3008 8.01463 18.6619 7.96413 19.0027 8.05072C19.7093 8.23606 20.1373 8.94806 19.96 9.65739C19.8947 9.91606 18.272 16.0001 9.33333 16.0001Z" fill="#23273D"/>
<path d="M16 26.6667C17.8409 26.6667 19.3333 24.5774 19.3333 22C19.3333 19.4227 17.8409 17.3334 16 17.3334C14.159 17.3334 12.6666 19.4227 12.6666 22C12.6666 24.5774 14.159 26.6667 16 26.6667Z" fill="#23273D"/>
<path d="M32 26.6667C33.8409 26.6667 35.3333 24.5774 35.3333 22C35.3333 19.4227 33.8409 17.3334 32 17.3334C30.159 17.3334 28.6666 19.4227 28.6666 22C28.6666 24.5774 30.159 26.6667 32 26.6667Z" fill="#23273D"/>
<path d="M39.3333 36.6667C39.3333 40.3494 36.3493 43.3334 32.6667 43.3334C28.984 43.3334 26 40.3494 26 36.6667C26 32.984 31.3333 23.3334 32.6667 23.3334C34 23.3334 39.3333 32.984 39.3333 36.6667Z" fill="#5DADEC"/>
</g>
<defs>
<clipPath id="clip0_325_7465">
<rect width="48" height="48" fill="white"/>
</clipPath>
</defs>
</svg>
