<svg width="40" height="40" viewBox="0 0 40 40" fill="none" xmlns="http://www.w3.org/2000/svg">
<g clip-path="url(#clip0_325_7423)">
<path d="M39.5 20C39.5 30.7694 30.7694 39.5 20 39.5C9.23168 39.5 0.5 30.7694 0.5 20C0.5 9.2317 9.2317 0.5 20 0.5C30.7694 0.5 39.5 9.23168 39.5 20Z" fill="white" stroke="#23273D"/>
<path d="M6.66668 14.4444C6.52077 14.4447 6.37622 14.4163 6.24131 14.3607C6.10639 14.3051 5.98374 14.2235 5.88035 14.1206C5.67156 13.9126 5.55394 13.6302 5.55335 13.3355C5.55276 13.0408 5.66926 12.758 5.87721 12.5492C6.08517 12.3404 6.36755 12.2228 6.66224 12.2222C6.83557 12.22 10.6278 12.1266 13.5567 8.2222C13.7335 7.98645 13.9967 7.8306 14.2884 7.78892C14.5802 7.74725 14.8765 7.82317 15.1122 7.99998C15.348 8.17679 15.5038 8.44001 15.5455 8.73173C15.5872 9.02346 15.5113 9.31979 15.3345 9.55553C11.7089 14.3889 6.87112 14.4444 6.66668 14.4444ZM33.3333 14.4444C33.1289 14.4444 28.2922 14.3889 24.6667 9.55553C24.5742 9.43928 24.5059 9.30567 24.466 9.16258C24.426 9.0195 24.4152 8.86985 24.4341 8.7225C24.4529 8.57515 24.5012 8.43308 24.5759 8.30469C24.6507 8.17631 24.7504 8.06422 24.8692 7.97505C24.988 7.88588 25.1235 7.82144 25.2677 7.78554C25.4118 7.74965 25.5617 7.74303 25.7085 7.76607C25.8553 7.78911 25.9959 7.84135 26.1221 7.9197C26.2483 7.99805 26.3576 8.10091 26.4433 8.2222C29.3778 12.1344 33.1778 12.2211 33.3389 12.2222C33.95 12.2289 34.4433 12.7289 34.44 13.3389C34.4397 13.6322 34.323 13.9134 34.1155 14.1207C33.908 14.328 33.6267 14.4444 33.3333 14.4444ZM6.66779 24.4444C6.43478 24.4443 6.20769 24.371 6.01863 24.2348C5.82958 24.0986 5.68813 23.9064 5.6143 23.6854C5.54047 23.4644 5.53799 23.2257 5.6072 23.0033C5.67642 22.7808 5.81384 22.5857 6.00001 22.4455C6.1589 22.3266 9.2789 20.02 13.6178 19.1866C10.8678 17.8078 7.81557 17.7778 7.77668 17.7778C7.4906 17.7648 7.22053 17.642 7.02271 17.435C6.82489 17.2279 6.71457 16.9525 6.71471 16.6661C6.71486 16.3797 6.82546 16.1045 7.02348 15.8976C7.22151 15.6907 7.4917 15.5682 7.77779 15.5555C8.02335 15.5555 13.8356 15.5978 17.4522 19.2144C17.6076 19.3698 17.7134 19.5678 17.7562 19.7833C17.7991 19.9988 17.7771 20.2222 17.693 20.4252C17.6089 20.6282 17.4665 20.8017 17.2839 20.9238C17.1012 21.0459 16.8864 21.111 16.6667 21.1111C11.5411 21.1111 7.37446 24.1911 7.33335 24.2222C7.14147 24.3665 6.90787 24.4445 6.66779 24.4444ZM33.3322 24.4433C33.0928 24.4436 32.8597 24.3665 32.6678 24.2233C32.6256 24.1911 28.4333 21.1111 23.3333 21.1111C23.1134 21.1116 22.8982 21.0467 22.7152 20.9247C22.5322 20.8027 22.3895 20.6291 22.3054 20.4258C22.2212 20.2226 22.1993 19.999 22.2425 19.7833C22.2856 19.5676 22.3919 19.3696 22.5478 19.2144C26.1656 15.5978 31.9767 15.5555 32.2222 15.5555C32.3682 15.5554 32.5127 15.584 32.6475 15.6397C32.7824 15.6954 32.905 15.7771 33.0082 15.8802C33.1115 15.9833 33.1935 16.1057 33.2495 16.2404C33.3054 16.3752 33.3343 16.5196 33.3345 16.6655C33.3346 16.8114 33.306 16.956 33.2503 17.0908C33.1946 17.2257 33.1129 17.3483 33.0098 17.4515C32.9067 17.5548 32.7843 17.6368 32.6496 17.6928C32.5148 17.7487 32.3704 17.7776 32.2245 17.7778C32.1845 17.7778 29.1322 17.8078 26.3822 19.1866C30.7211 20.02 33.8411 22.3255 33.9989 22.4455C34.1845 22.5857 34.3215 22.7807 34.3905 23.0028C34.4594 23.225 34.4569 23.4632 34.3833 23.6839C34.3096 23.9046 34.1686 24.0966 33.98 24.2328C33.7914 24.3691 33.5649 24.4427 33.3322 24.4433ZM20 33.3333C19.8334 33.3334 19.6689 33.296 19.5187 33.2238C19.3684 33.1517 19.2364 33.0467 19.1322 32.9166L15.5833 28.4811L13.1111 31.7778C13.0158 31.9054 12.8941 32.011 12.7544 32.0874C12.6146 32.1638 12.46 32.2092 12.3011 32.2204C12.1422 32.2317 11.9828 32.2086 11.8336 32.1528C11.6844 32.0969 11.5491 32.0095 11.4367 31.8966L10.3256 30.7855C10.2224 30.6824 10.1406 30.5599 10.0847 30.4251C10.0289 30.2903 10.0002 30.1459 10.0002 30C10.0002 29.8541 10.0289 29.7096 10.0847 29.5748C10.1406 29.4401 10.2224 29.3176 10.3256 29.2144C10.5339 29.0061 10.8165 28.889 11.1111 28.889C11.257 28.889 11.4015 28.9178 11.5363 28.9736C11.6711 29.0294 11.7935 29.1113 11.8967 29.2144L12.1022 29.42L14.6667 26C14.7679 25.8637 14.8991 25.7526 15.0501 25.6751C15.2011 25.5977 15.3679 25.556 15.5376 25.5533C15.7073 25.5506 15.8754 25.587 16.0288 25.6596C16.1821 25.7323 16.3168 25.8392 16.4222 25.9722L20 30.4433L23.5767 25.9722C23.7911 25.7044 24.1145 25.5555 24.4622 25.5555C24.8067 25.5611 25.1278 25.7244 25.3333 26L27.8989 29.4189L28.1045 29.2133C28.2076 29.1102 28.3301 29.0283 28.4649 28.9725C28.5997 28.9167 28.7441 28.8879 28.89 28.8879C29.0359 28.8879 29.1804 28.9167 29.3152 28.9725C29.4499 29.0283 29.5724 29.1102 29.6756 29.2133C29.7787 29.3165 29.8606 29.4389 29.9164 29.5737C29.9722 29.7085 30.001 29.853 30.001 29.9989C30.001 30.1448 29.9722 30.2892 29.9164 30.424C29.8606 30.5588 29.7787 30.6813 29.6756 30.7844L28.5645 31.8955C28.453 32.0096 28.3177 32.0976 28.1682 32.1533C28.0188 32.209 27.8589 32.231 27.7 32.2178C27.5413 32.2065 27.3868 32.1613 27.2471 32.0852C27.1073 32.0091 26.9856 31.9039 26.89 31.7766L24.4167 28.48L20.8689 32.9155C20.7646 33.0458 20.6324 33.151 20.482 33.2234C20.3316 33.2957 20.1669 33.3332 20 33.3333Z" fill="#23273D"/>
<g clip-path="url(#clip1_325_7423)">
<path d="M37.9013 26.1728C37.9013 27.4691 36.3535 28.7654 34.4445 28.7654C32.5354 28.7654 30.9877 27.4691 30.9877 26.1728C30.9877 24.2638 33.5803 24.4445 34.4445 24.4445C35.3087 24.4445 37.9013 24.2638 37.9013 26.1728Z" fill="#66757F"/>
<path d="M37.1692 29.6296H31.7195C31.515 29.6296 31.317 29.7022 31.1609 29.8344C31.0048 29.9666 30.9006 30.1499 30.867 30.3517L29.4268 38.9937C29.4062 39.1175 29.4127 39.2443 29.4461 39.3653C29.4794 39.4863 29.5387 39.5986 29.6198 39.6944C29.701 39.7902 29.802 39.8671 29.9159 39.9199C30.0298 39.9727 30.1538 40 30.2793 40H38.6093C38.7349 40 38.8589 39.9727 38.9728 39.9199C39.0867 39.8671 39.1877 39.7902 39.2688 39.6944C39.35 39.5986 39.4093 39.4863 39.4426 39.3653C39.476 39.2443 39.4825 39.1175 39.4619 38.9937L38.0217 30.3517C37.988 30.1499 37.8838 29.9667 37.7277 29.8345C37.5716 29.7023 37.3737 29.6297 37.1692 29.6296Z" fill="#CCD6DD"/>
<path d="M35.0252 30.4938H32.086C31.9837 30.4938 31.8847 30.5301 31.8067 30.5963C31.7287 30.6624 31.6767 30.7541 31.66 30.8551L30.3637 38.6328C30.3532 38.6947 30.3564 38.7581 30.373 38.8186C30.3896 38.8791 30.4192 38.9353 30.4597 38.9831C30.5002 39.031 30.5507 39.0695 30.6076 39.0959C30.6646 39.1222 30.7266 39.1359 30.7893 39.1358H35.2948L35.0252 30.4938ZM37.2293 30.8551C37.2125 30.7542 37.1605 30.6625 37.0825 30.5964C37.0045 30.5302 36.9055 30.4939 36.8032 30.4938H35.7606L36.1534 39.1358H38.1C38.1627 39.1358 38.2247 39.1221 38.2816 39.0957C38.3385 39.0693 38.3889 39.0309 38.4295 38.983C38.47 38.9351 38.4997 38.879 38.5163 38.8186C38.533 38.7581 38.5363 38.6947 38.526 38.6328L37.2293 30.8551Z" fill="#F5F8FA"/>
<path d="M33.1482 25.3519C33.4345 25.3519 33.6667 25.2358 33.6667 25.0926C33.6667 24.9494 33.4345 24.8334 33.1482 24.8334C32.8618 24.8334 32.6296 24.9494 32.6296 25.0926C32.6296 25.2358 32.8618 25.3519 33.1482 25.3519Z" fill="#CCD6DD"/>
<path d="M35.7407 25.3519C36.0271 25.3519 36.2592 25.2358 36.2592 25.0926C36.2592 24.9494 36.0271 24.8334 35.7407 24.8334C35.4543 24.8334 35.2222 24.9494 35.2222 25.0926C35.2222 25.2358 35.4543 25.3519 35.7407 25.3519Z" fill="#CCD6DD"/>
<path d="M34.4444 26.2161C34.7308 26.2161 34.9629 26.1 34.9629 25.9568C34.9629 25.8136 34.7308 25.6976 34.4444 25.6976C34.1581 25.6976 33.9259 25.8136 33.9259 25.9568C33.9259 26.1 34.1581 26.2161 34.4444 26.2161Z" fill="#CCD6DD"/>
<path d="M37.4691 29.6296H31.4197V28.5615C31.4197 28.1968 31.7152 28.0162 32.0799 28.0162H36.8088C37.1735 28.0162 37.4691 28.1968 37.4691 28.5615V29.6296Z" fill="#66757F"/>
<path d="M36.8088 27.9012H32.0799C31.796 27.9012 31.5558 28.0814 31.4625 28.3333H37.4259C37.3329 28.0814 37.0931 27.9012 36.8088 27.9012ZM31.4197 28.7654H37.4691V29.1975H31.4197V28.7654ZM31.4197 29.6296H37.4691V29.8457H31.4197V29.6296Z" fill="#CCD6DD"/>
</g>
</g>
<defs>
<clipPath id="clip0_325_7423">
<rect width="40" height="40" fill="white"/>
</clipPath>
<clipPath id="clip1_325_7423">
<rect width="15.5556" height="15.5556" fill="white" transform="translate(26.6666 24.4445)"/>
</clipPath>
</defs>
</svg>
