<svg width="40" height="40" viewBox="0 0 40 40" fill="none" xmlns="http://www.w3.org/2000/svg">
<g clip-path="url(#clip0_325_7428)">
<path d="M39.5 20C39.5 30.7696 30.7696 39.5 20 39.5C9.23045 39.5 0.5 30.7696 0.5 20C0.5 9.23045 9.23045 0.5 20 0.5C30.7696 0.5 39.5 9.23045 39.5 20Z" fill="white" stroke="#23273D"/>
<path d="M11.6833 26.2456C11.7333 26.4445 12.9811 31.1111 20 31.1111C27.02 31.1111 28.2667 26.4445 28.3167 26.2456C28.3459 26.1283 28.3359 26.0047 28.2884 25.8936C28.2409 25.7825 28.1583 25.6899 28.0533 25.63C27.9479 25.5704 27.8259 25.5465 27.7058 25.5619C27.5856 25.5774 27.4737 25.6313 27.3867 25.7156C27.3656 25.7367 25.2156 27.7778 20 27.7778C14.7844 27.7778 12.6333 25.7367 12.6133 25.7167C12.5273 25.6317 12.416 25.5769 12.2961 25.5607C12.1763 25.5445 12.0544 25.5676 11.9489 25.6267C11.843 25.6865 11.7596 25.7795 11.7116 25.8913C11.6637 26.0031 11.6537 26.1276 11.6833 26.2456Z" fill="#23273D"/>
<path d="M13.3333 18.8889C14.8674 18.8889 16.1111 17.1477 16.1111 15C16.1111 12.8522 14.8674 11.1111 13.3333 11.1111C11.7992 11.1111 10.5555 12.8522 10.5555 15C10.5555 17.1477 11.7992 18.8889 13.3333 18.8889Z" fill="#23273D"/>
<path d="M26.6667 18.8889C28.2008 18.8889 29.4445 17.1477 29.4445 15C29.4445 12.8522 28.2008 11.1111 26.6667 11.1111C25.1326 11.1111 23.8889 12.8522 23.8889 15C23.8889 17.1477 25.1326 18.8889 26.6667 18.8889Z" fill="#23273D"/>
<g clip-path="url(#clip1_325_7428)">
<path d="M29.5398 27.0639L29.535 28.5002L31.8459 27.9013L30.5773 27.0371L29.5398 27.0639ZM38.8118 34.5911C38.8118 34.0993 39.1406 33.6962 39.5679 33.624V28.5862C37.8395 28.1705 24.8766 31.6934 24.8766 31.6934V33.2213C25.5524 33.3483 26.0649 33.9395 26.0649 34.6524C26.0649 35.3654 25.5524 35.9574 24.8766 36.0844V39.4185L39.5679 36.6176V35.5585C39.1406 35.4859 38.8118 35.0824 38.8118 34.5911Z" fill="#FFAC33"/>
<path d="M31.1787 25.4132L29.5182 27.0738C29.8366 27.1481 30.0618 27.3291 30.0618 27.5413C30.0618 27.82 29.6746 28.0456 29.1976 28.0456C28.9928 28.0456 28.8074 28.0023 28.6596 27.9332L24.8766 31.7158C30.566 30.458 34.4009 29.4317 39.6112 28.5935C37.5103 25.7926 32.5796 25.4132 31.1787 25.4132Z" fill="#FFD983"/>
<path d="M33.0865 26.6771C33.0865 26.9558 32.6993 27.1814 32.2223 27.1814C31.7452 27.1814 31.3581 26.9558 31.3581 26.6771C31.3581 26.3984 31.7452 26.1729 32.2223 26.1729C32.6993 26.1729 33.0865 26.3984 33.0865 26.6771ZM30.9571 29.4404C30.9571 29.863 30.3699 30.2056 29.6452 30.2056C28.9206 30.2056 28.3334 29.863 28.3334 29.4404C28.3334 29.0182 28.9206 28.6751 29.6452 28.6751C30.3694 28.6756 30.9571 29.0182 30.9571 29.4404ZM36.9753 28.0533C36.9753 28.5261 36.3181 28.9093 35.5079 28.9093C34.6978 28.9093 34.0405 28.5261 34.0405 28.0533C34.0405 27.5806 34.6978 27.1974 35.5079 27.1974C36.3181 27.1974 36.9753 27.5806 36.9753 28.0533Z" fill="#FFAC33"/>
<path d="M38.9738 31.1939C38.9738 31.7694 38.5508 32.2357 38.0284 32.2357C37.506 32.2357 37.0829 31.7694 37.0829 31.1939C37.0829 30.6183 37.506 30.1521 38.0284 30.1521C38.5508 30.1521 38.9738 30.6183 38.9738 31.1939ZM29.3596 33.2948C29.3596 33.837 28.9608 34.2765 28.4686 34.2765C27.9765 34.2765 27.5776 33.8366 27.5776 33.2948C27.5776 32.752 27.9765 32.3126 28.4686 32.3126C28.9608 32.3126 29.3596 32.7525 29.3596 33.2948ZM36.7727 35.4466C36.5554 35.7067 36.1872 35.7577 35.9504 35.5598C35.7141 35.3623 35.6989 34.9907 35.9171 34.7306C36.1354 34.4692 36.5031 34.4186 36.7394 34.6161C36.9762 34.814 36.9909 35.1852 36.7727 35.4466ZM32.5883 32.2586C32.2957 32.609 31.7997 32.6777 31.4812 32.4111C31.1632 32.1454 31.1429 31.645 31.4363 31.295C31.7301 30.9433 32.2253 30.8754 32.5433 31.1412C32.8618 31.4073 32.8821 31.9073 32.5883 32.2586ZM32.9655 36.5861C32.447 37.2791 31.5162 37.4593 30.8879 36.9892C30.2592 36.5191 30.1694 35.5754 30.6879 34.8827C31.2064 34.1892 32.1371 34.009 32.7654 34.4787C33.3941 34.9488 33.484 35.8925 32.9655 36.5861Z" fill="#F4900C"/>
</g>
</g>
<defs>
<clipPath id="clip0_325_7428">
<rect width="40" height="40" fill="white"/>
</clipPath>
<clipPath id="clip1_325_7428">
<rect width="15.5556" height="15.5556" fill="white" transform="translate(24.4445 24.4445)"/>
</clipPath>
</defs>
</svg>
