<svg width="40" height="40" viewBox="0 0 40 40" fill="none" xmlns="http://www.w3.org/2000/svg">
<g clip-path="url(#clip0_325_7434)">
<path d="M8.88893 21.1111C8.88893 23.5655 7.6456 25.5555 6.11115 25.5555C4.57671 25.5555 3.33337 23.5655 3.33337 21.1111C3.33337 18.6566 4.57671 16.6666 6.11115 16.6666C7.6456 16.6666 8.88893 18.6566 8.88893 21.1111ZM36.6667 21.1111C36.6667 23.5655 35.4234 25.5555 33.8889 25.5555C32.3545 25.5555 31.1112 23.5655 31.1112 21.1111C31.1112 18.6566 32.3545 16.6666 33.8889 16.6666C35.4234 16.6666 36.6667 18.6566 36.6667 21.1111Z" fill="#F7DECE"/>
<path d="M5.55554 22.8467C5.55554 13.3734 12.0222 5.69336 20 5.69336C27.9778 5.69336 34.4444 13.3734 34.4444 22.8467C34.4444 32.32 27.9778 40 20 40C12.0222 40 5.55554 32.32 5.55554 22.8467Z" fill="#F7DECE"/>
<path d="M14.4445 22.2223C14.1498 22.2223 13.8672 22.1052 13.6588 21.8968C13.4504 21.6885 13.3334 21.4059 13.3334 21.1112V18.8889C13.3334 18.5943 13.4504 18.3116 13.6588 18.1033C13.8672 17.8949 14.1498 17.7778 14.4445 17.7778C14.7392 17.7778 15.0218 17.8949 15.2302 18.1033C15.4385 18.3116 15.5556 18.5943 15.5556 18.8889V21.1112C15.5556 21.4059 15.4385 21.6885 15.2302 21.8968C15.0218 22.1052 14.7392 22.2223 14.4445 22.2223ZM25.5556 22.2223C25.2609 22.2223 24.9783 22.1052 24.7699 21.8968C24.5615 21.6885 24.4445 21.4059 24.4445 21.1112V18.8889C24.4445 18.5943 24.5615 18.3116 24.7699 18.1033C24.9783 17.8949 25.2609 17.7778 25.5556 17.7778C25.8503 17.7778 26.1329 17.8949 26.3413 18.1033C26.5496 18.3116 26.6667 18.5943 26.6667 18.8889V21.1112C26.6667 21.4059 26.5496 21.6885 26.3413 21.8968C26.1329 22.1052 25.8503 22.2223 25.5556 22.2223Z" fill="#23273D"/>
<path d="M21.1112 26.6667H18.8889C18.5943 26.6667 18.3116 26.5496 18.1033 26.3412C17.8949 26.1329 17.7778 25.8503 17.7778 25.5556C17.7778 25.2609 17.8949 24.9783 18.1033 24.7699C18.3116 24.5615 18.5943 24.4445 18.8889 24.4445H21.1112C21.4059 24.4445 21.6885 24.5615 21.8968 24.7699C22.1052 24.9783 22.2223 25.2609 22.2223 25.5556C22.2223 25.8503 22.1052 26.1329 21.8968 26.3412C21.6885 26.5496 21.4059 26.6667 21.1112 26.6667Z" fill="#C1694F"/>
<path d="M28.0822 30.0422L24.4222 28.9967C24.4256 28.9589 24.4445 28.9267 24.4445 28.8889C24.4445 28.5942 24.3274 28.3116 24.119 28.1032C23.9106 27.8948 23.628 27.7778 23.3333 27.7778H16.6667C16.372 27.7778 16.0894 27.8948 15.881 28.1032C15.6726 28.3116 15.5556 28.5942 15.5556 28.8889C15.5556 28.9267 15.5733 28.9589 15.5767 28.9967L11.9167 30.0422C11.6332 30.1233 11.3935 30.3136 11.2504 30.5714C11.1072 30.8291 11.0723 31.1332 11.1533 31.4167C11.2344 31.7002 11.4247 31.9398 11.6825 32.083C11.9402 32.2261 12.2443 32.261 12.5278 32.18L14.6733 31.5667C14.5499 31.7296 14.4742 31.9236 14.4546 32.127C14.4349 32.3305 14.4722 32.5354 14.5622 32.7189C14.6272 32.8496 14.7173 32.9662 14.8274 33.062C14.9375 33.1578 15.0655 33.2309 15.2039 33.2771C15.3423 33.3234 15.4885 33.3418 15.6341 33.3315C15.7797 33.3211 15.9218 33.2821 16.0522 33.2167L17.8045 32.3411C17.8203 32.5249 17.8825 32.7016 17.9853 32.8548C18.0881 33.0079 18.2281 33.1325 18.3922 33.2167C18.6561 33.3476 18.9611 33.3688 19.2405 33.2755C19.5199 33.1822 19.751 32.9821 19.8833 32.7189L20 32.4844L20.1167 32.7189C20.1819 32.8495 20.2721 32.966 20.3824 33.0618C20.4926 33.1575 20.6206 33.2306 20.7591 33.2768C20.8976 33.323 21.0438 33.3415 21.1894 33.3312C21.335 33.3209 21.4772 33.282 21.6078 33.2167C21.7718 33.1323 21.9117 33.0077 22.0145 32.8546C22.1173 32.7015 22.1796 32.5248 22.1956 32.3411L23.9467 33.2167C24.0773 33.2821 24.2196 33.3212 24.3653 33.3316C24.5111 33.342 24.6574 33.3235 24.796 33.2773C24.9347 33.2311 25.0628 33.1579 25.1731 33.0621C25.2834 32.9663 25.3737 32.8497 25.4389 32.7189C25.5289 32.5354 25.5662 32.3305 25.5466 32.127C25.527 31.9236 25.4512 31.7296 25.3278 31.5667L27.4733 32.18C27.7527 32.2481 28.0477 32.2053 28.2962 32.0606C28.5447 31.916 28.7276 31.6806 28.8063 31.4041C28.8851 31.1275 28.8537 30.8312 28.7187 30.5772C28.5837 30.3233 28.3556 30.1316 28.0822 30.0422ZM20 0C29.5722 0 35.5556 7.06445 35.5556 12.9511C35.5556 18.8378 34.3589 21.1922 33.1622 18.8378L30.77 14.1289C30.77 14.1289 23.59 14.1289 21.1978 11.7733C21.1978 11.7733 24.7867 18.8378 17.6078 11.7733C17.6078 11.7733 18.8045 16.4833 11.6245 10.5956C11.6245 10.5956 8.03557 12.9511 6.83779 18.8367C6.50557 20.47 4.44446 18.8378 4.44446 12.9511C4.44446 7.06333 9.23112 0 20 0Z" fill="#23273D"/>
</g>
<defs>
<clipPath id="clip0_325_7434">
<rect width="40" height="40" fill="white"/>
</clipPath>
</defs>
</svg>
