<svg width="40" height="40" viewBox="0 0 40 40" fill="none" xmlns="http://www.w3.org/2000/svg">
<g clip-path="url(#clip0_325_7427)">
<path d="M39.4203 33.8406L39.4193 33.8378C39.2081 33.177 38.5249 32.7222 37.7612 32.7222H35.5556C35.1283 32.7222 34.7185 32.5524 34.4164 32.2503C34.1142 31.9482 33.9445 31.5384 33.9445 31.1111C33.9445 30.6838 34.1142 30.274 34.4164 29.9718C34.7185 29.6697 35.1283 29.5 35.5556 29.5H37.2186C37.3708 29.4975 37.521 29.4654 37.6609 29.4052C37.8017 29.3447 37.9291 29.2571 38.036 29.1473C38.1429 29.0375 38.2272 28.9077 38.2839 28.7654C38.3406 28.6231 38.3688 28.471 38.3668 28.3177C38.3647 28.1645 38.3325 28.0132 38.272 27.8724C38.2115 27.7317 38.1238 27.6042 38.014 27.4973C37.9043 27.3904 37.7745 27.3062 37.6322 27.2494C37.4907 27.193 37.3395 27.1649 37.1872 27.1666C36.0184 27.1952 35.0556 26.254 35.0556 25.0855V25.0822C35.0556 24.6872 35.1367 24.3033 35.292 23.9431L35.2944 23.9375L35.2945 23.9375C36.3793 21.5033 36.8581 18.8424 36.6899 16.1826L36.6899 16.1823C36.1593 7.68772 29.0709 0.790073 20.5658 0.509696C11.0714 0.196812 3.27782 7.79942 3.27782 17.2222C3.27782 19.7785 3.86848 22.1924 4.89637 24.3626L4.94449 24.4642V24.5766V26.6655C4.94449 28.1228 3.78204 29.4169 2.26704 29.3877L2.26646 29.3876C2.02521 29.3827 1.78562 29.4285 1.56322 29.5221C1.34081 29.6156 1.14055 29.7549 0.975414 29.9308C0.810279 30.1068 0.683955 30.3155 0.604632 30.5433C0.52531 30.7712 0.494757 31.0132 0.514956 31.2537L0.515072 31.2551C0.58646 32.1341 1.40834 32.8333 2.37004 32.8333L11.3008 32.8333L11.3023 32.8333M39.4203 33.8406L12.2223 35.5555C12.4051 35.3738 12.5299 35.1419 12.5806 34.8891C12.6313 34.6363 12.6058 34.3742 12.5072 34.136C12.4085 33.8978 12.2413 33.6943 12.0268 33.5514C11.8123 33.4085 11.5601 33.3326 11.3023 33.3333V32.8333M39.4203 33.8406C39.5349 34.192 39.527 34.5718 39.3978 34.9181C39.2687 35.2642 39.026 35.5563 38.7095 35.7468M39.4203 33.8406L38.7095 35.7468M11.3023 32.8333C11.6587 32.8326 12.0074 32.9377 12.304 33.1353C12.6011 33.3332 12.8326 33.615 12.9691 33.9448C13.1057 34.2746 13.1411 34.6375 13.0708 34.9875C13.0006 35.3375 12.8279 35.6586 12.5747 35.9102L12.477 36.0072L12.3435 36.0406L8.97726 36.8816M11.3023 32.8333L8.97726 36.8816M2.27671 28.8877C3.48338 28.9111 4.44449 27.8722 4.44449 26.6655V24.5766C3.38671 22.3433 2.77782 19.8566 2.77782 17.2222C2.77782 7.51775 10.8045 -0.312255 20.5823 0.00996727C29.3456 0.298856 36.6423 7.39997 37.1889 16.1511C37.3622 18.8915 36.8689 21.633 35.7512 24.1411C35.6223 24.44 35.5556 24.7566 35.5556 25.0822V25.0855C35.5556 25.9744 36.2889 26.69 37.1778 26.6666C37.3967 26.6637 37.614 26.7039 37.8173 26.785C38.0206 26.8661 38.206 26.9864 38.3628 27.1391C38.5197 27.2918 38.6449 27.4739 38.7313 27.675C38.8178 27.8761 38.8638 28.0922 38.8667 28.3111C38.8696 28.5299 38.8294 28.7472 38.7483 28.9506C38.6673 29.1539 38.547 29.3393 38.3943 29.4961L2.27671 28.8877ZM2.27671 28.8877C1.96543 28.8814 1.65628 28.9405 1.36931 29.0612M2.27671 28.8877L1.36931 29.0612M8.97726 36.8816C8.77766 36.9317 8.6005 37.047 8.47392 37.2093C8.34734 37.3715 8.2786 37.5714 8.2786 37.7772C8.2786 37.983 8.34734 38.1829 8.47392 38.3451L8.09305 38.6422L8.47392 38.3451C8.60042 38.5073 8.77742 38.6225 8.97687 38.6727M8.97726 36.8816L8.97687 38.6727M8.97687 38.6727C11.0855 39.1998 13.2486 39.477 15.4215 39.4978L18.4348 39.5267H18.435C19.9181 39.5414 21.3826 39.1995 22.6615 38.4798L22.6616 38.4797C24.6682 37.351 27.0106 36.9719 29.2708 37.4102L29.2709 37.4102C32.5141 38.04 35.8763 37.4467 38.7095 35.7468M8.97687 38.6727L38.7095 35.7468M1.36931 29.0612C1.08233 29.1819 0.823927 29.3616 0.610849 29.5887M1.36931 29.0612L0.610849 29.5887M0.610849 29.5887C0.397772 29.8157 0.234775 30.0849 0.132423 30.379M0.610849 29.5887L0.132423 30.379M0.132423 30.379C0.0300705 30.673 -0.00935174 30.9853 0.0167111 31.2955L0.132423 30.379Z" fill="white" stroke="#23273D"/>
<path d="M20.8178 26.6701C19.98 26.6701 19.1467 26.5834 18.3245 26.4101C15.3322 25.7756 12.7656 24.0601 11.2822 21.7034C11.13 21.4542 11.0821 21.1551 11.1487 20.8708C11.2153 20.5865 11.3912 20.3399 11.6382 20.1842C11.8853 20.0286 12.1837 19.9764 12.4689 20.0391C12.7541 20.1017 13.0031 20.2741 13.1622 20.5189C14.31 22.3434 16.4122 23.7323 18.7845 24.2356C20.7478 24.6523 23.7922 24.6723 27.1578 22.4112C27.4024 22.2467 27.7023 22.1862 27.9915 22.2429C28.2807 22.2996 28.5356 22.4688 28.7 22.7134C28.8644 22.958 28.925 23.2579 28.8683 23.5471C28.8116 23.8363 28.6424 24.0912 28.3978 24.2556C26.0322 25.8445 23.41 26.6701 20.8178 26.6701Z" fill="#23273D"/>
<path d="M15.5556 16.6667C16.7829 16.6667 17.7778 15.1743 17.7778 13.3333C17.7778 11.4924 16.7829 10 15.5556 10C14.3283 10 13.3334 11.4924 13.3334 13.3333C13.3334 15.1743 14.3283 16.6667 15.5556 16.6667Z" fill="#23273D"/>
<path d="M25.5556 18.8888C26.7829 18.8888 27.7778 17.3965 27.7778 15.5555C27.7778 13.7146 26.7829 12.2222 25.5556 12.2222C24.3283 12.2222 23.3334 13.7146 23.3334 15.5555C23.3334 17.3965 24.3283 18.8888 25.5556 18.8888Z" fill="#23273D"/>
<g clip-path="url(#clip1_325_7427)">
<path d="M29.5398 27.0639L29.535 28.5002L31.8459 27.9013L30.5773 27.0371L29.5398 27.0639ZM38.8118 34.5911C38.8118 34.0993 39.1406 33.6962 39.5679 33.624V28.5862C37.8395 28.1705 24.8766 31.6934 24.8766 31.6934V33.2213C25.5524 33.3483 26.0649 33.9395 26.0649 34.6524C26.0649 35.3654 25.5524 35.9574 24.8766 36.0844V39.4185L39.5679 36.6176V35.5585C39.1406 35.4859 38.8118 35.0824 38.8118 34.5911Z" fill="#FFAC33"/>
<path d="M31.1787 25.4132L29.5182 27.0738C29.8366 27.1481 30.0618 27.3291 30.0618 27.5413C30.0618 27.82 29.6746 28.0456 29.1976 28.0456C28.9928 28.0456 28.8074 28.0023 28.6596 27.9332L24.8766 31.7158C30.566 30.458 34.4009 29.4317 39.6112 28.5935C37.5103 25.7926 32.5796 25.4132 31.1787 25.4132Z" fill="#FFD983"/>
<path d="M33.0865 26.6771C33.0865 26.9558 32.6993 27.1814 32.2223 27.1814C31.7452 27.1814 31.3581 26.9558 31.3581 26.6771C31.3581 26.3984 31.7452 26.1729 32.2223 26.1729C32.6993 26.1729 33.0865 26.3984 33.0865 26.6771ZM30.9571 29.4404C30.9571 29.863 30.3699 30.2056 29.6452 30.2056C28.9206 30.2056 28.3334 29.863 28.3334 29.4404C28.3334 29.0182 28.9206 28.6751 29.6452 28.6751C30.3694 28.6756 30.9571 29.0182 30.9571 29.4404ZM36.9753 28.0533C36.9753 28.5261 36.3181 28.9093 35.5079 28.9093C34.6978 28.9093 34.0405 28.5261 34.0405 28.0533C34.0405 27.5806 34.6978 27.1974 35.5079 27.1974C36.3181 27.1974 36.9753 27.5806 36.9753 28.0533Z" fill="#FFAC33"/>
<path d="M38.9738 31.1939C38.9738 31.7694 38.5508 32.2357 38.0284 32.2357C37.506 32.2357 37.0829 31.7694 37.0829 31.1939C37.0829 30.6183 37.506 30.1521 38.0284 30.1521C38.5508 30.1521 38.9738 30.6183 38.9738 31.1939ZM29.3596 33.2948C29.3596 33.837 28.9608 34.2765 28.4686 34.2765C27.9765 34.2765 27.5776 33.8366 27.5776 33.2948C27.5776 32.752 27.9765 32.3126 28.4686 32.3126C28.9608 32.3126 29.3596 32.7525 29.3596 33.2948ZM36.7727 35.4466C36.5554 35.7067 36.1872 35.7577 35.9504 35.5598C35.7141 35.3623 35.6989 34.9907 35.9171 34.7306C36.1354 34.4692 36.5031 34.4186 36.7394 34.6161C36.9762 34.814 36.9909 35.1852 36.7727 35.4466ZM32.5883 32.2586C32.2957 32.609 31.7997 32.6777 31.4812 32.4111C31.1632 32.1454 31.1429 31.645 31.4363 31.295C31.7301 30.9433 32.2253 30.8754 32.5433 31.1412C32.8618 31.4073 32.8821 31.9073 32.5883 32.2586ZM32.9655 36.5861C32.447 37.2791 31.5162 37.4593 30.8879 36.9892C30.2592 36.5191 30.1694 35.5754 30.6879 34.8827C31.2064 34.1892 32.1371 34.009 32.7654 34.4787C33.3941 34.9488 33.484 35.8925 32.9655 36.5861Z" fill="#F4900C"/>
</g>
</g>
<defs>
<clipPath id="clip0_325_7427">
<rect width="40" height="40" fill="white"/>
</clipPath>
<clipPath id="clip1_325_7427">
<rect width="15.5556" height="15.5556" fill="white" transform="translate(24.4445 24.4445)"/>
</clipPath>
</defs>
</svg>
