<svg width="40" height="40" viewBox="0 0 40 40" fill="none" xmlns="http://www.w3.org/2000/svg">
<g clip-path="url(#clip0_325_7431)">
<path d="M39.5 20C39.5 30.7694 30.7694 39.5 20 39.5C9.23168 39.5 0.5 30.7694 0.5 20C0.5 9.2317 9.2317 0.5 20 0.5C30.7694 0.5 39.5 9.23168 39.5 20Z" fill="white" stroke="#23273D"/>
<path d="M12.7778 22.2222C14.3119 22.2222 15.5556 20.4811 15.5556 18.3333C15.5556 16.1856 14.3119 14.4445 12.7778 14.4445C11.2437 14.4445 10 16.1856 10 18.3333C10 20.4811 11.2437 22.2222 12.7778 22.2222Z" fill="#23273D"/>
<path d="M27.2222 22.2222C28.7564 22.2222 30 20.4811 30 18.3333C30 16.1856 28.7564 14.4445 27.2222 14.4445C25.6881 14.4445 24.4445 16.1856 24.4445 18.3333C24.4445 20.4811 25.6881 22.2222 27.2222 22.2222Z" fill="#23273D"/>
<g clip-path="url(#clip1_325_7431)">
<path d="M37.9013 26.1728C37.9013 27.4691 36.3535 28.7654 34.4445 28.7654C32.5354 28.7654 30.9877 27.4691 30.9877 26.1728C30.9877 24.2638 33.5803 24.4445 34.4445 24.4445C35.3087 24.4445 37.9013 24.2638 37.9013 26.1728Z" fill="#66757F"/>
<path d="M37.1692 29.6296H31.7195C31.515 29.6296 31.317 29.7022 31.1609 29.8344C31.0048 29.9666 30.9006 30.1499 30.867 30.3517L29.4268 38.9937C29.4062 39.1175 29.4127 39.2443 29.4461 39.3653C29.4794 39.4863 29.5387 39.5986 29.6198 39.6944C29.701 39.7902 29.802 39.8671 29.9159 39.9199C30.0298 39.9727 30.1538 40 30.2793 40H38.6093C38.7349 40 38.8589 39.9727 38.9728 39.9199C39.0867 39.8671 39.1877 39.7902 39.2688 39.6944C39.35 39.5986 39.4093 39.4863 39.4426 39.3653C39.476 39.2443 39.4825 39.1175 39.4619 38.9937L38.0217 30.3517C37.988 30.1499 37.8838 29.9667 37.7277 29.8345C37.5716 29.7023 37.3737 29.6297 37.1692 29.6296Z" fill="#CCD6DD"/>
<path d="M35.0252 30.4938H32.086C31.9837 30.4938 31.8847 30.5301 31.8067 30.5963C31.7287 30.6624 31.6767 30.7541 31.66 30.8551L30.3637 38.6328C30.3532 38.6947 30.3564 38.7581 30.373 38.8186C30.3896 38.8791 30.4192 38.9353 30.4597 38.9831C30.5002 39.031 30.5507 39.0695 30.6076 39.0959C30.6646 39.1222 30.7266 39.1359 30.7893 39.1358H35.2948L35.0252 30.4938ZM37.2293 30.8551C37.2125 30.7542 37.1605 30.6625 37.0825 30.5964C37.0045 30.5302 36.9055 30.4939 36.8032 30.4938H35.7606L36.1534 39.1358H38.1C38.1627 39.1358 38.2247 39.1221 38.2816 39.0957C38.3385 39.0693 38.3889 39.0309 38.4295 38.983C38.47 38.9351 38.4997 38.879 38.5163 38.8186C38.533 38.7581 38.5363 38.6947 38.526 38.6328L37.2293 30.8551Z" fill="#F5F8FA"/>
<path d="M33.1482 25.3519C33.4345 25.3519 33.6667 25.2358 33.6667 25.0926C33.6667 24.9494 33.4345 24.8334 33.1482 24.8334C32.8618 24.8334 32.6296 24.9494 32.6296 25.0926C32.6296 25.2358 32.8618 25.3519 33.1482 25.3519Z" fill="#CCD6DD"/>
<path d="M35.7407 25.3519C36.0271 25.3519 36.2592 25.2358 36.2592 25.0926C36.2592 24.9494 36.0271 24.8334 35.7407 24.8334C35.4543 24.8334 35.2222 24.9494 35.2222 25.0926C35.2222 25.2358 35.4543 25.3519 35.7407 25.3519Z" fill="#CCD6DD"/>
<path d="M34.4444 26.2161C34.7308 26.2161 34.9629 26.1 34.9629 25.9568C34.9629 25.8136 34.7308 25.6976 34.4444 25.6976C34.1581 25.6976 33.9259 25.8136 33.9259 25.9568C33.9259 26.1 34.1581 26.2161 34.4444 26.2161Z" fill="#CCD6DD"/>
<path d="M37.4691 29.6296H31.4197V28.5615C31.4197 28.1968 31.7152 28.0162 32.0799 28.0162H36.8088C37.1735 28.0162 37.4691 28.1968 37.4691 28.5615V29.6296Z" fill="#66757F"/>
<path d="M36.8088 27.9012H32.0799C31.796 27.9012 31.5558 28.0814 31.4625 28.3333H37.4259C37.3329 28.0814 37.0931 27.9012 36.8088 27.9012ZM31.4197 28.7654H37.4691V29.1975H31.4197V28.7654ZM31.4197 29.6296H37.4691V29.8457H31.4197V29.6296Z" fill="#CCD6DD"/>
</g>
</g>
<defs>
<clipPath id="clip0_325_7431">
<rect width="40" height="40" fill="white"/>
</clipPath>
<clipPath id="clip1_325_7431">
<rect width="15.5556" height="15.5556" fill="white" transform="translate(26.6666 24.4445)"/>
</clipPath>
</defs>
</svg>
