<svg width="40" height="40" viewBox="0 0 40 40" fill="none" xmlns="http://www.w3.org/2000/svg">
<g clip-path="url(#clip0_325_7432)">
<path d="M20 40C31.0457 40 40 31.0457 40 20C40 8.9543 31.0457 0 20 0C8.9543 0 0 8.9543 0 20C0 31.0457 8.9543 40 20 40Z" fill="#FF7892"/>
<path d="M29.0277 32.5122C28.9963 32.5125 28.9649 32.5087 28.9344 32.5011C19.5744 30.3434 11.1611 32.4767 11.0766 32.4989C11.015 32.5145 10.9506 32.516 10.8883 32.5033C10.8259 32.4906 10.7673 32.4641 10.7166 32.4256C10.6667 32.3863 10.6262 32.3362 10.5983 32.279C10.5704 32.2219 10.5558 32.1592 10.5555 32.0956C10.5555 28.5645 14.6811 24.46 20 24.46C25.3188 24.46 29.4444 28.5645 29.4444 32.0956C29.4444 32.2061 29.4005 32.3121 29.3224 32.3902C29.2442 32.4684 29.1382 32.5122 29.0277 32.5122ZM32.2222 13.3334C26.0511 13.3334 23.5533 8.48114 23.45 8.27447C23.3175 8.01117 23.2951 7.70603 23.3876 7.42619C23.4801 7.14634 23.68 6.91471 23.9433 6.78225C24.2066 6.64979 24.5117 6.62735 24.7916 6.71987C25.0714 6.81238 25.3031 7.01228 25.4355 7.27558C25.5188 7.4378 27.4588 11.1111 32.2222 11.1111C32.5169 11.1111 32.7995 11.2282 33.0079 11.4366C33.2162 11.6449 33.3333 11.9276 33.3333 12.2222C33.3333 12.5169 33.2162 12.7995 33.0079 13.0079C32.7995 13.2163 32.5169 13.3334 32.2222 13.3334ZM7.77774 13.3334C7.48305 13.3334 7.20044 13.2163 6.99206 13.0079C6.78369 12.7995 6.66663 12.5169 6.66663 12.2222C6.66663 11.9276 6.78369 11.6449 6.99206 11.4366C7.20044 11.2282 7.48305 11.1111 7.77774 11.1111C13.4255 11.1111 14.44 7.64447 14.4811 7.49669C14.5587 7.2142 14.7441 6.97344 14.9974 6.82614C15.2506 6.67884 15.5516 6.63675 15.8355 6.70892C16.4244 6.86336 16.7811 7.45669 16.6333 8.0478C16.5788 8.26336 15.2266 13.3334 7.77774 13.3334Z" fill="#23273D"/>
<path d="M13.3333 22.2222C14.8674 22.2222 16.1111 20.4811 16.1111 18.3333C16.1111 16.1856 14.8674 14.4445 13.3333 14.4445C11.7992 14.4445 10.5555 16.1856 10.5555 18.3333C10.5555 20.4811 11.7992 22.2222 13.3333 22.2222Z" fill="#23273D"/>
<path d="M26.6667 22.2222C28.2008 22.2222 29.4445 20.4811 29.4445 18.3333C29.4445 16.1856 28.2008 14.4445 26.6667 14.4445C25.1326 14.4445 23.8889 16.1856 23.8889 18.3333C23.8889 20.4811 25.1326 22.2222 26.6667 22.2222Z" fill="#23273D"/>
<path d="M20.6989 25.6434V26.5623L19.4866 26.5634V25.6334C16.9566 25.7745 14.83 26.9245 13.4255 28.4289L13.4344 28.9411C13.53 32.1989 15.7455 35.3878 20.0922 35.3878C24.4244 35.3878 26.6389 32.22 26.7489 28.9734L26.7589 28.6578C25.2112 26.8987 23.0355 25.8164 20.6989 25.6434Z" fill="#F4ABBA"/>
<path d="M20 25.61C19.8256 25.61 19.6578 25.6255 19.4867 25.6344V30.5755C19.4867 30.7361 19.5505 30.8902 19.6641 31.0037C19.7776 31.1173 19.9316 31.1811 20.0922 31.1811C20.2529 31.1811 20.4069 31.1173 20.5204 31.0037C20.634 30.8902 20.6978 30.7361 20.6978 30.5755V25.6444C20.4658 25.6233 20.233 25.6118 20 25.61Z" fill="#DA2F47"/>
<path d="M39.8955 13.4022C39.8957 14.1456 39.7494 14.8816 39.465 15.5684C39.1806 16.2552 38.7637 16.8792 38.2381 17.4048C37.7125 17.9304 37.0885 18.3473 36.4017 18.6317C35.7149 18.9161 34.9789 19.0624 34.2355 19.0622C31.1089 19.0622 28.5755 16.5289 28.5755 13.4022C28.5755 10.2756 33.1033 2.08223 34.2355 2.08223C35.3678 2.08223 39.8955 10.2767 39.8955 13.4022ZM9.52554 9.37556C9.52554 9.98665 9.40518 10.5917 9.17133 11.1563C8.93747 11.7209 8.59471 12.2339 8.16261 12.666C7.73051 13.0981 7.21753 13.4408 6.65296 13.6747C6.08839 13.9085 5.48329 14.0289 4.87221 14.0289C4.26112 14.0289 3.65602 13.9085 3.09145 13.6747C2.52688 13.4408 2.0139 13.0981 1.5818 12.666C1.1497 12.2339 0.806938 11.7209 0.573086 11.1563C0.339234 10.5917 0.218872 9.98665 0.218872 9.37556C0.218872 6.80556 3.94109 0.0700073 4.87221 0.0700073C5.80332 0.0700073 9.52554 6.80556 9.52554 9.37556Z" fill="#5DADEC"/>
<g clip-path="url(#clip1_325_7432)">
<path d="M26.191 36.5069C28.3039 36.745 30.2778 35.8048 32.0118 33.9377C34.091 31.6985 34.1723 28.3204 34.1723 27.8883C34.1723 27.4562 39.0593 26.5678 38.9254 30.0488C38.7396 34.8866 35.7149 39.0995 30.3193 39.5187C27.7344 39.7196 26.137 39.1177 25.3989 38.5054C24.2366 37.5414 25.0744 36.3812 26.191 36.5069Z" fill="#CD001D"/>
<path d="M37.6429 27.1433C37.731 26.4329 37.677 25.5212 37.3201 25.0463C36.84 24.4073 35.4055 24.7158 35.7779 25.0952C36.1928 25.5182 36.8388 26.0691 36.8154 26.8888C36.7964 26.8845 36.7787 26.8793 36.7592 26.875C35.0931 26.4995 33.8551 27.4821 33.6624 28.1531C33.3245 29.3293 35.4189 28.3986 35.6846 28.9145C36.471 30.4398 37.3711 28.9815 37.5871 29.4676C37.8032 29.9537 39.3575 31.3269 39.3575 29.7424C39.3575 28.4418 38.8424 27.6238 37.6429 27.1433Z" fill="#77B255"/>
</g>
</g>
<defs>
<clipPath id="clip0_325_7432">
<rect width="40" height="40" fill="white"/>
</clipPath>
<clipPath id="clip1_325_7432">
<rect width="15.5556" height="15.5556" fill="white" transform="translate(24.4445 24.4445)"/>
</clipPath>
</defs>
</svg>
