<svg width="40" height="40" viewBox="0 0 40 40" fill="none" xmlns="http://www.w3.org/2000/svg">
<g clip-path="url(#clip0_325_7430)">
<path d="M39.5 20C39.5 30.7694 30.7694 39.5 20 39.5C9.23168 39.5 0.5 30.7694 0.5 20C0.5 9.2317 9.2317 0.5 20 0.5C30.7694 0.5 39.5 9.23168 39.5 20Z" fill="white" stroke="#23273D"/>
<g clip-path="url(#clip1_325_7430)">
<path d="M37.9013 26.1728C37.9013 27.4691 36.3535 28.7654 34.4445 28.7654C32.5354 28.7654 30.9877 27.4691 30.9877 26.1728C30.9877 24.2638 33.5803 24.4445 34.4445 24.4445C35.3087 24.4445 37.9013 24.2638 37.9013 26.1728Z" fill="#66757F"/>
<path d="M37.1692 29.6296H31.7195C31.515 29.6296 31.317 29.7022 31.1609 29.8344C31.0048 29.9666 30.9006 30.1499 30.867 30.3517L29.4268 38.9937C29.4062 39.1175 29.4127 39.2443 29.4461 39.3653C29.4794 39.4863 29.5387 39.5986 29.6198 39.6944C29.701 39.7902 29.802 39.8671 29.9159 39.9199C30.0298 39.9727 30.1538 40 30.2793 40H38.6093C38.7349 40 38.8589 39.9727 38.9728 39.9199C39.0867 39.8671 39.1877 39.7902 39.2688 39.6944C39.35 39.5986 39.4093 39.4863 39.4426 39.3653C39.476 39.2443 39.4825 39.1175 39.4619 38.9937L38.0217 30.3517C37.988 30.1499 37.8838 29.9667 37.7277 29.8345C37.5716 29.7023 37.3737 29.6297 37.1692 29.6296Z" fill="#CCD6DD"/>
<path d="M35.0252 30.4938H32.086C31.9837 30.4938 31.8847 30.5301 31.8067 30.5963C31.7287 30.6624 31.6767 30.7541 31.66 30.8551L30.3637 38.6328C30.3532 38.6947 30.3564 38.7581 30.373 38.8186C30.3896 38.8791 30.4192 38.9353 30.4597 38.9831C30.5002 39.031 30.5507 39.0695 30.6076 39.0959C30.6646 39.1222 30.7266 39.1359 30.7893 39.1358H35.2948L35.0252 30.4938ZM37.2293 30.8551C37.2125 30.7542 37.1605 30.6625 37.0825 30.5964C37.0045 30.5302 36.9055 30.4939 36.8032 30.4938H35.7606L36.1534 39.1358H38.1C38.1627 39.1358 38.2247 39.1221 38.2816 39.0957C38.3385 39.0693 38.3889 39.0309 38.4295 38.983C38.47 38.9351 38.4997 38.879 38.5163 38.8186C38.533 38.7581 38.5363 38.6947 38.526 38.6328L37.2293 30.8551Z" fill="#F5F8FA"/>
<path d="M33.1482 25.3519C33.4345 25.3519 33.6667 25.2358 33.6667 25.0926C33.6667 24.9494 33.4345 24.8334 33.1482 24.8334C32.8618 24.8334 32.6296 24.9494 32.6296 25.0926C32.6296 25.2358 32.8618 25.3519 33.1482 25.3519Z" fill="#CCD6DD"/>
<path d="M35.7407 25.3519C36.0271 25.3519 36.2592 25.2358 36.2592 25.0926C36.2592 24.9494 36.0271 24.8334 35.7407 24.8334C35.4543 24.8334 35.2222 24.9494 35.2222 25.0926C35.2222 25.2358 35.4543 25.3519 35.7407 25.3519Z" fill="#CCD6DD"/>
<path d="M34.4444 26.2161C34.7308 26.2161 34.9629 26.1 34.9629 25.9568C34.9629 25.8136 34.7308 25.6976 34.4444 25.6976C34.1581 25.6976 33.9259 25.8136 33.9259 25.9568C33.9259 26.1 34.1581 26.2161 34.4444 26.2161Z" fill="#CCD6DD"/>
<path d="M37.4691 29.6296H31.4197V28.5615C31.4197 28.1968 31.7152 28.0162 32.0799 28.0162H36.8088C37.1735 28.0162 37.4691 28.1968 37.4691 28.5615V29.6296Z" fill="#66757F"/>
<path d="M36.8088 27.9012H32.0799C31.796 27.9012 31.5558 28.0814 31.4625 28.3333H37.4259C37.3329 28.0814 37.0931 27.9012 36.8088 27.9012ZM31.4197 28.7654H37.4691V29.1975H31.4197V28.7654ZM31.4197 29.6296H37.4691V29.8457H31.4197V29.6296Z" fill="#CCD6DD"/>
</g>
<path d="M19.5185 33.2239C19.6687 33.296 19.8332 33.3334 19.9998 33.3334C20.1667 33.3333 20.3314 33.2957 20.4818 33.2234C20.6322 33.1511 20.7645 33.0459 20.8687 32.9156L24.4165 28.4801L26.8898 31.7767C26.9854 31.904 27.1072 32.0092 27.2469 32.0853C27.3866 32.1614 27.5411 32.2066 27.6998 32.2178C27.8588 32.2311 28.0186 32.209 28.1681 32.1533C28.3175 32.0976 28.4528 32.0096 28.5643 31.8956L29.6754 30.7845C29.7785 30.6813 29.8604 30.5589 29.9162 30.4241C29.972 30.2893 30.0008 30.1448 30.0008 29.9989C30.0008 29.853 29.972 29.7086 29.9162 29.5738C29.8604 29.439 29.7785 29.3165 29.6754 29.2134C29.5722 29.1102 29.4498 29.0284 29.315 28.9726C29.1802 28.9167 29.0357 28.888 28.8898 28.888C28.7439 28.888 28.5995 28.9167 28.4647 28.9726C28.3299 29.0284 28.2074 29.1102 28.1043 29.2134L27.8987 29.4189L25.3332 26C25.1276 25.7245 24.8065 25.5612 24.4621 25.5556C24.1143 25.5556 23.7909 25.7045 23.5765 25.9723L19.9998 30.4434L16.4221 25.9723C16.3166 25.8393 16.182 25.7323 16.0286 25.6597C15.8752 25.5871 15.7071 25.5507 15.5374 25.5534C15.3677 25.556 15.2009 25.5977 15.0499 25.6752C14.8989 25.7526 14.7677 25.8638 14.6665 26L12.1021 29.4201L11.8965 29.2145C11.7933 29.1113 11.6709 29.0295 11.5361 28.9737C11.4013 28.9178 11.2568 28.8891 11.1109 28.8891C10.8163 28.8891 10.5337 29.0062 10.3254 29.2145C10.2222 29.3177 10.1404 29.4401 10.0846 29.5749C10.0287 29.7097 10 29.8542 10 30.0001C10 30.1459 10.0287 30.2904 10.0846 30.4252C10.1404 30.56 10.2222 30.6824 10.3254 30.7856L11.4365 31.8967C11.5489 32.0096 11.6843 32.097 11.8334 32.1528C11.9826 32.2087 12.142 32.2318 12.3009 32.2205C12.4598 32.2092 12.6144 32.1639 12.7542 32.0875C12.894 32.0111 13.0156 31.9055 13.1109 31.7778L15.5832 28.4812L19.1321 32.9167C19.2362 33.0468 19.3683 33.1518 19.5185 33.2239Z" fill="#23273D"/>
<path d="M6.2407 14.3608C6.37561 14.4163 6.52016 14.4448 6.66607 14.4445C6.87051 14.4445 11.7083 14.3889 15.3338 9.5556C15.5107 9.31985 15.5866 9.02352 15.5449 8.73179C15.5032 8.44007 15.3474 8.17685 15.1116 8.00004C14.8759 7.82323 14.5795 7.74731 14.2878 7.78898C13.9961 7.83066 13.7329 7.98651 13.5561 8.22226C10.6272 12.1267 6.83496 12.22 6.66163 12.2223C6.36694 12.2229 6.08456 12.3405 5.8766 12.5493C5.66864 12.7581 5.55215 13.0409 5.55274 13.3356C5.55333 13.6303 5.67095 13.9127 5.87974 14.1206C5.98313 14.2236 6.10578 14.3052 6.2407 14.3608Z" fill="#23273D"/>
<path d="M24.6661 9.5556C28.2916 14.3889 33.1283 14.4445 33.3327 14.4445C33.6261 14.4445 33.9074 14.328 34.1149 14.1207C34.3224 13.9134 34.4391 13.6322 34.4394 13.3389C34.4427 12.7289 33.9494 12.2289 33.3383 12.2223C33.1772 12.2212 29.3772 12.1345 26.4427 8.22226C26.357 8.10097 26.2477 7.99811 26.1215 7.91976C25.9953 7.84142 25.8546 7.78918 25.7079 7.76613C25.5611 7.74309 25.4112 7.74971 25.2671 7.78561C25.1229 7.8215 24.9874 7.88594 24.8686 7.97511C24.7498 8.06428 24.6501 8.17637 24.5753 8.30476C24.5006 8.43314 24.4523 8.57521 24.4334 8.72256C24.4146 8.86992 24.4254 9.01956 24.4654 9.16264C24.5053 9.30573 24.5736 9.43935 24.6661 9.5556Z" fill="#23273D"/>
<path d="M12.7778 22.2222C14.3119 22.2222 15.5556 20.4811 15.5556 18.3333C15.5556 16.1856 14.3119 14.4445 12.7778 14.4445C11.2437 14.4445 10 16.1856 10 18.3333C10 20.4811 11.2437 22.2222 12.7778 22.2222Z" fill="#23273D"/>
<path d="M27.2231 22.2222C28.7572 22.2222 30.0009 20.4811 30.0009 18.3333C30.0009 16.1856 28.7572 14.4445 27.2231 14.4445C25.689 14.4445 24.4453 16.1856 24.4453 18.3333C24.4453 20.4811 25.689 22.2222 27.2231 22.2222Z" fill="#23273D"/>
</g>
<defs>
<clipPath id="clip0_325_7430">
<rect width="40" height="40" fill="white"/>
</clipPath>
<clipPath id="clip1_325_7430">
<rect width="15.5556" height="15.5556" fill="white" transform="translate(26.6666 24.4445)"/>
</clipPath>
</defs>
</svg>
