<svg width="40" height="40" viewBox="0 0 40 40" fill="none" xmlns="http://www.w3.org/2000/svg">
<g clip-path="url(#clip0_325_7426)">
<path d="M39.5 20C39.5 30.7694 30.7694 39.5 20 39.5C9.23168 39.5 0.5 30.7694 0.5 20C0.5 9.2317 9.2317 0.5 20 0.5C30.7694 0.5 39.5 9.23168 39.5 20Z" fill="white" stroke="#23273D"/>
<path d="M12.7778 22.2222C14.3119 22.2222 15.5556 20.4811 15.5556 18.3333C15.5556 16.1856 14.3119 14.4445 12.7778 14.4445C11.2437 14.4445 10 16.1856 10 18.3333C10 20.4811 11.2437 22.2222 12.7778 22.2222Z" fill="#23273D"/>
<path d="M27.2222 22.2222C28.7564 22.2222 30 20.4811 30 18.3333C30 16.1856 28.7564 14.4445 27.2222 14.4445C25.6881 14.4445 24.4445 16.1856 24.4445 18.3333C24.4445 20.4811 25.6881 22.2222 27.2222 22.2222Z" fill="#23273D"/>
<g clip-path="url(#clip1_325_7426)">
<path d="M26.191 36.5069C28.3039 36.745 30.2778 35.8048 32.0118 33.9377C34.091 31.6985 34.1723 28.3204 34.1723 27.8883C34.1723 27.4562 39.0593 26.5678 38.9254 30.0488C38.7396 34.8866 35.7149 39.0995 30.3193 39.5187C27.7344 39.7196 26.137 39.1177 25.3989 38.5054C24.2366 37.5414 25.0744 36.3812 26.191 36.5069Z" fill="#CD001D"/>
<path d="M37.6429 27.1433C37.731 26.4329 37.677 25.5212 37.3201 25.0463C36.84 24.4073 35.4055 24.7158 35.7779 25.0952C36.1928 25.5182 36.8388 26.0691 36.8154 26.8888C36.7964 26.8845 36.7787 26.8793 36.7592 26.875C35.0931 26.4995 33.8551 27.4821 33.6624 28.1531C33.3245 29.3293 35.4189 28.3986 35.6846 28.9145C36.471 30.4398 37.3711 28.9815 37.5871 29.4676C37.8032 29.9537 39.3575 31.3269 39.3575 29.7424C39.3575 28.4418 38.8424 27.6238 37.6429 27.1433Z" fill="#77B255"/>
</g>
</g>
<defs>
<clipPath id="clip0_325_7426">
<rect width="40" height="40" fill="white"/>
</clipPath>
<clipPath id="clip1_325_7426">
<rect width="15.5556" height="15.5556" fill="white" transform="translate(24.4445 24.4445)"/>
</clipPath>
</defs>
</svg>
