<svg width="40" height="40" viewBox="0 0 40 40" fill="none" xmlns="http://www.w3.org/2000/svg">
<g clip-path="url(#clip0_325_7438)">
<path d="M8.88893 21.1111C8.88893 23.5655 7.6456 25.5555 6.11115 25.5555C4.57671 25.5555 3.33337 23.5655 3.33337 21.1111C3.33337 18.6566 4.57671 16.6666 6.11115 16.6666C7.6456 16.6666 8.88893 18.6566 8.88893 21.1111ZM36.6667 21.1111C36.6667 23.5655 35.4234 25.5555 33.8889 25.5555C32.3545 25.5555 31.1112 23.5655 31.1112 21.1111C31.1112 18.6566 32.3545 16.6666 33.8889 16.6666C35.4234 16.6666 36.6667 18.6566 36.6667 21.1111Z" fill="#F7DECE"/>
<path d="M5.55554 22.8467C5.55554 13.3734 12.0222 5.69336 20 5.69336C27.9778 5.69336 34.4444 13.3734 34.4444 22.8467C34.4444 32.32 27.9778 40 20 40C12.0222 40 5.55554 32.32 5.55554 22.8467Z" fill="#F7DECE"/>
<path d="M19.9992 32.2222C15.3459 32.2222 12.9359 31.0445 12.8359 30.9945C12.5742 30.862 12.3755 30.6315 12.2831 30.3532C12.1908 30.0748 12.2121 29.7713 12.3426 29.5087C12.4732 29.246 12.7022 29.0457 12.9798 28.9512C13.2575 28.8568 13.5612 28.8759 13.8248 29.0045C13.8814 29.0311 15.9636 30 19.9992 30C24.0714 30 26.1548 29.0133 26.1759 29.0033C26.4403 28.8752 26.7446 28.8567 27.0226 28.9518C27.3006 29.0469 27.5298 29.2479 27.6603 29.5111C27.7907 29.7738 27.8116 30.0774 27.7185 30.3554C27.6254 30.6335 27.4259 30.8633 27.1636 30.9945C27.0614 31.0445 24.6525 32.2222 19.9992 32.2222ZM21.1103 26.6667H18.8881C18.5934 26.6667 18.3108 26.5496 18.1024 26.3412C17.894 26.1329 17.777 25.8503 17.777 25.5556C17.777 25.2609 17.894 24.9783 18.1024 24.7699C18.3108 24.5615 18.5934 24.4445 18.8881 24.4445H21.1103C21.405 24.4445 21.6876 24.5615 21.896 24.7699C22.1044 24.9783 22.2214 25.2609 22.2214 25.5556C22.2214 25.8503 22.1044 26.1329 21.896 26.3412C21.6876 26.5496 21.405 26.6667 21.1103 26.6667Z" fill="#C1694F"/>
<path d="M14.4445 22.2223C14.1498 22.2223 13.8672 22.1052 13.6588 21.8968C13.4504 21.6885 13.3334 21.4059 13.3334 21.1112V18.8889C13.3334 18.5943 13.4504 18.3116 13.6588 18.1033C13.8672 17.8949 14.1498 17.7778 14.4445 17.7778C14.7392 17.7778 15.0218 17.8949 15.2302 18.1033C15.4385 18.3116 15.5556 18.5943 15.5556 18.8889V21.1112C15.5556 21.4059 15.4385 21.6885 15.2302 21.8968C15.0218 22.1052 14.7392 22.2223 14.4445 22.2223ZM25.5556 22.2223C25.2609 22.2223 24.9783 22.1052 24.7699 21.8968C24.5615 21.6885 24.4445 21.4059 24.4445 21.1112V18.8889C24.4445 18.5943 24.5615 18.3116 24.7699 18.1033C24.9783 17.8949 25.2609 17.7778 25.5556 17.7778C25.8503 17.7778 26.1329 17.8949 26.3413 18.1033C26.5496 18.3116 26.6667 18.5943 26.6667 18.8889V21.1112C26.6667 21.4059 26.5496 21.6885 26.3413 21.8968C26.1329 22.1052 25.8503 22.2223 25.5556 22.2223Z" fill="#23273D"/>
<path d="M21.1112 26.6667H18.8889C18.5943 26.6667 18.3116 26.5496 18.1033 26.3412C17.8949 26.1329 17.7778 25.8503 17.7778 25.5556C17.7778 25.2609 17.8949 24.9783 18.1033 24.7699C18.3116 24.5615 18.5943 24.4445 18.8889 24.4445H21.1112C21.4059 24.4445 21.6885 24.5615 21.8968 24.7699C22.1052 24.9783 22.2223 25.2609 22.2223 25.5556C22.2223 25.8503 22.1052 26.1329 21.8968 26.3412C21.6885 26.5496 21.4059 26.6667 21.1112 26.6667Z" fill="#C1694F"/>
<path d="M20 0C29.5722 0 35.5556 7.06444 35.5556 12.9511C35.5556 18.8378 34.3589 21.1922 33.1622 18.8378L30.77 14.1289C30.77 14.1289 23.59 14.1289 21.1978 11.7733C21.1978 11.7733 24.7867 18.8378 17.6078 11.7733C17.6078 11.7733 18.8045 16.4833 11.6245 10.5956C11.6245 10.5956 8.03557 12.9511 6.83779 18.8367C6.50557 20.47 4.44446 18.8378 4.44446 12.9511C4.44446 7.06333 9.23112 0 20 0Z" fill="#23273D"/>
</g>
<defs>
<clipPath id="clip0_325_7438">
<rect width="40" height="40" fill="white"/>
</clipPath>
</defs>
</svg>
