<svg width="48" height="48" viewBox="0 0 48 48" fill="none" xmlns="http://www.w3.org/2000/svg">
<g clip-path="url(#clip0_325_7464)">
<path d="M47.5 24C47.5 36.9785 36.9785 47.5 24 47.5C11.0215 47.5 0.5 36.9785 0.5 24C0.5 11.0215 11.0215 0.5 24 0.5C36.9785 0.5 47.5 11.0215 47.5 24Z" fill="white" stroke="#23273D"/>
<path d="M9.33329 30.6667C13.0152 30.6667 16 27.6819 16 24C16 20.3181 13.0152 17.3334 9.33329 17.3334C5.65139 17.3334 2.66663 20.3181 2.66663 24C2.66663 27.6819 5.65139 30.6667 9.33329 30.6667Z" fill="#FF7892"/>
<path d="M38.6667 30.6667C42.3486 30.6667 45.3333 27.6819 45.3333 24C45.3333 20.3181 42.3486 17.3334 38.6667 17.3334C34.9848 17.3334 32 20.3181 32 24C32 27.6819 34.9848 30.6667 38.6667 30.6667Z" fill="#FF7892"/>
<path d="M36.4467 28.8386C36.3318 28.7352 36.1846 28.6749 36.0302 28.6678C35.8759 28.6608 35.7238 28.7075 35.6 28.8C35.548 28.8386 30.3707 32.6666 24 32.6666C17.6453 32.6666 12.4507 28.8386 12.4 28.8C12.2764 28.7072 12.1243 28.6602 11.9699 28.6671C11.8155 28.674 11.6683 28.7344 11.5534 28.8379C11.4386 28.9414 11.3633 29.0815 11.3404 29.2344C11.3175 29.3873 11.3485 29.5434 11.428 29.676C11.6 29.9626 15.7173 36.6666 24 36.6666C32.2827 36.6666 36.4013 29.9626 36.572 29.676C36.6516 29.5435 36.6826 29.3876 36.6597 29.2348C36.6368 29.082 36.5615 28.9419 36.4467 28.8386ZM10.6653 20C10.4381 19.9997 10.2146 19.9414 10.0163 19.8305C9.81788 19.7197 9.65113 19.5599 9.53184 19.3665C9.41254 19.1731 9.34467 18.9524 9.33467 18.7253C9.32466 18.4983 9.37285 18.2725 9.47466 18.0693C9.544 17.9306 11.232 14.6666 16 14.6666C20.7693 14.6666 22.456 17.932 22.5253 18.0706C22.6837 18.3857 22.7108 18.7506 22.6008 19.0856C22.4907 19.4207 22.2524 19.6984 21.9381 19.8582C21.6237 20.0179 21.2588 20.0466 20.9234 19.938C20.5879 19.8294 20.3091 19.5923 20.148 19.2786C20.0907 19.172 19.0413 17.3333 16 17.3333C12.9107 17.3333 11.868 19.244 11.8587 19.2626C11.7482 19.4845 11.5779 19.671 11.367 19.8013C11.1562 19.9316 10.9132 20.0004 10.6653 20ZM37.3347 20C37.0867 20.0003 36.8435 19.9315 36.6324 19.8013C36.4214 19.671 36.2509 19.4845 36.14 19.2626C36.1067 19.2013 35.0653 17.3333 32 17.3333C28.9347 17.3333 27.8933 19.2013 27.8507 19.28C27.504 19.9213 26.7053 20.1733 26.0573 19.84C25.7464 19.6812 25.5107 19.4062 25.4013 19.0747C25.292 18.7431 25.3178 18.3819 25.4733 18.0693C25.5427 17.932 27.2307 14.6666 32 14.6666C36.7693 14.6666 38.4573 17.932 38.5267 18.0706C38.6282 18.2739 38.6762 18.4997 38.6659 18.7266C38.6557 18.9536 38.5877 19.1742 38.4683 19.3674C38.3488 19.5607 38.182 19.7203 37.9836 19.831C37.7852 19.9417 37.5618 19.9998 37.3347 20Z" fill="#23273D"/>
</g>
<defs>
<clipPath id="clip0_325_7464">
<rect width="48" height="48" fill="white"/>
</clipPath>
</defs>
</svg>
