<svg width="48" height="48" viewBox="0 0 48 48" fill="none" xmlns="http://www.w3.org/2000/svg">
<g clip-path="url(#clip0_325_7461)">
<path d="M47.5 24C47.5 36.9785 36.9785 47.5 24 47.5C11.0228 47.5 0.5 36.9785 0.5 24C0.5 11.0228 11.0228 0.5 24 0.5C36.9785 0.5 47.5 11.0228 47.5 24Z" fill="white" stroke="#23273D"/>
<path d="M15.3333 26.6667C17.1743 26.6667 18.6667 24.5774 18.6667 22C18.6667 19.4227 17.1743 17.3334 15.3333 17.3334C13.4924 17.3334 12 19.4227 12 22C12 24.5774 13.4924 26.6667 15.3333 26.6667Z" fill="#23273D"/>
<path d="M32.6667 26.6667C34.5077 26.6667 36 24.5774 36 22C36 19.4227 34.5077 17.3334 32.6667 17.3334C30.8258 17.3334 29.3334 19.4227 29.3334 22C29.3334 24.5774 30.8258 26.6667 32.6667 26.6667Z" fill="#23273D"/>
<path d="M33.3334 34.6667H14.6667C14.3131 34.6667 13.9739 34.5262 13.7239 34.2761C13.4739 34.0261 13.3334 33.687 13.3334 33.3333C13.3334 32.9797 13.4739 32.6406 13.7239 32.3905C13.9739 32.1405 14.3131 32 14.6667 32H33.3334C33.687 32 34.0261 32.1405 34.2762 32.3905C34.5262 32.6406 34.6667 32.9797 34.6667 33.3333C34.6667 33.687 34.5262 34.0261 34.2762 34.2761C34.0261 34.5262 33.687 34.6667 33.3334 34.6667Z" fill="#23273D"/>
</g>
<defs>
<clipPath id="clip0_325_7461">
<rect width="48" height="48" fill="white"/>
</clipPath>
</defs>
</svg>
