<svg width="40" height="40" viewBox="0 0 40 40" fill="none" xmlns="http://www.w3.org/2000/svg">
<path d="M40 20.5555C40 18.7344 38.9222 17.2177 37.4744 16.7944C35.9633 8.50883 28.7222 2.22217 20 2.22217C11.2778 2.22217 4.03667 8.50883 2.52556 16.7944C1.07778 17.2177 0 18.7344 0 20.5555C0 22.4844 1.20778 24.0755 2.78889 24.3799C4.74333 32.0755 11.6967 37.7777 20 37.7777C28.3033 37.7777 35.2567 32.0755 37.2111 24.3799C38.7911 24.0755 40 22.4844 40 20.5555Z" fill="#F7DECE"/>
<path d="M20 27.7778C16.6667 27.7778 15.5555 26.6667 15.5555 28.8889C15.5555 31.1111 17.7778 33.3333 20 33.3333C22.2222 33.3333 24.4444 31.1111 24.4444 28.8889C24.4444 26.6667 23.3333 27.7778 20 27.7778Z" fill="#23273D"/>
<path d="M24.9999 23.3334C26.5341 23.3334 27.7777 22.0897 27.7777 20.5556C27.7777 19.0215 26.5341 17.7778 24.9999 17.7778C23.4658 17.7778 22.2222 19.0215 22.2222 20.5556C22.2222 22.0897 23.4658 23.3334 24.9999 23.3334Z" fill="#23273D"/>
<path d="M14.9999 23.3334C16.5341 23.3334 17.7777 22.0897 17.7777 20.5556C17.7777 19.0215 16.5341 17.7778 14.9999 17.7778C13.4658 17.7778 12.2222 19.0215 12.2222 20.5556C12.2222 22.0897 13.4658 23.3334 14.9999 23.3334Z" fill="#23273D"/>
<path d="M20 28.8889H22.2222V30C22.2222 30 22.2222 31.1111 21.1111 31.1111C20 31.1111 20 30 20 30V28.8889Z" fill="white"/>
<path d="M19.98 12.2222H19.9455C19.2976 12.2259 18.6554 12.0995 18.0571 11.8506C17.4588 11.6018 16.9165 11.2354 16.4622 10.7733C16.0523 10.3594 15.734 9.86381 15.528 9.31883C15.322 8.77385 15.233 8.19164 15.2667 7.61001C15.2747 7.46439 15.3116 7.32181 15.3751 7.19054C15.4387 7.05927 15.5277 6.94192 15.6369 6.84529C15.7461 6.74866 15.8735 6.67466 16.0115 6.6276C16.1496 6.58054 16.2956 6.56134 16.4411 6.57112C17.0533 6.60779 17.5211 7.13557 17.4844 7.7489C17.4522 8.2989 17.6567 8.84112 18.0433 9.23334C18.2932 9.48867 18.5913 9.69177 18.9203 9.83083C19.2494 9.96988 19.6028 10.0421 19.96 10.0433C20.6855 10.0033 21.3711 9.7689 21.8878 9.26001C22.5803 8.57491 22.9729 7.64316 22.9796 6.66902C22.9863 5.69489 22.6064 4.75786 21.9233 4.06334C21.0149 3.14481 19.7793 2.62405 18.4874 2.6153C17.1956 2.60656 15.953 3.11053 15.0322 4.01668C14.9283 4.11911 14.8053 4.20007 14.6701 4.25495C14.5349 4.30983 14.3902 4.33754 14.2443 4.33651C13.9497 4.33442 13.668 4.21538 13.4611 4.00557C13.2542 3.79575 13.1392 3.51235 13.1413 3.21771C13.1433 2.92307 13.2624 2.64132 13.4722 2.43445C14.8131 1.11558 16.6221 0.382111 18.5029 0.394816C20.3836 0.407521 22.1826 1.16536 23.5055 2.50223C24.0484 3.05192 24.4775 3.70323 24.7684 4.4189C25.0593 5.13457 25.2063 5.90058 25.2009 6.6731C25.1956 7.44562 25.038 8.20951 24.7371 8.92107C24.4363 9.63264 23.9982 10.2779 23.4478 10.82C22.5189 11.7389 21.2867 12.2222 19.98 12.2222Z" fill="#23273D"/>
</svg>
