<svg width="40" height="40" viewBox="0 0 40 40" fill="none" xmlns="http://www.w3.org/2000/svg">
<g clip-path="url(#clip0_325_7439)">
<path d="M39.5 20C39.5 30.7696 30.7696 39.5 20 39.5C9.23045 39.5 0.5 30.7696 0.5 20C0.5 9.23045 9.23045 0.5 20 0.5C30.7696 0.5 39.5 9.23045 39.5 20Z" fill="white" stroke="#23273D"/>
<path d="M11.6833 26.2456C11.7333 26.4445 12.9811 31.1111 20 31.1111C27.02 31.1111 28.2667 26.4445 28.3167 26.2456C28.3459 26.1283 28.3359 26.0047 28.2884 25.8936C28.2409 25.7825 28.1583 25.6899 28.0533 25.63C27.9479 25.5704 27.8259 25.5465 27.7058 25.5619C27.5856 25.5774 27.4737 25.6313 27.3867 25.7156C27.3656 25.7367 25.2156 27.7778 20 27.7778C14.7844 27.7778 12.6333 25.7367 12.6133 25.7167C12.5273 25.6317 12.416 25.5769 12.2961 25.5607C12.1763 25.5445 12.0544 25.5676 11.9489 25.6267C11.843 25.6865 11.7596 25.7795 11.7116 25.8913C11.6637 26.0031 11.6537 26.1276 11.6833 26.2456Z" fill="#23273D"/>
<path d="M13.3333 18.8889C14.8674 18.8889 16.1111 17.1477 16.1111 15C16.1111 12.8522 14.8674 11.1111 13.3333 11.1111C11.7992 11.1111 10.5555 12.8522 10.5555 15C10.5555 17.1477 11.7992 18.8889 13.3333 18.8889Z" fill="#23273D"/>
<path d="M26.6667 18.8889C28.2008 18.8889 29.4445 17.1477 29.4445 15C29.4445 12.8522 28.2008 11.1111 26.6667 11.1111C25.1326 11.1111 23.8889 12.8522 23.8889 15C23.8889 17.1477 25.1326 18.8889 26.6667 18.8889Z" fill="#23273D"/>
<g clip-path="url(#clip1_325_7439)">
<path d="M26.191 36.5069C28.3039 36.745 30.2778 35.8048 32.0118 33.9377C34.091 31.6985 34.1723 28.3204 34.1723 27.8883C34.1723 27.4562 39.0593 26.5678 38.9254 30.0488C38.7396 34.8866 35.7149 39.0995 30.3193 39.5187C27.7344 39.7196 26.137 39.1177 25.3989 38.5054C24.2366 37.5414 25.0744 36.3812 26.191 36.5069Z" fill="#CD001D"/>
<path d="M37.6429 27.1433C37.731 26.4329 37.677 25.5212 37.3201 25.0463C36.84 24.4073 35.4055 24.7158 35.7779 25.0952C36.1928 25.5182 36.8388 26.0691 36.8154 26.8888C36.7964 26.8845 36.7787 26.8793 36.7592 26.875C35.0931 26.4995 33.8551 27.4821 33.6624 28.1531C33.3245 29.3293 35.4189 28.3986 35.6846 28.9145C36.471 30.4398 37.3711 28.9815 37.5871 29.4676C37.8032 29.9537 39.3575 31.3269 39.3575 29.7424C39.3575 28.4418 38.8424 27.6238 37.6429 27.1433Z" fill="#77B255"/>
</g>
</g>
<defs>
<clipPath id="clip0_325_7439">
<rect width="40" height="40" fill="white"/>
</clipPath>
<clipPath id="clip1_325_7439">
<rect width="15.5556" height="15.5556" fill="white" transform="translate(24.4445 24.4445)"/>
</clipPath>
</defs>
</svg>
