<svg width="40" height="40" viewBox="0 0 40 40" fill="none" xmlns="http://www.w3.org/2000/svg">
<path d="M6.66664 22.2223C6.66664 24.6767 5.42331 26.6667 3.88886 26.6667C2.35442 26.6667 1.11108 24.6767 1.11108 22.2223C1.11108 19.7678 2.35442 17.7778 3.88886 17.7778C5.42331 17.7778 6.66664 19.7678 6.66664 22.2223ZM38.8889 22.2223C38.8889 24.6767 37.6455 26.6667 36.1111 26.6667C34.5766 26.6667 33.3333 24.6767 33.3333 22.2223C33.3333 19.7678 34.5766 17.7778 36.1111 17.7778C37.6455 17.7778 38.8889 19.7678 38.8889 22.2223Z" fill="#F7DECE"/>
<path d="M4.44446 22.8467C4.44446 13.3734 11.4089 5.69336 20 5.69336C28.5911 5.69336 35.5556 13.3734 35.5556 22.8467C35.5556 32.32 28.5911 38.8889 20 38.8889C11.4089 38.8889 4.44446 32.32 4.44446 22.8467Z" fill="#F7DECE"/>
<path d="M13.3333 24.4444C13.0386 24.4444 12.756 24.3274 12.5476 24.119C12.3392 23.9106 12.2222 23.628 12.2222 23.3333V21.1111C12.2222 20.8164 12.3392 20.5338 12.5476 20.3254C12.756 20.1171 13.0386 20 13.3333 20C13.628 20 13.9106 20.1171 14.119 20.3254C14.3273 20.5338 14.4444 20.8164 14.4444 21.1111V23.3333C14.4444 23.628 14.3273 23.9106 14.119 24.119C13.9106 24.3274 13.628 24.4444 13.3333 24.4444ZM26.6666 24.4444C26.3719 24.4444 26.0893 24.3274 25.8809 24.119C25.6726 23.9106 25.5555 23.628 25.5555 23.3333V21.1111C25.5555 20.8164 25.6726 20.5338 25.8809 20.3254C26.0893 20.1171 26.3719 20 26.6666 20C26.9613 20 27.2439 20.1171 27.4523 20.3254C27.6607 20.5338 27.7777 20.8164 27.7777 21.1111V23.3333C27.7777 23.628 27.6607 23.9106 27.4523 24.119C27.2439 24.3274 26.9613 24.4444 26.6666 24.4444Z" fill="#23273D"/>
<path d="M20.0001 33.3333C15.3467 33.3333 12.9367 32.1555 12.8367 32.1055C12.5751 31.9731 12.3764 31.7426 12.284 31.4643C12.1916 31.1859 12.213 30.8824 12.3435 30.6197C12.474 30.3571 12.703 30.1567 12.9807 30.0623C13.2583 29.9678 13.562 29.987 13.8256 30.1155C13.8823 30.1422 15.9645 31.1111 20.0001 31.1111C24.0723 31.1111 26.1556 30.1244 26.1767 30.1144C26.4411 29.9863 26.7454 29.9678 27.0234 30.0629C27.3014 30.1579 27.5306 30.359 27.6612 30.6222C27.7916 30.8848 27.8125 31.1885 27.7194 31.4665C27.6263 31.7446 27.4267 31.9744 27.1645 32.1055C27.0623 32.1555 24.6534 33.3333 20.0001 33.3333ZM21.1112 27.7778H18.8889C18.5943 27.7778 18.3116 27.6607 18.1033 27.4523C17.8949 27.244 17.7778 26.9613 17.7778 26.6667C17.7778 26.372 17.8949 26.0894 18.1033 25.881C18.3116 25.6726 18.5943 25.5555 18.8889 25.5555H21.1112C21.4059 25.5555 21.6885 25.6726 21.8968 25.881C22.1052 26.0894 22.2223 26.372 22.2223 26.6667C22.2223 26.9613 22.1052 27.244 21.8968 27.4523C21.6885 27.6607 21.4059 27.7778 21.1112 27.7778Z" fill="#C1694F"/>
<path d="M20 0.393311C9.74449 0.393311 3.33337 7.57331 3.33337 13.5555C3.33337 19.5389 4.6156 21.9322 5.89782 19.5389L8.46226 14.7522C8.46226 14.7522 12.6745 14.6144 15.2389 12.2211C15.2389 12.2211 14.0489 16.6655 22.5656 12.3589C22.5656 12.3589 22.3812 16.6655 28.3334 12.2211C28.3334 12.2211 32.8211 13.5555 34.1012 19.5389C34.4567 21.1989 36.6667 19.5389 36.6667 13.5555C36.6667 7.57331 31.5389 0.393311 20 0.393311Z" fill="#23273D"/>
</svg>
