<svg width="40" height="40" viewBox="0 0 40 40" fill="none" xmlns="http://www.w3.org/2000/svg">
<g clip-path="url(#clip0_325_7424)">
<path d="M39.5 20C39.5 30.7694 30.7694 39.5 20 39.5C9.23168 39.5 0.5 30.7694 0.5 20C0.5 9.2317 9.2317 0.5 20 0.5C30.7694 0.5 39.5 9.23168 39.5 20Z" fill="white" stroke="#23273D"/>
<path d="M12.7778 22.2222C14.3119 22.2222 15.5556 20.4811 15.5556 18.3333C15.5556 16.1856 14.3119 14.4445 12.7778 14.4445C11.2437 14.4445 10 16.1856 10 18.3333C10 20.4811 11.2437 22.2222 12.7778 22.2222Z" fill="#23273D"/>
<path d="M27.2222 22.2222C28.7564 22.2222 30 20.4811 30 18.3333C30 16.1856 28.7564 14.4445 27.2222 14.4445C25.6881 14.4445 24.4445 16.1856 24.4445 18.3333C24.4445 20.4811 25.6881 22.2222 27.2222 22.2222Z" fill="#23273D"/>
<path d="M27.7778 28.8888H12.2222C11.9275 28.8888 11.6449 28.7718 11.4365 28.5634C11.2281 28.355 11.1111 28.0724 11.1111 27.7777C11.1111 27.4831 11.2281 27.2004 11.4365 26.9921C11.6449 26.7837 11.9275 26.6666 12.2222 26.6666H27.7778C28.0724 26.6666 28.3551 26.7837 28.5634 26.9921C28.7718 27.2004 28.8889 27.4831 28.8889 27.7777C28.8889 28.0724 28.7718 28.355 28.5634 28.5634C28.3551 28.7718 28.0724 28.8888 27.7778 28.8888Z" fill="#23273D"/>
<g clip-path="url(#clip1_325_7424)">
<path d="M29.5398 27.0639L29.535 28.5002L31.8459 27.9013L30.5773 27.0371L29.5398 27.0639ZM38.8118 34.5911C38.8118 34.0993 39.1406 33.6962 39.5679 33.624V28.5862C37.8395 28.1705 24.8766 31.6934 24.8766 31.6934V33.2213C25.5524 33.3483 26.0649 33.9395 26.0649 34.6524C26.0649 35.3654 25.5524 35.9574 24.8766 36.0844V39.4185L39.5679 36.6176V35.5585C39.1406 35.4859 38.8118 35.0824 38.8118 34.5911Z" fill="#FFAC33"/>
<path d="M31.1787 25.4132L29.5182 27.0738C29.8366 27.1481 30.0618 27.3291 30.0618 27.5413C30.0618 27.82 29.6746 28.0456 29.1976 28.0456C28.9928 28.0456 28.8074 28.0023 28.6596 27.9332L24.8766 31.7158C30.566 30.458 34.4009 29.4317 39.6112 28.5935C37.5103 25.7926 32.5796 25.4132 31.1787 25.4132Z" fill="#FFD983"/>
<path d="M33.0865 26.6771C33.0865 26.9558 32.6993 27.1814 32.2223 27.1814C31.7452 27.1814 31.3581 26.9558 31.3581 26.6771C31.3581 26.3984 31.7452 26.1729 32.2223 26.1729C32.6993 26.1729 33.0865 26.3984 33.0865 26.6771ZM30.9571 29.4404C30.9571 29.863 30.3699 30.2056 29.6452 30.2056C28.9206 30.2056 28.3334 29.863 28.3334 29.4404C28.3334 29.0182 28.9206 28.6751 29.6452 28.6751C30.3694 28.6756 30.9571 29.0182 30.9571 29.4404ZM36.9753 28.0533C36.9753 28.5261 36.3181 28.9093 35.5079 28.9093C34.6978 28.9093 34.0405 28.5261 34.0405 28.0533C34.0405 27.5806 34.6978 27.1974 35.5079 27.1974C36.3181 27.1974 36.9753 27.5806 36.9753 28.0533Z" fill="#FFAC33"/>
<path d="M38.9738 31.1939C38.9738 31.7694 38.5508 32.2357 38.0284 32.2357C37.506 32.2357 37.0829 31.7694 37.0829 31.1939C37.0829 30.6183 37.506 30.1521 38.0284 30.1521C38.5508 30.1521 38.9738 30.6183 38.9738 31.1939ZM29.3596 33.2948C29.3596 33.837 28.9608 34.2765 28.4686 34.2765C27.9765 34.2765 27.5776 33.8366 27.5776 33.2948C27.5776 32.752 27.9765 32.3126 28.4686 32.3126C28.9608 32.3126 29.3596 32.7525 29.3596 33.2948ZM36.7727 35.4466C36.5554 35.7067 36.1872 35.7577 35.9504 35.5598C35.7141 35.3623 35.6989 34.9907 35.9171 34.7306C36.1354 34.4692 36.5031 34.4186 36.7394 34.6161C36.9762 34.814 36.9909 35.1852 36.7727 35.4466ZM32.5883 32.2586C32.2957 32.609 31.7997 32.6777 31.4812 32.4111C31.1632 32.1454 31.1429 31.645 31.4363 31.295C31.7301 30.9433 32.2253 30.8754 32.5433 31.1412C32.8618 31.4073 32.8821 31.9073 32.5883 32.2586ZM32.9655 36.5861C32.447 37.2791 31.5162 37.4593 30.8879 36.9892C30.2592 36.5191 30.1694 35.5754 30.6879 34.8827C31.2064 34.1892 32.1371 34.009 32.7654 34.4787C33.3941 34.9488 33.484 35.8925 32.9655 36.5861Z" fill="#F4900C"/>
</g>
</g>
<defs>
<clipPath id="clip0_325_7424">
<rect width="40" height="40" fill="white"/>
</clipPath>
<clipPath id="clip1_325_7424">
<rect width="15.5556" height="15.5556" fill="white" transform="translate(24.4445 24.4445)"/>
</clipPath>
</defs>
</svg>
