<svg width="48" height="48" viewBox="0 0 48 48" fill="none" xmlns="http://www.w3.org/2000/svg">
<g clip-path="url(#clip0_1242_7700)">
<g filter="url(#filter0_d_1242_7700)">
<path d="M0 23.9997C0 37.2543 10.7453 47.9993 24 47.9993C37.2547 47.9993 48 37.2543 48 23.9997C48 10.745 37.2547 0 24 0C10.7453 0 0 10.745 0 23.9997Z" fill="#FF5C5C"/>
<mask id="mask0_1242_7700" style="mask-type:luminance" maskUnits="userSpaceOnUse" x="0" y="0" width="48" height="48">
<path d="M0 24.0003C0 37.2549 10.7453 47.9999 24 47.9999C37.2547 47.9999 48 37.2549 48 24.0003C48 10.7456 37.2547 0.000579834 24 0.000579834C10.7453 0.000579834 0 10.7456 0 24.0003Z" fill="white"/>
</mask>
<g mask="url(#mask0_1242_7700)">
<path d="M66.0645 33.0371C64.9706 32.639 63.739 32.0362 62.8665 31.5804C62.3038 31.2861 62.0123 30.4607 61.4166 30.2407C56.7467 28.5162 44.1396 24.3758 31.7695 24.798C26.6081 24.9741 21.3828 24.9741 16.2214 24.798C3.85227 24.3758 -8.75318 28.5158 -13.4246 30.2404C-14.0202 30.4603 -14.3125 31.2874 -14.8756 31.5804C-15.7481 32.0343 -16.9797 32.639 -18.0736 33.0371C-18.4848 33.1859 -18.7062 33.6212 -18.5852 34.0398C-17.4578 37.9615 -10.4925 55.4713 23.9954 55.4713C58.4834 55.4713 65.4487 37.9615 66.5761 34.0398C66.697 33.6194 66.4738 33.1859 66.0645 33.0371Z" fill="#FFDBDB"/>
</g>
<path d="M27.31 24.1012C26.9453 23.5747 26.4151 23.1599 25.8309 22.9031C25.2598 22.652 24.6235 22.4938 23.9985 22.4641C23.3752 22.4938 22.7371 22.652 22.166 22.9031C21.5818 23.1617 21.0516 23.5747 20.687 24.1012C20.3037 24.6556 19.98 25.5095 20.3986 26.1309C20.7242 26.6127 21.3883 26.7932 21.9241 26.9104C22.605 27.0592 23.3064 27.0759 23.9985 27.0759C24.6905 27.0759 25.3937 27.0592 26.0728 26.9104C26.6086 26.7932 27.2727 26.6127 27.5983 26.1309C28.0169 25.5114 27.6932 24.6556 27.31 24.1012Z" fill="black"/>
<path d="M23.1717 26.2351C23.2666 27.5783 23.0489 29.074 22.3308 30.2386C21.9811 30.806 21.3988 31.3846 20.716 31.5204C19.8602 31.6916 19.2649 31.0907 18.8426 30.4154C18.3998 29.7066 17.2724 30.3596 17.7189 31.0721C18.8221 32.8357 20.7383 33.4254 22.4462 32.0544C24.0908 30.7335 24.6154 28.2425 24.474 26.2333C24.4163 25.4017 23.1122 25.3961 23.1717 26.2333V26.2351Z" fill="black"/>
<path d="M23.1705 26.2355C23.0291 28.2428 23.5519 30.7375 25.1983 32.0565C26.8448 33.3755 28.8205 32.8398 29.9256 31.0743C30.3721 30.3618 29.2447 29.7069 28.8019 30.4176C28.3889 31.078 27.7787 31.7105 26.9285 31.5226C26.2401 31.3701 25.6727 30.8231 25.3137 30.2408C24.5955 29.0762 24.3779 27.5824 24.4728 26.2373C24.5323 25.4002 23.2282 25.4039 23.1705 26.2373V26.2355Z" fill="black"/>
<path d="M9.94707 19.7152H17.0593C17.5546 19.7152 17.9561 19.3137 17.9561 18.8185V18.7422C17.9561 18.247 17.5546 17.8455 17.0593 17.8455H9.94707C9.45183 17.8455 9.05035 18.247 9.05035 18.7422V18.8185C9.05035 19.3137 9.45183 19.7152 9.94707 19.7152Z" fill="black"/>
<path d="M38.051 17.8474H30.9387C30.4435 17.8474 30.042 18.2489 30.042 18.7441V18.8204C30.042 19.3156 30.4435 19.7171 30.9387 19.7171H38.051C38.5462 19.7171 38.9477 19.3156 38.9477 18.8204V18.7441C38.9477 18.2489 38.5462 17.8474 38.051 17.8474Z" fill="black"/>
</g>
</g>
<defs>
<filter id="filter0_d_1242_7700" x="-4" y="-4" width="56" height="55.9999" filterUnits="userSpaceOnUse" color-interpolation-filters="sRGB">
<feFlood flood-opacity="0" result="BackgroundImageFix"/>
<feColorMatrix in="SourceAlpha" type="matrix" values="0 0 0 0 0 0 0 0 0 0 0 0 0 0 0 0 0 0 127 0" result="hardAlpha"/>
<feOffset/>
<feGaussianBlur stdDeviation="2"/>
<feComposite in2="hardAlpha" operator="out"/>
<feColorMatrix type="matrix" values="0 0 0 0 0 0 0 0 0 0 0 0 0 0 0 0 0 0 0.2 0"/>
<feBlend mode="normal" in2="BackgroundImageFix" result="effect1_dropShadow_1242_7700"/>
<feBlend mode="normal" in="SourceGraphic" in2="effect1_dropShadow_1242_7700" result="shape"/>
</filter>
<clipPath id="clip0_1242_7700">
<rect width="48" height="48" fill="white"/>
</clipPath>
</defs>
</svg>
