<svg width="48" height="48" viewBox="0 0 48 48" fill="none" xmlns="http://www.w3.org/2000/svg">
<g clip-path="url(#clip0_1242_7714)">
<g filter="url(#filter0_d_1242_7714)">
<path d="M0 23.9997C0 37.2543 10.7453 47.9993 24 47.9993C37.2547 47.9993 48 37.2543 48 23.9997C48 10.745 37.2547 0 24 0C10.7453 0 0 10.745 0 23.9997Z" fill="#FF5C5C"/>
<mask id="mask0_1242_7714" style="mask-type:luminance" maskUnits="userSpaceOnUse" x="0" y="0" width="48" height="48">
<path d="M0 24.0003C0 37.2549 10.7453 47.9999 24 47.9999C37.2547 47.9999 48 37.2549 48 24.0003C48 10.7456 37.2547 0.000579834 24 0.000579834C10.7453 0.000579834 0 10.7456 0 24.0003Z" fill="white"/>
</mask>
<g mask="url(#mask0_1242_7714)">
<path d="M66.0645 33.0371C64.9706 32.639 63.739 32.0362 62.8665 31.5804C62.3038 31.2861 62.0123 30.4607 61.4166 30.2407C56.7467 28.5162 44.1396 24.3758 31.7695 24.798C26.6081 24.9741 21.3828 24.9741 16.2214 24.798C3.85227 24.3758 -8.75318 28.5158 -13.4246 30.2404C-14.0202 30.4603 -14.3125 31.2874 -14.8756 31.5804C-15.7481 32.0343 -16.9797 32.639 -18.0736 33.0371C-18.4848 33.1859 -18.7062 33.6212 -18.5852 34.0398C-17.4578 37.9615 -10.4925 55.4713 23.9954 55.4713C58.4834 55.4713 65.4487 37.9615 66.5761 34.0398C66.697 33.6194 66.4738 33.1859 66.0645 33.0371Z" fill="#FFDBDB"/>
</g>
</g>
<path d="M27.5645 23.2811C27.172 22.7143 26.6012 22.2677 25.9724 21.9914C25.3575 21.721 24.6726 21.5508 23.9997 21.5187C23.3288 21.5508 22.6419 21.721 22.0271 21.9914C21.3982 22.2697 20.8275 22.7143 20.435 23.2811C20.0224 23.8779 19.674 24.7971 20.1246 25.466C20.475 25.9847 21.19 26.179 21.7668 26.3051C22.4997 26.4653 23.2547 26.4834 23.9997 26.4834C24.7447 26.4834 25.5017 26.4653 26.2327 26.3051C26.8095 26.179 27.5244 25.9847 27.8749 25.466C28.3255 24.7991 27.977 23.8779 27.5645 23.2811Z" fill="black"/>
<path d="M23.1102 25.578C23.2124 27.0239 22.9781 28.6341 22.205 29.8877C21.8285 30.4986 21.2017 31.1214 20.4667 31.2676C19.5455 31.4518 18.9046 30.805 18.45 30.078C17.9734 29.315 16.7598 30.0179 17.2404 30.7849C18.428 32.6835 20.4907 33.3183 22.3292 31.8423C24.1676 30.3664 24.6643 27.7389 24.5121 25.576C24.45 24.6808 23.0462 24.6748 23.1102 25.576V25.578Z" fill="black"/>
<path d="M23.1097 25.5781C22.9575 27.739 23.5202 30.4246 25.2926 31.8445C27.065 33.2644 29.1918 32.6876 30.3814 30.7871C30.862 30.02 29.6484 29.3151 29.1718 30.0801C28.7272 30.7911 28.0703 31.472 27.1551 31.2697C26.4141 31.1055 25.8033 30.5167 25.4168 29.8899C24.6437 28.6362 24.4094 27.0281 24.5115 25.5801C24.5756 24.6789 23.1718 24.6829 23.1097 25.5801V25.5781Z" fill="black"/>
<path d="M40.087 21.3005C39.9949 21.3005 39.9007 21.2885 39.8086 21.2604L30.8667 18.673C30.4321 18.5468 30.1357 18.1443 30.1437 17.6917C30.1517 17.2391 30.4641 16.8485 30.9027 16.7384L38.6671 14.8098C39.2038 14.6757 39.7465 15.0041 39.8807 15.5408C40.0149 16.0775 39.6864 16.6202 39.1497 16.7544L34.9982 17.7858L40.3633 19.3379C40.894 19.4921 41.2005 20.0468 41.0463 20.5775C40.9201 21.0161 40.5195 21.3005 40.085 21.3005H40.087Z" fill="black"/>
<path d="M7.86543 21.3005C7.43085 21.3005 7.03033 21.0161 6.90416 20.5775C6.74996 20.0468 7.05635 19.4901 7.58706 19.3379L12.9522 17.7858L8.80069 16.7544C8.26397 16.6202 7.93753 16.0775 8.06971 15.5408C8.20389 15.0041 8.74462 14.6776 9.28334 14.8098L17.0477 16.7384C17.4863 16.8485 17.7987 17.2391 17.8067 17.6917C17.8147 18.1443 17.5183 18.5468 17.0837 18.673L8.1418 21.2604C8.04968 21.2865 7.95555 21.3005 7.86343 21.3005H7.86543Z" fill="black"/>
</g>
<defs>
<filter id="filter0_d_1242_7714" x="-4" y="-4" width="56" height="55.9999" filterUnits="userSpaceOnUse" color-interpolation-filters="sRGB">
<feFlood flood-opacity="0" result="BackgroundImageFix"/>
<feColorMatrix in="SourceAlpha" type="matrix" values="0 0 0 0 0 0 0 0 0 0 0 0 0 0 0 0 0 0 127 0" result="hardAlpha"/>
<feOffset/>
<feGaussianBlur stdDeviation="2"/>
<feComposite in2="hardAlpha" operator="out"/>
<feColorMatrix type="matrix" values="0 0 0 0 0 0 0 0 0 0 0 0 0 0 0 0 0 0 0.2 0"/>
<feBlend mode="normal" in2="BackgroundImageFix" result="effect1_dropShadow_1242_7714"/>
<feBlend mode="normal" in="SourceGraphic" in2="effect1_dropShadow_1242_7714" result="shape"/>
</filter>
<clipPath id="clip0_1242_7714">
<rect width="48" height="48" fill="white"/>
</clipPath>
</defs>
</svg>
