<svg width="48" height="48" viewBox="0 0 48 48" fill="none" xmlns="http://www.w3.org/2000/svg">
<g clip-path="url(#clip0_1242_7728)">
<g filter="url(#filter0_d_1242_7728)">
<path d="M0 23.9997C0 37.2543 10.7453 47.9993 24 47.9993C37.2547 47.9993 48 37.2543 48 23.9997C48 10.745 37.2547 0 24 0C10.7453 0 0 10.745 0 23.9997Z" fill="#FF5C5C"/>
<mask id="mask0_1242_7728" style="mask-type:luminance" maskUnits="userSpaceOnUse" x="0" y="0" width="48" height="48">
<path d="M0 24.0003C0 37.2549 10.7453 47.9999 24 47.9999C37.2547 47.9999 48 37.2549 48 24.0003C48 10.7456 37.2547 0.000579834 24 0.000579834C10.7453 0.000579834 0 10.7456 0 24.0003Z" fill="white"/>
</mask>
<g mask="url(#mask0_1242_7728)">
<path d="M66.0645 33.0371C64.9706 32.639 63.739 32.0362 62.8665 31.5804C62.3038 31.2861 62.0123 30.4607 61.4166 30.2407C56.7467 28.5162 44.1396 24.3758 31.7695 24.798C26.6081 24.9741 21.3828 24.9741 16.2214 24.798C3.85227 24.3758 -8.75318 28.5158 -13.4246 30.2404C-14.0202 30.4603 -14.3125 31.2874 -14.8756 31.5804C-15.7481 32.0343 -16.9797 32.639 -18.0736 33.0371C-18.4848 33.1859 -18.7062 33.6212 -18.5852 34.0398C-17.4578 37.9615 -10.4925 55.4713 23.9954 55.4713C58.4834 55.4713 65.4487 37.9615 66.5761 34.0398C66.697 33.6194 66.4738 33.1859 66.0645 33.0371Z" fill="#FFDBDB"/>
</g>
</g>
<path d="M27.5645 23.2811C27.172 22.7143 26.6012 22.2677 25.9724 21.9914C25.3575 21.721 24.6726 21.5508 23.9997 21.5187C23.3288 21.5508 22.6419 21.721 22.0271 21.9914C21.3982 22.2697 20.8275 22.7143 20.435 23.2811C20.0224 23.8779 19.674 24.7971 20.1246 25.466C20.475 25.9847 21.19 26.179 21.7668 26.3051C22.4997 26.4653 23.2547 26.4834 23.9997 26.4834C24.7447 26.4834 25.5017 26.4653 26.2327 26.3051C26.8095 26.179 27.5244 25.9847 27.8749 25.466C28.3255 24.7991 27.977 23.8779 27.5645 23.2811Z" fill="black"/>
<path d="M23.1102 25.578C23.2124 27.0239 22.9781 28.6341 22.205 29.8877C21.8285 30.4986 21.2017 31.1214 20.4667 31.2676C19.5455 31.4518 18.9046 30.805 18.45 30.078C17.9734 29.315 16.7598 30.0179 17.2404 30.7849C18.428 32.6835 20.4907 33.3183 22.3292 31.8423C24.1676 30.3664 24.6643 27.7389 24.5121 25.576C24.45 24.6808 23.0462 24.6748 23.1102 25.576V25.578Z" fill="black"/>
<path d="M23.1126 25.5781C22.9604 27.739 23.5232 30.4246 25.2955 31.8445C27.134 33.3184 29.1947 32.6876 30.3843 30.7871C30.8649 30.0201 29.6513 29.3151 29.1747 30.0801C28.7301 30.7911 28.0732 31.472 27.158 31.2697C26.417 31.1055 25.8062 30.5167 25.4197 29.8899C24.6467 28.6362 24.4123 27.0281 24.5145 25.5801C24.5786 24.6789 23.1747 24.6829 23.1126 25.5801V25.5781Z" fill="black"/>
<path d="M20.0038 16.4285L20.0054 16.7653C20.0055 16.7793 20.0013 16.7909 19.9993 16.8048C19.9874 16.9861 19.9798 17.1673 19.9616 17.3486C19.9231 17.7181 19.8378 18.0716 19.7016 18.4114C19.5318 18.8327 19.2897 19.2009 19.0114 19.539C18.674 19.9495 18.2982 20.3207 17.9203 20.6849C17.1265 21.4483 16.3262 22.2071 15.5644 23.0099C15.556 23.0192 15.5475 23.0239 15.537 23.0333C15.5178 23.0148 15.5029 22.9986 15.4858 22.9824C15.1341 22.6334 14.7867 22.2796 14.4308 21.9353C13.8938 21.4175 13.3483 20.9091 12.8092 20.3937C12.481 20.0794 12.1633 19.7488 11.8795 19.3831C11.5315 18.9342 11.2725 18.4337 11.1424 17.8582C11.0796 17.5821 11.0443 17.3035 11.0259 17.0202C11.0096 16.7276 10.9997 16.4327 11.0471 16.1421C11.1335 15.5935 11.3518 15.1185 11.7254 14.7381C12.213 14.2386 12.7974 14.0244 13.4614 14.0583C13.8157 14.0752 14.1493 14.1828 14.4599 14.3694C14.8853 14.6252 15.2137 14.9883 15.4725 15.4354C15.4811 15.4516 15.4918 15.4655 15.5025 15.484C15.513 15.4654 15.5193 15.4537 15.5256 15.4421C15.6455 15.2255 15.7866 15.025 15.9512 14.8454C16.3626 14.395 16.8491 14.1116 17.4342 14.0461C17.8794 13.9951 18.3103 14.0674 18.7123 14.2861C19.4439 14.6844 19.8564 15.3375 19.9795 16.2172C19.9883 16.2892 19.995 16.3612 20.0038 16.4332L20.0038 16.4285Z" fill="black"/>
<path d="M36.9893 16.3462L36.9909 16.683C36.991 16.697 36.9863 16.7086 36.984 16.7225C36.9708 16.9038 36.9622 17.085 36.9419 17.2663C36.8989 17.6359 36.804 17.9894 36.6524 18.3293C36.4636 18.7506 36.1943 19.119 35.8849 19.4573C35.5098 19.8679 35.0921 20.2393 34.672 20.6037C33.7895 21.3676 32.9 22.1268 32.0531 22.93C32.0437 22.9394 32.0343 22.9441 32.0225 22.9534C32.0012 22.9349 31.9847 22.9187 31.9657 22.9026C31.5752 22.5537 31.1893 22.2002 30.7941 21.856C30.1977 21.3385 29.5919 20.8304 28.9931 20.3153C28.6286 20.0012 28.2759 19.6707 27.9606 19.3052C27.5743 18.8565 27.2867 18.3561 27.1425 17.7807C27.0728 17.5046 27.0338 17.2261 27.0135 16.9428C26.9956 16.6502 26.9848 16.3552 27.0376 16.0646C27.1339 15.5159 27.3767 15.0409 27.792 14.6602C28.334 14.1605 28.9834 13.946 29.7213 13.9796C30.1149 13.9962 30.4854 14.1036 30.8304 14.2901C31.303 14.5457 31.6677 14.9086 31.9551 15.3555C31.9646 15.3717 31.9764 15.3856 31.9883 15.4041C32 15.3855 32.007 15.3738 32.014 15.3622C32.1473 15.1455 32.3042 14.945 32.4872 14.7652C32.9446 14.3147 33.4853 14.031 34.1354 13.9651C34.6301 13.914 35.1089 13.986 35.5554 14.2045C36.368 14.6024 36.8261 15.2552 36.9623 16.135C36.9721 16.2069 36.9795 16.2789 36.9893 16.3509L36.9893 16.3462Z" fill="black"/>
</g>
<defs>
<filter id="filter0_d_1242_7728" x="-4" y="-4" width="56" height="55.9999" filterUnits="userSpaceOnUse" color-interpolation-filters="sRGB">
<feFlood flood-opacity="0" result="BackgroundImageFix"/>
<feColorMatrix in="SourceAlpha" type="matrix" values="0 0 0 0 0 0 0 0 0 0 0 0 0 0 0 0 0 0 127 0" result="hardAlpha"/>
<feOffset/>
<feGaussianBlur stdDeviation="2"/>
<feComposite in2="hardAlpha" operator="out"/>
<feColorMatrix type="matrix" values="0 0 0 0 0 0 0 0 0 0 0 0 0 0 0 0 0 0 0.2 0"/>
<feBlend mode="normal" in2="BackgroundImageFix" result="effect1_dropShadow_1242_7728"/>
<feBlend mode="normal" in="SourceGraphic" in2="effect1_dropShadow_1242_7728" result="shape"/>
</filter>
<clipPath id="clip0_1242_7728">
<rect width="48" height="48" fill="white"/>
</clipPath>
</defs>
</svg>
