<svg width="48" height="48" viewBox="0 0 48 48" fill="none" xmlns="http://www.w3.org/2000/svg">
<g clip-path="url(#clip0_1242_7686)">
<g filter="url(#filter0_d_1242_7686)">
<path d="M0 23.9997C0 37.2543 10.7453 47.9993 24 47.9993C37.2547 47.9993 48 37.2543 48 23.9997C48 10.745 37.2547 0 24 0C10.7453 0 0 10.745 0 23.9997Z" fill="#FF5C5C"/>
<mask id="mask0_1242_7686" style="mask-type:luminance" maskUnits="userSpaceOnUse" x="0" y="0" width="48" height="48">
<path d="M0 24.0003C0 37.2549 10.7453 47.9999 24 47.9999C37.2547 47.9999 48 37.2549 48 24.0003C48 10.7456 37.2547 0.000579834 24 0.000579834C10.7453 0.000579834 0 10.7456 0 24.0003Z" fill="white"/>
</mask>
<g mask="url(#mask0_1242_7686)">
<path d="M66.0645 33.0371C64.9706 32.639 63.739 32.0362 62.8665 31.5804C62.3038 31.2861 62.0123 30.4607 61.4166 30.2407C56.7467 28.5162 44.1396 24.3758 31.7695 24.798C26.6081 24.9741 21.3828 24.9741 16.2214 24.798C3.85227 24.3758 -8.75318 28.5158 -13.4246 30.2404C-14.0202 30.4603 -14.3125 31.2874 -14.8756 31.5804C-15.7481 32.0343 -16.9797 32.639 -18.0736 33.0371C-18.4848 33.1859 -18.7062 33.6212 -18.5852 34.0398C-17.4578 37.9615 -10.4925 55.4713 23.9954 55.4713C58.4834 55.4713 65.4487 37.9615 66.5761 34.0398C66.697 33.6194 66.4738 33.1859 66.0645 33.0371Z" fill="#FFDBDB"/>
</g>
</g>
<path d="M27.5645 23.2811C27.172 22.7143 26.6012 22.2677 25.9724 21.9914C25.3575 21.721 24.6726 21.5508 23.9997 21.5187C23.3288 21.5508 22.6419 21.721 22.0271 21.9914C21.3983 22.2697 20.8275 22.7143 20.435 23.2811C20.0224 23.8779 19.674 24.7971 20.1246 25.466C20.475 25.9847 21.19 26.179 21.7667 26.3051C22.4997 26.4653 23.2547 26.4834 23.9997 26.4834C24.7447 26.4834 25.5017 26.4653 26.2327 26.3051C26.8095 26.179 27.5244 25.9847 27.8749 25.466C28.3255 24.7991 27.977 23.8779 27.5645 23.2811Z" fill="black"/>
<path d="M23.1103 25.578C23.2124 27.0239 22.9781 28.6341 22.205 29.8877C21.8285 30.4986 21.2017 31.1214 20.4667 31.2676C19.5455 31.4518 18.9046 30.805 18.45 30.078C17.9734 29.315 16.7598 30.0179 17.2404 30.7849C18.428 32.6835 20.4908 33.3183 22.3292 31.8423C24.1677 30.3664 24.6643 27.7389 24.5121 25.576C24.45 24.6808 23.0462 24.6748 23.1103 25.576V25.578Z" fill="black"/>
<path d="M23.1097 25.5781C22.9575 27.739 23.5202 30.4246 25.2926 31.8445C27.131 33.3184 29.1918 32.6876 30.3814 30.7871C30.862 30.0201 29.6484 29.3151 29.1717 30.0801C28.7272 30.7911 28.0703 31.472 27.1551 31.2697C26.4141 31.1055 25.8033 30.5167 25.4167 29.8899C24.6437 28.6362 24.4094 27.0281 24.5115 25.5801C24.5756 24.6789 23.1718 24.6829 23.1097 25.5801V25.5781Z" fill="black"/>
<path d="M9.42936 20.0167C8.42802 20.0167 7.33256 19.8806 6.14497 19.5561C5.61226 19.4099 5.29784 18.8592 5.44404 18.3265C5.59023 17.7938 6.13896 17.4794 6.67367 17.6256C12.4594 19.2097 15.5735 15.3345 15.6056 15.2965C15.946 14.8599 16.5769 14.7838 17.0115 15.1262C17.446 15.4667 17.5241 16.0955 17.1817 16.5321C17.0495 16.7003 14.382 20.0187 9.42936 20.0187V20.0167Z" fill="black"/>
<path d="M38.5247 20.0166C33.5701 20.0166 30.9046 16.6982 30.7724 16.53C30.4319 16.0954 30.5081 15.4646 30.9426 15.1241C31.3772 14.7837 32.0081 14.8598 32.3485 15.2943C32.4727 15.4506 35.5428 19.1935 41.2804 17.6235C41.8151 17.4773 42.3659 17.7917 42.5101 18.3244C42.6563 18.8571 42.3418 19.4078 41.8091 19.554C40.6215 19.8785 39.5261 20.0146 38.5247 20.0146V20.0166Z" fill="black"/>
<path d="M36.8789 27.1381C36.8809 26.8618 36.935 26.6014 37.0051 26.3431C37.1453 25.8244 37.3455 25.3257 37.5658 24.8371C37.8422 24.2263 38.1526 23.6315 38.5051 23.0607C38.6893 22.7603 38.8816 22.4639 39.1179 22.1995C39.188 22.1214 39.2681 22.0534 39.3482 21.9873C39.4223 21.9252 39.5064 21.9252 39.5805 21.9873C39.6766 22.0714 39.7728 22.1555 39.8569 22.2536C40.1352 22.5801 40.3595 22.9445 40.5758 23.313C40.9864 24.016 41.3469 24.7429 41.6413 25.502C41.7874 25.8765 41.9136 26.255 41.9957 26.6495C42.1079 27.1862 42.0398 27.7009 41.8095 28.1915C41.471 28.9105 40.9183 29.3931 40.1533 29.5974C39.2501 29.8397 38.433 29.6435 37.732 29.0206C37.2254 28.57 36.955 27.9953 36.8909 27.3224C36.8849 27.2583 36.8849 27.1942 36.8809 27.1361L36.8789 27.1381Z" fill="#5DADEC"/>
</g>
<defs>
<filter id="filter0_d_1242_7686" x="-4" y="-4" width="56" height="55.9999" filterUnits="userSpaceOnUse" color-interpolation-filters="sRGB">
<feFlood flood-opacity="0" result="BackgroundImageFix"/>
<feColorMatrix in="SourceAlpha" type="matrix" values="0 0 0 0 0 0 0 0 0 0 0 0 0 0 0 0 0 0 127 0" result="hardAlpha"/>
<feOffset/>
<feGaussianBlur stdDeviation="2"/>
<feComposite in2="hardAlpha" operator="out"/>
<feColorMatrix type="matrix" values="0 0 0 0 0 0 0 0 0 0 0 0 0 0 0 0 0 0 0.2 0"/>
<feBlend mode="normal" in2="BackgroundImageFix" result="effect1_dropShadow_1242_7686"/>
<feBlend mode="normal" in="SourceGraphic" in2="effect1_dropShadow_1242_7686" result="shape"/>
</filter>
<clipPath id="clip0_1242_7686">
<rect width="48" height="48" fill="white"/>
</clipPath>
</defs>
</svg>
