<svg width="343" height="216" viewBox="0 0 343 216" fill="none" xmlns="http://www.w3.org/2000/svg">
<path d="M217.097 141.339C219.634 139.556 222.321 138.149 225.096 137.112C232.857 134.21 241.286 134.19 248.909 136.796C249.091 136.857 249.27 136.921 249.448 136.982C249.715 137.124 249.955 137.327 250.141 137.59C250.769 138.478 250.554 139.705 249.667 140.334C249.651 140.346 249.634 140.354 249.622 140.362C249.407 140.447 249.197 140.54 248.986 140.638C248.297 140.958 247.624 141.343 246.98 141.793C246.944 141.817 246.907 141.841 246.871 141.87C246.83 141.902 246.785 141.93 246.745 141.963C244.573 143.592 244.034 146.635 245.521 148.909C245.549 148.949 245.574 148.99 245.606 149.03L245.622 149.051C245.772 149.277 245.922 149.508 246.064 149.739C248.974 154.477 249.861 159.948 248.913 165.086C247.916 170.513 244.869 175.57 240.002 178.999C230.138 185.945 216.513 183.582 209.575 173.726C203.667 165.334 204.51 154.209 210.982 146.805C211.188 146.57 211.395 146.343 211.61 146.117C213.243 144.374 215.075 142.765 217.105 141.335" fill="#FF5C5C"/>
<path d="M227.459 184.413C226.126 184.413 224.78 184.299 223.439 184.064C217.32 183.002 211.979 179.623 208.404 174.545C202.22 165.759 202.832 153.978 209.888 145.89C209.896 145.881 209.904 145.873 209.908 145.865C210.123 145.622 210.341 145.383 210.564 145.144C212.278 143.312 214.199 141.639 216.274 140.18C218.864 138.36 221.66 136.881 224.594 135.787C232.521 132.824 241.315 132.707 249.363 135.458C249.541 135.519 249.732 135.584 249.922 135.653C249.983 135.673 250.044 135.702 250.105 135.734C250.579 135.981 250.988 136.346 251.296 136.784C252.366 138.303 252.005 140.411 250.49 141.489C250.441 141.525 250.388 141.557 250.34 141.586C250.275 141.622 250.21 141.655 250.141 141.683C249.955 141.76 249.768 141.837 249.582 141.926C248.954 142.218 248.35 142.567 247.782 142.96C247.766 142.972 247.75 142.98 247.734 142.992C247.734 142.992 247.669 143.037 247.665 143.041L247.588 143.093C246.007 144.277 245.618 146.489 246.692 148.135L246.745 148.212C246.745 148.212 246.777 148.26 246.79 148.272C246.952 148.516 247.11 148.759 247.26 149.006C250.255 153.885 251.332 159.692 250.291 165.346C249.185 171.368 245.813 176.632 240.8 180.162C236.833 182.954 232.205 184.409 227.455 184.409L227.459 184.413ZM212.043 147.733C212.043 147.733 212.039 147.738 212.035 147.742C205.827 154.842 205.288 165.196 210.722 172.912C213.859 177.369 218.548 180.336 223.921 181.268C229.295 182.2 234.713 180.984 239.171 177.844C243.572 174.743 246.534 170.124 247.507 164.835C248.423 159.871 247.479 154.773 244.844 150.485C244.715 150.27 244.581 150.068 244.447 149.861C244.447 149.861 244.443 149.857 244.443 149.853C244.407 149.8 244.366 149.744 244.334 149.691C242.437 146.793 243.122 142.903 245.89 140.828C245.922 140.804 245.967 140.771 246.007 140.743C246.016 140.739 246.056 140.71 246.06 140.706C246.113 140.67 246.149 140.646 246.186 140.621C246.883 140.139 247.62 139.714 248.386 139.357C248.561 139.276 248.735 139.199 248.913 139.122C249.104 138.935 249.14 138.636 248.982 138.413C248.946 138.36 248.901 138.311 248.848 138.279C248.719 138.234 248.593 138.19 248.463 138.145C241.027 135.6 232.91 135.71 225.595 138.441C222.892 139.45 220.307 140.816 217.916 142.498C215.999 143.847 214.224 145.391 212.639 147.085C212.437 147.3 212.242 147.515 212.047 147.729L212.043 147.733Z" fill="black"/>
<path d="M245.614 149.054L245.598 149.034C245.57 148.994 245.541 148.953 245.513 148.913C244.026 146.639 244.565 143.6 246.737 141.967C246.777 141.934 246.822 141.906 246.862 141.873C246.899 141.849 246.935 141.821 246.972 141.796C247.616 141.347 248.289 140.962 248.978 140.641C249.188 140.544 249.399 140.451 249.614 140.366C249.63 140.358 249.646 140.346 249.659 140.338C250.546 139.709 250.761 138.482 250.133 137.594C249.946 137.331 249.707 137.124 249.44 136.986C249.261 136.921 249.079 136.856 248.901 136.8C241.278 134.194 232.849 134.214 225.088 137.116C224.756 137.237 224.428 137.367 224.099 137.505L224.107 141.351C224.107 142.656 225.441 143.535 226.64 143.028L229.104 141.991C230.288 141.493 231.601 142.364 231.605 143.648L231.617 147.701C231.617 148.982 232.922 149.853 234.105 149.362L238.324 147.624C239.507 147.134 241.387 147.008 241.391 148.293V149.711C241.4 151.044 242.781 151.879 243.936 151.352L244.755 150.975L246.368 150.307C246.263 150.12 246.157 149.934 246.044 149.752C245.902 149.521 245.756 149.29 245.602 149.063L245.614 149.054Z" fill="#FFDBDB"/>
<path d="M227.459 184.413C226.125 184.413 224.78 184.299 223.438 184.064C217.319 183.002 211.978 179.623 208.404 174.545C202.22 165.759 202.831 153.978 209.887 145.89C209.895 145.882 209.903 145.873 209.907 145.865C210.122 145.622 210.341 145.383 210.564 145.144C212.278 143.312 214.199 141.639 216.274 140.18C218.863 138.36 221.659 136.881 224.593 135.787C232.52 132.824 241.314 132.707 249.362 135.458C249.541 135.519 249.731 135.584 249.922 135.653C249.982 135.673 250.043 135.702 250.104 135.734C250.578 135.981 250.987 136.346 251.295 136.784C252.365 138.303 252.005 140.411 250.489 141.489C250.44 141.525 250.388 141.557 250.339 141.586C250.274 141.622 250.209 141.655 250.14 141.683C249.954 141.76 249.768 141.837 249.581 141.926C248.953 142.218 248.349 142.567 247.782 142.96C247.766 142.972 247.749 142.98 247.733 142.992C247.733 142.992 247.668 143.037 247.664 143.041L247.587 143.093C246.007 144.277 245.618 146.489 246.692 148.135L246.744 148.212C246.744 148.212 246.777 148.26 246.789 148.272C246.951 148.516 247.109 148.759 247.259 149.006C250.254 153.885 251.332 159.692 250.29 165.346C249.184 171.368 245.812 176.632 240.799 180.162C236.832 182.954 232.204 184.409 227.454 184.409L227.459 184.413ZM212.043 147.733C212.043 147.733 212.039 147.738 212.035 147.742C205.826 154.842 205.287 165.196 210.722 172.912C213.858 177.369 218.547 180.336 223.921 181.268C229.294 182.2 234.713 180.984 239.17 177.844C243.571 174.743 246.534 170.124 247.506 164.835C248.422 159.871 247.478 154.773 244.844 150.485C244.714 150.27 244.58 150.068 244.447 149.861C244.447 149.861 244.443 149.857 244.443 149.853C244.406 149.8 244.366 149.744 244.333 149.691C242.437 146.793 243.121 142.903 245.889 140.828C245.922 140.804 245.966 140.771 246.007 140.743C246.015 140.739 246.055 140.711 246.06 140.706C246.112 140.67 246.149 140.646 246.185 140.621C246.882 140.139 247.62 139.714 248.386 139.357C248.56 139.276 248.734 139.199 248.913 139.122C249.103 138.936 249.139 138.636 248.981 138.413C248.945 138.36 248.9 138.311 248.848 138.279C248.718 138.234 248.592 138.19 248.463 138.145C241.026 135.6 232.909 135.71 225.594 138.441C222.891 139.45 220.306 140.816 217.915 142.498C215.998 143.847 214.223 145.391 212.639 147.085C212.436 147.3 212.241 147.515 212.047 147.729L212.043 147.733Z" fill="black"/>
<path d="M199.614 196.42C198.646 196.42 197.673 196.384 196.729 196.347C195.805 196.315 194.852 196.278 193.924 196.278H166.866C164.167 196.278 161.415 196.315 158.757 196.347C156.086 196.38 153.322 196.416 150.603 196.416C148.978 196.416 147.503 196.404 146.101 196.38C142.3 196.311 135.37 195.456 131.654 190.475C129.494 187.586 128.983 183.886 128.78 180.988C128.363 175.055 128.914 169.094 129.445 163.332C129.563 162.075 129.676 160.819 129.781 159.563L129.862 158.602C130.389 152.349 130.936 145.881 131.779 139.511C132.428 134.603 133.514 129.72 134.559 124.995C134.871 123.593 135.179 122.191 135.483 120.788L137.655 110.645C137.866 109.664 138.146 108.659 138.446 107.597C139.021 105.547 139.613 103.427 139.613 101.644C139.613 93.5029 146.239 86.877 154.38 86.877H187.278C195.371 86.877 201.961 93.4178 202.046 101.49L205.077 115.662C206.41 121.903 207.772 126.223 209.089 130.401C210.422 134.636 211.804 139.017 213.166 145.383C213.668 147.725 214.252 150.124 214.815 152.442C216.266 158.392 217.765 164.543 218.142 170.772C218.649 179.173 215.686 192.749 205.438 195.711C203.748 196.201 201.948 196.42 199.614 196.42Z" fill="#FF5C5C"/>
<path d="M187.278 88.3035C194.65 88.3035 200.627 94.281 200.627 101.652C201.648 106.422 202.67 111.196 203.691 115.966C206.39 128.573 209.081 133.076 211.78 145.683C213.559 153.999 216.213 162.331 216.728 170.857C217.226 179.132 214.284 191.679 205.044 194.349C203.249 194.868 201.438 195.002 199.614 195.002C197.79 195.002 195.829 194.86 193.928 194.86H166.87C161.456 194.86 156.025 194.998 150.607 194.998C149.112 194.998 147.62 194.986 146.129 194.961C141.388 194.876 135.787 193.64 132.792 189.628C130.948 187.16 130.414 183.963 130.199 180.891C129.704 173.807 130.604 166.736 131.2 159.684C131.763 153.002 132.306 146.356 133.19 139.701C134.02 133.432 135.548 127.28 136.873 121.088C137.599 117.708 138.32 114.329 139.045 110.945C139.661 108.068 141.035 104.582 141.035 101.648C141.035 94.2769 147.013 88.2995 154.384 88.2995H187.282M187.282 85.4627H154.384C145.461 85.4627 138.198 92.7248 138.198 101.648C138.198 103.237 137.631 105.263 137.084 107.217C136.792 108.254 136.492 109.328 136.273 110.349L134.101 120.493C133.801 121.891 133.485 123.313 133.181 124.691C132.128 129.445 131.038 134.36 130.377 139.329C129.526 145.736 128.983 152.228 128.452 158.505L128.371 159.445C128.266 160.693 128.148 161.97 128.035 163.206C127.5 169.025 126.945 175.039 127.37 181.09C127.585 184.182 128.14 188.141 130.519 191.326C134.6 196.789 142.02 197.725 146.081 197.798C147.495 197.822 148.974 197.835 150.607 197.835C153.335 197.835 156.102 197.798 158.777 197.766C161.435 197.733 164.183 197.697 166.87 197.697H193.928C194.828 197.697 195.728 197.729 196.68 197.766C197.636 197.802 198.621 197.839 199.618 197.839C202.094 197.839 204.011 197.604 205.835 197.077C210.835 195.63 214.754 191.723 217.17 185.774C218.997 181.272 219.869 175.773 219.561 170.691C219.176 164.333 217.66 158.12 216.197 152.114C215.634 149.804 215.05 147.417 214.556 145.095C213.178 138.664 211.788 134.251 210.442 129.984C209.077 125.647 207.788 121.554 206.467 115.378L203.464 101.344C203.294 92.5627 196.101 85.4749 187.282 85.4749V85.4627Z" fill="black"/>
<path d="M228.702 70.359C228.139 70.359 227.624 70.0226 227.401 69.4998C224.492 62.7281 219.945 56.9533 213.886 52.3456C207.868 47.7662 200.383 44.3176 191.642 42.1008C191.452 42.0522 191.269 41.9631 191.115 41.8415C190.783 41.5781 190.576 41.1769 190.568 40.7554C190.56 40.3299 190.734 39.9206 191.054 39.645L223.645 11.5693C224.508 10.8277 225.606 10.4184 226.741 10.4184C227.369 10.4184 227.989 10.54 228.577 10.779C229.76 11.2613 230.684 12.161 231.178 13.32C231.267 13.5307 231.348 13.7293 231.438 13.9441L231.498 14.094C231.624 14.4101 231.758 14.7546 231.887 15.1112L231.993 15.407C232.094 15.6785 232.195 15.9703 232.297 16.2661L232.414 16.6147C232.54 16.9875 232.666 17.3765 232.787 17.7777L232.815 17.8628C232.945 18.2883 233.075 18.7382 233.205 19.1961L233.314 19.5973C233.411 19.9499 233.504 20.3146 233.598 20.6874L233.703 21.1089C233.825 21.6154 233.942 22.1301 234.06 22.665L234.072 22.7339C234.185 23.2648 234.287 23.7835 234.384 24.3144C234.412 24.4684 234.441 24.6265 234.469 24.7845C234.55 25.2505 234.623 25.6923 234.696 26.1421L234.773 26.6405C234.862 27.2444 234.947 27.8604 235.024 28.4925L235.057 28.7843C235.121 29.3314 235.178 29.8907 235.231 30.458C235.251 30.6606 235.267 30.8673 235.283 31.074C235.328 31.5927 235.365 32.1195 235.397 32.6585L235.429 33.1894C235.47 33.9188 235.498 34.6442 235.519 35.3494L235.527 35.787C235.539 36.3909 235.547 37.0069 235.543 37.6309C235.543 37.866 235.543 38.101 235.539 38.3401C235.531 38.9521 235.519 39.5761 235.498 40.2083C235.498 40.2083 235.486 40.6379 235.482 40.7514C235.45 41.5457 235.405 42.3724 235.348 43.2031C235.34 43.3247 235.3 43.807 235.3 43.807C235.251 44.4635 235.194 45.1321 235.129 45.8048C235.105 46.0723 235.077 46.3357 235.048 46.6032C234.971 47.3326 234.886 48.0742 234.789 48.824C234.789 48.824 234.744 49.2049 234.728 49.3021C234.611 50.1734 234.477 51.0771 234.319 52.0578C234.295 52.2159 234.193 52.7995 234.193 52.7995C234.072 53.5168 233.938 54.2462 233.796 54.9797C233.796 54.9797 233.675 55.6038 233.626 55.8632C233.448 56.7588 233.257 57.6463 233.063 58.5094L232.986 58.8498C232.771 59.786 232.524 60.7869 232.236 61.9014C232.187 62.0959 232.005 62.7727 232.005 62.7727C231.794 63.5629 231.575 64.3572 231.34 65.1636C231.34 65.1636 231.142 65.8485 231.069 66.0998C230.704 67.3358 230.38 68.3732 230.056 69.3701C229.873 69.9334 229.363 70.3225 228.771 70.3468C228.751 70.3468 228.727 70.3468 228.706 70.3468L228.702 70.359Z" fill="#FF5C5C"/>
<path d="M226.741 11.8368C227.187 11.8368 227.629 11.9259 228.042 12.0921C228.828 12.4122 229.505 13.0079 229.874 13.8752C229.955 14.0697 230.036 14.2642 230.121 14.4709C230.141 14.5195 230.157 14.56 230.178 14.6087C230.303 14.9207 230.429 15.253 230.559 15.5975C230.591 15.6907 230.627 15.7879 230.66 15.8812C230.757 16.1527 230.854 16.4323 230.956 16.72C230.992 16.8335 231.033 16.9429 231.069 17.0564C231.191 17.4211 231.312 17.798 231.434 18.1911C231.442 18.2194 231.45 18.2438 231.462 18.2762C231.588 18.6936 231.714 19.1272 231.839 19.573C231.876 19.7027 231.908 19.8323 231.945 19.962C232.038 20.3105 232.131 20.6631 232.22 21.0278C232.253 21.1656 232.289 21.2993 232.321 21.4412C232.439 21.9356 232.556 22.4381 232.67 22.9609C232.678 22.9892 232.682 23.0217 232.69 23.0541C232.796 23.5444 232.893 24.055 232.99 24.5738C233.018 24.7359 233.051 24.902 233.079 25.0682C233.152 25.4896 233.225 25.9233 233.294 26.365C233.318 26.5271 233.347 26.6892 233.371 26.8553C233.46 27.447 233.541 28.0468 233.614 28.6668C233.626 28.76 233.634 28.8573 233.647 28.9545C233.707 29.4895 233.764 30.0365 233.817 30.5917C233.837 30.7903 233.853 30.9929 233.869 31.1956C233.91 31.7062 233.951 32.2249 233.983 32.7517C233.995 32.926 234.007 33.0962 234.015 33.2704C234.052 33.9634 234.084 34.6686 234.1 35.3899C234.1 35.5317 234.105 35.6776 234.109 35.8195C234.121 36.4111 234.125 37.015 234.125 37.6269C234.125 37.8579 234.125 38.0889 234.121 38.3239C234.113 38.9277 234.1 39.5397 234.08 40.1637C234.076 40.3421 234.072 40.5163 234.064 40.6946C234.032 41.4849 233.991 42.2873 233.934 43.1059C233.922 43.3004 233.902 43.503 233.89 43.7016C233.841 44.35 233.784 45.0024 233.72 45.6711C233.695 45.9305 233.667 46.1939 233.638 46.4573C233.561 47.1746 233.476 47.904 233.383 48.6456C233.363 48.8037 233.347 48.9577 233.322 49.1198C233.201 50.0113 233.067 50.915 232.917 51.835C232.877 52.0781 232.832 52.3253 232.792 52.5685C232.67 53.2776 232.54 53.9949 232.402 54.7203C232.346 55.0081 232.293 55.2998 232.232 55.5876C232.058 56.4467 231.876 57.318 231.673 58.2014C231.649 58.3149 231.624 58.4243 231.6 58.5378C231.373 59.5266 231.122 60.5357 230.858 61.5529C230.786 61.8365 230.704 62.1283 230.627 62.412C230.421 63.1901 230.202 63.9803 229.971 64.7746C229.882 65.0826 229.793 65.3906 229.704 65.7026C229.387 66.7684 229.059 67.8423 228.703 68.9406C225.424 61.3057 220.448 55.5592 214.746 51.219C207.686 45.8454 199.504 42.6358 191.995 40.727L191.983 40.7189L224.569 12.6473C225.209 12.0961 225.979 11.8368 226.741 11.8368ZM226.741 9C225.266 9 223.84 9.53088 222.721 10.4954L190.131 38.5671C189.482 39.1263 189.122 39.949 189.146 40.804C189.17 41.6591 189.584 42.4575 190.265 42.9762C190.568 43.2072 190.925 43.3814 191.294 43.4746C199.849 45.6468 207.159 49.0104 213.027 53.4762C218.887 57.934 223.284 63.5143 226.097 70.0631C226.547 71.1087 227.572 71.7814 228.703 71.7814C228.747 71.7814 228.788 71.7814 228.832 71.7814C230.011 71.7287 231.037 70.9506 231.402 69.8281C231.73 68.8149 232.058 67.7654 232.427 66.5212C232.5 66.2781 232.569 66.039 232.638 65.7999L232.702 65.5729C232.937 64.7584 233.164 63.9479 233.375 63.1536L233.444 62.8942C233.501 62.6876 233.557 62.4768 233.61 62.2702C233.902 61.1395 234.149 60.1304 234.368 59.1821C234.384 59.1092 234.4 59.0363 234.417 58.9633L234.445 58.8417C234.639 57.9745 234.834 57.0708 235.016 56.159C235.073 55.8794 235.126 55.6078 235.178 55.3323L235.191 55.2674C235.332 54.5258 235.466 53.7802 235.592 53.0548L235.636 52.7913C235.665 52.6292 235.693 52.4631 235.721 52.301C235.88 51.3284 236.021 50.3882 236.139 49.5048C236.151 49.4035 236.163 49.3021 236.175 49.2049L236.2 49.0185C236.297 48.2647 236.386 47.5069 236.463 46.7653C236.491 46.4938 236.52 46.2222 236.544 45.9548C236.609 45.274 236.67 44.5891 236.718 43.9245L236.735 43.7056C236.747 43.5719 236.755 43.4382 236.763 43.3085C236.82 42.4656 236.864 41.6267 236.897 40.8162C236.901 40.6987 236.905 40.5812 236.909 40.4636V40.2651C236.937 39.6086 236.949 38.9683 236.957 38.3644C236.957 38.1213 236.962 37.8822 236.962 37.6431C236.962 37.0109 236.957 36.3787 236.945 35.7708V35.6006C236.945 35.5074 236.941 35.4142 236.937 35.321C236.917 34.5997 236.889 33.8581 236.848 33.1205C236.84 33.003 236.836 32.8895 236.828 32.772L236.816 32.5856C236.779 32.0263 236.743 31.4833 236.698 30.9646C236.682 30.7538 236.662 30.5472 236.645 30.3364C236.593 29.7488 236.532 29.1734 236.467 28.6303L236.455 28.525C236.447 28.4601 236.443 28.3953 236.435 28.3304C236.362 27.7266 236.277 27.1066 236.179 26.442C236.159 26.3163 236.143 26.1948 236.123 26.0732L236.098 25.9314C236.025 25.4653 235.948 25.0074 235.875 24.5819L235.855 24.4644C235.831 24.3306 235.807 24.1969 235.782 24.0672C235.673 23.4836 235.572 22.9649 235.466 22.4746L235.446 22.3854C235.341 21.887 235.219 21.3642 235.081 20.7847C235.053 20.6631 235.02 20.5456 234.992 20.4281L234.972 20.3511C234.879 19.9701 234.781 19.5973 234.68 19.2326L234.648 19.1191C234.619 19.0178 234.595 18.9205 234.567 18.8233C234.425 18.3127 234.295 17.8669 234.169 17.4576L234.141 17.3725C234.019 16.9794 233.894 16.5863 233.756 16.1729C233.72 16.0595 233.679 15.95 233.643 15.8366L233.634 15.8163C233.529 15.5124 233.428 15.2165 233.322 14.9288L233.286 14.8316L233.213 14.6249C233.075 14.248 232.937 13.8954 232.808 13.5712L232.763 13.4618L232.747 13.4213C232.658 13.1984 232.569 12.9917 232.484 12.781C231.835 11.2613 230.636 10.0901 229.104 9.47009C228.346 9.1621 227.548 9.00405 226.733 9.00405L226.741 9Z" fill="black"/>
<path d="M108.113 70.359C107.521 70.3306 107.011 69.9416 106.828 69.3823C106.504 68.3854 106.172 67.3155 105.815 66.1119C105.746 65.8728 105.677 65.6378 105.608 65.4027L105.544 65.1718C105.313 64.3653 105.09 63.571 104.879 62.7808C104.879 62.7808 104.697 62.104 104.648 61.9095C104.356 60.7788 104.109 59.7819 103.898 58.8539L103.825 58.5135C103.631 57.6584 103.44 56.7669 103.262 55.8672C103.201 55.5714 103.144 55.2796 103.092 54.9878C102.95 54.2543 102.82 53.5249 102.695 52.8076L102.65 52.5442C102.622 52.3821 102.593 52.224 102.569 52.0619C102.415 51.1136 102.277 50.1897 102.156 49.3103L102.095 48.8321C101.998 48.0783 101.912 47.3407 101.835 46.6113C101.807 46.3438 101.779 46.0764 101.754 45.813C101.69 45.1402 101.633 44.4716 101.584 43.8151C101.584 43.8151 101.548 43.3288 101.536 43.2112C101.479 42.3805 101.434 41.5538 101.402 40.7595C101.398 40.6501 101.386 40.2205 101.386 40.2205C101.365 39.5883 101.349 38.9642 101.345 38.3482C101.345 38.1091 101.341 37.8741 101.341 37.6391C101.341 37.015 101.345 36.403 101.357 35.7992L101.365 35.3575C101.386 34.6483 101.414 33.9189 101.455 33.1975C101.463 33.084 101.487 32.6707 101.487 32.6707C101.519 32.1317 101.556 31.6008 101.6 31.0821C101.6 31.0821 101.637 30.6404 101.653 30.4661C101.706 29.8988 101.763 29.3436 101.827 28.7965L101.86 28.5007C101.937 27.8685 102.018 27.2565 102.111 26.6527L102.188 26.1543C102.257 25.7044 102.334 25.2627 102.407 24.8291L102.496 24.3266C102.593 23.7957 102.695 23.2729 102.804 22.7704L102.824 22.6772C102.938 22.1423 103.059 21.6236 103.181 21.121L103.286 20.6955C103.379 20.3268 103.473 19.958 103.57 19.6054L103.679 19.2042C103.805 18.7463 103.935 18.3005 104.068 17.8709L104.085 17.8142C104.218 17.3806 104.344 16.9956 104.47 16.6187L104.587 16.2743C104.688 15.9744 104.79 15.6866 104.891 15.4111L104.996 15.1193C105.13 14.7627 105.26 14.4223 105.39 14.0981L105.446 13.9562C105.531 13.7414 105.616 13.5429 105.698 13.3443C106.2 12.1731 107.124 11.2694 108.307 10.7912C108.895 10.5521 109.515 10.4305 110.143 10.4305C111.278 10.4305 112.376 10.8398 113.239 11.5815L145.829 39.6531C146.15 39.9287 146.332 40.338 146.32 40.7595C146.308 41.1809 146.113 41.5821 145.777 41.8415C145.623 41.9631 145.432 42.0603 145.238 42.109C136.497 44.3297 129.012 47.7744 122.994 52.3537C116.935 56.9614 112.388 62.7362 109.478 69.5079C109.256 70.0307 108.741 70.3671 108.178 70.3671C108.157 70.3671 108.133 70.3671 108.113 70.3671V70.359Z" fill="#FF5C5C"/>
<path d="M110.139 11.8368C110.901 11.8368 111.667 12.0921 112.311 12.6473L144.901 40.7189L144.889 40.727C137.376 42.6358 129.194 45.8494 122.139 51.219C116.433 55.5592 111.46 61.3057 108.182 68.9406C107.825 67.8464 107.497 66.7684 107.181 65.7026C107.088 65.3906 107.002 65.0826 106.913 64.7746C106.682 63.9803 106.463 63.1901 106.257 62.412C106.18 62.1243 106.103 61.8365 106.026 61.5529C105.762 60.5357 105.511 59.5266 105.284 58.5378C105.26 58.4243 105.236 58.3149 105.211 58.2014C105.013 57.318 104.826 56.4467 104.652 55.5876C104.595 55.2958 104.539 55.0081 104.482 54.7203C104.344 53.9949 104.21 53.2777 104.093 52.5685C104.052 52.3253 104.008 52.0781 103.967 51.835C103.817 50.915 103.679 50.0073 103.562 49.1198C103.542 48.9617 103.525 48.8037 103.501 48.6456C103.404 47.9081 103.319 47.1786 103.246 46.4573C103.217 46.1939 103.193 45.9305 103.165 45.6711C103.1 45.0065 103.043 44.35 102.995 43.7016C102.978 43.503 102.962 43.3004 102.95 43.1059C102.893 42.2873 102.853 41.4808 102.82 40.6946C102.812 40.5163 102.808 40.3421 102.804 40.1638C102.784 39.5397 102.768 38.9277 102.764 38.3239C102.764 38.0889 102.76 37.8579 102.76 37.6269C102.76 37.015 102.764 36.4111 102.776 35.8195C102.776 35.6776 102.776 35.5317 102.784 35.3899C102.804 34.6686 102.832 33.9634 102.869 33.2704C102.877 33.0962 102.889 32.926 102.901 32.7517C102.934 32.2249 102.97 31.7062 103.015 31.1956C103.031 30.9929 103.047 30.7944 103.067 30.5917C103.12 30.0365 103.177 29.4895 103.238 28.9545C103.25 28.8613 103.258 28.76 103.27 28.6668C103.343 28.0468 103.428 27.4429 103.513 26.8553C103.538 26.6892 103.566 26.5311 103.59 26.365C103.659 25.9233 103.732 25.4937 103.805 25.0682C103.833 24.902 103.862 24.7359 103.894 24.5738C103.991 24.055 104.089 23.5444 104.194 23.0541C104.202 23.0257 104.206 22.9933 104.214 22.9609C104.328 22.4381 104.441 21.9315 104.563 21.4412C104.595 21.3034 104.632 21.1656 104.664 21.0278C104.753 20.6631 104.847 20.3065 104.94 19.962C104.976 19.8323 105.009 19.6986 105.045 19.573C105.171 19.1272 105.296 18.6895 105.422 18.2762C105.43 18.2478 105.438 18.2194 105.45 18.1911C105.572 17.798 105.694 17.4211 105.815 17.0564C105.852 16.9429 105.892 16.8294 105.929 16.72C106.026 16.4323 106.127 16.1527 106.224 15.8812C106.257 15.7879 106.293 15.6907 106.326 15.5975C106.451 15.253 106.581 14.9207 106.707 14.6087C106.727 14.56 106.743 14.5155 106.763 14.4709C106.848 14.2642 106.93 14.0697 107.011 13.8752C107.379 13.0079 108.056 12.4122 108.842 12.0921C109.256 11.9259 109.697 11.8368 110.143 11.8368M110.143 9C109.329 9 108.534 9.15805 107.772 9.46199C106.241 10.082 105.045 11.2532 104.401 12.7567C104.308 12.9796 104.218 13.1903 104.129 13.4091L104.113 13.4496L104.068 13.5591C103.939 13.8792 103.805 14.2358 103.663 14.6127C103.639 14.6816 103.611 14.7505 103.586 14.8234L103.554 14.9167C103.448 15.2044 103.347 15.5002 103.242 15.8042L103.23 15.8366C103.193 15.9419 103.157 16.0514 103.12 16.1608C102.982 16.5741 102.857 16.9672 102.735 17.3563L102.707 17.4454C102.581 17.8547 102.452 18.3005 102.31 18.8152C102.281 18.9124 102.257 19.0097 102.229 19.111L102.196 19.2285C102.099 19.5932 102.002 19.9661 101.904 20.3511L101.884 20.4362C101.856 20.5496 101.827 20.6672 101.799 20.7806C101.661 21.3561 101.54 21.8789 101.434 22.3733L101.418 22.4584C101.313 22.9568 101.211 23.4796 101.102 24.0632C101.078 24.1969 101.053 24.3347 101.029 24.4725L101.009 24.5778C100.932 25.0074 100.859 25.4613 100.782 25.9314L100.758 26.0813C100.737 26.2029 100.721 26.3204 100.701 26.442C100.604 27.1066 100.518 27.7266 100.446 28.3345C100.437 28.3993 100.429 28.4642 100.425 28.529L100.413 28.6344C100.348 29.1815 100.292 29.7529 100.235 30.3405C100.215 30.5472 100.198 30.7579 100.182 30.9686C100.138 31.4792 100.101 32.0263 100.065 32.5856L100.052 32.772C100.044 32.8895 100.036 33.003 100.032 33.1205C99.9916 33.8581 99.9633 34.5997 99.943 35.321C99.943 35.4142 99.943 35.5074 99.939 35.6006V35.7668C99.9228 36.3787 99.9187 37.0109 99.9187 37.639C99.9187 37.8781 99.9187 38.1172 99.9228 38.3604C99.9309 38.9683 99.943 39.6086 99.9633 40.2651V40.4636C99.9714 40.5812 99.9754 40.6946 99.9795 40.8162C100.012 41.6267 100.056 42.4656 100.113 43.3085C100.121 43.4382 100.133 43.5679 100.142 43.7016L100.158 43.9245C100.206 44.5931 100.267 45.274 100.332 45.9548C100.356 46.2222 100.385 46.4938 100.413 46.7653C100.49 47.5028 100.579 48.2607 100.677 49.0185L100.701 49.2008C100.713 49.3021 100.725 49.4035 100.737 49.5048C100.855 50.3842 100.997 51.3243 101.155 52.301C101.183 52.4631 101.211 52.6292 101.24 52.7914L101.284 53.0548C101.41 53.7802 101.544 54.5258 101.686 55.2674L101.694 55.308C101.746 55.5916 101.803 55.8713 101.86 56.159C102.042 57.0708 102.237 57.9745 102.431 58.8417L102.46 58.9633C102.476 59.0363 102.492 59.1092 102.508 59.1862C102.727 60.1385 102.974 61.1476 103.266 62.2783C103.319 62.4809 103.375 62.6876 103.428 62.8942L103.501 63.1617C103.712 63.9519 103.939 64.7665 104.174 65.577L104.239 65.7958C104.308 66.039 104.376 66.2821 104.449 66.5253C104.818 67.7735 105.146 68.8231 105.475 69.8321C105.839 70.9547 106.865 71.7327 108.044 71.7854C108.089 71.7854 108.129 71.7854 108.174 71.7854C109.304 71.7854 110.33 71.1127 110.779 70.0672C113.592 63.5224 117.989 57.9421 123.849 53.4803C129.717 49.0144 137.027 45.6508 145.582 43.4787C145.955 43.3855 146.304 43.2153 146.608 42.9843C147.288 42.4656 147.702 41.6632 147.726 40.8081C147.75 39.953 147.394 39.1304 146.749 38.5711L114.159 10.4954C113.041 9.53088 111.61 9 110.139 9L110.143 9Z" fill="black"/>
<path d="M214.745 52.6374C214.437 52.6374 214.133 52.536 213.886 52.3496C207.868 47.7703 200.383 44.3216 191.642 42.1049C191.452 42.0563 191.269 41.9671 191.115 41.8455C190.783 41.5821 190.576 41.1809 190.568 40.7595C190.56 40.334 190.734 39.9247 191.054 39.6491L223.645 11.5693C224.508 10.8277 225.606 10.4184 226.741 10.4184C227.369 10.4184 227.989 10.54 228.577 10.779C229.095 10.9898 229.44 11.4842 229.46 12.0434C229.995 27.1471 220.196 44.9862 215.957 51.9565C215.75 52.301 215.402 52.5401 215.009 52.613C214.92 52.6292 214.835 52.6374 214.745 52.6374Z" fill="#FF5C5C"/>
<path d="M226.741 11.8368C227.187 11.8368 227.629 11.9259 228.042 12.0921C228.22 17.178 227.207 30.7214 214.742 51.219C207.682 45.8454 199.5 42.6358 191.991 40.727L191.979 40.7189L224.569 12.6473C225.209 12.0961 225.979 11.8368 226.741 11.8368ZM226.741 9C225.266 9 223.84 9.53088 222.721 10.4954L190.131 38.5671C189.482 39.1263 189.122 39.9449 189.146 40.804C189.17 41.6591 189.584 42.4575 190.265 42.9762C190.568 43.2072 190.925 43.3814 191.294 43.4787C199.849 45.6508 207.159 49.0144 213.027 53.4803C213.526 53.8572 214.13 54.0598 214.746 54.0598C214.92 54.0598 215.098 54.0436 215.273 54.0112C216.063 53.8612 216.752 53.383 217.169 52.6981C222.713 43.5841 226.648 34.8144 228.873 26.6243C230.717 19.8364 230.98 14.9248 230.879 11.9948C230.838 10.8763 230.145 9.8875 229.112 9.46604C228.354 9.15805 227.556 9 226.741 9Z" fill="black"/>
<path d="M228.703 70.3589C228.139 70.3589 227.625 70.0226 227.402 69.4998C224.492 62.7281 219.945 56.9532 213.887 52.3455C213.307 51.9079 213.157 51.1014 213.534 50.4814C225.858 30.2189 226.794 16.9186 226.628 12.1447C226.612 11.6625 226.839 11.2086 227.232 10.933C227.475 10.7628 227.758 10.6777 228.046 10.6777C228.229 10.6777 228.407 10.7101 228.581 10.7831C229.764 11.2653 230.688 12.165 231.183 13.324C231.272 13.5347 231.353 13.7333 231.442 13.9481L231.503 14.098C231.629 14.4141 231.762 14.7586 231.892 15.1152L231.997 15.411C232.099 15.6866 232.2 15.9743 232.301 16.2702L232.419 16.6187C232.544 16.9915 232.67 17.3805 232.792 17.7817L232.82 17.8668C232.95 18.2924 233.079 18.7422 233.209 19.2001L233.318 19.6013C233.416 19.9539 233.509 20.3186 233.602 20.6914L233.708 21.1129C233.829 21.6195 233.947 22.1341 234.064 22.6691L234.076 22.738C234.19 23.2688 234.291 23.7876 234.388 24.3184C234.417 24.4724 234.445 24.6305 234.473 24.7885C234.554 25.2546 234.627 25.6963 234.7 26.1461L234.777 26.6446C234.867 27.2484 234.952 27.8644 235.029 28.4966L235.061 28.7883C235.126 29.3354 235.183 29.8947 235.235 30.462C235.256 30.6646 235.272 30.8713 235.288 31.078C235.333 31.5967 235.369 32.1236 235.401 32.6625L235.434 33.1934C235.474 33.9229 235.503 34.6483 235.523 35.3534L235.531 35.7911C235.543 36.3949 235.551 37.0109 235.547 37.635C235.547 37.87 235.547 38.105 235.543 38.3441C235.535 38.9561 235.523 39.5802 235.503 40.2123C235.503 40.2123 235.491 40.6419 235.487 40.7554C235.454 41.5497 235.41 42.3764 235.353 43.2071C235.345 43.3287 235.304 43.811 235.304 43.811C235.256 44.4675 235.199 45.1361 235.134 45.8089C235.11 46.0763 235.081 46.3397 235.053 46.6072C234.976 47.3366 234.891 48.0783 234.794 48.828C234.794 48.828 234.749 49.2089 234.733 49.3062C234.615 50.1775 234.482 51.0812 234.319 52.0619C234.295 52.2199 234.194 52.8035 234.194 52.8035C234.072 53.5208 233.939 54.2502 233.797 54.9837L233.776 55.0972C233.728 55.3525 233.679 55.6078 233.626 55.8672C233.448 56.7628 233.258 57.6543 233.063 58.5135L232.986 58.8539C232.771 59.79 232.524 60.791 232.236 61.9054C232.188 62.0999 232.005 62.7767 232.005 62.7767C231.795 63.5669 231.576 64.3612 231.341 65.1677L231.288 65.3581C231.215 65.6053 231.146 65.8566 231.069 66.1078C230.705 67.3439 230.38 68.3813 230.056 69.3782C229.874 69.9415 229.363 70.3305 228.772 70.3549C228.751 70.3549 228.727 70.3549 228.707 70.3549L228.703 70.3589Z" fill="#FFDBDB"/>
<path d="M228.042 12.092C228.828 12.4122 229.505 13.0079 229.874 13.8751C229.955 14.0696 230.036 14.2642 230.121 14.4708C230.141 14.5195 230.157 14.56 230.178 14.6086C230.303 14.9207 230.429 15.253 230.559 15.5974C230.591 15.6906 230.628 15.7879 230.66 15.8811C230.757 16.1526 230.854 16.4323 230.956 16.72C230.992 16.8335 231.033 16.9429 231.069 17.0563C231.191 17.4211 231.312 17.7979 231.434 18.191C231.442 18.2194 231.45 18.2437 231.462 18.2761C231.588 18.6936 231.714 19.1272 231.839 19.5729C231.876 19.7026 231.908 19.8323 231.945 19.962C232.038 20.3105 232.131 20.6631 232.22 21.0278C232.253 21.1656 232.289 21.2993 232.321 21.4411C232.439 21.9356 232.557 22.4381 232.67 22.9608C232.678 22.9892 232.682 23.0216 232.69 23.054C232.796 23.5444 232.893 24.055 232.99 24.5737C233.019 24.7358 233.051 24.902 233.079 25.0681C233.152 25.4896 233.225 25.9232 233.294 26.3649C233.318 26.527 233.347 26.6891 233.371 26.8553C233.46 27.447 233.541 28.0467 233.614 28.6668C233.626 28.76 233.635 28.8572 233.647 28.9545C233.707 29.4894 233.764 30.0365 233.817 30.5917C233.837 30.7903 233.853 30.9929 233.87 31.1955C233.91 31.7061 233.951 32.2249 233.983 32.7517C233.995 32.9259 234.007 33.0961 234.015 33.2704C234.052 33.9634 234.084 34.6685 234.101 35.3899C234.101 35.5317 234.105 35.6776 234.109 35.8194C234.121 36.4111 234.125 37.0149 234.125 37.6268C234.125 37.8578 234.125 38.0888 234.121 38.3239C234.113 38.9277 234.101 39.5396 234.08 40.1637C234.076 40.342 234.072 40.5163 234.064 40.6946C234.032 41.4848 233.991 42.2872 233.934 43.1058C233.922 43.3004 233.902 43.503 233.89 43.7015C233.841 44.3499 233.784 45.0024 233.72 45.6711C233.695 45.9304 233.667 46.1938 233.639 46.4573C233.562 47.1745 233.476 47.904 233.383 48.6456C233.363 48.8036 233.347 48.9576 233.322 49.1197C233.201 50.0113 233.067 50.915 232.917 51.8349C232.877 52.0781 232.832 52.3253 232.792 52.5684C232.67 53.2776 232.54 53.9949 232.403 54.7203C232.346 55.008 232.293 55.2998 232.232 55.5875C232.058 56.4467 231.876 57.318 231.673 58.2014C231.649 58.3149 231.624 58.4243 231.6 58.5378C231.373 59.5266 231.122 60.5356 230.859 61.5528C230.786 61.8365 230.705 62.1283 230.628 62.412C230.421 63.19 230.202 63.9803 229.971 64.7746C229.882 65.0826 229.793 65.3905 229.704 65.7026C229.387 66.7684 229.059 67.8423 228.703 68.9405C225.424 61.3056 220.448 55.5592 214.746 51.2189C227.211 30.7214 228.224 17.1779 228.046 12.092M228.046 9.25527C227.475 9.25527 226.903 9.42953 226.421 9.76589C225.635 10.317 225.177 11.2288 225.213 12.1893C225.38 16.8375 224.452 29.8055 212.326 49.7398C211.573 50.9798 211.877 52.5927 213.032 53.4721C218.891 57.9299 223.288 63.5102 226.101 70.059C226.551 71.1046 227.576 71.7773 228.707 71.7773C228.751 71.7773 228.792 71.7773 228.836 71.7773C230.016 71.7246 231.041 70.9465 231.406 69.824C231.734 68.8109 232.062 67.7613 232.431 66.5171C232.504 66.274 232.573 66.0349 232.642 65.7917L232.706 65.5689C232.942 64.7543 233.168 63.9438 233.379 63.1495L233.448 62.8901C233.505 62.6835 233.562 62.4727 233.614 62.2701C233.906 61.1395 234.153 60.1304 234.372 59.1821C234.388 59.1092 234.404 59.0362 234.421 58.9633L234.449 58.8417C234.648 57.9745 234.838 57.0708 235.02 56.1589C235.077 55.8793 235.13 55.6078 235.183 55.3322L235.195 55.2674C235.337 54.5258 235.47 53.7801 235.596 53.0547L235.64 52.7913C235.669 52.6292 235.697 52.4631 235.726 52.301C235.884 51.3284 236.025 50.3882 236.143 49.5047C236.155 49.4034 236.167 49.3021 236.179 49.2048L236.204 49.0184C236.301 48.2647 236.39 47.5069 236.467 46.7652C236.496 46.4937 236.524 46.2222 236.548 45.9547C236.613 45.2739 236.674 44.589 236.723 43.9244L236.739 43.7056C236.751 43.5719 236.759 43.4381 236.767 43.3085C236.824 42.4655 236.868 41.6267 236.901 40.8162C236.905 40.6986 236.909 40.5811 236.913 40.4636V40.265C236.941 39.6085 236.954 38.9682 236.962 38.3644C236.962 38.1213 236.966 37.8822 236.966 37.6431C236.966 37.0109 236.962 36.3787 236.949 35.7708V35.6006C236.949 35.5074 236.945 35.4142 236.941 35.321C236.921 34.5996 236.893 33.858 236.852 33.1205C236.844 33.0029 236.84 32.8895 236.832 32.7719L236.82 32.5855C236.783 32.0263 236.747 31.4833 236.702 30.9645C236.686 30.7538 236.666 30.5471 236.65 30.3364C236.597 29.7488 236.536 29.1733 236.471 28.6303L236.459 28.529C236.451 28.4641 236.447 28.3993 236.439 28.3345C236.366 27.7306 236.281 27.1106 236.184 26.446C236.163 26.3204 236.147 26.1988 236.127 26.0772L236.102 25.9354C236.03 25.4693 235.953 25.0114 235.88 24.5859L235.859 24.4724C235.835 24.3387 235.811 24.205 235.786 24.0712C235.677 23.4877 235.576 22.9689 235.47 22.4786L235.45 22.3854C235.345 21.8869 235.223 21.3642 235.085 20.7887C235.057 20.6671 235.025 20.5455 234.996 20.428L234.976 20.3551C234.883 19.9741 234.785 19.6013 234.684 19.2366L234.652 19.1231C234.623 19.0218 234.599 18.9245 234.571 18.8273C234.429 18.3167 234.299 17.8709 234.173 17.4616L234.145 17.3765C234.024 16.9834 233.898 16.5903 233.76 16.1729C233.724 16.0594 233.683 15.946 233.647 15.8365C233.537 15.5123 233.432 15.2165 233.327 14.9328L233.29 14.8356L233.217 14.6329C233.079 14.2561 232.942 13.9035 232.812 13.5793L232.767 13.4699L232.751 13.4294C232.662 13.2065 232.573 12.9998 232.488 12.7891C231.839 11.2694 230.64 10.0982 229.108 9.47816C228.763 9.34037 228.403 9.27148 228.042 9.27148L228.046 9.25527Z" fill="black"/>
<path d="M122.077 52.6374C121.988 52.6374 121.903 52.6292 121.814 52.613C121.421 52.5401 121.072 52.301 120.866 51.9565C116.627 44.9862 106.828 27.1471 107.363 12.0434C107.383 11.4842 107.727 10.9898 108.246 10.779C108.834 10.54 109.45 10.4184 110.082 10.4184C111.217 10.4184 112.315 10.8277 113.178 11.5693L145.768 39.641C146.088 39.9165 146.271 40.3218 146.259 40.7473C146.25 41.1728 146.052 41.57 145.715 41.8293C145.562 41.9509 145.371 42.0482 145.177 42.0968C136.435 44.3176 128.95 47.7622 122.932 52.3415C122.685 52.532 122.381 52.6292 122.073 52.6292L122.077 52.6374Z" fill="#FF5C5C"/>
<path d="M110.078 11.8368C110.84 11.8368 111.606 12.0921 112.25 12.6473L144.84 40.7189L144.828 40.727C137.315 42.6358 129.133 45.8494 122.073 51.219C109.612 30.7214 108.599 17.178 108.777 12.0921C109.191 11.9259 109.632 11.8368 110.078 11.8368ZM110.078 9C109.263 9 108.469 9.15805 107.707 9.46604C106.67 9.8875 105.977 10.8763 105.94 11.9948C105.835 14.9207 106.103 19.8364 107.946 26.6243C110.171 34.8104 114.11 43.5841 119.65 52.6981C120.067 53.383 120.756 53.8612 121.547 54.0112C121.721 54.0436 121.899 54.0598 122.073 54.0598C122.689 54.0598 123.293 53.8612 123.792 53.4803C129.66 49.0144 136.97 45.6508 145.525 43.4787C145.898 43.3855 146.251 43.2153 146.555 42.9802C147.231 42.4615 147.645 41.6591 147.669 40.804C147.693 39.953 147.337 39.1263 146.688 38.5711L114.102 10.4954C112.984 9.53088 111.553 9 110.082 9H110.078Z" fill="black"/>
<path d="M108.052 70.3589C107.46 70.3305 106.949 69.9415 106.767 69.3823C106.443 68.3853 106.11 67.3155 105.754 66.1119C105.685 65.8728 105.482 65.1758 105.482 65.1758C105.251 64.3693 105.028 63.575 104.818 62.7848C104.818 62.7848 104.635 62.108 104.587 61.9135C104.295 60.7828 104.048 59.7819 103.837 58.8579L103.764 58.5175C103.569 57.6624 103.379 56.7709 103.201 55.8712C103.14 55.5754 103.083 55.2836 103.03 54.9918C102.889 54.2583 102.759 53.5289 102.633 52.8116L102.589 52.5482C102.56 52.3861 102.532 52.224 102.508 52.0659C102.354 51.1176 102.216 50.1896 102.094 49.3143L102.034 48.8361C101.936 48.0823 101.851 47.3447 101.774 46.6153C101.746 46.3478 101.722 46.0844 101.693 45.8169C101.628 45.1402 101.572 44.4756 101.523 43.8191C101.523 43.8191 101.486 43.3328 101.474 43.2152C101.418 42.3845 101.373 41.5578 101.341 40.7635C101.337 40.6541 101.324 40.2245 101.324 40.2245C101.304 39.5923 101.288 38.9682 101.284 38.3522C101.284 38.1131 101.28 37.8781 101.28 37.643C101.28 37.019 101.284 36.407 101.296 35.8032L101.304 35.3615C101.324 34.6523 101.353 33.9229 101.393 33.2015C101.401 33.088 101.426 32.6747 101.426 32.6747C101.458 32.1357 101.495 31.6089 101.539 31.0861C101.539 31.0861 101.576 30.6444 101.592 30.4701C101.645 29.9028 101.701 29.3476 101.766 28.8005L101.799 28.5047C101.876 27.8725 101.957 27.2565 102.05 26.6567L102.127 26.1583C102.196 25.7084 102.273 25.2667 102.346 24.8331L102.435 24.3306C102.532 23.7997 102.633 23.2769 102.743 22.7744L102.763 22.6812C102.876 22.1463 102.998 21.6276 103.12 21.125L103.225 20.6995C103.318 20.3308 103.411 19.962 103.509 19.6094L103.618 19.2082C103.744 18.7503 103.873 18.3045 104.007 17.8749L104.023 17.8182C104.157 17.3846 104.283 16.9996 104.408 16.6227L104.526 16.2742C104.627 15.9784 104.728 15.6906 104.83 15.4151L104.935 15.1233C105.069 14.7667 105.199 14.4263 105.328 14.1021L105.385 13.9602C105.47 13.7454 105.555 13.5469 105.636 13.3523C106.139 12.1771 107.063 11.2734 108.246 10.7952C108.416 10.7263 108.599 10.6898 108.781 10.6898C109.069 10.6898 109.352 10.775 109.596 10.9452C109.989 11.2207 110.216 11.6787 110.199 12.1569C110.029 16.9348 110.969 30.231 123.293 50.4935C123.67 51.1136 123.52 51.92 122.94 52.3577C116.882 56.9654 112.335 62.7362 109.425 69.5119C109.202 70.0347 108.688 70.3711 108.124 70.3711C108.104 70.3711 108.08 70.3711 108.06 70.3711L108.052 70.3589Z" fill="#FFDBDB"/>
<path d="M108.777 12.092C108.599 17.1779 109.612 30.7214 122.077 51.2189C116.371 55.5592 111.399 61.3056 108.121 68.9405C107.764 67.8464 107.436 66.7684 107.12 65.7026C107.026 65.3905 106.941 65.0825 106.852 64.7746C106.621 63.9803 106.402 63.19 106.196 62.4119C106.119 62.1242 106.042 61.8365 105.965 61.5528C105.701 60.5356 105.45 59.5266 105.223 58.5378C105.199 58.4243 105.174 58.3149 105.15 58.2014C104.952 57.318 104.765 56.4467 104.591 55.5875C104.534 55.2958 104.477 55.008 104.421 54.7203C104.283 53.9949 104.149 53.2776 104.032 52.5684C103.991 52.3253 103.946 52.0781 103.906 51.8349C103.756 50.915 103.618 50.0072 103.501 49.1197C103.48 48.9617 103.464 48.8036 103.44 48.6456C103.343 47.908 103.258 47.1786 103.185 46.4572C103.156 46.1938 103.132 45.9304 103.104 45.6711C103.039 45.0064 102.982 44.3499 102.933 43.7015C102.917 43.503 102.901 43.3003 102.889 43.1058C102.832 42.2872 102.792 41.4808 102.759 40.6946C102.751 40.5163 102.747 40.342 102.743 40.1637C102.723 39.5396 102.706 38.9277 102.702 38.3239C102.702 38.0888 102.698 37.8578 102.698 37.6268C102.698 37.0149 102.702 36.4111 102.715 35.8194C102.715 35.6776 102.715 35.5317 102.723 35.3899C102.743 34.6685 102.771 33.9634 102.808 33.2704C102.816 33.0961 102.828 32.9259 102.84 32.7517C102.873 32.2248 102.909 31.7061 102.954 31.1955C102.97 30.9929 102.986 30.7943 103.006 30.5917C103.059 30.0365 103.116 29.4894 103.177 28.9545C103.189 28.8613 103.197 28.76 103.209 28.6667C103.282 28.0467 103.367 27.4429 103.452 26.8553C103.476 26.6891 103.505 26.5311 103.529 26.3649C103.598 25.9232 103.671 25.4936 103.744 25.0681C103.772 24.902 103.801 24.7358 103.833 24.5737C103.93 24.055 104.028 23.5444 104.133 23.054C104.141 23.0257 104.145 22.9932 104.153 22.9608C104.267 22.4381 104.38 21.9315 104.502 21.4411C104.534 21.3034 104.571 21.1656 104.603 21.0278C104.692 20.6631 104.785 20.3064 104.879 19.962C104.915 19.8323 104.947 19.6986 104.984 19.5729C105.11 19.1272 105.235 18.6895 105.361 18.2761C105.369 18.2478 105.377 18.2194 105.389 18.191C105.511 17.7979 105.632 17.4211 105.754 17.0563C105.79 16.9429 105.831 16.8294 105.867 16.72C105.965 16.4322 106.066 16.1526 106.163 15.8811C106.196 15.7879 106.232 15.6906 106.265 15.5974C106.39 15.253 106.52 14.9207 106.645 14.6086C106.666 14.56 106.682 14.5154 106.702 14.4708C106.787 14.2642 106.868 14.0696 106.949 13.8751C107.318 13.0079 107.995 12.4122 108.781 12.092M108.781 9.25526C108.42 9.25526 108.06 9.32415 107.715 9.46194C106.183 10.082 104.988 11.2531 104.344 12.7566C104.25 12.9795 104.161 13.1902 104.072 13.4091L104.056 13.4496L104.011 13.559C103.882 13.8792 103.748 14.2358 103.606 14.6127C103.582 14.6816 103.553 14.7505 103.529 14.8234L103.497 14.9166C103.391 15.2043 103.29 15.4961 103.185 15.8041L103.172 15.8325C103.136 15.9419 103.1 16.0473 103.063 16.1607C102.925 16.5741 102.8 16.9672 102.678 17.3562L102.65 17.4454C102.524 17.8547 102.394 18.3045 102.253 18.8151C102.224 18.9124 102.2 19.0096 102.171 19.1109L102.139 19.2285C102.042 19.5932 101.945 19.966 101.847 20.351L101.827 20.4361C101.799 20.5496 101.77 20.6671 101.742 20.7806C101.604 21.356 101.483 21.8788 101.377 22.3773L101.361 22.4624C101.256 22.9608 101.154 23.4795 101.045 24.0631C101.021 24.1968 100.996 24.3346 100.972 24.4724L100.952 24.5778C100.875 25.0073 100.802 25.4612 100.725 25.9313L100.7 26.0813C100.68 26.2028 100.664 26.3204 100.644 26.4419C100.546 27.1065 100.461 27.7225 100.388 28.3344C100.38 28.3993 100.372 28.4641 100.368 28.529L100.356 28.6343C100.291 29.1814 100.234 29.7528 100.178 30.3404C100.157 30.5471 100.141 30.7578 100.125 30.9686C100.08 31.4792 100.044 32.0263 100.007 32.5855L99.9953 32.7719C99.9872 32.8895 99.9791 33.0029 99.975 33.1205C99.9345 33.858 99.9061 34.5996 99.8859 35.321C99.8859 35.4142 99.8859 35.5074 99.8818 35.6006V35.7667C99.8656 36.3787 99.8616 37.0109 99.8616 37.639C99.8616 37.8781 99.8616 38.1212 99.8656 38.3603C99.8737 38.9682 99.8859 39.6085 99.9062 40.261V40.4636C99.9143 40.5811 99.9183 40.6946 99.9224 40.8121C99.9548 41.6226 99.9994 42.4615 100.056 43.3044C100.064 43.4341 100.076 43.5638 100.084 43.6975L100.101 43.9204C100.149 44.589 100.21 45.2699 100.275 45.9507C100.299 46.2181 100.328 46.4897 100.356 46.7612C100.433 47.4987 100.522 48.2606 100.619 49.0144L100.644 49.1967C100.656 49.298 100.668 49.3994 100.68 49.5007C100.798 50.3801 100.94 51.3202 101.098 52.2969C101.126 52.459 101.154 52.6252 101.183 52.7873L101.227 53.0507C101.353 53.7761 101.487 54.5217 101.628 55.2633L101.637 55.316C101.689 55.5956 101.746 55.8753 101.803 56.1589C101.985 57.0708 102.18 57.9745 102.374 58.8417L102.402 58.9633C102.419 59.0362 102.435 59.1092 102.451 59.1862C102.67 60.1385 102.917 61.1476 103.209 62.2782C103.262 62.4808 103.318 62.6875 103.371 62.8901L103.444 63.1576C103.655 63.9478 103.882 64.7624 104.117 65.577L104.177 65.7877C104.246 66.0349 104.319 66.278 104.392 66.5252C104.761 67.7734 105.089 68.823 105.418 69.8321C105.782 70.9546 106.808 71.7327 107.987 71.7854C108.031 71.7854 108.072 71.7854 108.117 71.7854C109.247 71.7854 110.272 71.1127 110.722 70.0671C113.535 63.5223 117.932 57.942 123.792 53.4802C124.947 52.6008 125.251 50.9879 124.497 49.7479C112.376 29.8055 111.448 16.8415 111.614 12.1933C111.646 11.2329 111.192 10.3211 110.406 9.76993C109.924 9.43357 109.353 9.25931 108.781 9.25931V9.25526Z" fill="black"/>
<path d="M168.398 136.646C143.176 136.646 123.517 131.248 109.974 120.602C99.1696 112.112 95.575 102.755 94.5335 99.1277C94.1242 97.7053 94.8942 96.1978 96.2842 95.6953C98.0835 95.0388 100.146 94.0256 101.556 93.2921C99.3398 91.4118 96.6975 88.417 95.3156 86.8041C94.3633 85.6856 94.4241 84.0484 95.4615 82.9907C105.337 72.9486 106.707 68.6002 106.723 68.5597C106.74 68.4908 106.756 68.4462 106.784 68.3814C112.288 55.5714 122.929 46.4047 138.414 41.1283C150.572 36.9867 162.202 36.5368 166.64 36.5368C167.572 36.5368 168.18 36.5571 168.382 36.5652H168.415C168.617 36.5571 169.221 36.5368 170.157 36.5368C174.595 36.5368 186.221 36.9826 198.383 41.1283C213.868 46.4047 224.505 55.5714 230.009 68.3814C230.037 68.4462 230.057 68.5111 230.078 68.58C230.086 68.6002 231.455 72.9486 241.331 82.9907C242.369 84.0484 242.434 85.6856 241.477 86.8041C240.095 88.421 237.449 91.4118 235.24 93.3165C236.651 94.0256 238.709 95.0388 240.513 95.6953C241.903 96.2018 242.673 97.7094 242.263 99.1277C241.222 102.755 237.627 112.112 226.827 120.602C213.28 131.248 193.625 136.646 168.398 136.646Z" fill="#FF5C5C"/>
<path d="M170.153 37.9552C178.712 37.9552 216.125 39.6654 228.704 68.9406C228.704 68.9406 229.863 73.3538 240.318 83.9835C240.829 84.5023 240.873 85.3249 240.399 85.8801C239.09 87.412 236.472 90.3824 234.312 92.2385C233.559 92.8869 233.7 94.0864 234.58 94.5444C236.063 95.3184 238.162 96.3477 240.022 97.0245C240.723 97.2798 241.1 98.0174 240.894 98.7346C238.973 105.413 227.115 135.223 168.394 135.223C109.673 135.223 97.8158 105.413 95.895 98.7346C95.6883 98.0214 96.0692 97.2798 96.7662 97.0245C98.6263 96.3477 100.726 95.3184 102.209 94.5444C103.088 94.0864 103.23 92.8869 102.476 92.2385C100.316 90.3784 97.6983 87.4079 96.3894 85.8801C95.9152 85.3249 95.9598 84.5023 96.4704 83.9835C106.922 73.3538 108.085 68.9406 108.085 68.9406C120.664 39.6613 158.081 37.9552 166.635 37.9552C167.592 37.9552 168.188 37.9755 168.346 37.9836H168.435C168.597 37.9755 169.189 37.9552 170.145 37.9552M170.145 35.1185C169.253 35.1185 168.658 35.1347 168.39 35.1468C168.147 35.1387 167.535 35.1185 166.635 35.1185C162.129 35.1185 150.312 35.5723 137.956 39.7829C130.892 42.1901 124.708 45.4645 119.578 49.5211C113.309 54.4773 108.567 60.633 105.479 67.8181C105.406 67.9843 105.386 68.0167 105.349 68.1747C105.175 68.6367 103.392 72.8959 94.4482 81.9938C92.888 83.5783 92.7988 86.0422 94.2334 87.7199C95.3276 89.0005 97.208 91.1362 99.064 92.9477C98.0104 93.4542 96.8513 93.973 95.7936 94.3579C93.7066 95.1158 92.5516 97.3811 93.1636 99.5168C94.2456 103.278 97.9617 112.967 109.086 121.712C115.306 126.604 122.921 130.458 131.723 133.173C142.239 136.415 154.575 138.06 168.39 138.06C182.205 138.06 194.541 136.415 205.057 133.173C213.855 130.458 221.474 126.604 227.695 121.712C238.819 112.967 242.535 103.278 243.617 99.5168C244.229 97.3811 243.074 95.1158 240.987 94.3579C239.929 93.973 238.77 93.4542 237.716 92.9477C239.572 91.1362 241.453 89.0005 242.547 87.7199C243.982 86.0382 243.888 83.5783 242.332 81.9938C233.388 72.8959 231.605 68.6367 231.431 68.1747C231.399 68.0207 231.374 67.9883 231.301 67.8181C228.213 60.633 223.472 54.4732 217.203 49.5211C212.072 45.4645 205.888 42.1901 198.829 39.7829C186.468 35.5723 174.651 35.1185 170.145 35.1185Z" fill="black"/>
<path d="M240.026 97.0245C238.166 96.3477 236.067 95.3184 234.583 94.5444C233.963 94.2242 233.72 93.5353 233.886 92.9315C226.762 90.1717 194.743 78.6991 168.402 84.6198C142.061 78.6991 110.042 90.1717 102.918 92.9315C103.08 93.5353 102.837 94.2202 102.221 94.5444C100.737 95.3184 98.6382 96.3477 96.7781 97.0245C96.077 97.2798 95.7001 98.0174 95.9068 98.7347C97.8277 105.413 109.685 135.223 168.406 135.223C227.127 135.223 238.988 105.409 240.905 98.7347C241.112 98.0214 240.731 97.2798 240.034 97.0245H240.026Z" fill="#FFDBDB"/>
<path d="M192.976 161.2L190.354 192.773C189.767 199.824 184.952 205.186 179.202 205.186C173.01 205.186 167.993 198.998 167.993 191.367V158.371" fill="#FF5C5C"/>
<path d="M179.202 206.6C172.24 206.6 166.574 199.763 166.574 191.363V158.367C166.574 157.585 167.211 156.949 167.993 156.949C168.775 156.949 169.411 157.585 169.411 158.367V191.363C169.411 198.199 173.804 203.763 179.202 203.763C184.227 203.763 188.413 198.985 188.94 192.651L191.562 161.078C191.627 160.296 192.32 159.721 193.094 159.781C193.876 159.846 194.456 160.531 194.391 161.313L191.769 192.886C191.12 200.704 185.718 206.6 179.202 206.6Z" fill="black"/>
<path d="M143.005 161.2L145.627 192.773C146.214 199.824 151.029 205.186 156.779 205.186C162.971 205.186 167.988 198.998 167.988 191.367V158.371" fill="#FF5C5C"/>
<path d="M156.779 206.6C150.267 206.6 144.861 200.704 144.212 192.886L141.59 161.313C141.526 160.531 142.105 159.846 142.887 159.781C143.673 159.717 144.354 160.296 144.419 161.078L147.041 192.651C147.568 198.985 151.754 203.763 156.779 203.763C162.177 203.763 166.57 198.199 166.57 191.363V158.367C166.57 157.585 167.206 156.949 167.988 156.949C168.771 156.949 169.407 157.585 169.407 158.367V191.363C169.407 199.763 163.741 206.6 156.779 206.6Z" fill="black"/>
<path d="M175.611 83.169C174.817 82.0221 173.662 81.1184 172.39 80.5592C171.146 80.0121 169.76 79.6676 168.398 79.6028C167.04 79.6676 165.65 80.0121 164.406 80.5592C163.134 81.1225 161.979 82.0221 161.184 83.169C160.35 84.3766 159.645 86.2367 160.556 87.5903C161.266 88.6399 162.712 89.033 163.879 89.2883C165.363 89.6125 166.89 89.649 168.398 89.649C169.905 89.649 171.437 89.6125 172.916 89.2883C174.084 89.033 175.53 88.6399 176.24 87.5903C177.151 86.2408 176.446 84.3766 175.611 83.169Z" fill="black"/>
<path d="M166.594 87.8171C166.801 90.743 166.327 94.0012 164.763 96.5381C164.001 97.7741 162.732 99.0345 161.245 99.3303C159.381 99.7031 158.084 98.3942 157.164 96.9231C156.2 95.3791 153.744 96.8015 154.716 98.3536C157.12 102.195 161.294 103.48 165.014 100.493C168.596 97.6161 169.739 92.1898 169.431 87.8131C169.306 86.0016 166.465 85.9894 166.594 87.8131V87.8171Z" fill="black"/>
<path d="M166.594 87.8171C166.286 92.1897 167.425 97.6241 171.011 100.497C174.731 103.48 178.901 102.203 181.309 98.3576C182.281 96.8055 179.825 95.379 178.861 96.9271C177.961 98.3657 176.632 99.7436 174.78 99.3343C173.281 99.002 172.045 97.8105 171.262 96.5421C169.698 94.0052 169.224 90.7511 169.431 87.8211C169.56 85.9975 166.72 86.0056 166.594 87.8211V87.8171Z" fill="black"/>
<path d="M152.864 76.4459H138.668C137.55 76.4459 136.642 75.5381 136.642 74.4196C136.642 73.3011 137.55 72.3934 138.668 72.3934H152.864C153.983 72.3934 154.891 73.3011 154.891 74.4196C154.891 75.5381 153.983 76.4459 152.864 76.4459Z" fill="black"/>
<path d="M198.212 76.4459H184.016C182.898 76.4459 181.99 75.5381 181.99 74.4196C181.99 73.3011 182.898 72.3934 184.016 72.3934H198.212C199.33 72.3934 200.238 73.3011 200.238 74.4196C200.238 75.5381 199.33 76.4459 198.212 76.4459Z" fill="black"/>
<path d="M213 73C213 83.4493 204.314 92 193.5 92C182.686 92 174 83.4493 174 73C174 62.5507 182.686 54 193.5 54C204.314 54 213 62.5507 213 73Z" stroke="black" stroke-width="4"/>
<path d="M163 73C163 83.4493 154.314 92 143.5 92C132.686 92 124 83.4493 124 73C124 62.5507 132.686 54 143.5 54C154.314 54 163 62.5507 163 73Z" stroke="black" stroke-width="4"/>
<path d="M163 73H174" stroke="black" stroke-width="4"/>
</svg>
