<svg width="48" height="48" viewBox="0 0 48 48" fill="none" xmlns="http://www.w3.org/2000/svg">
<path d="M21.2622 5.48347L27.6582 16.4095L18.6342 18.9745C12.4017 16.915 8.73122 12.9505 6.51722 8.87647C5.58422 7.15747 5.59172 4.00146 9.30122 4.00146H18.6732C19.1967 4.00137 19.7111 4.13825 20.1652 4.3985C20.6194 4.65875 20.9976 5.03331 21.2622 5.48497V5.48347Z" fill="#FF5C5C"/>
<path d="M21.2622 5.48347L27.6582 16.4095L18.6342 18.9745C12.4017 16.915 8.73122 12.9505 6.51722 8.87647C5.58422 7.15747 5.59172 4.00146 9.30122 4.00146H18.6732C19.1967 4.00137 19.7111 4.13825 20.1652 4.3985C20.6194 4.65875 20.9976 5.03331 21.2622 5.48497V5.48347Z" fill="#4A5470"/>
<path d="M26.9273 5.4835L20.5312 16.4095L29.5552 18.9745C35.7877 16.9135 39.4583 12.949 41.6723 8.875C42.6053 7.156 42.5978 4 38.8882 4H29.5163C28.9928 3.99991 28.4784 4.13679 28.0242 4.39704C27.57 4.65728 27.1919 5.03184 26.9273 5.4835V5.4835Z" fill="#5E6B8F"/>
<path d="M24.0705 45.27C32.3946 45.27 39.1425 38.522 39.1425 30.198C39.1425 21.8739 32.3946 15.126 24.0705 15.126C15.7465 15.126 8.99854 21.8739 8.99854 30.198C8.99854 38.522 15.7465 45.27 24.0705 45.27Z" fill="url(#paint0_linear_2228_12172)"/>
<path d="M24.0705 45.27C32.3946 45.27 39.1425 38.522 39.1425 30.198C39.1425 21.8739 32.3946 15.126 24.0705 15.126C15.7465 15.126 8.99854 21.8739 8.99854 30.198C8.99854 38.522 15.7465 45.27 24.0705 45.27Z" fill="url(#paint1_linear_2228_12172)"/>
<path d="M24.0706 43.23C31.268 43.23 37.1026 37.3954 37.1026 30.198C37.1026 23.0006 31.268 17.166 24.0706 17.166C16.8732 17.166 11.0386 23.0006 11.0386 30.198C11.0386 37.3954 16.8732 43.23 24.0706 43.23Z" fill="url(#paint2_linear_2228_12172)"/>
<path d="M24.0706 41.5754C30.3542 41.5754 35.4481 36.4816 35.4481 30.1979C35.4481 23.9143 30.3542 18.8204 24.0706 18.8204C17.787 18.8204 12.6931 23.9143 12.6931 30.1979C12.6931 36.4816 17.787 41.5754 24.0706 41.5754Z" fill="url(#paint3_linear_2228_12172)"/>
<path d="M24.0706 41.5754C30.3542 41.5754 35.4481 36.4816 35.4481 30.1979C35.4481 23.9143 30.3542 18.8204 24.0706 18.8204C17.787 18.8204 12.6931 23.9143 12.6931 30.1979C12.6931 36.4816 17.787 41.5754 24.0706 41.5754Z" fill="url(#paint4_radial_2228_12172)"/>
<path d="M24.0706 41.5754C30.3542 41.5754 35.4481 36.4816 35.4481 30.1979C35.4481 23.9143 30.3542 18.8204 24.0706 18.8204C17.787 18.8204 12.6931 23.9143 12.6931 30.1979C12.6931 36.4816 17.787 41.5754 24.0706 41.5754Z" fill="url(#paint5_radial_2228_12172)"/>
<g filter="url(#filter0_ii_2228_12172)">
<path d="M25.8301 25.2C25.8301 24.8817 25.7037 24.5765 25.4786 24.3515C25.2536 24.1264 24.9484 24 24.6301 24H21.7201C21.561 24 21.4084 24.0632 21.2959 24.1757C21.1833 24.2883 21.1201 24.4409 21.1201 24.6V26.3655C21.1201 26.6955 21.3871 26.9655 21.7201 26.9655H22.3846C22.4841 26.9655 22.5795 27.005 22.6498 27.0753C22.7201 27.1457 22.7596 27.241 22.7596 27.3405V36C22.7596 36.1989 22.8386 36.3897 22.9793 36.5303C23.1199 36.671 23.3107 36.75 23.5096 36.75H25.0801C25.279 36.75 25.4698 36.671 25.6104 36.5303C25.7511 36.3897 25.8301 36.1989 25.8301 36V25.2Z" fill="#6F3955"/>
</g>
<path d="M25.8301 25.2C25.8301 24.8817 25.7037 24.5765 25.4786 24.3515C25.2536 24.1264 24.9484 24 24.6301 24H21.7201C21.561 24 21.4084 24.0632 21.2959 24.1757C21.1833 24.2883 21.1201 24.4409 21.1201 24.6V26.3655C21.1201 26.6955 21.3871 26.9655 21.7201 26.9655H22.3846C22.4841 26.9655 22.5795 27.005 22.6498 27.0753C22.7201 27.1457 22.7596 27.241 22.7596 27.3405V36C22.7596 36.1989 22.8386 36.3897 22.9793 36.5303C23.1199 36.671 23.3107 36.75 23.5096 36.75H25.0801C25.279 36.75 25.4698 36.671 25.6104 36.5303C25.7511 36.3897 25.8301 36.1989 25.8301 36V25.2Z" fill="url(#paint6_linear_2228_12172)"/>
<defs>
<filter id="filter0_ii_2228_12172" x="20.8201" y="23.8" width="5.20996" height="13.25" filterUnits="userSpaceOnUse" color-interpolation-filters="sRGB">
<feFlood flood-opacity="0" result="BackgroundImageFix"/>
<feBlend mode="normal" in="SourceGraphic" in2="BackgroundImageFix" result="shape"/>
<feColorMatrix in="SourceAlpha" type="matrix" values="0 0 0 0 0 0 0 0 0 0 0 0 0 0 0 0 0 0 127 0" result="hardAlpha"/>
<feOffset dx="-0.3" dy="0.3"/>
<feGaussianBlur stdDeviation="0.3"/>
<feComposite in2="hardAlpha" operator="arithmetic" k2="-1" k3="1"/>
<feColorMatrix type="matrix" values="0 0 0 0 0.392157 0 0 0 0 0.164706 0 0 0 0 0.254902 0 0 0 1 0"/>
<feBlend mode="normal" in2="shape" result="effect1_innerShadow_2228_12172"/>
<feColorMatrix in="SourceAlpha" type="matrix" values="0 0 0 0 0 0 0 0 0 0 0 0 0 0 0 0 0 0 127 0" result="hardAlpha"/>
<feOffset dx="0.2" dy="-0.2"/>
<feGaussianBlur stdDeviation="0.2"/>
<feComposite in2="hardAlpha" operator="arithmetic" k2="-1" k3="1"/>
<feColorMatrix type="matrix" values="0 0 0 0 0.501961 0 0 0 0 0.333333 0 0 0 0 0.360784 0 0 0 1 0"/>
<feBlend mode="normal" in2="effect1_innerShadow_2228_12172" result="effect2_innerShadow_2228_12172"/>
</filter>
<linearGradient id="paint0_linear_2228_12172" x1="32.127" y1="24.855" x2="21.6195" y2="35.151" gradientUnits="userSpaceOnUse">
<stop stop-color="#FFD43D"/>
<stop offset="1" stop-color="#FFAC0A"/>
</linearGradient>
<linearGradient id="paint1_linear_2228_12172" x1="18.804" y1="46.002" x2="22.203" y2="26.2905" gradientUnits="userSpaceOnUse">
<stop stop-color="#FF9F47"/>
<stop offset="1" stop-color="#FA8547" stop-opacity="0"/>
</linearGradient>
<linearGradient id="paint2_linear_2228_12172" x1="35.9446" y1="27.9195" x2="24.0706" y2="27.9195" gradientUnits="userSpaceOnUse">
<stop stop-color="#FDC500"/>
<stop offset="1" stop-color="#FAA742"/>
</linearGradient>
<linearGradient id="paint3_linear_2228_12172" x1="18.8116" y1="28.7549" x2="35.7826" y2="28.7549" gradientUnits="userSpaceOnUse">
<stop stop-color="#F3C41A"/>
<stop offset="1" stop-color="#FFD600"/>
</linearGradient>
<radialGradient id="paint4_radial_2228_12172" cx="0" cy="0" r="1" gradientUnits="userSpaceOnUse" gradientTransform="translate(28.4821 30.1979) rotate(180) scale(15.7886 13.4536)">
<stop offset="0.893" stop-color="#FFF9E2" stop-opacity="0"/>
<stop offset="1" stop-color="#FFCC17"/>
</radialGradient>
<radialGradient id="paint5_radial_2228_12172" cx="0" cy="0" r="1" gradientUnits="userSpaceOnUse" gradientTransform="translate(21.1171 30.1979) scale(15.192 13.322)">
<stop offset="0.879" stop-color="#FF9A23" stop-opacity="0"/>
<stop offset="0.983" stop-color="#D57A10"/>
</radialGradient>
<linearGradient id="paint6_linear_2228_12172" x1="24.6346" y1="36.75" x2="24.6346" y2="35.5245" gradientUnits="userSpaceOnUse">
<stop stop-color="#693B2E"/>
<stop offset="1" stop-color="#693B2E" stop-opacity="0"/>
</linearGradient>
</defs>
</svg>
