<svg width="48" height="48" viewBox="0 0 48 48" fill="none" xmlns="http://www.w3.org/2000/svg">
<path d="M21.2622 5.48347L27.6582 16.4095L18.6342 18.9745C12.4017 16.915 8.73122 12.9505 6.51722 8.87647C5.58422 7.15747 5.59172 4.00146 9.30122 4.00146H18.6732C19.1967 4.00137 19.7111 4.13825 20.1652 4.3985C20.6194 4.65875 20.9976 5.03331 21.2622 5.48497V5.48347Z" fill="#FF5C5C"/>
<path d="M21.2622 5.48347L27.6582 16.4095L18.6342 18.9745C12.4017 16.915 8.73122 12.9505 6.51722 8.87647C5.58422 7.15747 5.59172 4.00146 9.30122 4.00146H18.6732C19.1967 4.00137 19.7111 4.13825 20.1652 4.3985C20.6194 4.65875 20.9976 5.03331 21.2622 5.48497V5.48347Z" fill="#4A5470"/>
<path d="M26.9273 5.4835L20.5312 16.4095L29.5552 18.9745C35.7877 16.9135 39.4583 12.949 41.6723 8.875C42.6053 7.156 42.5978 4 38.8882 4H29.5163C28.9928 3.99991 28.4784 4.13679 28.0242 4.39704C27.57 4.65728 27.1919 5.03184 26.9273 5.4835V5.4835Z" fill="#5E6B8F"/>
<path d="M24.0705 45.27C32.3946 45.27 39.1425 38.522 39.1425 30.198C39.1425 21.8739 32.3946 15.126 24.0705 15.126C15.7465 15.126 8.99854 21.8739 8.99854 30.198C8.99854 38.522 15.7465 45.27 24.0705 45.27Z" fill="url(#paint0_linear_2228_12173)"/>
<path d="M24.0705 45.27C32.3946 45.27 39.1425 38.522 39.1425 30.198C39.1425 21.8739 32.3946 15.126 24.0705 15.126C15.7465 15.126 8.99854 21.8739 8.99854 30.198C8.99854 38.522 15.7465 45.27 24.0705 45.27Z" fill="url(#paint1_linear_2228_12173)"/>
<path d="M24.0706 43.23C31.268 43.23 37.1026 37.3954 37.1026 30.198C37.1026 23.0006 31.268 17.166 24.0706 17.166C16.8732 17.166 11.0386 23.0006 11.0386 30.198C11.0386 37.3954 16.8732 43.23 24.0706 43.23Z" fill="url(#paint2_linear_2228_12173)"/>
<path d="M24.0706 41.5754C30.3542 41.5754 35.4481 36.4816 35.4481 30.1979C35.4481 23.9143 30.3542 18.8204 24.0706 18.8204C17.787 18.8204 12.6931 23.9143 12.6931 30.1979C12.6931 36.4816 17.787 41.5754 24.0706 41.5754Z" fill="url(#paint3_linear_2228_12173)"/>
<path d="M24.0706 41.5754C30.3542 41.5754 35.4481 36.4816 35.4481 30.1979C35.4481 23.9143 30.3542 18.8204 24.0706 18.8204C17.787 18.8204 12.6931 23.9143 12.6931 30.1979C12.6931 36.4816 17.787 41.5754 24.0706 41.5754Z" fill="url(#paint4_radial_2228_12173)"/>
<path d="M24.0706 41.5754C30.3542 41.5754 35.4481 36.4816 35.4481 30.1979C35.4481 23.9143 30.3542 18.8204 24.0706 18.8204C17.787 18.8204 12.6931 23.9143 12.6931 30.1979C12.6931 36.4816 17.787 41.5754 24.0706 41.5754Z" fill="url(#paint5_radial_2228_12173)"/>
<path d="M24.0706 41.5754C30.3542 41.5754 35.4481 36.4816 35.4481 30.1979C35.4481 23.9143 30.3542 18.8204 24.0706 18.8204C17.787 18.8204 12.6931 23.9143 12.6931 30.1979C12.6931 36.4816 17.787 41.5754 24.0706 41.5754Z" fill="url(#paint6_radial_2228_12173)"/>
<g filter="url(#filter0_ii_2228_12173)">
<path d="M27.0555 36.858H21.1005C20.8136 36.8587 20.5325 36.7771 20.2906 36.6229C20.0486 36.4687 19.856 36.2483 19.7355 35.988C19.6104 35.73 19.5623 35.4414 19.5968 35.1568C19.6314 34.8721 19.7473 34.6035 19.9305 34.383L24.8805 28.308C25.2705 27.828 25.0905 27.318 25.0305 27.168C24.9607 26.9933 24.8409 26.8432 24.6862 26.7365C24.5314 26.6297 24.3485 26.5711 24.1605 26.568H24.0855C23.6055 26.568 23.1705 26.793 22.8855 27.183C22.4055 27.858 21.4605 28.023 20.7705 27.543C20.6078 27.4279 20.4693 27.2819 20.3631 27.1132C20.2569 26.9446 20.1851 26.7566 20.1516 26.5602C20.1182 26.3637 20.1238 26.1626 20.1683 25.9683C20.2127 25.774 20.295 25.5904 20.4105 25.428C21.2505 24.243 22.6155 23.538 24.0705 23.538H24.2655C25.7955 23.613 27.1305 24.528 27.7605 25.923C28.4055 27.363 28.1955 28.998 27.2055 30.213L24.2805 33.813H27.0405C27.8805 33.813 28.5555 34.488 28.5555 35.328C28.5555 36.168 27.8955 36.858 27.0555 36.858Z" fill="#6A6372"/>
</g>
<defs>
<filter id="filter0_ii_2228_12173" x="19.2859" y="23.338" width="9.46948" height="13.8199" filterUnits="userSpaceOnUse" color-interpolation-filters="sRGB">
<feFlood flood-opacity="0" result="BackgroundImageFix"/>
<feBlend mode="normal" in="SourceGraphic" in2="BackgroundImageFix" result="shape"/>
<feColorMatrix in="SourceAlpha" type="matrix" values="0 0 0 0 0 0 0 0 0 0 0 0 0 0 0 0 0 0 127 0" result="hardAlpha"/>
<feOffset dx="-0.3" dy="0.3"/>
<feGaussianBlur stdDeviation="0.3"/>
<feComposite in2="hardAlpha" operator="arithmetic" k2="-1" k3="1"/>
<feColorMatrix type="matrix" values="0 0 0 0 0.286275 0 0 0 0 0.223529 0 0 0 0 0.345098 0 0 0 1 0"/>
<feBlend mode="normal" in2="shape" result="effect1_innerShadow_2228_12173"/>
<feColorMatrix in="SourceAlpha" type="matrix" values="0 0 0 0 0 0 0 0 0 0 0 0 0 0 0 0 0 0 127 0" result="hardAlpha"/>
<feOffset dx="0.2" dy="-0.2"/>
<feGaussianBlur stdDeviation="0.2"/>
<feComposite in2="hardAlpha" operator="arithmetic" k2="-1" k3="1"/>
<feColorMatrix type="matrix" values="0 0 0 0 0.482353 0 0 0 0 0.47451 0 0 0 0 0.490196 0 0 0 1 0"/>
<feBlend mode="normal" in2="effect1_innerShadow_2228_12173" result="effect2_innerShadow_2228_12173"/>
</filter>
<linearGradient id="paint0_linear_2228_12173" x1="35.6955" y1="22.407" x2="21.675" y2="35.226" gradientUnits="userSpaceOnUse">
<stop stop-color="#EFEAF6"/>
<stop offset="1" stop-color="#B5A8C3"/>
</linearGradient>
<linearGradient id="paint1_linear_2228_12173" x1="18.804" y1="46.002" x2="22.203" y2="26.2905" gradientUnits="userSpaceOnUse">
<stop stop-color="#D0A9F4"/>
<stop offset="1" stop-color="#D0A9F4" stop-opacity="0"/>
</linearGradient>
<linearGradient id="paint2_linear_2228_12173" x1="35.9446" y1="27.9195" x2="24.0706" y2="27.9195" gradientUnits="userSpaceOnUse">
<stop stop-color="#D3C6E2"/>
<stop offset="1" stop-color="#D6C6E8"/>
</linearGradient>
<linearGradient id="paint3_linear_2228_12173" x1="16.9291" y1="33.1544" x2="35.8636" y2="27.4244" gradientUnits="userSpaceOnUse">
<stop stop-color="#E0D3EF"/>
<stop offset="1" stop-color="#C1B0D4"/>
</linearGradient>
<radialGradient id="paint4_radial_2228_12173" cx="0" cy="0" r="1" gradientUnits="userSpaceOnUse" gradientTransform="translate(28.3883 28.4734) rotate(156.644) scale(17.0955 14.5672)">
<stop offset="0.837" stop-color="#F6ECFE" stop-opacity="0"/>
<stop offset="1" stop-color="#F6ECFE"/>
</radialGradient>
<radialGradient id="paint5_radial_2228_12173" cx="0" cy="0" r="1" gradientUnits="userSpaceOnUse" gradientTransform="translate(22.6175 31.5469) rotate(-41.294) scale(13.446 12.9107)">
<stop offset="0.91" stop-color="#B396CF" stop-opacity="0"/>
<stop offset="0.992" stop-color="#B796D5"/>
</radialGradient>
<radialGradient id="paint6_radial_2228_12173" cx="0" cy="0" r="1" gradientUnits="userSpaceOnUse" gradientTransform="translate(23.7421 29.2499) rotate(37.9308) scale(12.6584 14.345)">
<stop offset="0.926" stop-color="#AB9CBB" stop-opacity="0"/>
<stop offset="1" stop-color="#AB9CBB"/>
</radialGradient>
</defs>
</svg>
