<svg width="48" height="48" viewBox="0 0 48 48" fill="none" xmlns="http://www.w3.org/2000/svg">
<path d="M21.2622 5.48347L27.6582 16.4095L18.6342 18.9745C12.4017 16.915 8.73122 12.9505 6.51722 8.87647C5.58422 7.15747 5.59172 4.00146 9.30122 4.00146H18.6732C19.1967 4.00137 19.7111 4.13825 20.1652 4.3985C20.6194 4.65875 20.9976 5.03331 21.2622 5.48497V5.48347Z" fill="#FF5C5C"/>
<path d="M21.2622 5.48347L27.6582 16.4095L18.6342 18.9745C12.4017 16.915 8.73122 12.9505 6.51722 8.87647C5.58422 7.15747 5.59172 4.00146 9.30122 4.00146H18.6732C19.1967 4.00137 19.7111 4.13825 20.1652 4.3985C20.6194 4.65875 20.9976 5.03331 21.2622 5.48497V5.48347Z" fill="#4A5470"/>
<path d="M26.9273 5.4835L20.5312 16.4095L29.5552 18.9745C35.7877 16.9135 39.4583 12.949 41.6723 8.875C42.6053 7.156 42.5978 4 38.8882 4H29.5163C28.9928 3.99991 28.4784 4.13679 28.0242 4.39704C27.57 4.65728 27.1919 5.03184 26.9273 5.4835V5.4835Z" fill="#5E6B8F"/>
<path d="M24.0705 45.27C32.3946 45.27 39.1425 38.522 39.1425 30.198C39.1425 21.8739 32.3946 15.126 24.0705 15.126C15.7465 15.126 8.99854 21.8739 8.99854 30.198C8.99854 38.522 15.7465 45.27 24.0705 45.27Z" fill="url(#paint0_linear_2228_12174)"/>
<path d="M24.0705 45.27C32.3946 45.27 39.1425 38.522 39.1425 30.198C39.1425 21.8739 32.3946 15.126 24.0705 15.126C15.7465 15.126 8.99854 21.8739 8.99854 30.198C8.99854 38.522 15.7465 45.27 24.0705 45.27Z" fill="url(#paint1_linear_2228_12174)"/>
<path d="M24.0706 43.23C31.268 43.23 37.1026 37.3954 37.1026 30.198C37.1026 23.0006 31.268 17.166 24.0706 17.166C16.8732 17.166 11.0386 23.0006 11.0386 30.198C11.0386 37.3954 16.8732 43.23 24.0706 43.23Z" fill="url(#paint2_linear_2228_12174)"/>
<path d="M24.0706 41.5754C30.3542 41.5754 35.4481 36.4816 35.4481 30.1979C35.4481 23.9143 30.3542 18.8204 24.0706 18.8204C17.787 18.8204 12.6931 23.9143 12.6931 30.1979C12.6931 36.4816 17.787 41.5754 24.0706 41.5754Z" fill="url(#paint3_linear_2228_12174)"/>
<path d="M24.0706 41.5754C30.3542 41.5754 35.4481 36.4816 35.4481 30.1979C35.4481 23.9143 30.3542 18.8204 24.0706 18.8204C17.787 18.8204 12.6931 23.9143 12.6931 30.1979C12.6931 36.4816 17.787 41.5754 24.0706 41.5754Z" fill="url(#paint4_radial_2228_12174)"/>
<path d="M24.0706 41.5754C30.3542 41.5754 35.4481 36.4816 35.4481 30.1979C35.4481 23.9143 30.3542 18.8204 24.0706 18.8204C17.787 18.8204 12.6931 23.9143 12.6931 30.1979C12.6931 36.4816 17.787 41.5754 24.0706 41.5754Z" fill="url(#paint5_radial_2228_12174)"/>
<path d="M24.0706 41.5754C30.3542 41.5754 35.4481 36.4816 35.4481 30.1979C35.4481 23.9143 30.3542 18.8204 24.0706 18.8204C17.787 18.8204 12.6931 23.9143 12.6931 30.1979C12.6931 36.4816 17.787 41.5754 24.0706 41.5754Z" fill="url(#paint6_radial_2228_12174)"/>
<g filter="url(#filter0_iii_2228_12174)">
<path d="M26.19 28.0125L27.759 25.2975C27.8863 25.0745 27.9533 24.8222 27.9533 24.5655C27.9533 24.3087 27.8863 24.0564 27.759 23.8335C27.6317 23.6105 27.4476 23.4252 27.2256 23.2964C27.0035 23.1676 26.7512 23.0998 26.4945 23.1H21.855C21.4665 23.1 21.094 23.2543 20.8193 23.529C20.5446 23.8037 20.3903 24.1762 20.3903 24.5647C20.3903 24.9532 20.5446 25.3258 20.8193 25.6005C21.094 25.8752 21.4665 26.0295 21.855 26.0295H23.313C23.3787 26.0295 23.4432 26.0468 23.5001 26.0795C23.557 26.1123 23.6043 26.1595 23.6372 26.2163C23.6702 26.2731 23.6877 26.3375 23.6879 26.4032C23.6881 26.4689 23.6711 26.5335 23.6385 26.5905L22.8315 27.9975C22.6252 28.2522 22.5119 28.5697 22.5105 28.8975C22.5105 29.706 23.1675 30.3615 23.976 30.3615C24.891 30.3615 25.638 31.1085 25.638 32.0235C25.638 32.9385 24.891 33.687 23.976 33.687C23.6348 33.6874 23.3019 33.582 23.023 33.3854C22.7442 33.1888 22.5331 32.9105 22.419 32.589C22.2884 32.226 22.0196 31.9292 21.6712 31.7635C21.3229 31.5977 20.9231 31.5763 20.559 31.704C20.3782 31.7672 20.2117 31.8656 20.0691 31.9935C19.9265 32.1214 19.8108 32.2764 19.7285 32.4493C19.6461 32.6223 19.599 32.8099 19.5896 33.0012C19.5803 33.1925 19.609 33.3838 19.674 33.564C19.9928 34.4501 20.5765 35.2166 21.3458 35.7598C22.1151 36.3029 23.0328 36.5962 23.9745 36.6C25.1878 36.5992 26.3511 36.117 27.2092 35.2592C28.0672 34.4014 28.5498 33.2382 28.551 32.025C28.549 31.2064 28.3289 30.4032 27.9134 29.698C27.4979 28.9927 26.902 28.4109 26.187 28.0125H26.19Z" fill="#6C3F48"/>
</g>
<defs>
<filter id="filter0_iii_2228_12174" x="19.2879" y="22.9" width="9.46313" height="14" filterUnits="userSpaceOnUse" color-interpolation-filters="sRGB">
<feFlood flood-opacity="0" result="BackgroundImageFix"/>
<feBlend mode="normal" in="SourceGraphic" in2="BackgroundImageFix" result="shape"/>
<feColorMatrix in="SourceAlpha" type="matrix" values="0 0 0 0 0 0 0 0 0 0 0 0 0 0 0 0 0 0 127 0" result="hardAlpha"/>
<feOffset dx="-0.3" dy="0.3"/>
<feGaussianBlur stdDeviation="0.3"/>
<feComposite in2="hardAlpha" operator="arithmetic" k2="-1" k3="1"/>
<feColorMatrix type="matrix" values="0 0 0 0 0.270588 0 0 0 0 0.113725 0 0 0 0 0.0745098 0 0 0 1 0"/>
<feBlend mode="normal" in2="shape" result="effect1_innerShadow_2228_12174"/>
<feColorMatrix in="SourceAlpha" type="matrix" values="0 0 0 0 0 0 0 0 0 0 0 0 0 0 0 0 0 0 127 0" result="hardAlpha"/>
<feOffset dx="0.2" dy="-0.2"/>
<feGaussianBlur stdDeviation="0.2"/>
<feComposite in2="hardAlpha" operator="arithmetic" k2="-1" k3="1"/>
<feColorMatrix type="matrix" values="0 0 0 0 0.490196 0 0 0 0 0.352941 0 0 0 0 0.321569 0 0 0 1 0"/>
<feBlend mode="normal" in2="effect1_innerShadow_2228_12174" result="effect2_innerShadow_2228_12174"/>
<feColorMatrix in="SourceAlpha" type="matrix" values="0 0 0 0 0 0 0 0 0 0 0 0 0 0 0 0 0 0 127 0" result="hardAlpha"/>
<feOffset dx="0.2" dy="0.2"/>
<feGaussianBlur stdDeviation="0.2"/>
<feComposite in2="hardAlpha" operator="arithmetic" k2="-1" k3="1"/>
<feColorMatrix type="matrix" values="0 0 0 0 0.270588 0 0 0 0 0.113725 0 0 0 0 0.0745098 0 0 0 1 0"/>
<feBlend mode="normal" in2="effect2_innerShadow_2228_12174" result="effect3_innerShadow_2228_12174"/>
</filter>
<linearGradient id="paint0_linear_2228_12174" x1="35.6955" y1="22.407" x2="21.675" y2="35.226" gradientUnits="userSpaceOnUse">
<stop stop-color="#F6C67F"/>
<stop offset="1" stop-color="#A75940"/>
</linearGradient>
<linearGradient id="paint1_linear_2228_12174" x1="18.804" y1="46.002" x2="22.203" y2="26.2905" gradientUnits="userSpaceOnUse">
<stop stop-color="#B05B5B"/>
<stop offset="1" stop-color="#B05B5B" stop-opacity="0"/>
</linearGradient>
<linearGradient id="paint2_linear_2228_12174" x1="35.9446" y1="27.9195" x2="24.0706" y2="27.9195" gradientUnits="userSpaceOnUse">
<stop stop-color="#CD9058"/>
<stop offset="1" stop-color="#D28D59"/>
</linearGradient>
<linearGradient id="paint3_linear_2228_12174" x1="16.9291" y1="33.1544" x2="35.8636" y2="27.4244" gradientUnits="userSpaceOnUse">
<stop stop-color="#D39E5F"/>
<stop offset="1" stop-color="#BE794E"/>
</linearGradient>
<radialGradient id="paint4_radial_2228_12174" cx="0" cy="0" r="1" gradientUnits="userSpaceOnUse" gradientTransform="translate(28.3883 28.4734) rotate(156.644) scale(17.0955 14.5672)">
<stop offset="0.837" stop-color="#E5AC75" stop-opacity="0"/>
<stop offset="1" stop-color="#E5AC75"/>
</radialGradient>
<radialGradient id="paint5_radial_2228_12174" cx="0" cy="0" r="1" gradientUnits="userSpaceOnUse" gradientTransform="translate(22.6175 31.5469) rotate(-41.294) scale(13.446 12.9107)">
<stop offset="0.91" stop-color="#B36441" stop-opacity="0"/>
<stop offset="1" stop-color="#B36441"/>
</radialGradient>
<radialGradient id="paint6_radial_2228_12174" cx="0" cy="0" r="1" gradientUnits="userSpaceOnUse" gradientTransform="translate(23.7421 29.2499) rotate(37.9308) scale(12.6584 14.345)">
<stop offset="0.926" stop-color="#AB662B" stop-opacity="0"/>
<stop offset="1" stop-color="#AB662B"/>
</radialGradient>
</defs>
</svg>
