<svg width="24" height="24" viewBox="0 0 24 24" fill="none" xmlns="http://www.w3.org/2000/svg">
<path d="M21.8432 8.18608C21.7286 8.25293 19.0006 9.66372 19.0006 12.7918C19.1292 16.3591 22.4432 17.6102 22.5 17.6102C22.4432 17.677 21.9997 19.3144 20.686 21.0308C19.6435 22.5093 18.4863 24 16.7292 24C15.0577 24 14.4577 23.0146 12.5292 23.0146C10.458 23.0146 9.87202 24 8.2863 24C6.52915 24 5.28629 22.4295 4.18691 20.9648C2.75864 19.0479 1.54467 16.0396 1.50181 13.1512C1.47293 11.6206 1.78783 10.116 2.58722 8.83808C3.71548 7.05397 5.72977 5.84286 7.92947 5.80292C9.61487 5.74996 11.1149 6.8812 12.1435 6.8812C13.1292 6.8812 14.972 5.80292 17.0571 5.80292C17.9571 5.80379 20.3571 6.05643 21.8432 8.18608ZM12.0009 5.49732C11.7009 4.09955 12.5292 2.70178 13.3006 1.81016C14.2863 0.731877 15.8432 0 17.1857 0C17.2714 1.39777 16.7282 2.76863 15.7574 3.76704C14.8863 4.84532 13.3863 5.65707 12.0009 5.49732Z" fill="white"/>
</svg>
