<svg width="24" height="24" viewBox="0 0 24 24" fill="none" xmlns="http://www.w3.org/2000/svg">
<g clip-path="url(#clip0_2224_11635)">
<path d="M20 2H4C2.9 2 2 2.9 2 4V22L5.70711 18.2929C5.89464 18.1054 6.149 18 6.41421 18H20C21.1 18 22 17.1 22 16V4C22 2.9 21.1 2 20 2ZM20 15C20 15.5523 19.5523 16 19 16H6.41421C6.149 16 5.89464 16.1054 5.70711 16.2929L4 18V5C4 4.44772 4.44772 4 5 4H19C19.5523 4 20 4.44772 20 5V15ZM7 9H9V11H7V9ZM11 9H13V11H11V9ZM15 9H17V11H15V9Z" fill="#9C9FBA"/>
</g>
<defs>
<clipPath id="clip0_2224_11635">
<rect width="24" height="24" fill="white"/>
</clipPath>
</defs>
</svg>
