<svg width="36" height="36" viewBox="0 0 36 36" fill="none" xmlns="http://www.w3.org/2000/svg">
<g clip-path="url(#clip0_2224_11870)">
<path d="M29.9995 7.28571H25.2445L22.4995 4.28571H13.4995L10.7545 7.28571H5.99951C4.34951 7.28571 2.99951 8.63571 2.99951 10.2857V28.2857C2.99951 29.9357 4.34951 31.2857 5.99951 31.2857H29.9995C31.6495 31.2857 32.9995 29.9357 32.9995 28.2857V10.2857C32.9995 8.63571 31.6495 7.28571 29.9995 7.28571ZM29.9995 28.2857H5.99951V10.2857H12.0745L14.8195 7.28571H21.1795L23.9245 10.2857H29.9995V28.2857ZM17.9995 11.7857C13.8595 11.7857 10.4995 15.1457 10.4995 19.2857C10.4995 23.4257 13.8595 26.7857 17.9995 26.7857C22.1395 26.7857 25.4995 23.4257 25.4995 19.2857C25.4995 15.1457 22.1395 11.7857 17.9995 11.7857ZM17.9995 23.7857C15.5245 23.7857 13.4995 21.7607 13.4995 19.2857C13.4995 16.8107 15.5245 14.7857 17.9995 14.7857C20.4745 14.7857 22.4995 16.8107 22.4995 19.2857C22.4995 21.7607 20.4745 23.7857 17.9995 23.7857Z" fill="#54576F"/>
</g>
<defs>
<clipPath id="clip0_2224_11870">
<rect width="36" height="36" fill="white"/>
</clipPath>
</defs>
</svg>
