<svg width="24" height="24" viewBox="0 0 24 24" fill="none" xmlns="http://www.w3.org/2000/svg">
<circle cx="12" cy="12" r="8.5" fill="#54576F" stroke="#D7D9F6"/>
<path d="M12 4C16.4183 4 20 7.58172 20 12C20 16.4183 16.4183 20 12 20C7.58172 20 4 16.4183 4 12C4 7.58172 7.58172 4 12 4ZM14.9971 8.99707C14.6066 8.60657 13.9734 8.60657 13.5829 8.99707L11.997 10.583L10.4113 8.99714C10.0208 8.6066 9.38763 8.60659 8.99711 8.99711V8.99711C8.60659 9.38763 8.6066 10.0208 8.99714 10.4113L10.583 11.997L8.99707 13.5829C8.60657 13.9734 8.60657 14.6066 8.99707 14.9971V14.9971C9.38761 15.3876 10.0208 15.3876 10.4113 14.997L11.997 13.411L13.5829 14.9971C13.9734 15.3876 14.6066 15.3876 14.9971 14.9971V14.9971C15.3876 14.6066 15.3876 13.9734 14.9971 13.5829L13.411 11.997L14.997 10.4113C15.3876 10.0208 15.3876 9.38761 14.9971 8.99707V8.99707Z" fill="white"/>
</svg>
