<svg width="24" height="24" viewBox="0 0 24 24" fill="none" xmlns="http://www.w3.org/2000/svg">
<path d="M12 2.25C10.7663 2.25 9.75 3.26625 9.75 4.5C9.75 5.34375 10.2247 6.08475 10.9222 6.46875L8.718 10.875L5.2725 8.41425C5.50276 8.20264 5.68638 7.94535 5.81164 7.6588C5.9369 7.37225 6.00105 7.06273 6 6.75C6 5.51625 4.98375 4.5 3.75 4.5C2.51625 4.5 1.5 5.51625 1.5 6.75C1.5 7.761 2.1945 8.60175 3.117 8.883L4.5 16.5V20.25H19.5V16.5L20.883 8.883C21.8055 8.60175 22.5 7.761 22.5 6.75C22.5 5.51625 21.4837 4.5 20.25 4.5C19.0163 4.5 18 5.51625 18 6.75C18 7.40325 18.2752 8.001 18.7267 8.41425L15.2812 10.875L13.0778 6.46875C13.4314 6.27543 13.7267 5.9908 13.9328 5.64452C14.139 5.29825 14.2485 4.90301 14.25 4.5C14.25 3.26625 13.2337 2.25 12 2.25ZM12 3.75C12.4223 3.75 12.75 4.0785 12.75 4.5C12.75 4.92225 12.4215 5.25 12 5.25C11.5777 5.25 11.25 4.9215 11.25 4.5C11.25 4.07775 11.5785 3.75 12 3.75ZM3.75 6C4.17225 6 4.5 6.3285 4.5 6.75C4.5 7.17225 4.1715 7.5 3.75 7.5C3.32775 7.5 3 7.1715 3 6.75C3 6.32775 3.3285 6 3.75 6ZM20.25 6C20.6723 6 21 6.3285 21 6.75C21 7.17225 20.6715 7.5 20.25 7.5C19.8277 7.5 19.5 7.1715 19.5 6.75C19.5 6.32775 19.8285 6 20.25 6ZM12 7.6875L14.3205 12.3285L15.4455 12.6097L19.1955 9.9375L18.1403 15.75H5.85975L4.80525 9.9375L8.55525 12.6097L9.68025 12.3285L12 7.6875ZM6 17.25H18V18.75H6V17.25Z" fill="#FF5C5C"/>
</svg>
