<svg width="36" height="36" viewBox="0 0 36 36" fill="none" xmlns="http://www.w3.org/2000/svg">
<g clip-path="url(#clip0_893_12970)">
<path d="M12.1504 20.01L16.3954 15.765L5.86535 5.25C3.52535 7.59 3.52535 11.385 5.86535 13.74L12.1504 20.01V20.01ZM22.3204 17.295C24.6154 18.36 27.8404 17.61 30.2254 15.225C33.0904 12.36 33.6454 8.25 31.4404 6.045C29.2504 3.855 25.1404 4.395 22.2604 7.26C19.8754 9.645 19.1254 12.87 20.1904 15.165L5.55035 29.805L7.66535 31.92L18.0004 21.615L28.3204 31.935L30.4354 29.82L20.1154 19.5L22.3204 17.295V17.295Z" fill="#54576F"/>
</g>
<defs>
<clipPath id="clip0_893_12970">
<rect width="36" height="36" fill="white"/>
</clipPath>
</defs>
</svg>
