<svg width="24" height="24" viewBox="0 0 24 24" fill="none" xmlns="http://www.w3.org/2000/svg">
<path d="M8.69083 23.2107C0.528828 22.0087 0.666161 13.8127 0.666161 11.3333H23.3328C23.3328 12.6093 23.3908 21.8467 14.5828 23.2787C13.2215 23.5 10.2775 23.4447 8.69083 23.2107Z" fill="#292F33"/>
<path d="M22.259 8.83133C23.9037 5.11533 16.705 5.32867 14.9023 5.91C13.9391 5.79754 12.9701 5.741 12.0003 5.74067C5.74101 5.74067 0.667009 7.89267 0.667009 11.37C0.667009 12.0427 0.861008 12.6893 1.21234 13.2973C-1.67232 17.1053 4.04301 17.8213 7.33501 17.104C8.75901 17.462 10.335 17.6667 12.0003 17.6667C18.2597 17.6667 23.3337 14.8473 23.3337 11.3707C23.3337 10.4173 22.941 9.568 22.259 8.83133Z" fill="#66757F"/>
<path d="M12 16.6667C17.5228 16.6667 22 14.5773 22 12C22 9.42267 17.5228 7.33333 12 7.33333C6.47715 7.33333 2 9.42267 2 12C2 14.5773 6.47715 16.6667 12 16.6667Z" fill="#FFCC4D"/>
<path d="M2.66705 10.6667C2.30572 9.22067 4.00039 6.66667 7.33372 7.33333C8.00039 6.66667 9.22572 6 11.3337 6C12.6671 6 15.0751 7.18333 14.0004 9.33333C13.3337 10.6667 10.6671 12.6667 7.33372 11.3333C6.66706 12 3.33372 13.3333 2.66705 10.6667Z" fill="#77B255"/>
<path d="M8.00083 11.3333C7.83483 11.3573 7.68683 11.382 7.54883 11.4073C10.7808 12.5713 13.3488 10.6373 14.0008 9.33333C14.7195 7.896 13.8802 6.89333 12.8468 6.38467C13.1095 7.59933 12.0948 10.7487 8.00083 11.3333Z" fill="#5C913B"/>
<path d="M3.33256 10.6667C3.68256 9.79133 6.66589 8.66667 9.99923 12.6667C10.6659 13.3333 13.0566 13.724 13.9992 14.6667C14.6659 15.3333 13.9992 16 11.3326 16C8.66589 16 1.99923 14 3.33256 10.6667Z" fill="#D99E82"/>
<path d="M4.02734 13.3453C5.72601 15.0407 9.48734 16 11.3333 16C14 16 14.6667 15.3333 14 14.6667C13.7827 14.4493 13.4867 14.262 13.1547 14.0933C11.0187 15.2487 5.36801 13.9973 4.02734 13.3453Z" fill="#B27962"/>
<path d="M17.9998 12.6673C17.8604 12.6673 17.7178 12.6447 17.5778 12.598L15.5778 11.9313C15.2423 11.8195 14.9649 11.579 14.8068 11.2627C14.6486 10.9463 14.6226 10.5802 14.7344 10.2447C14.8463 9.90917 15.0868 9.63184 15.4031 9.47368C15.7194 9.31552 16.0856 9.2895 16.4211 9.40133L18.4211 10.068C18.7223 10.1675 18.9781 10.3711 19.1426 10.6422C19.3072 10.9134 19.3697 11.2343 19.3189 11.5473C19.2682 11.8604 19.1075 12.1451 18.8657 12.3504C18.624 12.5557 18.3169 12.668 17.9998 12.6673ZM17.3331 14.6667H15.9998C15.823 14.6667 15.6534 14.5964 15.5284 14.4714C15.4033 14.3464 15.3331 14.1768 15.3331 14C15.3331 13.8232 15.4033 13.6536 15.5284 13.5286C15.6534 13.4036 15.823 13.3333 15.9998 13.3333H17.3331C17.5099 13.3333 17.6795 13.4036 17.8045 13.5286C17.9295 13.6536 17.9998 13.8232 17.9998 14C17.9998 14.1768 17.9295 14.3464 17.8045 14.4714C17.6795 14.5964 17.5099 14.6667 17.3331 14.6667Z" fill="#FFE8B6"/>
</svg>
