<svg width="24" height="24" viewBox="0 0 24 24" fill="none" xmlns="http://www.w3.org/2000/svg">
<path d="M5.85156 2.972L7.1949 21.3333H16.7502L18.2096 2.95867L5.85156 2.972Z" fill="#CCD6DD"/>
<path d="M16.6665 20.854L7.27046 20.9587L6.5918 10.7507H17.4225L16.6665 20.854Z" fill="white"/>
<path d="M15.9376 23.45H8.06292C6.92159 23.45 6.12025 22.6813 5.97292 21.4427L4.65625 2.96533C4.64159 2.75811 4.70984 2.55356 4.84599 2.39665C4.98214 2.23975 5.17503 2.14335 5.38225 2.12867C5.48492 2.12087 5.58811 2.13348 5.68586 2.16579C5.78362 2.1981 5.87401 2.24946 5.9518 2.3169C6.0296 2.38435 6.09326 2.46654 6.13911 2.55872C6.18495 2.65091 6.21208 2.75127 6.21892 2.854L7.53159 21.294C7.60292 21.8833 7.91359 21.8833 8.06292 21.8833H15.9376C16.2816 21.8833 16.4096 21.8833 16.4709 21.272L17.7816 2.854C17.7977 2.64784 17.8948 2.45642 18.0515 2.32151C18.2082 2.1866 18.4119 2.11913 18.6182 2.13383C18.8245 2.14852 19.0166 2.24419 19.1526 2.39996C19.2886 2.55573 19.3575 2.75896 19.3443 2.96533L18.0316 21.4047C17.8636 23.0987 16.8003 23.45 15.9376 23.45Z" fill="#8899A6"/>
<path d="M12.0001 22H10.2488C6.56077 22 6.13744 20.2107 5.9421 17.684C5.72344 14.8633 4.77344 2.95467 4.77344 2.95467L6.1021 2.84867C6.1021 2.84867 7.05344 14.7607 7.27144 17.5813C7.4481 19.874 7.6421 20.6667 10.2488 20.6667H12.0001C12.1769 20.6667 12.3465 20.7369 12.4715 20.8619C12.5965 20.987 12.6668 21.1565 12.6668 21.3333C12.6668 21.5101 12.5965 21.6797 12.4715 21.8047C12.3465 21.9298 12.1769 22 12.0001 22Z" fill="#8899A6"/>
<path d="M13.752 22H12.0007C11.8238 22 11.6543 21.9298 11.5292 21.8047C11.4042 21.6797 11.334 21.5101 11.334 21.3333C11.334 21.1565 11.4042 20.987 11.5292 20.8619C11.6543 20.7369 11.8238 20.6667 12.0007 20.6667H13.752C16.3587 20.6667 16.552 19.874 16.7293 17.5813C16.948 14.76 17.8987 2.84867 17.8987 2.84867L19.228 2.95467C19.228 2.95467 18.2773 14.864 18.0587 17.684C17.8633 20.2107 17.4407 22 13.752 22Z" fill="#8899A6"/>
<path d="M19.3327 2.722C19.3327 3.85733 17.5127 4.77733 11.9993 4.77733C6.48668 4.77733 4.66602 3.85733 4.66602 2.722C4.66602 1.58667 6.48602 0.666668 11.9993 0.666668C17.5127 0.666668 19.3327 1.58667 19.3327 2.722Z" fill="#CCD6DD"/>
<path d="M19.0206 2.752C18.9224 2.60498 18.7698 2.50301 18.5964 2.4685C18.4229 2.43399 18.2429 2.46978 18.0959 2.568C16.7052 3.49667 13.2466 3.61533 12.0312 3.58333C12.0246 3.58267 12.0186 3.58667 12.0119 3.586C12.0059 3.586 12.0012 3.58333 11.9952 3.58333C10.7826 3.616 7.32325 3.49867 5.93058 2.568C5.78355 2.47089 5.60406 2.43593 5.43133 2.47077C5.2586 2.50561 5.1067 2.60742 5.00881 2.75394C4.91093 2.90045 4.87503 3.07976 4.90897 3.25267C4.9429 3.42558 5.04391 3.57802 5.18991 3.67667C6.90325 4.82133 10.4679 4.92067 11.6486 4.92067C11.8412 4.92067 11.9666 4.918 12.0132 4.91667C12.0606 4.918 12.1852 4.92067 12.3779 4.92067C13.5586 4.92067 17.1232 4.822 18.8366 3.67667C18.9095 3.62815 18.9722 3.56571 19.0209 3.49293C19.0696 3.42015 19.1035 3.33846 19.1206 3.25255C19.1377 3.16664 19.1377 3.0782 19.1205 2.9923C19.1033 2.9064 19.0694 2.82474 19.0206 2.752Z" fill="white"/>
<path d="M11.9934 11.6827C14.8752 11.6827 17.2114 11.2457 17.2114 10.7067C17.2114 10.1676 14.8752 9.73067 11.9934 9.73067C9.11157 9.73067 6.77539 10.1676 6.77539 10.7067C6.77539 11.2457 9.11157 11.6827 11.9934 11.6827Z" fill="#E1E8ED"/>
<path d="M7.36133 21.028H16.806V22.25H7.36133V21.028Z" fill="#8899A6"/>
</svg>
