<svg width="24" height="24" viewBox="0 0 24 24" fill="none" xmlns="http://www.w3.org/2000/svg">
<g clip-path="url(#clip0_797_11650)">
<path d="M8.86597 2.35867C8.51197 -0.358001 5.11464 -0.508002 4.70064 0.941998L4.07864 3.636L1.38464 4.258C-0.0653631 4.672 0.0853038 8.06933 2.8013 8.42333L4.8373 8.68933C7.5533 9.04333 9.48597 7.11133 9.1313 4.39533L8.86597 2.35867V2.35867ZM21.528 15.0193C24.244 15.3733 24.394 18.772 22.9446 19.1853L20.2506 19.8073L19.628 22.502C19.2146 23.9513 15.8166 23.8007 15.4626 21.0847L15.1973 19.048C14.8433 16.332 16.7753 14.3993 19.4913 14.754L21.528 15.0193Z" fill="#DD2E44"/>
<path d="M20.3262 14.8627L19.4902 14.7533C16.7742 14.3993 14.8415 16.3313 15.1962 19.0473L15.2542 19.492C16.3355 19.3133 17.5542 18.668 18.5968 17.6253C19.4568 16.7667 20.0448 15.7867 20.3262 14.8627V14.8627ZM4.60352 8.65867L4.83618 8.68933C7.55218 9.04333 9.48485 7.11133 9.13018 4.39533L9.05085 3.78867C8.17285 4.08667 7.25285 4.658 6.44085 5.47067C5.44752 6.46333 4.81618 7.61667 4.60352 8.65867V8.65867Z" fill="#BE1931"/>
<path d="M12.5186 18.6493C16.4402 18.6493 19.6193 15.4703 19.6193 11.5487C19.6193 7.62707 16.4402 4.448 12.5186 4.448C8.59704 4.448 5.41797 7.62707 5.41797 11.5487C5.41797 15.4703 8.59704 18.6493 12.5186 18.6493Z" fill="#DD2E44"/>
<path d="M12.5002 11.3333C12.7602 13.2953 12.0788 15.8267 10.7715 17.3947C11.3315 17.5613 11.9182 17.6487 12.5188 17.6487C13.0062 17.6487 13.4835 17.5853 13.9455 17.4747C14.3208 15.7507 14.1162 13.5233 12.5002 11.3333ZM12.5002 11.3333C14.7715 11.7567 16.6548 13.524 17.0195 15.656C17.8992 14.7007 18.4479 13.4875 18.5842 12.196C17.3435 10.9367 15.3162 10.0573 12.5002 11.3333ZM12.5002 11.3333C13.1995 9.82066 15.5062 8.44133 17.7242 8.37466C17.4732 7.96054 17.174 7.57764 16.8328 7.234C16.3353 6.73866 15.7553 6.33372 15.1188 6.03733C13.5368 6.86466 12.1508 8.46866 12.5002 11.3333V11.3333Z" fill="#F5F8FA"/>
<path d="M12.528 11.3613C10.6547 10.374 9.47667 8.00133 9.98333 6.00733C9.32186 6.30621 8.71959 6.72173 8.20533 7.234C7.84031 7.60186 7.52395 8.01501 7.264 8.46333C8.122 9.76933 9.76667 11.016 12.528 11.3613ZM12.472 11.3613C10.7587 12.3993 8.318 12.9553 6.5 12.4833C6.65896 13.5349 7.09268 14.5258 7.75733 15.356C9.34 14.8827 11.134 13.6873 12.472 11.3613Z" fill="#F5F8FA"/>
</g>
<defs>
<clipPath id="clip0_797_11650">
<rect width="24" height="24" fill="white"/>
</clipPath>
</defs>
</svg>
