<svg width="24" height="24" viewBox="0 0 24 24" fill="none" xmlns="http://www.w3.org/2000/svg">
<path d="M24 9C24 5.96133 21.0433 3.48867 17.3333 3.34733V3.33333H6.66667V3.34733C2.95667 3.48867 0 5.96133 0 9C0 10.2407 0.498 11.384 1.33333 12.3173V20.6667C1.33333 21.3739 1.61428 22.0522 2.11438 22.5523C2.61448 23.0524 3.29276 23.3333 4 23.3333H20C20.7072 23.3333 21.3855 23.0524 21.8856 22.5523C22.3857 22.0522 22.6667 21.3739 22.6667 20.6667V12.3173C23.502 11.384 24 10.2407 24 9Z" fill="#D99E82"/>
<path d="M12.666 12.3173H22.666V13.3173H12.666V12.3173Z" fill="#CC927A"/>
<path d="M14.0007 9C14.0007 6.69267 11.642 4.806 8.66732 4.674C8.55732 4.66933 7.11265 4.66667 7.00065 4.66667C3.87132 4.66667 1.33398 6.60667 1.33398 9C1.33398 10.0633 1.83665 11.0353 2.66732 11.7893V20C2.66732 20.5304 2.87803 21.0391 3.2531 21.4142C3.62818 21.7893 4.13688 22 4.66732 22H10.6673C11.1978 22 11.7065 21.7893 12.0815 21.4142C12.4566 21.0391 12.6673 20.5304 12.6673 20V11.786C13.4967 11.032 14.0007 10.062 14.0007 9Z" fill="#FFE8B6"/>
</svg>
