<svg width="24" height="24" viewBox="0 0 24 24" fill="none" xmlns="http://www.w3.org/2000/svg">
<path d="M7.86068 4.04133L7.85335 6.25733L11.4187 5.33333L9.46135 4L7.86068 4.04133ZM22.166 15.6547C22.166 14.896 22.6733 14.274 23.3327 14.1627V6.39C20.666 5.74867 0.666016 11.184 0.666016 11.184V13.5413C1.70868 13.7373 2.49935 14.6493 2.49935 15.7493C2.49935 16.8493 1.70868 17.7627 0.666016 17.9587V23.1027L23.3327 18.7813V17.1473C22.6733 17.0353 22.166 16.4127 22.166 15.6547Z" fill="#FFAC33"/>
<path d="M10.3893 1.49467L7.82735 4.05667C8.31868 4.17133 8.66602 4.45067 8.66602 4.778C8.66602 5.208 8.06868 5.556 7.33268 5.556C7.01668 5.556 6.73068 5.48933 6.50268 5.38267L0.666016 11.2187C9.44401 9.278 15.3607 7.69467 23.3993 6.40133C20.158 2.08 12.5507 1.49467 10.3893 1.49467Z" fill="#FFD983"/>
<path d="M13.3333 3.44467C13.3333 3.87467 12.736 4.22267 12 4.22267C11.264 4.22267 10.6667 3.87467 10.6667 3.44467C10.6667 3.01467 11.264 2.66667 12 2.66667C12.736 2.66667 13.3333 3.01467 13.3333 3.44467ZM10.048 7.708C10.048 8.36 9.142 8.88867 8.024 8.88867C6.906 8.88867 6 8.36 6 7.708C6 7.05667 6.906 6.52733 8.024 6.52733C9.14133 6.528 10.048 7.05667 10.048 7.708ZM19.3333 5.568C19.3333 6.29733 18.3193 6.88867 17.0693 6.88867C15.8193 6.88867 14.8053 6.29733 14.8053 5.568C14.8053 4.83867 15.8193 4.24733 17.0693 4.24733C18.3193 4.24733 19.3333 4.83867 19.3333 5.568Z" fill="#FFAC33"/>
<path d="M22.4167 10.4133C22.4167 11.3013 21.764 12.0207 20.958 12.0207C20.152 12.0207 19.4993 11.3013 19.4993 10.4133C19.4993 9.52533 20.152 8.806 20.958 8.806C21.764 8.806 22.4167 9.52533 22.4167 10.4133ZM7.58332 13.6547C7.58332 14.4913 6.96798 15.1693 6.20865 15.1693C5.44932 15.1693 4.83398 14.4907 4.83398 13.6547C4.83398 12.8173 5.44932 12.1393 6.20865 12.1393C6.96798 12.1393 7.58332 12.818 7.58332 13.6547ZM19.0207 16.9747C18.6853 17.376 18.1173 17.4547 17.752 17.1493C17.3873 16.8447 17.364 16.2713 17.7007 15.87C18.0373 15.4667 18.6047 15.3887 18.9693 15.6933C19.3347 15.9987 19.3573 16.5713 19.0207 16.9747ZM12.5647 12.056C12.1133 12.5967 11.348 12.7027 10.8567 12.2913C10.366 11.8813 10.3347 11.1093 10.7873 10.5693C11.2407 10.0267 12.0047 9.922 12.4953 10.332C12.9867 10.7427 13.018 11.514 12.5647 12.056ZM13.1467 18.7327C12.3467 19.802 10.9107 20.08 9.94132 19.3547C8.97132 18.6293 8.83265 17.1733 9.63265 16.1047C10.4327 15.0347 11.8687 14.7567 12.838 15.4813C13.808 16.2067 13.9467 17.6627 13.1467 18.7327Z" fill="#F4900C"/>
</svg>
