<svg width="24" height="24" viewBox="0 0 24 24" fill="none" xmlns="http://www.w3.org/2000/svg">
<g clip-path="url(#clip0_797_11457)">
<path d="M2.69474 18.6107C5.95474 18.978 9.00008 17.5273 11.6754 14.6467C14.8834 11.192 15.0087 5.98 15.0087 5.31333C15.0087 4.64667 22.5487 3.276 22.3421 8.64667C22.0554 16.1107 17.3887 22.6107 9.06408 23.2573C5.07608 23.5673 2.61141 22.6387 1.47274 21.694C-0.32059 20.2067 0.972076 18.4167 2.69474 18.6107Z" fill="#DA2F47"/>
<path d="M20.3641 4.164C20.5001 3.068 20.4168 1.66133 19.8661 0.928668C19.1254 -0.0573322 16.9121 0.418668 17.4868 1.004C18.1268 1.65667 19.1234 2.50667 19.0874 3.77133C19.0581 3.76467 19.0308 3.75667 19.0008 3.75C16.4301 3.17067 14.5201 4.68667 14.2228 5.722C13.7014 7.53667 16.9328 6.10067 17.3428 6.89667C18.5561 9.25 19.9448 7 20.2781 7.75C20.6114 8.5 23.0094 10.6187 23.0094 8.174C23.0094 6.16733 22.2148 4.90533 20.3641 4.164Z" fill="#77B255"/>
</g>
<defs>
<clipPath id="clip0_797_11457">
<rect width="24" height="24" fill="white"/>
</clipPath>
</defs>
</svg>
