<svg width="24" height="24" viewBox="0 0 24 24" fill="none" xmlns="http://www.w3.org/2000/svg">
<path d="M16.4268 3.29091V8.43636C16.4268 9.14545 15.8043 9.72727 15.0237 9.72727C14.2529 9.72727 13.6205 9.15455 13.6205 8.43636V3.29091C13.6205 2.58182 12.998 2 12.2174 2H11.8123C11.0415 2 10.4091 2.57273 10.4091 3.29091V8.43636C10.4091 9.14545 9.7866 9.72727 9.00598 9.72727C8.23524 9.72727 7.60284 9.15455 7.60284 8.43636V3.29091C7.60284 2.58182 6.98032 2 6.1997 2H5.8835C5.15228 2 4.54952 2.50909 4.49024 3.18182L4.02582 8.32727C3.73926 11.4545 5.86373 14.3455 9.12455 15.2636C9.836 15.4636 10.251 16.1455 10.0732 16.8091L8.7293 20.4C8.51191 21.2091 9.17396 22 10.083 22H13.917C14.826 22 15.498 21.2091 15.2707 20.4L13.9268 16.8091C13.749 16.1455 14.164 15.4636 14.8754 15.2636C18.1363 14.3364 20.2607 11.4545 19.9742 8.32727L19.5098 3.18182C19.4505 2.51818 18.8477 2 18.1165 2H17.8003C17.0296 2 16.4268 2.57273 16.4268 3.29091Z" fill="#FF5C5C"/>
</svg>
