<svg width="24" height="24" viewBox="0 0 24 24" fill="none" xmlns="http://www.w3.org/2000/svg">
<path d="M5.63603 4.22168L19.7782 18.3638L18.3639 19.778L16.4338 17.8499C15.0286 18.6134 13.55 18.9999 12 18.9999C8.41281 18.9999 5.20874 16.9302 2.40883 12.907L2.16982 12.5574L1.79541 11.9999L2.16982 11.4423C3.3327 9.71077 4.56656 8.32124 5.86986 7.28227L4.22181 5.63589L5.63603 4.22168ZM4.21623 11.9999C6.62382 15.3692 9.21187 16.9999 12 16.9999C13.0065 16.9999 13.9869 16.7874 14.9421 16.3573L13.2927 14.7078C12.9012 14.895 12.4628 14.9999 12 14.9999C10.3431 14.9999 8.99999 13.6567 8.99999 11.9999C8.99999 11.5366 9.10499 11.0979 9.29248 10.7062L7.29359 8.70686C6.23609 9.51293 5.21076 10.6081 4.21623 11.9999ZM12 4.99985C15.5872 4.99985 18.7912 7.06947 21.5912 11.0927L21.8302 11.4423L22.2046 11.9999L21.8302 12.5574C21.2031 13.4912 20.5553 14.3255 19.8872 15.059L18.4716 13.6446C18.9149 13.1518 19.3522 12.6038 19.7837 11.9999C17.3762 8.63055 14.7881 6.99985 12 6.99985L11.8304 7.00285L10.0417 5.21314C10.6812 5.0712 11.334 4.99985 12 4.99985Z" fill="#9C9FBA"/>
</svg>
