<svg width="24" height="24" viewBox="0 0 24 24" fill="none" xmlns="http://www.w3.org/2000/svg">
<path d="M19.7989 12.4416C19.6013 13.5648 19.2667 14.6278 18.814 15.6179C17.5485 18.3871 15.3642 20.5794 12.7119 21.8767C12.6495 21.9078 12.5859 21.9382 12.5228 21.968C12.4174 22.0009 12.3022 22.0094 12.1859 21.9887C11.7937 21.9193 11.5325 21.5439 11.601 21.1502C11.6022 21.1441 11.6034 21.1374 11.6052 21.1307C11.6386 21.0528 11.6695 20.9743 11.6986 20.894C11.7949 20.6312 11.8701 20.3573 11.921 20.0726C11.9246 20.0568 11.9271 20.0403 11.9301 20.0245C11.9331 20.0056 11.9362 19.9868 11.9392 19.9679C12.0828 18.9791 11.4361 18.0469 10.4634 17.8394C10.4458 17.8358 10.4282 17.8321 10.4094 17.8291L10.4003 17.8273C10.3022 17.8072 10.2046 17.7859 10.1082 17.7615C8.12814 17.2808 6.48444 16.0846 5.40319 14.4995C4.26012 12.8255 3.74435 10.7171 4.12315 8.56064C4.89045 4.1911 9.03847 1.27341 13.3865 2.04315C17.0897 2.69909 19.7449 5.81637 19.9776 9.42651C19.9843 9.54151 19.9898 9.6553 19.9928 9.7697C20.0195 10.6477 19.9583 11.5422 19.8001 12.4416H19.7989Z" fill="#FF5C5C"/>
<path d="M11.6029 21.1356C11.6029 21.1356 11.6041 21.1325 11.6047 21.1307C11.6029 21.1368 11.6017 21.1434 11.6005 21.15C11.6005 21.1452 11.6017 21.1404 11.6029 21.1356Z" fill="#FFC2C2"/>
<path d="M11.8679 21.8469C11.8929 21.8658 11.9184 21.8834 11.9458 21.8998C11.9184 21.884 11.8923 21.8658 11.8679 21.8469Z" fill="#FFC2C2"/>
<path d="M16.1103 16.4048L16.0921 16.4499L16.0598 16.4176C16.0769 16.4134 16.0933 16.4091 16.1103 16.4048Z" fill="#FFC2C2"/>
<path d="M16.782 14.7699C16.9493 14.3629 17.4763 14.2576 17.7878 14.5685L18.8392 15.6199L18.8416 15.6175C17.5712 18.3866 15.3783 20.5789 12.7157 21.8761C12.653 21.9071 12.5891 21.9376 12.5258 21.9674C12.42 22.0002 12.3044 22.0087 12.1875 21.9881C12.0993 21.9729 12.0184 21.9418 11.946 21.8992C11.9186 21.8828 11.893 21.8652 11.8681 21.8463C11.8431 21.8268 11.82 21.8061 11.7981 21.7836C11.7835 21.769 11.7701 21.7538 11.7567 21.738C11.6752 21.64 11.6205 21.5214 11.5998 21.3936C11.5967 21.3778 11.5943 21.362 11.5931 21.3455C11.5876 21.292 11.5882 21.2372 11.5955 21.1812C11.5967 21.1709 11.5985 21.1606 11.6004 21.1496C11.6016 21.1429 11.6028 21.1362 11.6046 21.1301C11.6381 21.0523 11.6691 20.9738 11.6983 20.8934C11.7951 20.6312 11.8705 20.3568 11.9216 20.072C11.9253 20.0556 11.9277 20.0398 11.9308 20.024C11.9344 20.0051 11.9375 19.9856 11.9399 19.9668C12.0537 19.1879 11.6746 18.4438 11.0309 18.0623C10.8574 17.9595 10.6652 17.8828 10.4583 17.839C10.4407 17.8353 10.4224 17.8317 10.4041 17.8286L10.3944 17.8268C10.3616 17.8201 10.3287 17.8134 10.2958 17.8061L10.5563 17.1818L10.6627 16.8971C10.8136 16.4961 11.343 16.3665 11.6612 16.6847L11.9995 17.023C12.3056 17.3291 12.7254 16.8515 12.8927 16.4523L13.4878 15.0322C13.6551 14.633 14.1735 14.5314 14.479 14.8368L15.4458 15.8037C15.7531 16.111 16.2739 16.0063 16.4388 15.6047L16.782 14.7699Z" fill="#FFC2C2"/>
</svg>
