<svg width="60" height="28" viewBox="0 0 60 28" fill="none" xmlns="http://www.w3.org/2000/svg">
<g clip-path="url(#clip0_2265_3380)">
<path d="M11.7021 14.667C11.7021 13.4378 11.8997 12.4213 12.295 11.6174C12.6501 10.8581 13.1795 10.1933 13.84 9.67715C14.4717 9.19435 15.1955 8.84593 15.9669 8.65335C17.4894 8.25918 19.0872 8.25918 20.6098 8.65335C21.3812 8.84593 22.105 9.19435 22.7367 9.67715C23.3975 10.1932 23.9301 10.8551 24.2926 11.6111C24.694 12.415 24.8948 13.4316 24.8948 14.6607V16.755C24.8948 17.9831 24.694 18.9992 24.2926 19.803C23.9301 20.5591 23.3975 21.221 22.7367 21.737C22.105 22.2198 21.3812 22.5683 20.6098 22.7608C19.0946 23.1549 17.5039 23.1549 15.9887 22.7608C15.2178 22.5683 14.4944 22.2198 13.8633 21.737C13.2027 21.2208 12.6702 20.5589 12.3074 19.803C11.9039 19.0033 11.7021 17.9894 11.7021 16.7612V14.667ZM20.3266 14.4631C20.3362 14.109 20.2742 13.7566 20.1445 13.4269C20.0369 13.1667 19.8781 12.9308 19.6778 12.733C19.4936 12.5539 19.272 12.4178 19.029 12.3347C18.5577 12.1687 18.0439 12.1687 17.5726 12.3347C17.3299 12.4175 17.1087 12.5536 16.9254 12.733C16.724 12.93 16.5651 13.1661 16.4586 13.4269C16.3281 13.7564 16.2662 14.1089 16.2765 14.4631V16.9651C16.2665 17.3192 16.3284 17.6718 16.4586 18.0013C16.5655 18.2619 16.7243 18.498 16.9254 18.6952C17.1092 18.8736 17.3302 19.0091 17.5726 19.092C18.0435 19.26 18.558 19.26 19.029 19.092C19.2716 19.0088 19.4931 18.8734 19.6778 18.6952C19.8778 18.4971 20.0364 18.2612 20.1445 18.0013C20.274 17.6716 20.3359 17.3192 20.3266 16.9651V14.4631Z" fill="#9C9FBA"/>
<path d="M26.2266 14.667C26.2266 13.4378 26.4236 12.4213 26.8178 11.6174C27.1739 10.8582 27.7038 10.1936 28.3644 9.67715C28.9968 9.19461 29.7211 8.84624 30.4929 8.65336C32.0149 8.25918 33.6122 8.25918 35.1342 8.65336C35.9059 8.84624 36.6302 9.19461 37.2627 9.67715C37.9236 10.1931 38.4561 10.8551 38.8186 11.6112C39.22 12.415 39.4207 13.4316 39.4207 14.6607V16.755C39.4207 17.9831 39.22 18.9992 38.8186 19.803C38.4561 20.5591 37.9236 21.2211 37.2627 21.737C36.6302 22.2196 35.9059 22.568 35.1342 22.7608C33.6196 23.155 32.0293 23.155 30.5147 22.7608C29.7434 22.568 29.0196 22.2196 28.3877 21.737C27.7269 21.221 27.1944 20.5591 26.8318 19.803C26.4304 18.9992 26.2297 17.9831 26.2297 16.755L26.2266 14.667ZM34.8494 14.4631C34.8593 14.1091 34.7979 13.7568 34.669 13.4269C34.5606 13.1671 34.402 12.9313 34.2022 12.733C34.0183 12.5542 33.7973 12.4182 33.5549 12.3347C33.0831 12.1687 32.5688 12.1687 32.097 12.3347C31.8544 12.4179 31.6334 12.5539 31.4498 12.733C31.2489 12.9304 31.0901 13.1664 30.983 13.4269C30.8531 13.7565 30.7917 14.1091 30.8025 14.4631V16.9651C30.792 17.3191 30.8534 17.6716 30.983 18.0013C31.0905 18.2616 31.2492 18.4975 31.4498 18.6952C31.6339 18.8733 31.8548 19.0087 32.097 19.092C32.5686 19.2594 33.0834 19.2594 33.5549 19.092C33.7958 19.01 34.0161 18.8768 34.2006 18.7015C34.4001 18.5029 34.5587 18.2671 34.6674 18.0075C34.7963 17.6777 34.8577 17.3253 34.8479 16.9713L34.8494 14.4631Z" fill="#9C9FBA"/>
<path d="M7.69092 8.29388H9.43199C9.94176 8.30825 10.4258 8.52085 10.7813 8.8865C11.1368 9.25215 11.3357 9.74202 11.3357 10.252C11.3357 10.762 11.1368 11.2518 10.7813 11.6175C10.4258 11.9831 9.94176 12.1957 9.43199 12.2101H7.72048V21.0508C7.72048 21.5658 7.5159 22.0597 7.15174 22.4239C6.78759 22.788 6.29369 22.9926 5.7787 22.9926H4.81714C4.30215 22.9926 3.80825 22.788 3.44409 22.4239C3.07994 22.0597 2.87536 21.5658 2.87536 21.0508V12.2101H1.95892C1.91683 12.2126 1.87463 12.2074 1.83445 12.1946C1.33749 12.1686 0.869636 11.9522 0.528038 11.5903C0.18644 11.2284 -0.00265147 10.7489 2.80939e-05 10.2512C0.000178955 10.1156 0.0158397 9.98035 0.0467054 9.84824C0.142377 9.36859 0.415117 8.94253 0.81066 8.65485C1.10648 8.45959 1.4469 8.34237 1.80022 8.31411C1.82667 8.31411 1.92936 8.30632 2.06162 8.30166C2.3728 8.29077 2.86914 8.27987 2.86914 8.30166V7.78976C2.86914 6.56214 2.90025 5.28785 3.20988 4.09135C3.59886 2.59923 4.49973 1.37161 6.08521 1.07754C6.95497 0.921949 7.84028 1.03086 8.69604 1.13978C9.06791 1.18872 9.43635 1.26095 9.79918 1.35605C9.93042 1.39069 10.0597 1.43224 10.1866 1.48052C10.6042 1.65671 10.9476 1.97232 11.1584 2.37352C11.3692 2.77471 11.4342 3.23662 11.3424 3.68042C11.2506 4.12422 11.0077 4.52241 10.655 4.80705C10.3023 5.09168 9.86183 5.24512 9.40865 5.24117C9.17102 5.21907 8.93154 5.22744 8.69604 5.26606C8.55723 5.31092 8.42877 5.38302 8.31816 5.47813C8.20756 5.57323 8.11703 5.68945 8.05189 5.81997C7.83406 6.21984 7.78116 6.69906 7.74071 7.14561C7.70803 7.44746 7.69247 7.75086 7.6878 8.05427C7.69403 8.06671 7.69092 8.29388 7.69092 8.29388Z" fill="#9C9FBA"/>
<path d="M46.1275 12.2102V21.0509C46.1271 21.566 45.9222 22.0599 45.5578 22.424C45.1934 22.7881 44.6993 22.9927 44.1842 22.9927H43.2211C42.7061 22.9927 42.2122 22.7881 41.848 22.4239C41.4839 22.0598 41.2793 21.5659 41.2793 21.0509V10.7818C41.2791 10.4634 41.3417 10.1481 41.4634 9.85393C41.5852 9.55973 41.7637 9.29242 41.9888 9.06728C42.214 8.84214 42.4813 8.66359 42.7755 8.54183C43.0697 8.42008 43.385 8.35752 43.7034 8.35773C44.3463 8.35773 44.9629 8.61313 45.4175 9.06773C45.8721 9.52234 46.1275 10.1389 46.1275 10.7818V12.2102Z" fill="#9C9FBA"/>
<path d="M59.9997 10.6447C60.006 10.939 59.9468 11.2347 59.8379 11.5082L59.3275 12.7359L57.4605 17.3087L56.2484 20.2883V20.3023L56.1893 20.4345L53.8149 26.2474C53.8009 26.263 53.8009 26.291 53.7854 26.3065C53.5919 26.7377 53.2391 27.0774 52.8009 27.2543C52.3627 27.4312 51.873 27.4317 51.4344 27.2556L50.6004 26.9056C50.3783 26.8171 50.1759 26.6855 50.0048 26.5184C49.8338 26.3514 49.6975 26.1521 49.6038 25.9321C49.51 25.7122 49.4608 25.4758 49.4588 25.2367C49.4568 24.9976 49.5021 24.7605 49.5922 24.539L51.3161 20.3023L51.3737 20.4345L51.3301 20.2883L50.616 18.5456L50.0761 17.2449L48.2494 12.7327L47.7391 11.5051C47.6302 11.2316 47.5773 10.939 47.5835 10.6447C47.5798 10.1152 47.761 9.60106 48.096 9.19094C48.4309 8.78083 48.8984 8.50049 49.418 8.39832C49.9375 8.29614 50.4764 8.37854 50.9417 8.63129C51.407 8.88403 51.7694 9.29127 51.9665 9.78272L52.4769 11.0275L53.7916 14.2544L55.1063 11.0275L55.6182 9.78272C55.816 9.29229 56.1785 8.88613 56.6434 8.63417C57.1083 8.38221 57.6465 8.3002 58.1653 8.40228C58.6842 8.50435 59.1512 8.78412 59.486 9.19341C59.8208 9.6027 60.0025 10.1159 59.9997 10.6447Z" fill="#9C9FBA"/>
<path d="M43.7034 6.44064C45.0422 6.44064 46.1275 5.35532 46.1275 4.01652C46.1275 2.67772 45.0422 1.59241 43.7034 1.59241C42.3646 1.59241 41.2793 2.67772 41.2793 4.01652C41.2793 5.35532 42.3646 6.44064 43.7034 6.44064Z" fill="#9C9FBA"/>
</g>
<defs>
<clipPath id="clip0_2265_3380">
<rect width="60" height="28" fill="white"/>
</clipPath>
</defs>
</svg>
