<svg width="34" height="42" viewBox="0 0 34 42" fill="none" xmlns="http://www.w3.org/2000/svg">
<g clip-path="url(#clip0_2224_11858)">
<path d="M33.5639 22.0147C33.1414 24.3653 32.4299 26.5842 31.4737 28.6566C28.7833 34.4491 24.1435 39.0333 18.5105 41.7428C18.3771 41.8087 18.2437 41.8746 18.1103 41.9332C17.8879 41.9991 17.6433 42.0211 17.3913 41.9771C16.5612 41.8307 16.0053 41.0471 16.1462 40.2196C16.1462 40.205 16.1462 40.1903 16.1536 40.183C16.2277 40.0219 16.287 39.8535 16.3537 39.685C16.5612 39.1358 16.7169 38.5646 16.8281 37.9641C16.8355 37.9275 16.8429 37.8982 16.8503 37.8616C16.8503 37.825 16.8651 37.7811 16.8725 37.7445C17.1764 35.6794 15.8052 33.7241 13.7373 33.2921C13.7003 33.2847 13.6632 33.2774 13.6262 33.2701H13.6039C13.3964 33.2262 13.1889 33.1822 12.9813 33.131C8.77144 32.1277 5.28048 29.6233 2.98283 26.3059C0.551762 22.8055 -0.545182 18.3971 0.262703 13.8861C1.8933 4.74704 10.7059 -1.35302 19.9484 0.258041C27.8197 1.62744 33.4601 8.15223 33.9567 15.6949C33.9715 15.9366 33.9789 16.1709 33.9863 16.4126C34.0456 18.2506 33.9122 20.118 33.5787 22L33.5639 22.0147Z" fill="#9C9FBA"/>
<path d="M17 26C21.9706 26 26 21.9706 26 17C26 12.0294 21.9706 8 17 8C12.0294 8 8 12.0294 8 17C8 21.9706 12.0294 26 17 26Z" fill="white"/>
</g>
<defs>
<clipPath id="clip0_2224_11858">
<rect width="34" height="42" fill="white"/>
</clipPath>
</defs>
</svg>
