<svg width="32" height="32" viewBox="0 0 32 32" fill="none" xmlns="http://www.w3.org/2000/svg">
<path d="M6 6C6 4.93914 6.42143 3.92172 7.17157 3.17157C7.92172 2.42143 8.93913 2 10 2C11.0609 2 12.0783 2.42143 12.8284 3.17157C13.5786 3.92172 14 4.93914 14 6C14 7.06087 13.5786 8.07828 12.8284 8.82843C12.0783 9.57857 11.0609 10 10 10C8.93913 10 7.92172 9.57857 7.17157 8.82843C6.42143 8.07828 6 7.06087 6 6ZM10 4C9.46957 4 8.96086 4.21072 8.58579 4.58579C8.21071 4.96086 8 5.46957 8 6C8 6.53043 8.21071 7.03914 8.58579 7.41422C8.96086 7.78929 9.46957 8 10 8C10.5304 8 11.0391 7.78929 11.4142 7.41422C11.7893 7.03914 12 6.53043 12 6C12 5.46957 11.7893 4.96086 11.4142 4.58579C11.0391 4.21072 10.5304 4 10 4ZM19.558 9.168C19.139 8.84839 18.7873 8.44913 18.523 7.99316C18.2588 7.53719 18.0873 7.0335 18.0183 6.51104C17.9494 5.98858 17.9843 5.45763 18.1212 4.94872C18.2581 4.43981 18.4942 3.96296 18.8159 3.54558C19.1376 3.12819 19.5387 2.7785 19.996 2.51659C20.4533 2.25467 20.9578 2.08571 21.4806 2.0194C22.0034 1.95309 22.5342 1.99074 23.0424 2.1302C23.5506 2.26965 24.0263 2.50815 24.442 2.832C25.2606 3.48681 25.7894 4.43679 25.9147 5.47754C26.04 6.51829 25.7517 7.56663 25.1119 8.39699C24.4721 9.22735 23.5319 9.77337 22.4936 9.91757C21.4553 10.0618 20.3999 9.7926 19.558 9.168ZM22 4C21.4696 4 20.9609 4.21072 20.5858 4.58579C20.2107 4.96086 20 5.46957 20 6C20 6.53043 20.2107 7.03914 20.5858 7.41422C20.9609 7.78929 21.4696 8 22 8C22.5304 8 23.0391 7.78929 23.4142 7.41422C23.7893 7.03914 24 6.53043 24 6C24 5.46957 23.7893 4.96086 23.4142 4.58579C23.0391 4.21072 22.5304 4 22 4ZM5 12H10.34C10.12 12.626 10 13.3 10 14H5C4.73478 14 4.48043 14.1054 4.29289 14.2929C4.10536 14.4804 4 14.7348 4 15C4 16.634 4.65 17.846 5.676 18.67C6.148 19.05 6.714 19.356 7.354 19.58C6.88402 20.0796 6.52184 20.6705 6.29 21.316C5.61867 21.0463 4.9901 20.6805 4.424 20.23C2.92 19.02 2 17.232 2 15C2 14.2044 2.31607 13.4413 2.87868 12.8787C3.44129 12.3161 4.20435 12 5 12ZM12.536 12C12.0056 12.9192 11.862 14.0115 12.137 15.0366C12.4119 16.0617 13.0828 16.9356 14.002 17.466C14.9212 17.9964 16.0135 18.14 17.0386 17.865C18.0637 17.5901 18.9376 16.9192 19.468 16C19.9984 15.0808 20.142 13.9885 19.867 12.9634C19.5921 11.9383 18.9212 11.0644 18.002 10.534C17.0828 10.0036 15.9905 9.86003 14.9654 10.135C13.9403 10.4099 13.0664 11.0808 12.536 12ZM15.552 12.05C15.845 11.9838 16.1492 11.9843 16.442 12.0514C16.7349 12.1185 17.0089 12.2505 17.2439 12.4377C17.4788 12.6248 17.6688 12.8624 17.7997 13.1328C17.9305 13.4032 17.999 13.6996 18 14C17.9998 14.3763 17.8935 14.7449 17.6933 15.0635C17.493 15.3821 17.2069 15.6378 16.8679 15.8011C16.5289 15.9644 16.1506 16.0287 15.7767 15.9867C15.4027 15.9447 15.0482 15.798 14.7539 15.5635C14.4595 15.3291 14.2373 15.0163 14.1128 14.6612C13.9882 14.3061 13.9663 13.9231 14.0497 13.5562C14.133 13.1892 14.3182 12.8532 14.584 12.5868C14.8497 12.3203 15.1853 12.1343 15.552 12.05ZM26.324 18.67C25.852 19.05 25.286 19.356 24.646 19.58C25.1153 20.0797 25.4768 20.6706 25.708 21.316C26.388 21.038 27.018 20.676 27.576 20.23C29.08 19.02 30 17.232 30 15C30 14.2044 29.6839 13.4413 29.1213 12.8787C28.5587 12.3161 27.7957 12 27 12H21.66C21.88 12.626 22 13.3 22 14H27C27.2652 14 27.5196 14.1054 27.7071 14.2929C27.8946 14.4804 28 14.7348 28 15C28 16.634 27.35 17.846 26.324 18.67ZM21 20C21.7957 20 22.5587 20.3161 23.1213 20.8787C23.6839 21.4413 24 22.2044 24 23C24 25.232 23.082 27.02 21.576 28.23C20.094 29.42 18.106 30 16 30C13.894 30 11.906 29.42 10.424 28.23C8.92 27.02 8 25.232 8 23C7.99894 22.6057 8.07582 22.2152 8.22621 21.8507C8.3766 21.4862 8.59754 21.1551 8.87633 20.8763C9.15511 20.5975 9.48625 20.3766 9.8507 20.2262C10.2152 20.0758 10.6057 19.9989 11 20H21ZM21 22H11C10.7348 22 10.4804 22.1054 10.2929 22.2929C10.1054 22.4804 10 22.7348 10 23C10 24.634 10.65 25.846 11.676 26.67C12.728 27.514 14.24 28 16 28C17.76 28 19.272 27.514 20.324 26.67C21.35 25.846 22 24.634 22 23C22 22.7348 21.8946 22.4804 21.7071 22.2929C21.5196 22.1054 21.2652 22 21 22Z" fill="#23273D"/>
</svg>
