<svg width="24" height="24" viewBox="0 0 24 24" fill="none" xmlns="http://www.w3.org/2000/svg">
<path fill-rule="evenodd" clip-rule="evenodd" d="M12 24C18.6274 24 24 18.6274 24 12C24 5.37258 18.6274 0 12 0C5.37258 0 0 5.37258 0 12C0 18.6274 5.37258 24 12 24ZM12 19C10.8954 19 10 18.1046 10 17V14H7C5.89543 14 5 13.1046 5 12C5 10.8954 5.89543 10 7 10H10V7C10 5.89543 10.8954 5 12 5C13.1046 5 14 5.89543 14 7V10H17C18.1046 10 19 10.8954 19 12C19 13.1046 18.1046 14 17 14H14V17C14 18.1046 13.1046 19 12 19Z" fill="#54576F"/>
</svg>
