<svg width="24" height="24" viewBox="0 0 24 24" fill="none" xmlns="http://www.w3.org/2000/svg">
<path d="M6 21V20L7.5 19C6.51667 19 5.68767 18.6627 5.013 17.988C4.33767 17.3127 4 16.4833 4 15.5V6C4 4.61667 4.64167 3.604 5.925 2.962C7.20833 2.32067 9.23333 2 12 2C14.8667 2 16.9167 2.30833 18.15 2.925C19.3833 3.54167 20 4.56667 20 6V15.5C20 16.4833 19.6627 17.3127 18.988 17.988C18.3127 18.6627 17.4833 19 16.5 19L18 20V21H6ZM6 10H11V7H6V10ZM13 10H18V7H13V10ZM8.5 16C8.91667 16 9.27067 15.854 9.562 15.562C9.854 15.2707 10 14.9167 10 14.5C10 14.0833 9.854 13.7293 9.562 13.438C9.27067 13.146 8.91667 13 8.5 13C8.08333 13 7.72933 13.146 7.438 13.438C7.146 13.7293 7 14.0833 7 14.5C7 14.9167 7.146 15.2707 7.438 15.562C7.72933 15.854 8.08333 16 8.5 16ZM15.5 16C15.9167 16 16.2707 15.854 16.562 15.562C16.854 15.2707 17 14.9167 17 14.5C17 14.0833 16.854 13.7293 16.562 13.438C16.2707 13.146 15.9167 13 15.5 13C15.0833 13 14.7293 13.146 14.438 13.438C14.146 13.7293 14 14.0833 14 14.5C14 14.9167 14.146 15.2707 14.438 15.562C14.7293 15.854 15.0833 16 15.5 16Z" fill="white"/>
</svg>
