<svg width="36" height="36" viewBox="0 0 36 36" fill="none" xmlns="http://www.w3.org/2000/svg">
<rect width="36" height="36" rx="18" fill="#9C9FBA"/>
<path d="M12.1546 9.31626C12.05 9.26393 11.9327 9.24202 11.8163 9.25301C11.6998 9.264 11.5888 9.30746 11.4958 9.37844C11.4028 9.44941 11.3316 9.54506 11.2903 9.65451C11.249 9.76395 11.2392 9.88279 11.2621 9.99751L13.0158 16.06C13.0485 16.173 13.1124 16.2744 13.2002 16.3527C13.288 16.431 13.3961 16.4829 13.5121 16.5025L20.6246 17.6938C20.9596 17.76 20.9596 18.24 20.6246 18.3063L13.5121 19.4975C13.3961 19.5171 13.288 19.569 13.2002 19.6473C13.1124 19.7256 13.0485 19.827 13.0158 19.94L11.2621 26.0025C11.2392 26.1172 11.249 26.2361 11.2903 26.3455C11.3316 26.455 11.4028 26.5506 11.4958 26.6216C11.5888 26.6926 11.6998 26.736 11.8163 26.747C11.9327 26.758 12.05 26.7361 12.1546 26.6838L28.4046 18.5588C28.5083 18.5068 28.5954 18.427 28.6563 18.3283C28.7173 18.2297 28.7495 18.116 28.7495 18C28.7495 17.884 28.7173 17.7704 28.6563 17.6717C28.5954 17.573 28.5083 17.4932 28.4046 17.4413L12.1546 9.31626Z" fill="white"/>
</svg>
