<svg width="24" height="24" viewBox="0 0 24 24" fill="none" xmlns="http://www.w3.org/2000/svg">
<g clip-path="url(#clip0_2224_11846)">
<path d="M19 3H5C3.9 3 3 3.9 3 5V19C3 20.1 3.89 21 5 21H19C20.1 21 21 20.1 21 19V5C21 3.9 20.1 3 19 3ZM19 19H6C5.44772 19 5 18.5523 5 18V17C5 16.4477 5.44772 16 6 16H7.98389C8.34049 16 8.66263 16.1962 8.88339 16.4762C9.61229 17.4009 10.7372 18 12.01 18C13.2849 18 14.404 17.3989 15.1372 16.4716C15.3569 16.1936 15.6776 16 16.0319 16H18C18.5523 16 19 16.4477 19 17V19ZM19 13C19 13.5523 18.5523 14 18 14H15.01C14.4577 14 14.0301 14.4746 13.7638 14.9584C13.4229 15.5779 12.7634 16 12.01 16C11.2566 16 10.5971 15.5779 10.2562 14.9584C9.98995 14.4746 9.56228 14 9.01 14H6C5.44772 14 5 13.5523 5 13V6C5 5.44772 5.44772 5 6 5H18C18.5523 5 19 5.44772 19 6V13Z" fill="#9C9FBA"/>
</g>
<defs>
<clipPath id="clip0_2224_11846">
<rect width="24" height="24" fill="white"/>
</clipPath>
</defs>
</svg>
