<svg width="36" height="36" viewBox="0 0 36 36" fill="none" xmlns="http://www.w3.org/2000/svg">
<g clip-path="url(#clip0_852_7474)">
<path d="M28.5 12L22.5 18H27C27 22.965 22.965 27 18 27C16.485 27 15.045 26.625 13.8 25.95L11.61 28.14C13.455 29.31 15.645 30 18 30C24.63 30 30 24.63 30 18H34.5L28.5 12ZM9 18C9 13.035 13.035 9 18 9C19.515 9 20.955 9.375 22.2 10.05L24.39 7.86C22.545 6.69 20.355 6 18 6C11.37 6 6 11.37 6 18H1.5L7.5 24L13.5 18H9Z" fill="#54576F"/>
</g>
<defs>
<clipPath id="clip0_852_7474">
<rect width="36" height="36" fill="white"/>
</clipPath>
</defs>
</svg>
