<svg width="24" height="24" viewBox="0 0 24 24" fill="none" xmlns="http://www.w3.org/2000/svg">
<g clip-path="url(#clip0_2224_11845)">
<path d="M19 3H4.99C3.88 3 3.01 3.89 3.01 5L3 19C3 20.1 3.88 21 4.99 21H19C20.1 21 21 20.1 21 19V5C21 3.89 20.1 3 19 3ZM19 14C19 14.5523 18.5523 15 18 15H16C15.4477 15 15.0163 15.46 14.8354 15.9818C14.4275 17.1579 13.308 18 12 18C10.692 18 9.57249 17.1579 9.16463 15.9818C8.98367 15.46 8.55228 15 8 15H5.99C5.43771 15 4.99 14.5523 4.99 14V6C4.99 5.44772 5.43772 5 5.99 5H18C18.5523 5 19 5.44772 19 6V14Z" fill="#FF5C5C"/>
</g>
<defs>
<clipPath id="clip0_2224_11845">
<rect width="24" height="24" fill="white"/>
</clipPath>
</defs>
</svg>
