<svg width="24" height="24" viewBox="0 0 24 24" fill="none" xmlns="http://www.w3.org/2000/svg">
<path d="M12 5C15.6897 5 18.974 7.18957 21.8302 11.4425L22.2046 12L21.8302 12.5575C18.974 16.8104 15.6897 19 12 19C8.31032 19 5.02596 16.8104 2.16982 12.5575L1.79541 12L2.16982 11.4425C5.02596 7.18957 8.31032 5 12 5ZM12 7C9.21187 7 6.62382 8.6307 4.21623 12C6.62382 15.3693 9.21187 17 12 17C14.7881 17 17.3762 15.3693 19.7837 12C17.3762 8.6307 14.7881 7 12 7ZM12 9C13.6568 9 15 10.3431 15 12C15 13.6569 13.6568 15 12 15C10.3431 15 8.99999 13.6569 8.99999 12C8.99999 10.3431 10.3431 9 12 9Z" fill="#9C9FBA"/>
</svg>
