<svg width="54" height="48" viewBox="0 0 54 48" fill="none" xmlns="http://www.w3.org/2000/svg">
<g clip-path="url(#clip0_1804_12180)">
<path d="M48.5976 23.8264C48.3959 23.8264 48.2116 23.7063 48.1318 23.5196C47.0897 21.1018 45.4613 19.04 43.2915 17.3948C41.1363 15.7598 38.4557 14.5285 35.3251 13.737C35.2569 13.7197 35.1916 13.6878 35.1365 13.6444C35.0174 13.5504 34.9434 13.4071 34.9405 13.2567C34.9376 13.1047 35 12.9586 35.1147 12.8602L46.7864 2.83741C47.0955 2.57262 47.4888 2.42648 47.8952 2.42648C48.1201 2.42648 48.3422 2.46989 48.5526 2.55526C48.9764 2.72744 49.3073 3.04866 49.4844 3.46248C49.5163 3.53771 49.5454 3.60861 49.5773 3.6853L49.5991 3.73884C49.6441 3.8517 49.6919 3.97468 49.7384 4.10201L49.7761 4.20764C49.8124 4.30458 49.8487 4.40876 49.885 4.51438L49.9271 4.63882C49.9721 4.77193 50.017 4.91084 50.0606 5.05408L50.0707 5.08447C50.1172 5.23639 50.1636 5.397 50.2101 5.5605L50.2493 5.70375C50.2841 5.82963 50.3175 5.95985 50.3509 6.09297L50.3886 6.24345C50.4321 6.42431 50.4742 6.60807 50.5163 6.79906L50.5207 6.82366C50.5613 7.01321 50.5976 7.19841 50.6324 7.38796C50.6426 7.44294 50.6527 7.49937 50.6629 7.5558C50.6919 7.7222 50.718 7.87991 50.7442 8.04052L50.7717 8.21849C50.8037 8.43408 50.8342 8.65401 50.8617 8.87973L50.8733 8.98391C50.8966 9.17924 50.9169 9.37892 50.9357 9.58148C50.943 9.65383 50.9488 9.72762 50.9546 9.80142C50.9706 9.98662 50.9836 10.1747 50.9952 10.3672L51.0069 10.5567C51.0214 10.8172 51.0315 11.0761 51.0388 11.3279L51.0417 11.4842C51.046 11.6998 51.049 11.9197 51.0475 12.1425C51.0475 12.2264 51.0475 12.3104 51.046 12.3957C51.0431 12.6142 51.0388 12.837 51.0315 13.0628C51.0315 13.0628 51.0272 13.2161 51.0257 13.2567C51.0141 13.5402 50.9982 13.8354 50.9778 14.132C50.9749 14.1754 50.9604 14.3476 50.9604 14.3476C50.943 14.582 50.9227 14.8208 50.8995 15.061C50.8908 15.1565 50.8806 15.2505 50.8704 15.346C50.8429 15.6064 50.8124 15.8712 50.7775 16.1389C50.7775 16.1389 50.7616 16.2749 50.7558 16.3096C50.7137 16.6207 50.6658 16.9434 50.6092 17.2935C50.6005 17.35 50.5642 17.5583 50.5642 17.5583C50.5207 17.8144 50.4728 18.0749 50.422 18.3368C50.422 18.3368 50.3784 18.5596 50.361 18.6522C50.2972 18.972 50.2289 19.2888 50.1593 19.597L50.1317 19.7186C50.0548 20.0528 49.9662 20.4102 49.8632 20.8081C49.8458 20.8776 49.7805 21.1192 49.7805 21.1192C49.705 21.4013 49.6266 21.6849 49.5425 21.9729C49.5425 21.9729 49.4713 22.2174 49.4452 22.3071C49.3146 22.7484 49.1985 23.1188 49.0824 23.4748C49.0171 23.6759 48.8342 23.8148 48.6223 23.8235C48.615 23.8235 48.6063 23.8235 48.5991 23.8235L48.5976 23.8264Z" fill="#FF5C5C"/>
<path d="M47.8957 2.93145C48.0553 2.93145 48.2135 2.96328 48.3615 3.02261C48.6431 3.13691 48.8855 3.34961 49.0175 3.65925C49.0466 3.7287 49.0756 3.79815 49.1061 3.87195C49.1133 3.88931 49.1191 3.90378 49.1264 3.92114C49.1714 4.03255 49.2164 4.1512 49.2628 4.27419C49.2744 4.30747 49.2875 4.34219 49.2991 4.37547C49.3339 4.47242 49.3688 4.57225 49.4051 4.67499C49.4181 4.7155 49.4326 4.75457 49.4457 4.79508C49.4892 4.9253 49.5328 5.05986 49.5763 5.20022C49.5792 5.21034 49.5821 5.21903 49.5865 5.2306C49.6315 5.37963 49.6765 5.53445 49.7214 5.69361C49.7345 5.73992 49.7461 5.78622 49.7592 5.83252C49.7926 5.95695 49.8259 6.08284 49.8579 6.21306C49.8695 6.26225 49.8825 6.31 49.8942 6.36064C49.9362 6.53717 49.9783 6.71658 50.019 6.90324C50.0219 6.91336 50.0233 6.92494 50.0262 6.93652C50.064 7.11159 50.0988 7.2939 50.1336 7.47911C50.1438 7.53699 50.1554 7.59631 50.1656 7.65563C50.1917 7.80611 50.2178 7.96093 50.2425 8.11865C50.2512 8.17652 50.2613 8.2344 50.2701 8.29372C50.302 8.50497 50.331 8.71912 50.3571 8.9405C50.3615 8.97377 50.3644 9.0085 50.3687 9.04323C50.3905 9.23422 50.4108 9.42955 50.4297 9.62778C50.437 9.69868 50.4428 9.77102 50.4486 9.84337C50.4631 10.0257 50.4776 10.2109 50.4892 10.399C50.4936 10.4612 50.4979 10.522 50.5008 10.5842C50.5139 10.8316 50.5255 11.0834 50.5313 11.3409C50.5313 11.3916 50.5327 11.4437 50.5342 11.4943C50.5385 11.7056 50.54 11.9211 50.54 12.1396C50.54 12.2221 50.54 12.3046 50.5385 12.3885C50.5356 12.6041 50.5313 12.8226 50.524 13.0454C50.5226 13.1091 50.5211 13.1713 50.5182 13.2349C50.5066 13.5171 50.4921 13.8036 50.4718 14.0959C50.4674 14.1653 50.4602 14.2377 50.4558 14.3086C50.4384 14.5401 50.4181 14.773 50.3949 15.0118C50.3862 15.1044 50.376 15.1984 50.3658 15.2925C50.3383 15.5486 50.3078 15.809 50.2744 16.0738C50.2671 16.1302 50.2613 16.1852 50.2526 16.2431C50.2091 16.5614 50.1612 16.8841 50.1075 17.2125C50.093 17.2993 50.077 17.3876 50.0625 17.4744C50.019 17.7276 49.9725 17.9837 49.9232 18.2427C49.9029 18.3455 49.884 18.4496 49.8622 18.5524C49.7998 18.8591 49.7345 19.1702 49.6619 19.4856C49.6532 19.5261 49.6445 19.5652 49.6358 19.6057C49.5545 19.9588 49.4646 20.319 49.3702 20.6822C49.3441 20.7835 49.3151 20.8877 49.2875 20.989C49.2135 21.2668 49.1351 21.5489 49.0524 21.8325C49.0204 21.9425 48.9885 22.0525 48.9566 22.1639C48.8434 22.5444 48.7258 22.9278 48.5981 23.32C47.424 20.594 45.6417 18.5422 43.5997 16.9926C41.0715 15.074 38.1412 13.928 35.4519 13.2465L35.4475 13.2436L47.1192 3.22083C47.3485 3.02405 47.6243 2.93145 47.8971 2.93145M47.8971 1.91861C47.3688 1.91861 46.858 2.10816 46.4574 2.45252L34.7857 12.4753C34.5535 12.675 34.4243 12.9687 34.433 13.274C34.4417 13.5793 34.5898 13.8644 34.8336 14.0496C34.9425 14.132 35.0702 14.1942 35.2022 14.2275C38.266 15.0031 40.8842 16.204 42.9858 17.7985C45.0844 19.3901 46.6591 21.3825 47.6663 23.7207C47.8274 24.0941 48.1946 24.3342 48.5996 24.3342C48.6155 24.3342 48.63 24.3342 48.646 24.3342C49.0683 24.3154 49.4355 24.0376 49.5662 23.6368C49.6837 23.2751 49.8013 22.9003 49.9333 22.4561C49.9595 22.3693 49.9841 22.284 50.0088 22.1986L50.032 22.1176C50.1162 21.8267 50.1975 21.5373 50.273 21.2538L50.2976 21.1612C50.3179 21.0874 50.3383 21.0121 50.3571 20.9383C50.4616 20.5346 50.5502 20.1744 50.6285 19.8358C50.6343 19.8097 50.6401 19.7837 50.6459 19.7576L50.6561 19.7142C50.7258 19.4046 50.7954 19.0819 50.8607 18.7564C50.8811 18.6565 50.8999 18.5596 50.9188 18.4612L50.9232 18.4381C50.974 18.1733 51.0218 17.907 51.0668 17.648L51.0828 17.554C51.093 17.4961 51.1031 17.4368 51.1133 17.3789C51.1699 17.0317 51.2207 16.696 51.2628 16.3805C51.2671 16.3444 51.2715 16.3082 51.2758 16.2735L51.2845 16.2069C51.3194 15.9378 51.3513 15.6672 51.3789 15.4024C51.389 15.3055 51.3992 15.2085 51.4079 15.113C51.4311 14.87 51.4529 14.6254 51.4703 14.3881L51.4761 14.31C51.4805 14.2623 51.4834 14.2145 51.4863 14.1682C51.5066 13.8672 51.5226 13.5677 51.5342 13.2783C51.5356 13.2364 51.5371 13.1944 51.5385 13.1525V13.0816C51.5487 12.8472 51.553 12.6186 51.5559 12.403C51.5559 12.3162 51.5574 12.2308 51.5574 12.1454C51.5574 11.9197 51.5559 11.694 51.5516 11.4769V11.4162C51.5516 11.3829 51.5501 11.3496 51.5487 11.3163C51.5414 11.0588 51.5313 10.794 51.5168 10.5307C51.5138 10.4887 51.5124 10.4482 51.5095 10.4062L51.5051 10.3397C51.4921 10.14 51.479 9.9461 51.4631 9.7609C51.4572 9.68566 51.45 9.61186 51.4442 9.53662C51.4253 9.32682 51.4035 9.12136 51.3803 8.92747L51.376 8.88985C51.3731 8.8667 51.3716 8.84355 51.3687 8.8204C51.3426 8.60481 51.3121 8.38343 51.2773 8.14614C51.27 8.10128 51.2642 8.05788 51.257 8.01447L51.2483 7.96383C51.2221 7.79743 51.1946 7.63393 51.1684 7.482L51.1612 7.44004C51.1525 7.39229 51.1438 7.34455 51.135 7.29824C51.0959 7.08989 51.0596 6.90468 51.0218 6.72961L51.0146 6.69777C50.9769 6.5198 50.9333 6.33315 50.884 6.12624C50.8738 6.08284 50.8622 6.04087 50.852 5.99891L50.8448 5.97142C50.8114 5.83541 50.7766 5.7023 50.7403 5.57207L50.7287 5.53156C50.7185 5.49539 50.7098 5.46066 50.6996 5.42594C50.6488 5.24362 50.6024 5.08446 50.5574 4.93832L50.5473 4.90794C50.5037 4.76759 50.4587 4.62724 50.4094 4.47965C50.3963 4.43914 50.3818 4.40007 50.3687 4.35956L50.3658 4.35232C50.3281 4.2438 50.2918 4.13818 50.2541 4.03545L50.241 4.00072L50.2149 3.92693C50.1656 3.79237 50.1162 3.66648 50.0698 3.55073L50.0538 3.51166L50.048 3.4972C50.0161 3.41762 49.9841 3.34382 49.9537 3.26858C49.7214 2.72599 49.2919 2.30783 48.7432 2.08645C48.4718 1.97649 48.1859 1.92006 47.8942 1.92006L47.8971 1.91861Z" fill="black"/>
<path d="M5.41054 23.8264C5.19864 23.8163 5.01578 23.6773 4.95047 23.4777C4.83436 23.1217 4.71535 22.7397 4.58763 22.31C4.56296 22.2246 4.53829 22.1407 4.51361 22.0568L4.49039 21.9743C4.40766 21.6864 4.32784 21.4028 4.25237 21.1206C4.25237 21.1206 4.18706 20.879 4.16964 20.8096C4.06515 20.4059 3.97662 20.0499 3.90115 19.7186L3.87502 19.597C3.80536 19.2917 3.73715 18.9734 3.67329 18.6522C3.65152 18.5466 3.6312 18.4424 3.61233 18.3382C3.56153 18.0763 3.51509 17.8159 3.4701 17.5598L3.45413 17.4657C3.44397 17.4079 3.43382 17.3514 3.42511 17.2936C3.36996 16.955 3.32061 16.6251 3.27707 16.3111L3.2553 16.1404C3.22047 15.8712 3.18999 15.6079 3.16242 15.3475C3.15226 15.252 3.1421 15.1565 3.13339 15.0624C3.11017 14.8222 3.08985 14.5835 3.07243 14.3491C3.07243 14.3491 3.05937 14.1754 3.05502 14.1335C3.0347 13.8369 3.01873 13.5417 3.00712 13.2581C3.00567 13.219 3.00132 13.0657 3.00132 13.0657C2.99406 12.8399 2.98825 12.6171 2.9868 12.3972C2.9868 12.3118 2.98535 12.2279 2.98535 12.144C2.98535 11.9212 2.9868 11.7027 2.99116 11.4871L2.99406 11.3294C3.00132 11.0762 3.01148 10.8157 3.02599 10.5582C3.02889 10.5176 3.0376 10.3701 3.0376 10.3701C3.04921 10.1776 3.06227 9.98807 3.07824 9.80287C3.07824 9.80287 3.0913 9.64515 3.0971 9.58294C3.11597 9.38037 3.13629 9.18214 3.15951 8.98681L3.17112 8.88118C3.1987 8.65546 3.22773 8.43698 3.26111 8.22139L3.28868 8.04342C3.31335 7.88281 3.34093 7.7251 3.36705 7.57028L3.39898 7.39086C3.43382 7.20131 3.4701 7.01466 3.50929 6.83524L3.51654 6.80196C3.55718 6.61097 3.60072 6.42576 3.64426 6.24635L3.68199 6.09442C3.71538 5.96275 3.74876 5.83108 3.78359 5.7052L3.82277 5.56196C3.86777 5.39845 3.91421 5.23929 3.9621 5.08592L3.96791 5.06566C4.0158 4.91084 4.06079 4.77339 4.10579 4.63882L4.14787 4.51584C4.18416 4.40876 4.22044 4.30603 4.25673 4.20764L4.29446 4.10346C4.34235 3.97614 4.3888 3.85459 4.43524 3.73884L4.45556 3.6882C4.48604 3.61151 4.51652 3.54061 4.54554 3.46971C4.72551 3.05156 5.05641 2.72889 5.4802 2.55816C5.69065 2.47279 5.9127 2.42938 6.13766 2.42938C6.54404 2.42938 6.93735 2.57552 7.24649 2.84031L18.9182 12.8631C19.0328 12.9615 19.0981 13.1076 19.0938 13.2581C19.0894 13.4086 19.0198 13.5518 18.8993 13.6444C18.8441 13.6878 18.7759 13.7226 18.7063 13.7399C15.5757 14.5328 12.8951 15.7627 10.7399 17.3977C8.57011 19.0429 6.9417 21.1047 5.89964 23.5225C5.81982 23.7092 5.6355 23.8293 5.43376 23.8293C5.42651 23.8293 5.4178 23.8293 5.41054 23.8293V23.8264Z" fill="#FF5C5C"/>
<path d="M6.13586 2.93145C6.40872 2.93145 6.68302 3.02261 6.91378 3.22083L18.5855 13.2436L18.5811 13.2465C15.8903 13.928 12.9601 15.0754 10.4333 16.9926C8.3898 18.5422 6.609 20.594 5.43487 23.3199C5.30715 22.9293 5.18959 22.5444 5.07639 22.1639C5.04301 22.0524 5.01253 21.9425 4.9806 21.8325C4.89787 21.5489 4.8195 21.2668 4.74548 20.989C4.71791 20.8862 4.69033 20.7835 4.66276 20.6822C4.56842 20.319 4.47843 19.9588 4.39716 19.6057C4.38845 19.5652 4.37974 19.5261 4.37104 19.4856C4.29992 19.1702 4.23316 18.8591 4.17075 18.5524C4.15043 18.4482 4.13011 18.3454 4.10979 18.2427C4.06045 17.9837 4.01255 17.7276 3.97047 17.4744C3.95595 17.3876 3.93999 17.2993 3.92547 17.2125C3.87177 16.8841 3.82243 16.56 3.78034 16.2431C3.77308 16.1867 3.76728 16.1302 3.75857 16.0738C3.72374 15.8105 3.69326 15.55 3.66714 15.2925C3.65698 15.1984 3.64827 15.1044 3.63811 15.0118C3.61489 14.7745 3.59457 14.5401 3.57715 14.3086C3.57135 14.2377 3.56554 14.1653 3.56119 14.0959C3.54087 13.8036 3.52636 13.5156 3.51475 13.2349C3.51184 13.1713 3.51039 13.1091 3.50894 13.0454C3.50168 12.8226 3.49588 12.6041 3.49443 12.3885C3.49443 12.3046 3.49298 12.2221 3.49298 12.1396C3.49298 11.9211 3.49443 11.7056 3.49878 11.4943C3.49878 11.4437 3.49878 11.3916 3.50168 11.3409C3.50894 11.0834 3.5191 10.8316 3.53216 10.5842C3.53506 10.522 3.53942 10.4612 3.54377 10.399C3.55538 10.2109 3.56844 10.0257 3.58441 9.84337C3.59022 9.77102 3.59602 9.70012 3.60328 9.62778C3.62214 9.42955 3.64246 9.23422 3.66423 9.04322C3.66859 9.00995 3.67149 8.97377 3.67584 8.94049C3.70197 8.71912 3.73245 8.50352 3.76292 8.29372C3.77163 8.2344 3.78179 8.17797 3.7905 8.11865C3.81517 7.96093 3.8413 7.80756 3.86742 7.65563C3.87758 7.59631 3.88774 7.53698 3.89935 7.47911C3.93418 7.2939 3.96901 7.11159 4.00675 6.93651C4.00965 6.92639 4.0111 6.91481 4.01401 6.90324C4.05464 6.71658 4.09528 6.53572 4.13882 6.36064C4.15043 6.31145 4.16349 6.26225 4.1751 6.21306C4.20703 6.08283 4.24042 5.95551 4.2738 5.83252C4.28686 5.78622 4.29847 5.73847 4.31153 5.69361C4.35652 5.53445 4.40151 5.37819 4.44651 5.2306C4.44941 5.22047 4.45231 5.21034 4.45666 5.20022C4.5002 5.05986 4.54375 4.9253 4.58729 4.79508C4.60035 4.75457 4.61486 4.71405 4.62792 4.67499C4.66275 4.57225 4.69904 4.47242 4.73387 4.37547C4.74548 4.34219 4.75854 4.30747 4.77015 4.27419C4.81515 4.1512 4.86159 4.03255 4.90658 3.92114C4.91384 3.90378 4.91964 3.88786 4.9269 3.87195C4.95738 3.79815 4.9864 3.7287 5.01543 3.65925C5.1475 3.34961 5.38988 3.13691 5.67144 3.02261C5.81947 2.96328 5.97767 2.93145 6.13732 2.93145M6.13732 1.91861C5.8456 1.91861 5.56113 1.97504 5.28828 2.08356C4.73968 2.30494 4.31153 2.7231 4.08077 3.2599C4.04739 3.33948 4.01546 3.41472 3.98353 3.49285L3.97772 3.50732L3.96176 3.54639C3.91531 3.6607 3.86742 3.78803 3.81662 3.92259C3.80792 3.94719 3.79776 3.97178 3.78905 3.99783L3.77744 4.03111C3.7397 4.13384 3.70342 4.23946 3.66568 4.34798L3.66133 4.35956C3.64827 4.39718 3.63521 4.43624 3.62214 4.47531C3.5728 4.6229 3.52781 4.76325 3.48427 4.90215L3.47411 4.93398C3.42912 5.08012 3.38267 5.23928 3.33188 5.42304C3.32172 5.45777 3.31301 5.49249 3.30285 5.52867L3.29124 5.57063C3.25641 5.70085 3.22157 5.83396 3.18674 5.97142L3.17949 6.00181C3.16933 6.04232 3.15917 6.08428 3.14901 6.12479C3.09966 6.33026 3.05612 6.51691 3.01839 6.69343L3.01258 6.72382C2.97485 6.90179 2.93856 7.08844 2.89938 7.2968C2.89067 7.34454 2.88196 7.39374 2.87325 7.44294L2.866 7.48056C2.83842 7.63393 2.8123 7.79598 2.78472 7.96383L2.77601 8.01736C2.76876 8.06077 2.76295 8.10273 2.75569 8.14614C2.72086 8.38343 2.69038 8.60481 2.66426 8.82185C2.66136 8.845 2.65845 8.86815 2.657 8.8913L2.65265 8.92892C2.62943 9.12425 2.60911 9.32827 2.58879 9.53807C2.58153 9.61186 2.57573 9.6871 2.56992 9.76234C2.55396 9.94465 2.5409 10.14 2.52783 10.3397L2.52348 10.4062C2.52058 10.4482 2.51767 10.4887 2.51622 10.5307C2.50171 10.794 2.49155 11.0588 2.48429 11.3163C2.48429 11.3496 2.48429 11.3829 2.48284 11.4162V11.4755C2.47704 11.694 2.47559 11.9197 2.47559 12.144C2.47559 12.2293 2.47559 12.3147 2.47704 12.4015C2.47994 12.6186 2.48429 12.8472 2.49155 13.0816V13.1525C2.49445 13.1944 2.4959 13.2349 2.49736 13.2783C2.50897 13.5677 2.52493 13.8672 2.54525 14.1682C2.54815 14.2145 2.55251 14.2608 2.55541 14.3086L2.56122 14.3881C2.57863 14.6269 2.6004 14.87 2.62362 15.113C2.63233 15.2085 2.64249 15.3055 2.65265 15.4024C2.68023 15.6658 2.71215 15.9363 2.74699 16.2069L2.75569 16.272C2.76005 16.3082 2.7644 16.3444 2.76876 16.3805C2.81085 16.6945 2.86164 17.0302 2.91824 17.3789C2.9284 17.4368 2.93856 17.4961 2.94872 17.554L2.96469 17.648C3.00968 17.907 3.05757 18.1733 3.10837 18.4381L3.11127 18.4525C3.13014 18.5538 3.15046 18.6536 3.17078 18.7564C3.23609 19.0819 3.30575 19.4046 3.37542 19.7142L3.38558 19.7576C3.39138 19.7837 3.39719 19.8097 3.40299 19.8372C3.48136 20.1772 3.5699 20.5375 3.67439 20.9412C3.69326 21.0136 3.71358 21.0874 3.73245 21.1611L3.75857 21.2566C3.83404 21.5388 3.91531 21.8296 3.99949 22.119L4.02271 22.1971C4.04739 22.284 4.07206 22.3708 4.09818 22.4576C4.23026 22.9032 4.34781 23.278 4.46537 23.6383C4.59599 24.0391 4.96318 24.3169 5.38552 24.3357C5.40149 24.3357 5.416 24.3357 5.43197 24.3357C5.83689 24.3357 6.20408 24.0955 6.36518 23.7222C7.37241 21.3854 8.94711 19.393 11.0457 17.8C13.1473 16.2055 15.7655 15.0045 18.8293 14.229C18.9628 14.1957 19.0876 14.1349 19.1965 14.0524C19.4403 13.8672 19.5883 13.5808 19.597 13.2755C19.6057 12.9702 19.478 12.6764 19.2473 12.4768L7.57559 2.45252C7.17502 2.10816 6.6627 1.91861 6.13586 1.91861H6.13732Z" fill="black"/>
<path d="M43.6002 17.499C43.4899 17.499 43.381 17.4628 43.2925 17.3963C41.1373 15.7613 38.4566 14.5299 35.3261 13.7385C35.2579 13.7211 35.1926 13.6893 35.1374 13.6459C35.0184 13.5518 34.9444 13.4086 34.9415 13.2581C34.9386 13.1062 35.001 12.96 35.1157 12.8616L46.7873 2.83884C47.0965 2.57406 47.4898 2.42792 47.8962 2.42792C48.1211 2.42792 48.3432 2.47132 48.5536 2.55669C48.7394 2.63193 48.8628 2.80846 48.87 3.00813C49.0616 8.40079 45.5522 14.7701 44.0341 17.2588C43.9601 17.3818 43.8353 17.4672 43.6945 17.4932C43.6626 17.499 43.6321 17.5019 43.6002 17.5019V17.499Z" fill="#FF5C5C"/>
<path d="M47.8961 2.93145C48.0558 2.93145 48.214 2.96328 48.362 3.02261C48.4259 4.83849 48.063 9.67408 43.5987 16.9926C41.0705 15.074 38.1402 13.928 35.4509 13.2465L35.4465 13.2436L47.1182 3.22083C47.3475 3.02405 47.6233 2.93145 47.8961 2.93145ZM47.8961 1.91861C47.3678 1.91861 46.857 2.10816 46.4564 2.45252L34.7847 12.4753C34.5525 12.675 34.4233 12.9673 34.4321 13.274C34.4408 13.5793 34.5888 13.8643 34.8326 14.0496C34.9415 14.132 35.0692 14.1942 35.2013 14.229C38.265 15.0045 40.8833 16.2055 42.9848 17.8C43.1633 17.9345 43.3796 18.0069 43.6002 18.0069C43.6626 18.0069 43.7264 18.0011 43.7888 17.9895C44.0719 17.936 44.3186 17.7652 44.4681 17.5207C46.4535 14.2666 47.8628 11.1355 48.6595 8.21125C49.3199 5.78766 49.4142 4.034 49.378 2.98788C49.3634 2.58853 49.1153 2.23548 48.7452 2.085C48.4738 1.97504 48.1879 1.91861 47.8961 1.91861Z" fill="black"/>
<path d="M48.5973 23.8264C48.3955 23.8264 48.2112 23.7063 48.1314 23.5196C47.0893 21.1018 45.4609 19.04 43.2912 17.3948C43.0836 17.2386 43.0299 16.9506 43.1649 16.7292C47.5784 9.49467 47.9137 4.74589 47.8542 3.04142C47.8484 2.86924 47.9297 2.70719 48.0704 2.6088C48.1575 2.54802 48.2591 2.51764 48.3622 2.51764C48.4275 2.51764 48.4913 2.52921 48.5537 2.55526C48.9775 2.72744 49.3084 3.04866 49.4855 3.46248C49.5174 3.53772 49.5465 3.60861 49.5784 3.6853L49.6002 3.73884C49.6452 3.8517 49.693 3.97468 49.7395 4.10201L49.7772 4.20764C49.8135 4.30603 49.8498 4.40876 49.8861 4.51438L49.9282 4.63882C49.9731 4.77193 50.0181 4.91084 50.0617 5.05408L50.0718 5.08447C50.1183 5.23639 50.1647 5.397 50.2112 5.5605L50.2504 5.70375C50.2852 5.82963 50.3186 5.95985 50.352 6.09297L50.3897 6.24345C50.4332 6.42431 50.4753 6.60807 50.5174 6.79906L50.5218 6.82366C50.5624 7.01321 50.5987 7.19841 50.6335 7.38796C50.6437 7.44294 50.6538 7.49937 50.664 7.5558C50.693 7.7222 50.7191 7.87991 50.7453 8.04052L50.7728 8.21849C50.8048 8.43408 50.8352 8.65401 50.8628 8.87973L50.8744 8.98391C50.8977 9.17924 50.918 9.37892 50.9368 9.58148C50.9441 9.65383 50.9499 9.72762 50.9557 9.80141C50.9717 9.98662 50.9847 10.1747 50.9963 10.3672L51.008 10.5567C51.0225 10.8172 51.0326 11.0761 51.0399 11.3279L51.0428 11.4842C51.0471 11.6998 51.05 11.9197 51.0486 12.1425C51.0486 12.2264 51.0486 12.3104 51.0471 12.3957C51.0442 12.6142 51.0399 12.837 51.0326 13.0628C51.0326 13.0628 51.0283 13.2161 51.0268 13.2567C51.0152 13.5402 50.9993 13.8354 50.9789 14.132C50.976 14.1754 50.9615 14.3476 50.9615 14.3476C50.9441 14.582 50.9238 14.8208 50.9006 15.061C50.8918 15.1565 50.8817 15.2505 50.8715 15.346C50.844 15.6064 50.8135 15.8712 50.7786 16.1389C50.7786 16.1389 50.7627 16.2749 50.7569 16.3096C50.7148 16.6207 50.6669 16.9434 50.6088 17.2935C50.6001 17.35 50.5638 17.5583 50.5638 17.5583C50.5203 17.8144 50.4724 18.0749 50.4216 18.3368L50.4144 18.3773C50.3969 18.4684 50.3795 18.5596 50.3607 18.6522C50.2968 18.972 50.2286 19.2903 50.1589 19.597L50.1313 19.7186C50.0544 20.0528 49.9659 20.4102 49.8629 20.8081C49.8454 20.8776 49.7801 21.1192 49.7801 21.1192C49.7047 21.4013 49.6263 21.6849 49.5421 21.9729L49.5232 22.0409C49.4971 22.1291 49.4724 22.2188 49.4449 22.3086C49.3142 22.7499 49.1981 23.1203 49.082 23.4762C49.0167 23.6773 48.8338 23.8162 48.622 23.8249C48.6147 23.8249 48.606 23.8249 48.5987 23.8249L48.5973 23.8264Z" fill="#FFDBDB"/>
<path d="M48.3611 3.02261C48.6426 3.13691 48.885 3.34961 49.0171 3.65925C49.0461 3.7287 49.0751 3.79815 49.1056 3.87195C49.1129 3.88931 49.1187 3.90378 49.1259 3.92114C49.1709 4.03255 49.2159 4.1512 49.2624 4.27419C49.274 4.30747 49.287 4.34219 49.2986 4.37547C49.3335 4.47242 49.3683 4.57225 49.4046 4.67499C49.4177 4.7155 49.4322 4.75457 49.4452 4.79508C49.4888 4.9253 49.5323 5.05986 49.5758 5.20022C49.5788 5.21034 49.5817 5.21903 49.586 5.2306C49.631 5.37963 49.676 5.53445 49.721 5.69361C49.734 5.73992 49.7457 5.78622 49.7587 5.83252C49.7921 5.95695 49.8255 6.08283 49.8574 6.21306C49.869 6.26225 49.8821 6.31 49.8937 6.36064C49.9358 6.53717 49.9779 6.71658 50.0185 6.90324C50.0214 6.91336 50.0229 6.92494 50.0258 6.93652C50.0635 7.11159 50.0983 7.2939 50.1332 7.47911C50.1433 7.53699 50.1549 7.59631 50.1651 7.65563C50.1912 7.80611 50.2173 7.96093 50.242 8.11865C50.2507 8.17652 50.2609 8.2344 50.2696 8.29372C50.3015 8.50497 50.3305 8.71912 50.3567 8.9405C50.361 8.97377 50.3639 9.0085 50.3683 9.04323C50.39 9.23422 50.4104 9.42955 50.4292 9.62778C50.4365 9.69868 50.4423 9.77102 50.4481 9.84337C50.4626 10.0257 50.4771 10.2109 50.4887 10.399C50.4931 10.4612 50.4974 10.522 50.5004 10.5842C50.5134 10.8316 50.525 11.0834 50.5308 11.3409C50.5308 11.3916 50.5323 11.4437 50.5337 11.4943C50.5381 11.7056 50.5395 11.9211 50.5395 12.1396C50.5395 12.2221 50.5395 12.3046 50.5381 12.3885C50.5352 12.6041 50.5308 12.8226 50.5236 13.0454C50.5221 13.1091 50.5207 13.1713 50.5178 13.2349C50.5062 13.5171 50.4916 13.8036 50.4713 14.0959C50.467 14.1653 50.4597 14.2377 50.4554 14.3086C50.4379 14.5401 50.4176 14.773 50.3944 15.0118C50.3857 15.1044 50.3755 15.1984 50.3654 15.2925C50.3378 15.5486 50.3073 15.809 50.2739 16.0738C50.2667 16.1302 50.2609 16.1852 50.2522 16.2431C50.2086 16.5614 50.1607 16.8841 50.107 17.2125C50.0925 17.2993 50.0766 17.3876 50.062 17.4744C50.0185 17.7276 49.9721 17.9837 49.9227 18.2427C49.9024 18.3455 49.8835 18.4496 49.8618 18.5524C49.7994 18.8591 49.734 19.1702 49.6615 19.4856C49.6528 19.5261 49.6441 19.5652 49.6354 19.6057C49.5541 19.9588 49.4641 20.319 49.3698 20.6822C49.3436 20.7835 49.3146 20.8877 49.287 20.989C49.213 21.2668 49.1346 21.5489 49.0519 21.8325C49.02 21.9425 48.9881 22.0525 48.9561 22.1639C48.8429 22.5444 48.7254 22.9278 48.5976 23.3199C47.4235 20.594 45.6413 18.5422 43.5992 16.9926C48.0636 9.67408 48.4264 4.83849 48.3625 3.02261M48.3625 2.00977C48.1579 2.00977 47.9533 2.07198 47.7805 2.19208C47.499 2.38886 47.335 2.71441 47.348 3.05733C47.4075 4.71695 47.0752 9.34708 42.7328 16.4645C42.4628 16.9072 42.5717 17.4831 42.9853 17.7971C45.084 19.3887 46.6587 21.3811 47.6659 23.7193C47.827 24.0926 48.1942 24.3328 48.5991 24.3328C48.6151 24.3328 48.6296 24.3328 48.6455 24.3328C49.0679 24.314 49.4351 24.0362 49.5657 23.6354C49.6832 23.2736 49.8008 22.8989 49.9329 22.4547C49.959 22.3679 49.9837 22.2825 50.0083 22.1957L50.0316 22.1161C50.1157 21.8253 50.197 21.5359 50.2725 21.2523L50.2972 21.1597C50.3175 21.0859 50.3378 21.0107 50.3567 20.9383C50.4612 20.5346 50.5497 20.1744 50.6281 19.8358C50.6339 19.8097 50.6397 19.7837 50.6455 19.7576L50.6556 19.7142C50.7268 19.4046 50.795 19.0819 50.8603 18.7564C50.8806 18.6565 50.8995 18.5596 50.9183 18.4612L50.9227 18.4381C50.9735 18.1733 51.0214 17.907 51.0664 17.648L51.0823 17.554C51.0925 17.4961 51.1027 17.4368 51.1128 17.3789C51.1694 17.0317 51.2202 16.696 51.2623 16.3805C51.2667 16.3444 51.271 16.3082 51.2754 16.2735L51.2841 16.2069C51.3189 15.9378 51.3508 15.6672 51.3784 15.4024C51.3886 15.3055 51.3987 15.2085 51.4074 15.113C51.4307 14.87 51.4524 14.6254 51.4698 14.3881L51.4757 14.31C51.48 14.2623 51.4829 14.2145 51.4858 14.1682C51.5061 13.8672 51.5221 13.5677 51.5337 13.2783C51.5352 13.2364 51.5366 13.1944 51.5381 13.1525V13.0816C51.5482 12.8472 51.5526 12.6186 51.5555 12.403C51.5555 12.3162 51.5569 12.2308 51.5569 12.1454C51.5569 11.9197 51.5555 11.694 51.5511 11.4769V11.4162C51.5511 11.3829 51.5497 11.3496 51.5482 11.3163C51.541 11.0588 51.5308 10.794 51.5163 10.5307C51.5134 10.4887 51.5119 10.4482 51.509 10.4062L51.5047 10.3397C51.4916 10.14 51.4786 9.9461 51.4626 9.7609C51.4568 9.68566 51.4495 9.61186 51.4437 9.53662C51.4249 9.32682 51.4031 9.12136 51.3799 8.92747L51.3755 8.8913C51.3726 8.86815 51.3712 8.845 51.3683 8.82185C51.3421 8.60626 51.3117 8.38488 51.2768 8.14758C51.2696 8.10273 51.2638 8.05932 51.2565 8.01592L51.2478 7.96527C51.2217 7.79888 51.1941 7.63538 51.168 7.48345L51.1607 7.44294C51.152 7.39519 51.1433 7.34744 51.1346 7.29969C51.0954 7.09134 51.0591 6.90613 51.0214 6.73105L51.0141 6.69777C50.9764 6.5198 50.9329 6.33315 50.8835 6.12769C50.8733 6.08428 50.8617 6.04087 50.8516 5.99891L50.8443 5.97287C50.8109 5.83686 50.7761 5.70374 50.7398 5.57352L50.7282 5.53301C50.7181 5.49683 50.7093 5.46211 50.6992 5.42738C50.6484 5.24507 50.6019 5.08591 50.557 4.93977L50.5468 4.90939C50.5033 4.76904 50.4583 4.62868 50.4089 4.47965C50.3959 4.43914 50.3813 4.39862 50.3683 4.35956C50.3291 4.2438 50.2914 4.13818 50.2536 4.0369L50.2406 4.00217L50.2144 3.92982C50.1651 3.79526 50.1157 3.66938 50.0693 3.55363L50.0533 3.51456L50.0475 3.50009C50.0156 3.42051 49.9837 3.34672 49.9532 3.27148C49.721 2.72888 49.2914 2.31072 48.7428 2.08935C48.6194 2.04015 48.4902 2.01555 48.3611 2.01555L48.3625 2.00977Z" fill="black"/>
<path d="M10.4121 17.499C10.3802 17.499 10.3497 17.4961 10.3178 17.4903C10.177 17.4643 10.0522 17.3789 9.97817 17.2559C8.46007 14.7672 4.95073 8.39789 5.14231 3.00523C5.14956 2.80556 5.27293 2.62903 5.4587 2.55379C5.66914 2.46843 5.88974 2.42502 6.11615 2.42502C6.52253 2.42502 6.91584 2.57116 7.22498 2.83594L18.8967 12.8587C19.0113 12.9571 19.0766 13.1018 19.0723 13.2537C19.0694 13.4057 18.9982 13.5475 18.8778 13.6401C18.8226 13.6835 18.7544 13.7182 18.6848 13.7356C15.5542 14.5285 12.8736 15.7584 10.7184 17.3934C10.6298 17.4614 10.521 17.4961 10.4107 17.4961L10.4121 17.499Z" fill="#FF5C5C"/>
<path d="M6.11487 2.93145C6.38772 2.93145 6.66202 3.02261 6.89279 3.22083L18.5645 13.2436L18.5601 13.2465C15.8693 13.928 12.9391 15.0754 10.4108 16.9926C5.94796 9.67408 5.58513 4.83849 5.64899 3.02261C5.79702 2.96328 5.95522 2.93145 6.11487 2.93145ZM6.11487 1.91861C5.82315 1.91861 5.53868 1.97504 5.26583 2.085C4.89429 2.23548 4.64611 2.58853 4.63305 2.98788C4.59531 4.03255 4.6911 5.78766 5.35146 8.21125C6.14825 11.134 7.55895 14.2666 9.54293 17.5207C9.69242 17.7652 9.93915 17.936 10.2222 17.9895C10.2846 18.0011 10.3484 18.0069 10.4108 18.0069C10.6314 18.0069 10.8477 17.936 11.0262 17.8C13.1277 16.2055 15.746 15.0045 18.8097 14.229C18.9433 14.1957 19.0695 14.1349 19.1784 14.051C19.4207 13.8658 19.5688 13.5793 19.5775 13.274C19.5862 12.9702 19.4585 12.675 19.2263 12.4768L7.55605 2.45252C7.15548 2.10816 6.64315 1.91861 6.11632 1.91861H6.11487Z" fill="black"/>
<path d="M5.38906 23.8264C5.17716 23.8162 4.99429 23.6773 4.92898 23.4777C4.81287 23.1217 4.69386 22.7397 4.56615 22.31C4.54147 22.2246 4.46891 21.9758 4.46891 21.9758C4.38618 21.6878 4.30636 21.4042 4.23089 21.1221C4.23089 21.1221 4.16558 20.8804 4.14816 20.811C4.04366 20.4073 3.95513 20.0499 3.87966 19.72L3.85354 19.5985C3.78387 19.2932 3.71566 18.9749 3.6518 18.6536C3.63003 18.548 3.60971 18.4438 3.59085 18.3397C3.54005 18.0778 3.49361 17.8173 3.44861 17.5612L3.43265 17.4672C3.42249 17.4093 3.41233 17.3514 3.40362 17.295C3.34847 16.9564 3.29913 16.6251 3.25559 16.3125L3.23382 16.1418C3.19898 15.8727 3.16851 15.6093 3.14093 15.3489C3.13077 15.2534 3.12206 15.1593 3.1119 15.0638C3.08868 14.8222 3.06836 14.5849 3.05095 14.3505C3.05095 14.3505 3.03789 14.1769 3.03353 14.1349C3.01321 13.8383 2.99725 13.5431 2.98564 13.2595C2.98419 13.2205 2.97983 13.0671 2.97983 13.0671C2.97258 12.8414 2.96677 12.6186 2.96532 12.3986C2.96532 12.3133 2.96387 12.2293 2.96387 12.1454C2.96387 11.9226 2.96532 11.7041 2.96967 11.4885L2.97258 11.3308C2.97983 11.0776 2.98999 10.8171 3.0045 10.5596C3.00741 10.5191 3.01612 10.3715 3.01612 10.3715C3.02773 10.1791 3.04079 9.99095 3.05675 9.8043C3.05675 9.8043 3.06982 9.64659 3.07562 9.58437C3.09449 9.3818 3.11481 9.18357 3.13803 8.98824L3.14964 8.88262C3.17721 8.6569 3.20624 8.43697 3.23962 8.22282L3.2672 8.04485C3.29187 7.88424 3.31945 7.72653 3.34557 7.57171L3.3775 7.39229C3.41233 7.20275 3.44861 7.01609 3.4878 6.83668L3.49506 6.8034C3.5357 6.6124 3.57924 6.4272 3.62278 6.24778L3.66051 6.09586C3.69389 5.96419 3.72727 5.83252 3.7621 5.70663L3.80129 5.56339C3.84628 5.39989 3.89272 5.24073 3.94062 5.08735L3.94642 5.0671C3.99432 4.91228 4.03931 4.77482 4.0843 4.64026L4.12639 4.51582C4.16267 4.4102 4.19896 4.30747 4.23524 4.20908L4.27298 4.1049C4.32087 3.97757 4.36731 3.85603 4.41376 3.74028L4.43407 3.68963C4.46455 3.61295 4.49503 3.54205 4.52406 3.4726C4.70402 3.05299 5.03493 2.73033 5.45872 2.55959C5.51968 2.53499 5.58499 2.52197 5.6503 2.52197C5.75334 2.52197 5.85494 2.55236 5.94202 2.61313C6.0828 2.71152 6.16407 2.87502 6.15827 3.04576C6.09731 4.75167 6.43402 9.499 10.8475 16.7336C10.9825 16.955 10.9288 17.2429 10.7213 17.3992C8.55153 19.0443 6.92312 21.1047 5.88106 23.524C5.80124 23.7106 5.61692 23.8307 5.41518 23.8307C5.40792 23.8307 5.39922 23.8307 5.39196 23.8307L5.38906 23.8264Z" fill="#FFDBDB"/>
<path d="M5.649 3.02261C5.58514 4.83849 5.94798 9.67408 10.4123 16.9926C8.36881 18.5422 6.58802 20.594 5.41388 23.3199C5.28617 22.9293 5.16861 22.5444 5.0554 22.1639C5.02202 22.0525 4.99154 21.9425 4.95962 21.8325C4.87689 21.5489 4.79852 21.2668 4.7245 20.989C4.69692 20.8862 4.66935 20.7835 4.64177 20.6822C4.54744 20.319 4.45745 19.9588 4.37618 19.6057C4.36747 19.5652 4.35876 19.5261 4.35005 19.4856C4.27894 19.1702 4.21218 18.8591 4.14977 18.5524C4.12945 18.4482 4.10913 18.3455 4.08881 18.2427C4.03947 17.9837 3.99157 17.7276 3.94948 17.4744C3.93497 17.3876 3.91901 17.2993 3.90449 17.2125C3.85079 16.8841 3.80145 16.56 3.75936 16.2431C3.7521 16.1867 3.7463 16.1302 3.73759 16.0738C3.70276 15.8105 3.67228 15.55 3.64615 15.2925C3.63599 15.1984 3.62729 15.1044 3.61713 15.0118C3.5939 14.7745 3.57359 14.5401 3.55617 14.3086C3.55036 14.2377 3.54456 14.1653 3.54021 14.0959C3.51989 13.8036 3.50537 13.5156 3.49376 13.2349C3.49086 13.1713 3.48941 13.1091 3.48796 13.0454C3.4807 12.8226 3.4749 12.6041 3.47344 12.3885C3.47344 12.3046 3.47199 12.2221 3.47199 12.1396C3.47199 11.9211 3.47344 11.7056 3.4778 11.4943C3.4778 11.4437 3.4778 11.3916 3.4807 11.3409C3.48796 11.0834 3.49812 10.8316 3.51118 10.5842C3.51408 10.522 3.51844 10.4612 3.52279 10.399C3.5344 10.2109 3.54746 10.0257 3.56343 9.84337C3.56923 9.77102 3.57504 9.70013 3.58229 9.62778C3.60116 9.42955 3.62148 9.23422 3.64325 9.04323C3.6476 9.00995 3.65051 8.97377 3.65486 8.9405C3.68099 8.71912 3.71146 8.50353 3.74194 8.29372C3.75065 8.2344 3.76081 8.17797 3.76952 8.11865C3.79419 7.96093 3.82031 7.80756 3.84644 7.65563C3.8566 7.59631 3.86676 7.53699 3.87837 7.47911C3.9132 7.2939 3.94803 7.11159 3.98577 6.93652C3.98867 6.92639 3.99012 6.91481 3.99302 6.90324C4.03366 6.71658 4.0743 6.53572 4.11784 6.36064C4.12945 6.31145 4.14251 6.26225 4.15412 6.21306C4.18605 6.08283 4.21943 5.95551 4.25281 5.83252C4.26588 5.78622 4.27749 5.73847 4.29055 5.69361C4.33554 5.53445 4.38053 5.37819 4.42552 5.2306C4.42843 5.22047 4.43133 5.21034 4.43568 5.20022C4.47922 5.05986 4.52276 4.9253 4.5663 4.79508C4.57936 4.75457 4.59388 4.71405 4.60694 4.67499C4.64177 4.57225 4.67806 4.47242 4.71289 4.37547C4.7245 4.34219 4.73756 4.30747 4.74917 4.27419C4.79416 4.1512 4.84061 4.03255 4.8856 3.92114C4.89285 3.90378 4.89866 3.88786 4.90592 3.87195C4.93639 3.79815 4.96542 3.7287 4.99445 3.65925C5.12652 3.34961 5.36889 3.13691 5.65045 3.02261M5.65045 2.00977C5.52128 2.00977 5.39211 2.03436 5.26875 2.08356C4.72014 2.30494 4.292 2.7231 4.06124 3.2599C4.02786 3.33948 3.99593 3.41472 3.964 3.49285L3.95819 3.50732L3.94223 3.54639C3.89578 3.6607 3.84789 3.78803 3.79709 3.92259C3.78838 3.94719 3.77823 3.97178 3.76952 3.99783L3.75791 4.03111C3.72017 4.13384 3.68389 4.23802 3.64615 4.34798L3.6418 4.35811C3.62874 4.39718 3.61568 4.4348 3.60261 4.47531C3.55327 4.6229 3.50828 4.76325 3.46474 4.90215L3.45458 4.93398C3.40958 5.08012 3.36314 5.24073 3.31235 5.42304C3.30219 5.45777 3.29348 5.49249 3.28332 5.52867L3.27171 5.57063C3.23688 5.70085 3.20204 5.83397 3.16721 5.97142L3.15995 6.00181C3.1498 6.04232 3.13964 6.08428 3.12948 6.1248C3.08013 6.33026 3.03659 6.51691 2.99886 6.69488L2.99305 6.72527C2.95532 6.90324 2.91903 7.08844 2.87985 7.2968C2.87114 7.34455 2.86243 7.39374 2.85372 7.44294L2.84647 7.48056C2.81889 7.63393 2.79277 7.79598 2.76519 7.96383L2.75648 8.01736C2.74923 8.06077 2.74342 8.10273 2.73616 8.14614C2.70133 8.38343 2.67085 8.60336 2.64473 8.82185C2.64183 8.845 2.63892 8.86815 2.63747 8.8913L2.63312 8.92892C2.6099 9.12425 2.58958 9.32827 2.56926 9.53807C2.562 9.61186 2.5562 9.6871 2.55039 9.76234C2.53443 9.94465 2.52137 10.14 2.5083 10.3397L2.50395 10.4062C2.50105 10.4482 2.49814 10.4887 2.49669 10.5307C2.48218 10.794 2.47202 11.0588 2.46476 11.3163C2.46476 11.3496 2.46476 11.3829 2.46331 11.4162V11.4755C2.45751 11.694 2.45605 11.9197 2.45605 12.144C2.45605 12.2293 2.45605 12.3162 2.45751 12.4015C2.46041 12.6186 2.46476 12.8472 2.47202 13.0801V13.1525C2.47492 13.1944 2.47637 13.2349 2.47782 13.2769C2.48944 13.5663 2.5054 13.8658 2.52572 14.1668C2.52862 14.2131 2.53298 14.2594 2.53588 14.3071L2.54168 14.3867C2.5591 14.6254 2.58087 14.8685 2.60409 15.1116C2.6128 15.2071 2.62296 15.304 2.63312 15.401C2.66069 15.6643 2.69262 15.9363 2.72746 16.2055L2.73616 16.2706C2.74052 16.3067 2.74487 16.3429 2.74923 16.3791C2.79131 16.6931 2.84211 17.0288 2.89871 17.3775C2.90887 17.4353 2.91903 17.4947 2.92919 17.5525L2.94516 17.6466C2.99015 17.9056 3.03804 18.1718 3.08884 18.4366L3.09174 18.4554C3.11061 18.5553 3.13093 18.6551 3.15125 18.7564C3.21656 19.0819 3.28622 19.4046 3.35589 19.7142L3.36604 19.7576C3.37185 19.7837 3.37766 19.8097 3.38346 19.8372C3.46183 20.1772 3.55036 20.5375 3.65486 20.9412C3.67373 21.0136 3.69405 21.0874 3.71291 21.1597L3.73904 21.2552C3.81451 21.5373 3.89578 21.8282 3.97996 22.119L4.00173 22.1942C4.0264 22.2825 4.05253 22.3693 4.07865 22.4576C4.21072 22.9032 4.32828 23.278 4.44584 23.6383C4.57646 24.0391 4.94365 24.3169 5.36599 24.3357C5.38196 24.3357 5.39647 24.3357 5.41243 24.3357C5.81736 24.3357 6.18455 24.0955 6.34565 23.7222C7.35288 21.3854 8.92758 19.393 11.0262 17.8C11.4398 17.486 11.5487 16.9101 11.2787 16.4674C6.93634 9.34852 6.60398 4.71984 6.66349 3.06023C6.6751 2.71731 6.51255 2.39175 6.23099 2.19497C6.05828 2.07488 5.85364 2.01266 5.649 2.01266L5.65045 2.00977Z" fill="black"/>
<path d="M27.0012 47.4936C17.968 47.4936 10.9276 45.5663 6.07719 41.7652C2.20937 38.734 0.922035 35.3945 0.54904 34.098C0.402455 33.5902 0.67821 33.0519 1.17602 32.8725C1.82041 32.6381 2.55915 32.2764 3.06421 32.0145C2.27033 31.3431 1.32406 30.2738 0.829149 29.698C0.488084 29.2986 0.509854 28.7141 0.881397 28.3364C4.41831 24.751 4.90886 23.1984 4.91467 23.1839C4.92048 23.1593 4.92628 23.1434 4.93644 23.1203C6.90736 18.5466 10.7186 15.2737 16.2641 13.3898C20.6182 11.911 24.7835 11.7504 26.3727 11.7504C26.7065 11.7504 26.9242 11.7576 26.9968 11.7605H27.0084C27.081 11.7576 27.2972 11.7504 27.6325 11.7504C29.2217 11.7504 33.3856 11.9096 37.7411 13.3898C43.2866 15.2737 47.0964 18.5466 49.0673 23.1203C49.0775 23.1434 49.0847 23.1666 49.092 23.1912C49.0949 23.1984 49.5855 24.751 53.1224 28.3364C53.4939 28.7141 53.5171 29.2986 53.1746 29.698C52.6797 30.2753 51.732 31.3431 50.941 32.0232C51.4461 32.2764 52.1834 32.6381 52.8292 32.8725C53.327 33.0534 53.6028 33.5916 53.4562 34.098C53.0832 35.393 51.7958 38.734 47.928 41.7652C43.0762 45.5663 36.0372 47.4936 27.0026 47.4936H27.0012Z" fill="#FF5C5C"/>
<path d="M27.6292 12.2568C30.6944 12.2568 44.0932 12.8674 48.5981 23.32C48.5981 23.32 49.0132 24.8956 52.7577 28.6909C52.9405 28.8761 52.9565 29.1698 52.7867 29.3681C52.3179 29.915 51.3804 30.9756 50.6068 31.6383C50.3368 31.8698 50.3876 32.2981 50.7026 32.4616C51.2338 32.7379 51.9856 33.1054 52.6517 33.3471C52.9028 33.4382 53.0378 33.7016 52.9638 33.9577C52.2758 36.3422 48.0292 46.9857 26.9993 46.9857C5.96939 46.9857 1.72277 36.3422 1.03483 33.9577C0.960812 33.703 1.09724 33.4382 1.34687 33.3471C2.01303 33.1054 2.76483 32.7379 3.29602 32.4616C3.61096 32.2981 3.66176 31.8698 3.39181 31.6383C2.61824 30.9741 1.68068 29.9135 1.21189 29.3681C1.04209 29.1698 1.05805 28.8761 1.24092 28.6909C4.98393 24.8956 5.40046 23.32 5.40046 23.32C9.90542 12.866 23.3056 12.2568 26.3694 12.2568C26.7119 12.2568 26.9253 12.2641 26.9819 12.267H27.0138C27.0719 12.2641 27.2838 12.2568 27.6263 12.2568M27.6263 11.244C27.307 11.244 27.0936 11.2498 26.9978 11.2541C26.9108 11.2512 26.6916 11.244 26.3694 11.244C24.7555 11.244 20.5234 11.406 16.0983 12.9094C13.5686 13.7689 11.3539 14.938 9.51646 16.3863C7.27124 18.1559 5.57317 20.3538 4.46725 22.9192C4.44112 22.9785 4.43387 22.9901 4.42081 23.0465C4.3584 23.2114 3.71981 24.7321 0.516702 27.9805C-0.0420636 28.5462 -0.073993 29.4259 0.439781 30.025C0.831643 30.4822 1.50506 31.2447 2.16978 31.8915C1.79243 32.0723 1.37735 32.2576 0.998547 32.395C0.251107 32.6656 -0.162525 33.4744 0.0566275 34.2369C0.444135 35.5797 1.77501 39.0393 5.75894 42.1617C7.98675 43.9081 10.7138 45.2841 13.8661 46.2536C17.6324 47.4111 22.0502 47.9986 26.9978 47.9986C31.9455 47.9986 36.3633 47.4111 40.1296 46.2536C43.2804 45.2841 46.0089 43.9081 48.2368 42.1617C52.2207 39.0393 53.5516 35.5797 53.9391 34.2369C54.1582 33.4744 53.7446 32.6656 52.9971 32.395C52.6183 32.2576 52.2033 32.0723 51.8259 31.8915C52.4906 31.2447 53.1641 30.4822 53.5559 30.025C54.0697 29.4245 54.0363 28.5462 53.479 27.9805C50.2759 24.7321 49.6373 23.2114 49.5749 23.0465C49.5633 22.9915 49.5546 22.9799 49.5284 22.9192C48.4225 20.3538 46.7245 18.1545 44.4792 16.3863C42.6418 14.938 40.4271 13.7689 37.8989 12.9094C33.4723 11.406 29.2402 11.244 27.6263 11.244Z" fill="black"/>
<path d="M52.6528 33.3485C51.9866 33.1069 51.2348 32.7394 50.7036 32.463C50.4816 32.3487 50.3945 32.1027 50.454 31.8871C47.9025 30.9018 36.4355 26.8056 27.0018 28.9195C17.5681 26.8056 6.10104 30.9018 3.54958 31.8871C3.60764 32.1027 3.52056 32.3473 3.29995 32.463C2.76876 32.7394 2.01697 33.1069 1.3508 33.3485C1.09972 33.4397 0.964746 33.703 1.03876 33.9591C1.7267 36.3436 5.97332 46.9872 27.0032 46.9872C48.0331 46.9872 52.2812 36.3422 52.9677 33.9591C53.0417 33.7045 52.9053 33.4397 52.6557 33.3485H52.6528Z" fill="#FFDBDB"/>
<path d="M29.584 28.4001C29.2996 27.9906 28.8859 27.6679 28.4302 27.4683C27.9847 27.2729 27.4883 27.1499 27.0007 27.1268C26.5145 27.1499 26.0166 27.2729 25.5711 27.4683C25.1154 27.6694 24.7017 27.9906 24.4173 28.4001C24.1183 28.8313 23.8658 29.4954 24.1923 29.9787C24.4463 30.3534 24.9644 30.4938 25.3824 30.5849C25.9136 30.7007 26.4608 30.7137 27.0007 30.7137C27.5406 30.7137 28.0892 30.7007 28.6189 30.5849C29.0369 30.4938 29.555 30.3534 29.809 29.9787C30.1355 29.4968 29.883 28.8313 29.584 28.4001Z" fill="black"/>
<path d="M26.3545 30.0597C26.4285 31.1044 26.2587 32.2677 25.6985 33.1735C25.4256 33.6148 24.9714 34.0648 24.4387 34.1704C23.7711 34.3035 23.3067 33.8361 22.9772 33.3109C22.6318 32.7596 21.7523 33.2675 22.1006 33.8217C22.9613 35.1933 24.4561 35.652 25.7885 34.5856C27.0715 33.5583 27.4807 31.6209 27.3704 30.0582C27.3254 29.4115 26.3081 29.4071 26.3545 30.0582V30.0597Z" fill="black"/>
<path d="M26.3551 30.0597C26.2448 31.6209 26.6526 33.5612 27.9371 34.5871C29.2694 35.652 30.7628 35.1962 31.6249 33.8231C31.9732 33.2689 31.0937 32.7596 30.7483 33.3124C30.4261 33.826 29.9501 34.318 29.2868 34.1718C28.7498 34.0532 28.3071 33.6278 28.027 33.1749C27.4668 32.2691 27.297 31.1073 27.371 30.0611C27.4175 29.41 26.4001 29.4129 26.3551 30.0611V30.0597Z" fill="black"/>
<path d="M18.8967 26.4916C18.216 26.4916 17.6631 25.9403 17.6631 25.2617V22.7426C17.6631 22.064 18.216 21.5128 18.8967 21.5128C19.5774 21.5128 20.1304 22.064 20.1304 22.7426V25.2617C20.1304 25.9403 19.5774 26.4916 18.8967 26.4916Z" fill="black"/>
<path d="M35.135 26.4916C34.4543 26.4916 33.9014 25.9403 33.9014 25.2617V22.7426C33.9014 22.064 34.4543 21.5128 35.135 21.5128C35.8157 21.5128 36.3686 22.064 36.3686 22.7426V25.2617C36.3686 25.9403 35.8157 26.4916 35.135 26.4916Z" fill="black"/>
<path d="M21.3365 11.5319C20.3467 11.3757 19.4962 11.0024 18.8227 10.3064C17.5673 9.00995 17.1885 7.47477 17.8039 5.78332C18.4091 4.12226 19.6573 3.18611 21.4279 2.96618C21.5658 2.94882 21.7138 2.90975 21.8401 2.94158C22.3248 3.06602 22.5179 2.80991 22.7515 2.42359C23.7529 0.762525 25.2696 -0.0766862 27.2028 0.00578808C29.165 0.0897092 30.5946 1.08519 31.4712 2.84174C31.5684 3.03708 31.6627 3.09785 31.879 3.08193C34.1503 2.90396 36.1184 4.55345 36.4493 6.90179C36.7453 9.00271 35.1997 11.1456 33.0764 11.5782C32.9515 11.6043 32.8267 11.6303 32.67 11.6636C32.6627 11.7866 32.6497 11.9096 32.6497 12.0326C32.6482 12.7025 32.6569 13.3724 32.6468 14.0423C32.6322 14.9843 32.0154 15.5891 31.0662 15.5905C28.358 15.5934 25.6484 15.5934 22.9402 15.5905C21.9823 15.5905 21.3539 14.9785 21.3394 14.0221C21.3278 13.3203 21.3365 12.6186 21.3365 11.9168C21.3365 11.801 21.3365 11.6853 21.3365 11.5319ZM23.4641 3.22373C23.5628 3.27582 23.6412 3.30765 23.7065 3.35395C24.1201 3.64912 24.5483 3.92693 24.9387 4.25104C25.2028 4.46952 25.1912 4.76035 24.9793 4.98029C24.7747 5.19298 24.4888 5.18864 24.2421 4.96726C24.1622 4.89637 24.0897 4.81823 24.0069 4.75023C23.1884 4.06584 22.245 3.80539 21.2015 4.02098C19.5426 4.3639 18.4498 5.80937 18.5513 7.47188C18.6515 9.10544 19.9621 10.3946 21.6558 10.5263C22.2392 10.5712 22.3611 10.6985 22.3626 11.2744C22.364 12.1353 22.3626 12.9962 22.3626 13.8586C22.3626 14.4547 22.4859 14.5777 23.0984 14.5777C24.7515 14.5777 26.4045 14.5777 28.0576 14.5777C29.0286 14.5777 29.9981 14.5777 30.969 14.5777C31.4857 14.5777 31.6294 14.4315 31.6308 13.9121C31.6323 13.3594 31.6308 12.8067 31.6308 12.2539C31.6308 12.0557 31.6308 11.8589 31.6308 11.6665C31.4581 11.6303 31.3246 11.6216 31.2085 11.5739C30.7194 11.3713 30.223 11.1803 29.7542 10.9387C29.4683 10.7911 29.4219 10.4612 29.5873 10.2254C29.7513 9.98951 30.0126 9.94176 30.2912 10.098C30.3653 10.14 30.4378 10.1863 30.5118 10.2283C32.1635 11.1572 34.2316 10.5466 35.0894 8.87683C35.9544 7.19262 35.2301 5.14379 33.4929 4.36535C32.9907 4.13963 32.4668 4.03979 31.9182 4.10346C31.9182 4.56213 31.9312 4.9962 31.9138 5.42883C31.8964 5.84554 31.6671 6.07126 31.3362 6.03798C31.0155 6.00615 30.8631 5.76451 30.9037 5.35648C31.2114 2.32085 28.1621 0.117201 25.3712 1.363C24.5149 1.74498 23.8836 2.36426 23.4627 3.22518L23.4641 3.22373Z" fill="black"/>
<path d="M33.4944 4.36389C32.9923 4.13817 32.4669 4.03833 31.9197 4.102C31.9197 4.56067 31.9328 4.99475 31.9154 5.42737C31.898 5.84408 31.6687 6.0698 31.3378 6.03653C31.017 6.00469 30.8646 5.76306 30.9053 5.35503C31.2129 2.3194 28.1637 0.115743 25.3727 1.36154C24.5165 1.74352 23.8851 2.3628 23.4642 3.22372C23.5629 3.27581 23.6413 3.30764 23.7066 3.35394C24.1202 3.64911 24.5484 3.92692 24.9388 4.25103C25.2029 4.46951 25.1913 4.76034 24.9794 4.98028C24.7748 5.19297 24.4889 5.18863 24.2422 4.96725C24.1623 4.89636 24.0898 4.81822 24.007 4.75022C23.1885 4.06583 22.2451 3.80538 21.2016 4.02097C19.5427 4.36389 18.4499 5.80936 18.5515 7.47187C18.6516 9.10543 19.9622 10.3946 21.6559 10.5263C22.2393 10.5712 22.3612 10.6985 22.3627 11.2744C22.3641 12.1353 22.3627 12.9962 22.3627 13.8586C22.3627 14.4547 22.4875 14.5777 23.0985 14.5777C24.7516 14.5777 26.4047 14.5777 28.0577 14.5777C29.0287 14.5777 29.9982 14.5777 30.9691 14.5777C31.4858 14.5777 31.6295 14.4315 31.6309 13.9121C31.6324 13.3594 31.6309 12.8066 31.6309 12.2539V11.6665C31.4582 11.6303 31.3247 11.6216 31.2086 11.5739C30.7195 11.3713 30.2231 11.1803 29.7543 10.9387C29.4684 10.7911 29.422 10.4612 29.5874 10.2253C29.7514 9.9895 30.0127 9.94175 30.2913 10.098C30.3654 10.14 30.4379 10.1863 30.5119 10.2282C32.1636 11.1572 34.2317 10.5466 35.0895 8.87682C35.9545 7.19261 35.2302 5.14378 33.493 4.36534L33.4944 4.36389Z" fill="white"/>
</g>
<defs>
<clipPath id="clip0_1804_12180">
<rect width="54" height="48" fill="white"/>
</clipPath>
</defs>
</svg>
