<svg width="24" height="24" viewBox="0 0 24 24" fill="none" xmlns="http://www.w3.org/2000/svg">
<g clip-path="url(#clip0_797_11629)">
<path d="M22.0001 4.81467C22.0001 3.872 22.4781 4.34333 22.9494 3.872C23.8934 2.92933 24.3681 1.51467 23.4254 0.571999C22.4821 -0.370668 21.0694 0.107332 20.1267 1.05C19.6547 1.52133 20.1281 2 19.1854 2H15.4141L15.8854 2.46467C15.8854 2.46467 18.2427 5.76067 18.7141 5.28933C18.2427 5.76133 21.5347 8.116 21.5347 8.116L22.0001 8.586V4.81467Z" fill="#FFAC33"/>
<path d="M20.5987 10L17.2994 6.7L13.9994 3.40067C13.528 3.872 11.1707 3.40067 10.228 4.34333L9.75669 4.81467L8.34202 6.22933L1.07602 13.4947C0.828382 13.7423 0.631944 14.0363 0.497923 14.3598C0.363902 14.6834 0.294922 15.0301 0.294922 15.3803C0.294922 15.7305 0.363902 16.0773 0.497923 16.4009C0.631944 16.7244 0.828382 17.0184 1.07602 17.266L6.73269 22.9227C6.98031 23.1703 7.27429 23.3667 7.59783 23.5008C7.92138 23.6348 8.26815 23.7038 8.61835 23.7038C8.96856 23.7038 9.31533 23.6348 9.63887 23.5008C9.96242 23.3667 10.2564 23.1703 10.504 22.9227L17.104 16.3233L19.1847 14.2427L19.656 13.7713C20.5987 12.828 20.1274 10.4713 20.5987 10Z" fill="#CCD6DD"/>
<path d="M21.7784 9.764C21.1271 10.4153 20.5437 10.8867 19.8931 10.2353L13.7651 4.10733C13.1137 3.456 13.5857 2.87267 14.2364 2.22133C14.5489 1.90888 14.9728 1.73336 15.4147 1.73336C15.8567 1.73336 16.2805 1.90888 16.5931 2.22133L21.7784 7.40667C21.9332 7.56144 22.056 7.74519 22.1398 7.94743C22.2236 8.14966 22.2667 8.36643 22.2667 8.58533C22.2667 8.80424 22.2236 9.021 22.1398 9.22324C22.056 9.42548 21.9332 9.60923 21.7784 9.764Z" fill="#55ACEE"/>
<path d="M8.66682 21.3333C8.53484 21.3336 8.40576 21.2947 8.29594 21.2215C8.18613 21.1483 8.10054 21.0441 8.05004 20.9222C7.99954 20.8002 7.9864 20.6661 8.0123 20.5366C8.03819 20.4072 8.10195 20.2884 8.19549 20.1953L16.1955 12.1953C16.2574 12.1334 16.331 12.0843 16.4119 12.0509C16.4928 12.0174 16.5795 12.0002 16.6671 12.0002C16.7546 12.0002 16.8413 12.0175 16.9222 12.051C17.0031 12.0846 17.0766 12.1337 17.1385 12.1957C17.2004 12.2576 17.2495 12.3311 17.283 12.412C17.3164 12.493 17.3337 12.5797 17.3336 12.6672C17.3336 12.7548 17.3163 12.8415 17.2828 12.9224C17.2492 13.0033 17.2001 13.0768 17.1382 13.1387L9.13815 21.1387C9.01305 21.2635 8.84352 21.3335 8.66682 21.3333ZM6.00015 18.6667C5.86818 18.667 5.73909 18.628 5.62928 18.5548C5.51946 18.4816 5.43387 18.3774 5.38337 18.2555C5.33287 18.1336 5.31973 17.9994 5.34563 17.87C5.37153 17.7406 5.43529 17.6218 5.52882 17.5287L13.5288 9.52866C13.6538 9.40366 13.8234 9.33343 14.0002 9.33343C14.1769 9.33343 14.3465 9.40366 14.4715 9.52866C14.5965 9.65367 14.6667 9.82321 14.6667 10C14.6667 10.1768 14.5965 10.3463 14.4715 10.4713L6.47149 18.472C6.34638 18.5968 6.17685 18.6668 6.00015 18.6667ZM3.33349 16C3.20151 16.0003 3.07242 15.9614 2.96261 15.8882C2.85279 15.815 2.76721 15.7108 2.7167 15.5888C2.6662 15.4669 2.65307 15.3327 2.67896 15.2033C2.70486 15.0739 2.76862 14.9551 2.86215 14.862L10.8622 6.862C10.9872 6.73699 11.1567 6.66676 11.3335 6.66676C11.5103 6.66676 11.6798 6.73699 11.8048 6.862C11.9298 6.987 12.0001 7.15655 12.0001 7.33333C12.0001 7.51011 11.9298 7.67966 11.8048 7.80466L3.80482 15.8053C3.67972 15.9301 3.51019 16.0001 3.33349 16Z" fill="#99AAB5"/>
</g>
<defs>
<clipPath id="clip0_797_11629">
<rect width="24" height="24" fill="white"/>
</clipPath>
</defs>
</svg>
