<svg width="24" height="24" viewBox="0 0 24 24" fill="none" xmlns="http://www.w3.org/2000/svg">
<g clip-path="url(#clip0_797_11460)">
<path d="M17.3327 2.66666C17.3327 4.66666 14.9447 6.66666 11.9993 6.66666C9.05402 6.66666 6.66602 4.66666 6.66602 2.66666C6.66602 -0.278669 10.666 -1.84961e-06 11.9993 -1.84961e-06C13.3327 -1.84961e-06 17.3327 -0.278669 17.3327 2.66666Z" fill="#66757F"/>
<path d="M16.2037 8H7.79573C7.48011 7.99996 7.1747 8.11189 6.93385 8.31588C6.693 8.51986 6.53232 8.80267 6.4804 9.114L4.2584 22.4473C4.22654 22.6384 4.23668 22.834 4.28811 23.0208C4.33954 23.2075 4.43103 23.3807 4.55622 23.5285C4.6814 23.6763 4.83727 23.795 5.01299 23.8764C5.18871 23.9579 5.38006 24 5.57373 24H18.4257C18.6194 24 18.8107 23.9579 18.9865 23.8764C19.1622 23.795 19.3181 23.6763 19.4432 23.5285C19.5684 23.3807 19.6599 23.2075 19.7114 23.0208C19.7628 22.834 19.7729 22.6384 19.7411 22.4473L17.5191 9.114C17.467 8.80273 17.3063 8.52 17.0655 8.31603C16.8247 8.11207 16.5193 8.00009 16.2037 8Z" fill="#CCD6DD"/>
<path d="M12.8966 9.33333H8.36191C8.20407 9.33327 8.05134 9.38927 7.93095 9.49135C7.81056 9.59342 7.73033 9.73494 7.70458 9.89067L5.70458 21.8907C5.68848 21.9861 5.6934 22.0839 5.71899 22.1773C5.74458 22.2706 5.79023 22.3572 5.85276 22.4311C5.91528 22.505 5.99317 22.5644 6.08099 22.605C6.16882 22.6457 6.26446 22.6668 6.36125 22.6667H13.3126L12.8966 9.33333ZM16.2972 9.89067C16.2714 9.735 16.1911 9.59356 16.0707 9.49151C15.9504 9.38945 15.7977 9.3334 15.6399 9.33333H14.0312L14.6372 22.6667H17.6406C17.7374 22.6666 17.833 22.6455 17.9207 22.6048C18.0085 22.5641 18.0864 22.5047 18.149 22.4309C18.2115 22.3571 18.2572 22.2705 18.283 22.1772C18.3087 22.0839 18.3138 21.9861 18.2979 21.8907L16.2972 9.89067Z" fill="#F5F8FA"/>
<path d="M9.99922 1.4C10.441 1.4 10.7992 1.22091 10.7992 0.999999C10.7992 0.779085 10.441 0.599998 9.99922 0.599998C9.55739 0.599998 9.19922 0.779085 9.19922 0.999999C9.19922 1.22091 9.55739 1.4 9.99922 1.4Z" fill="#CCD6DD"/>
<path d="M13.9992 1.4C14.441 1.4 14.7992 1.22091 14.7992 0.999999C14.7992 0.779085 14.441 0.599998 13.9992 0.599998C13.5574 0.599998 13.1992 0.779085 13.1992 0.999999C13.1992 1.22091 13.5574 1.4 13.9992 1.4Z" fill="#CCD6DD"/>
<path d="M11.9992 2.73333C12.441 2.73333 12.7992 2.55425 12.7992 2.33333C12.7992 2.11242 12.441 1.93333 11.9992 1.93333C11.5574 1.93333 11.1992 2.11242 11.1992 2.33333C11.1992 2.55425 11.5574 2.73333 11.9992 2.73333Z" fill="#CCD6DD"/>
<path d="M16.6673 8H7.33398V6.352C7.33398 5.78933 7.78998 5.51067 8.35265 5.51067H15.6487C16.2113 5.51067 16.6673 5.78933 16.6673 6.352V8Z" fill="#66757F"/>
<path d="M15.6487 5.33333H8.35265C7.91465 5.33333 7.54398 5.61133 7.39998 6H16.6006C16.4573 5.61133 16.0873 5.33333 15.6487 5.33333ZM7.33398 6.66667H16.6673V7.33333H7.33398V6.66667ZM7.33398 8H16.6673V8.33333H7.33398V8Z" fill="#CCD6DD"/>
</g>
<defs>
<clipPath id="clip0_797_11460">
<rect width="24" height="24" fill="white"/>
</clipPath>
</defs>
</svg>
