<svg width="32" height="32" viewBox="0 0 32 32" fill="none" xmlns="http://www.w3.org/2000/svg">
<g clip-path="url(#clip0_797_11650)" filter="url(#filter0_d_797_11650)">
<path d="M12.866 2.35867C12.512 -0.358001 9.11464 -0.508002 8.70064 0.941998L8.07864 3.636L5.38464 4.258C3.93464 4.672 4.0853 8.06933 6.8013 8.42333L8.8373 8.68933C11.5533 9.04333 13.486 7.11133 13.1313 4.39533L12.866 2.35867ZM25.528 15.0193C28.244 15.3733 28.394 18.772 26.9446 19.1853L24.2506 19.8073L23.628 22.502C23.2146 23.9513 19.8166 23.8007 19.4626 21.0847L19.1973 19.048C18.8433 16.332 20.7753 14.3993 23.4913 14.754L25.528 15.0193Z" fill="#DD2E44"/>
<path d="M24.3262 14.8627L23.4902 14.7533C20.7742 14.3993 18.8415 16.3313 19.1962 19.0473L19.2542 19.492C20.3355 19.3133 21.5542 18.668 22.5968 17.6253C23.4568 16.7667 24.0448 15.7867 24.3262 14.8627ZM8.60352 8.65867L8.83618 8.68933C11.5522 9.04333 13.4848 7.11133 13.1302 4.39533L13.0508 3.78867C12.1728 4.08667 11.2528 4.658 10.4408 5.47067C9.44752 6.46333 8.81618 7.61667 8.60352 8.65867Z" fill="#BE1931"/>
<path d="M16.5186 18.6493C20.4402 18.6493 23.6193 15.4703 23.6193 11.5487C23.6193 7.62707 20.4402 4.448 16.5186 4.448C12.597 4.448 9.41797 7.62707 9.41797 11.5487C9.41797 15.4703 12.597 18.6493 16.5186 18.6493Z" fill="#DD2E44"/>
<path d="M16.5002 11.3333C16.7602 13.2953 16.0788 15.8267 14.7715 17.3947C15.3315 17.5613 15.9182 17.6487 16.5188 17.6487C17.0062 17.6487 17.4835 17.5853 17.9455 17.4747C18.3208 15.7507 18.1162 13.5233 16.5002 11.3333ZM16.5002 11.3333C18.7715 11.7567 20.6548 13.524 21.0195 15.656C21.8992 14.7007 22.4479 13.4875 22.5842 12.196C21.3435 10.9367 19.3162 10.0573 16.5002 11.3333ZM16.5002 11.3333C17.1995 9.82066 19.5062 8.44133 21.7242 8.37466C21.4732 7.96054 21.174 7.57764 20.8328 7.234C20.3353 6.73866 19.7553 6.33372 19.1188 6.03733C17.5368 6.86466 16.1508 8.46866 16.5002 11.3333Z" fill="#F5F8FA"/>
<path d="M16.528 11.3613C14.6547 10.374 13.4767 8.00133 13.9833 6.00733C13.3219 6.30621 12.7196 6.72173 12.2053 7.234C11.8403 7.60186 11.524 8.01501 11.264 8.46333C12.122 9.76933 13.7667 11.016 16.528 11.3613ZM16.472 11.3613C14.7587 12.3993 12.318 12.9553 10.5 12.4833C10.659 13.5349 11.0927 14.5258 11.7573 15.356C13.34 14.8827 15.134 13.6873 16.472 11.3613Z" fill="#F5F8FA"/>
</g>
<defs>
<filter id="filter0_d_797_11650" x="0" y="0" width="32" height="32" filterUnits="userSpaceOnUse" color-interpolation-filters="sRGB">
<feFlood flood-opacity="0" result="BackgroundImageFix"/>
<feColorMatrix in="SourceAlpha" type="matrix" values="0 0 0 0 0 0 0 0 0 0 0 0 0 0 0 0 0 0 127 0" result="hardAlpha"/>
<feOffset dy="4"/>
<feGaussianBlur stdDeviation="2"/>
<feComposite in2="hardAlpha" operator="out"/>
<feColorMatrix type="matrix" values="0 0 0 0 0 0 0 0 0 0 0 0 0 0 0 0 0 0 0.25 0"/>
<feBlend mode="normal" in2="BackgroundImageFix" result="effect1_dropShadow_797_11650"/>
<feBlend mode="normal" in="SourceGraphic" in2="effect1_dropShadow_797_11650" result="shape"/>
</filter>
<clipPath id="clip0_797_11650">
<rect width="24" height="24" fill="white" transform="translate(4)"/>
</clipPath>
</defs>
</svg>
