<svg width="48" height="48" viewBox="0 0 48 48" fill="none" xmlns="http://www.w3.org/2000/svg">
<path d="M21.2622 5.48347L27.6582 16.4095L18.6342 18.9745C12.4017 16.915 8.73122 12.9505 6.51722 8.87647C5.58422 7.15747 5.59172 4.00146 9.30122 4.00146H18.6732C19.1967 4.00137 19.7111 4.13825 20.1652 4.3985C20.6194 4.65875 20.9976 5.03331 21.2622 5.48497V5.48347Z" fill="#FF5C5C"/>
<path d="M21.2622 5.48347L27.6582 16.4095L18.6342 18.9745C12.4017 16.915 8.73122 12.9505 6.51722 8.87647C5.58422 7.15747 5.59172 4.00146 9.30122 4.00146H18.6732C19.1967 4.00137 19.7111 4.13825 20.1652 4.3985C20.6194 4.65875 20.9976 5.03331 21.2622 5.48497V5.48347Z" fill="#4A5470"/>
<path d="M26.9273 5.4835L20.5312 16.4095L29.5552 18.9745C35.7878 16.9135 39.4583 12.949 41.6723 8.875C42.6053 7.156 42.5977 4 38.8883 4H29.5163C28.9928 3.99991 28.4784 4.13679 28.0242 4.39704C27.57 4.65728 27.1919 5.03184 26.9273 5.4835Z" fill="#5E6B8F"/>
<path d="M24.07 45.27C32.3941 45.27 39.142 38.522 39.142 30.198C39.142 21.8739 32.3941 15.126 24.07 15.126C15.746 15.126 8.99805 21.8739 8.99805 30.198C8.99805 38.522 15.746 45.27 24.07 45.27Z" fill="url(#paint0_linear_557_11559)"/>
<path d="M24.07 45.27C32.3941 45.27 39.142 38.522 39.142 30.198C39.142 21.8739 32.3941 15.126 24.07 15.126C15.746 15.126 8.99805 21.8739 8.99805 30.198C8.99805 38.522 15.746 45.27 24.07 45.27Z" fill="url(#paint1_linear_557_11559)"/>
<path d="M24.0691 43.23C31.2665 43.23 37.1011 37.3954 37.1011 30.198C37.1011 23.0006 31.2665 17.166 24.0691 17.166C16.8717 17.166 11.0371 23.0006 11.0371 30.198C11.0371 37.3954 16.8717 43.23 24.0691 43.23Z" fill="url(#paint2_linear_557_11559)"/>
<path d="M24.0709 41.5756C30.3545 41.5756 35.4484 36.4817 35.4484 30.1981C35.4484 23.9144 30.3545 18.8206 24.0709 18.8206C17.7872 18.8206 12.6934 23.9144 12.6934 30.1981C12.6934 36.4817 17.7872 41.5756 24.0709 41.5756Z" fill="url(#paint3_linear_557_11559)"/>
<path d="M24.0709 41.5756C30.3545 41.5756 35.4484 36.4817 35.4484 30.1981C35.4484 23.9144 30.3545 18.8206 24.0709 18.8206C17.7872 18.8206 12.6934 23.9144 12.6934 30.1981C12.6934 36.4817 17.7872 41.5756 24.0709 41.5756Z" fill="url(#paint4_radial_557_11559)"/>
<path d="M24.0709 41.5756C30.3545 41.5756 35.4484 36.4817 35.4484 30.1981C35.4484 23.9144 30.3545 18.8206 24.0709 18.8206C17.7872 18.8206 12.6934 23.9144 12.6934 30.1981C12.6934 36.4817 17.7872 41.5756 24.0709 41.5756Z" fill="url(#paint5_radial_557_11559)"/>
<path d="M24.0709 41.5756C30.3545 41.5756 35.4484 36.4817 35.4484 30.1981C35.4484 23.9144 30.3545 18.8206 24.0709 18.8206C17.7872 18.8206 12.6934 23.9144 12.6934 30.1981C12.6934 36.4817 17.7872 41.5756 24.0709 41.5756Z" fill="url(#paint6_radial_557_11559)"/>
<g filter="url(#filter0_ii_557_11559)">
<path d="M27.0555 36.8581H21.1005C20.8136 36.8588 20.5325 36.7772 20.2906 36.623C20.0486 36.4688 19.856 36.2485 19.7355 35.9881C19.6104 35.7301 19.5623 35.4415 19.5968 35.1569C19.6314 34.8723 19.7473 34.6036 19.9305 34.3831L24.8805 28.3081C25.2705 27.8281 25.0905 27.3181 25.0305 27.1681C24.9607 26.9935 24.8409 26.8434 24.6862 26.7366C24.5314 26.6299 24.3485 26.5712 24.1605 26.5681H24.0855C23.6055 26.5681 23.1705 26.7931 22.8855 27.1831C22.4055 27.8581 21.4605 28.0231 20.7705 27.5431C20.6078 27.428 20.4693 27.282 20.3631 27.1133C20.2569 26.9447 20.1851 26.7568 20.1516 26.5603C20.1182 26.3638 20.1238 26.1627 20.1683 25.9684C20.2127 25.7741 20.295 25.5905 20.4105 25.4281C21.2505 24.2431 22.6155 23.5381 24.0705 23.5381H24.2655C25.7955 23.6131 27.1305 24.5281 27.7605 25.9231C28.4055 27.3631 28.1955 28.9981 27.2055 30.2131L24.2805 33.8131H27.0405C27.8805 33.8131 28.5555 34.4881 28.5555 35.3281C28.5555 36.1681 27.8955 36.8581 27.0555 36.8581Z" fill="#6A6372"/>
</g>
<defs>
<filter id="filter0_ii_557_11559" x="19.2859" y="23.3381" width="9.46875" height="13.8201" filterUnits="userSpaceOnUse" color-interpolation-filters="sRGB">
<feFlood flood-opacity="0" result="BackgroundImageFix"/>
<feBlend mode="normal" in="SourceGraphic" in2="BackgroundImageFix" result="shape"/>
<feColorMatrix in="SourceAlpha" type="matrix" values="0 0 0 0 0 0 0 0 0 0 0 0 0 0 0 0 0 0 127 0" result="hardAlpha"/>
<feOffset dx="-0.3" dy="0.3"/>
<feGaussianBlur stdDeviation="0.3"/>
<feComposite in2="hardAlpha" operator="arithmetic" k2="-1" k3="1"/>
<feColorMatrix type="matrix" values="0 0 0 0 0.286275 0 0 0 0 0.223529 0 0 0 0 0.345098 0 0 0 1 0"/>
<feBlend mode="normal" in2="shape" result="effect1_innerShadow_557_11559"/>
<feColorMatrix in="SourceAlpha" type="matrix" values="0 0 0 0 0 0 0 0 0 0 0 0 0 0 0 0 0 0 127 0" result="hardAlpha"/>
<feOffset dx="0.2" dy="-0.2"/>
<feGaussianBlur stdDeviation="0.2"/>
<feComposite in2="hardAlpha" operator="arithmetic" k2="-1" k3="1"/>
<feColorMatrix type="matrix" values="0 0 0 0 0.482353 0 0 0 0 0.47451 0 0 0 0 0.490196 0 0 0 1 0"/>
<feBlend mode="normal" in2="effect1_innerShadow_557_11559" result="effect2_innerShadow_557_11559"/>
</filter>
<linearGradient id="paint0_linear_557_11559" x1="35.695" y1="22.407" x2="21.6745" y2="35.226" gradientUnits="userSpaceOnUse">
<stop stop-color="#EFEAF6"/>
<stop offset="1" stop-color="#B5A8C3"/>
</linearGradient>
<linearGradient id="paint1_linear_557_11559" x1="18.8035" y1="46.002" x2="22.2025" y2="26.2905" gradientUnits="userSpaceOnUse">
<stop stop-color="#D0A9F4"/>
<stop offset="1" stop-color="#D0A9F4" stop-opacity="0"/>
</linearGradient>
<linearGradient id="paint2_linear_557_11559" x1="35.9431" y1="27.9195" x2="24.0691" y2="27.9195" gradientUnits="userSpaceOnUse">
<stop stop-color="#D3C6E2"/>
<stop offset="1" stop-color="#D6C6E8"/>
</linearGradient>
<linearGradient id="paint3_linear_557_11559" x1="16.9294" y1="33.1546" x2="35.8639" y2="27.4246" gradientUnits="userSpaceOnUse">
<stop stop-color="#E0D3EF"/>
<stop offset="1" stop-color="#C1B0D4"/>
</linearGradient>
<radialGradient id="paint4_radial_557_11559" cx="0" cy="0" r="1" gradientUnits="userSpaceOnUse" gradientTransform="translate(28.3885 28.4735) rotate(156.644) scale(17.0955 14.5672)">
<stop offset="0.837" stop-color="#F6ECFE" stop-opacity="0"/>
<stop offset="1" stop-color="#F6ECFE"/>
</radialGradient>
<radialGradient id="paint5_radial_557_11559" cx="0" cy="0" r="1" gradientUnits="userSpaceOnUse" gradientTransform="translate(22.6177 31.547) rotate(-41.294) scale(13.446 12.9107)">
<stop offset="0.91" stop-color="#B396CF" stop-opacity="0"/>
<stop offset="0.992" stop-color="#B796D5"/>
</radialGradient>
<radialGradient id="paint6_radial_557_11559" cx="0" cy="0" r="1" gradientUnits="userSpaceOnUse" gradientTransform="translate(23.7424 29.2501) rotate(37.9308) scale(12.6584 14.345)">
<stop offset="0.926" stop-color="#AB9CBB" stop-opacity="0"/>
<stop offset="1" stop-color="#AB9CBB"/>
</radialGradient>
</defs>
</svg>
