<svg width="48" height="48" viewBox="0 0 48 48" fill="none" xmlns="http://www.w3.org/2000/svg">
<path d="M21.2622 5.48347L27.6582 16.4095L18.6342 18.9745C12.4017 16.915 8.73122 12.9505 6.51722 8.87647C5.58422 7.15747 5.59172 4.00146 9.30122 4.00146H18.6732C19.1967 4.00137 19.7111 4.13825 20.1652 4.3985C20.6194 4.65875 20.9976 5.03331 21.2622 5.48497V5.48347Z" fill="#FF5C5C"/>
<path d="M21.2622 5.48347L27.6582 16.4095L18.6342 18.9745C12.4017 16.915 8.73122 12.9505 6.51722 8.87647C5.58422 7.15747 5.59172 4.00146 9.30122 4.00146H18.6732C19.1967 4.00137 19.7111 4.13825 20.1652 4.3985C20.6194 4.65875 20.9976 5.03331 21.2622 5.48497V5.48347Z" fill="#4A5470"/>
<path d="M26.9273 5.4835L20.5312 16.4095L29.5552 18.9745C35.7878 16.9135 39.4583 12.949 41.6723 8.875C42.6053 7.156 42.5977 4 38.8883 4H29.5163C28.9928 3.99991 28.4784 4.13679 28.0242 4.39704C27.57 4.65728 27.1919 5.03184 26.9273 5.4835Z" fill="#5E6B8F"/>
<path d="M24.07 45.27C32.3941 45.27 39.142 38.522 39.142 30.198C39.142 21.8739 32.3941 15.126 24.07 15.126C15.746 15.126 8.99805 21.8739 8.99805 30.198C8.99805 38.522 15.746 45.27 24.07 45.27Z" fill="url(#paint0_linear_557_11582)"/>
<path d="M24.07 45.27C32.3941 45.27 39.142 38.522 39.142 30.198C39.142 21.8739 32.3941 15.126 24.07 15.126C15.746 15.126 8.99805 21.8739 8.99805 30.198C8.99805 38.522 15.746 45.27 24.07 45.27Z" fill="url(#paint1_linear_557_11582)"/>
<path d="M24.0691 43.23C31.2665 43.23 37.1011 37.3954 37.1011 30.198C37.1011 23.0006 31.2665 17.166 24.0691 17.166C16.8717 17.166 11.0371 23.0006 11.0371 30.198C11.0371 37.3954 16.8717 43.23 24.0691 43.23Z" fill="url(#paint2_linear_557_11582)"/>
<path d="M24.0709 41.5756C30.3545 41.5756 35.4484 36.4817 35.4484 30.1981C35.4484 23.9144 30.3545 18.8206 24.0709 18.8206C17.7872 18.8206 12.6934 23.9144 12.6934 30.1981C12.6934 36.4817 17.7872 41.5756 24.0709 41.5756Z" fill="url(#paint3_linear_557_11582)"/>
<path d="M24.0709 41.5756C30.3545 41.5756 35.4484 36.4817 35.4484 30.1981C35.4484 23.9144 30.3545 18.8206 24.0709 18.8206C17.7872 18.8206 12.6934 23.9144 12.6934 30.1981C12.6934 36.4817 17.7872 41.5756 24.0709 41.5756Z" fill="url(#paint4_radial_557_11582)"/>
<path d="M24.0709 41.5756C30.3545 41.5756 35.4484 36.4817 35.4484 30.1981C35.4484 23.9144 30.3545 18.8206 24.0709 18.8206C17.7872 18.8206 12.6934 23.9144 12.6934 30.1981C12.6934 36.4817 17.7872 41.5756 24.0709 41.5756Z" fill="url(#paint5_radial_557_11582)"/>
<path d="M24.0709 41.5756C30.3545 41.5756 35.4484 36.4817 35.4484 30.1981C35.4484 23.9144 30.3545 18.8206 24.0709 18.8206C17.7872 18.8206 12.6934 23.9144 12.6934 30.1981C12.6934 36.4817 17.7872 41.5756 24.0709 41.5756Z" fill="url(#paint6_radial_557_11582)"/>
<g filter="url(#filter0_iii_557_11582)">
<path d="M26.19 28.0126L27.759 25.2976C27.8863 25.0747 27.9533 24.8223 27.9533 24.5656C27.9533 24.3089 27.8863 24.0565 27.759 23.8336C27.6317 23.6106 27.4476 23.4253 27.2256 23.2965C27.0035 23.1677 26.7512 23.0999 26.4945 23.1001H21.855C21.4665 23.1001 21.094 23.2544 20.8193 23.5291C20.5446 23.8038 20.3903 24.1764 20.3903 24.5648C20.3903 24.9533 20.5446 25.3259 20.8193 25.6006C21.094 25.8753 21.4665 26.0296 21.855 26.0296H23.313C23.3787 26.0296 23.4432 26.0469 23.5001 26.0797C23.557 26.1125 23.6043 26.1596 23.6372 26.2164C23.6702 26.2732 23.6877 26.3377 23.6879 26.4033C23.6881 26.469 23.6711 26.5336 23.6385 26.5906L22.8315 27.9976C22.6252 28.2523 22.5119 28.5698 22.5105 28.8976C22.5105 29.7061 23.1675 30.3616 23.976 30.3616C24.891 30.3616 25.638 31.1086 25.638 32.0236C25.638 32.9386 24.891 33.6871 23.976 33.6871C23.6348 33.6875 23.3019 33.5822 23.023 33.3855C22.7442 33.1889 22.5331 32.9106 22.419 32.5891C22.2884 32.2261 22.0196 31.9294 21.6712 31.7636C21.3229 31.5978 20.9231 31.5765 20.559 31.7041C20.3782 31.7673 20.2117 31.8657 20.0691 31.9936C19.9265 32.1216 19.8108 32.2765 19.7285 32.4495C19.6461 32.6224 19.599 32.81 19.5896 33.0013C19.5803 33.1927 19.609 33.3839 19.674 33.5641C19.9928 34.4502 20.5765 35.2168 21.3458 35.7599C22.1151 36.303 23.0328 36.5963 23.9745 36.6001C25.1878 36.5993 26.3511 36.1171 27.2092 35.2593C28.0672 34.4016 28.5498 33.2384 28.551 32.0251C28.549 31.2066 28.3289 30.4033 27.9134 29.6981C27.4979 28.9929 26.902 28.4111 26.187 28.0126H26.19Z" fill="#6C3F48"/>
</g>
<defs>
<filter id="filter0_iii_557_11582" x="19.2879" y="22.9001" width="9.46289" height="14" filterUnits="userSpaceOnUse" color-interpolation-filters="sRGB">
<feFlood flood-opacity="0" result="BackgroundImageFix"/>
<feBlend mode="normal" in="SourceGraphic" in2="BackgroundImageFix" result="shape"/>
<feColorMatrix in="SourceAlpha" type="matrix" values="0 0 0 0 0 0 0 0 0 0 0 0 0 0 0 0 0 0 127 0" result="hardAlpha"/>
<feOffset dx="-0.3" dy="0.3"/>
<feGaussianBlur stdDeviation="0.3"/>
<feComposite in2="hardAlpha" operator="arithmetic" k2="-1" k3="1"/>
<feColorMatrix type="matrix" values="0 0 0 0 0.270588 0 0 0 0 0.113725 0 0 0 0 0.0745098 0 0 0 1 0"/>
<feBlend mode="normal" in2="shape" result="effect1_innerShadow_557_11582"/>
<feColorMatrix in="SourceAlpha" type="matrix" values="0 0 0 0 0 0 0 0 0 0 0 0 0 0 0 0 0 0 127 0" result="hardAlpha"/>
<feOffset dx="0.2" dy="-0.2"/>
<feGaussianBlur stdDeviation="0.2"/>
<feComposite in2="hardAlpha" operator="arithmetic" k2="-1" k3="1"/>
<feColorMatrix type="matrix" values="0 0 0 0 0.490196 0 0 0 0 0.352941 0 0 0 0 0.321569 0 0 0 1 0"/>
<feBlend mode="normal" in2="effect1_innerShadow_557_11582" result="effect2_innerShadow_557_11582"/>
<feColorMatrix in="SourceAlpha" type="matrix" values="0 0 0 0 0 0 0 0 0 0 0 0 0 0 0 0 0 0 127 0" result="hardAlpha"/>
<feOffset dx="0.2" dy="0.2"/>
<feGaussianBlur stdDeviation="0.2"/>
<feComposite in2="hardAlpha" operator="arithmetic" k2="-1" k3="1"/>
<feColorMatrix type="matrix" values="0 0 0 0 0.270588 0 0 0 0 0.113725 0 0 0 0 0.0745098 0 0 0 1 0"/>
<feBlend mode="normal" in2="effect2_innerShadow_557_11582" result="effect3_innerShadow_557_11582"/>
</filter>
<linearGradient id="paint0_linear_557_11582" x1="35.695" y1="22.407" x2="21.6745" y2="35.226" gradientUnits="userSpaceOnUse">
<stop stop-color="#F6C67F"/>
<stop offset="1" stop-color="#A75940"/>
</linearGradient>
<linearGradient id="paint1_linear_557_11582" x1="18.8035" y1="46.002" x2="22.2025" y2="26.2905" gradientUnits="userSpaceOnUse">
<stop stop-color="#B05B5B"/>
<stop offset="1" stop-color="#B05B5B" stop-opacity="0"/>
</linearGradient>
<linearGradient id="paint2_linear_557_11582" x1="35.9431" y1="27.9195" x2="24.0691" y2="27.9195" gradientUnits="userSpaceOnUse">
<stop stop-color="#CD9058"/>
<stop offset="1" stop-color="#D28D59"/>
</linearGradient>
<linearGradient id="paint3_linear_557_11582" x1="16.9294" y1="33.1546" x2="35.8639" y2="27.4246" gradientUnits="userSpaceOnUse">
<stop stop-color="#D39E5F"/>
<stop offset="1" stop-color="#BE794E"/>
</linearGradient>
<radialGradient id="paint4_radial_557_11582" cx="0" cy="0" r="1" gradientUnits="userSpaceOnUse" gradientTransform="translate(28.3885 28.4735) rotate(156.644) scale(17.0955 14.5672)">
<stop offset="0.837" stop-color="#E5AC75" stop-opacity="0"/>
<stop offset="1" stop-color="#E5AC75"/>
</radialGradient>
<radialGradient id="paint5_radial_557_11582" cx="0" cy="0" r="1" gradientUnits="userSpaceOnUse" gradientTransform="translate(22.6177 31.547) rotate(-41.294) scale(13.446 12.9107)">
<stop offset="0.91" stop-color="#B36441" stop-opacity="0"/>
<stop offset="1" stop-color="#B36441"/>
</radialGradient>
<radialGradient id="paint6_radial_557_11582" cx="0" cy="0" r="1" gradientUnits="userSpaceOnUse" gradientTransform="translate(23.7424 29.2501) rotate(37.9308) scale(12.6584 14.345)">
<stop offset="0.926" stop-color="#AB662B" stop-opacity="0"/>
<stop offset="1" stop-color="#AB662B"/>
</radialGradient>
</defs>
</svg>
