<svg width="18" height="18" viewBox="0 0 18 18" fill="none" xmlns="http://www.w3.org/2000/svg">
<path d="M16 0H2C0.9 0 0 0.9 0 2V16C0 17.1 0.89 18 2 18H16C17.1 18 18 17.1 18 16V2C18 0.9 17.1 0 16 0ZM16 16H3C2.44772 16 2 15.5523 2 15V14C2 13.4477 2.44772 13 3 13H4.98389C5.34049 13 5.66263 13.1962 5.88339 13.4762C6.61229 14.4009 7.73718 15 9.01 15C10.2849 15 11.404 14.3989 12.1372 13.4716C12.3569 13.1936 12.6776 13 13.0319 13H15C15.5523 13 16 13.4477 16 14V16ZM16 10C16 10.5523 15.5523 11 15 11H12.01C11.4577 11 11.0301 11.4746 10.7638 11.9584C10.4229 12.5779 9.76336 13 9.01 13C8.25664 13 7.59709 12.5779 7.25622 11.9584C6.98995 11.4746 6.56228 11 6.01 11H3C2.44772 11 2 10.5523 2 10V3C2 2.44772 2.44772 2 3 2H15C15.5523 2 16 2.44772 16 3V10Z" fill="#9C9FBA"/>
</svg>
