<svg width="36" height="36" viewBox="0 0 36 36" fill="none" xmlns="http://www.w3.org/2000/svg">
<g clip-path="url(#clip0_324_3927)">
<path d="M30 7.28572H25.245L22.5 4.28572H13.5L10.755 7.28572H6C4.35 7.28572 3 8.63572 3 10.2857V28.2857C3 29.9357 4.35 31.2857 6 31.2857H30C31.65 31.2857 33 29.9357 33 28.2857V10.2857C33 8.63572 31.65 7.28572 30 7.28572ZM30 28.2857H6V10.2857H12.075L14.82 7.28572H21.18L23.925 10.2857H30V28.2857ZM18 11.7857C13.86 11.7857 10.5 15.1457 10.5 19.2857C10.5 23.4257 13.86 26.7857 18 26.7857C22.14 26.7857 25.5 23.4257 25.5 19.2857C25.5 15.1457 22.14 11.7857 18 11.7857ZM18 23.7857C15.525 23.7857 13.5 21.7607 13.5 19.2857C13.5 16.8107 15.525 14.7857 18 14.7857C20.475 14.7857 22.5 16.8107 22.5 19.2857C22.5 21.7607 20.475 23.7857 18 23.7857Z" fill="#54576F"/>
</g>
<defs>
<clipPath id="clip0_324_3927">
<rect width="36" height="36" fill="white"/>
</clipPath>
</defs>
</svg>
