<svg width="92" height="83" viewBox="0 0 92 83" fill="none" xmlns="http://www.w3.org/2000/svg">
<g opacity="0.2">
<path d="M82.4894 37.4661C82.147 37.4661 81.8342 37.2607 81.6987 36.9416C79.93 32.807 77.1661 29.2835 73.4834 26.4678C69.8253 23.6718 65.2755 21.5661 59.962 20.2127C59.8511 20.1854 59.7477 20.136 59.6565 20.0667C59.4472 19.9083 59.3166 19.6634 59.3092 19.4011C59.2994 19.1388 59.4077 18.884 59.6048 18.7132L79.4151 1.57112C79.9398 1.11831 80.6074 0.868408 81.2971 0.868408C81.679 0.868408 82.0559 0.942638 82.413 1.08862C83.1323 1.38059 83.694 1.93237 83.9945 2.63755C84.0487 2.76621 84.1004 2.88993 84.1522 3.02107L84.1867 3.10272C84.2679 3.30562 84.3468 3.51346 84.4256 3.7312L84.4897 3.90935C84.5512 4.08008 84.6128 4.25576 84.6744 4.43638L84.7458 4.64917C84.8222 4.87681 84.8986 5.11435 84.9725 5.3593L84.9897 5.41127C85.0685 5.67107 85.1474 5.94572 85.2262 6.22532L85.2927 6.47028C85.3518 6.68554 85.4085 6.91071 85.4651 7.13834L85.5292 7.39567C85.6031 7.70249 85.677 8.0192 85.746 8.34581L85.7534 8.3854C85.8223 8.70954 85.8839 9.02873 85.943 9.35286C85.9603 9.45183 85.9775 9.55081 85.9948 9.64978C86.044 9.92443 86.0884 10.1941 86.1302 10.4688L86.1771 10.7731C86.2312 11.1418 86.283 11.5154 86.3298 11.9039L86.3495 12.082C86.3889 12.4161 86.4234 12.7575 86.4554 13.1039C86.4677 13.2277 86.4776 13.3538 86.4874 13.4776C86.5145 13.7967 86.5367 14.1184 86.5564 14.4475L86.5761 14.7716C86.6007 15.217 86.618 15.6599 86.6303 16.0904C86.6303 16.1424 86.6352 16.3577 86.6352 16.3577C86.6426 16.7263 86.6476 17.1024 86.6451 17.4835C86.6451 17.627 86.6451 17.7705 86.6426 17.9165C86.6377 18.2901 86.6303 18.6712 86.618 19.0572C86.618 19.0572 86.6106 19.3194 86.6081 19.3887C86.5884 19.8737 86.5613 20.3784 86.5268 20.8857C86.5219 20.9649 86.4973 21.2568 86.4973 21.2568C86.4677 21.6577 86.4332 22.0635 86.3938 22.4767C86.379 22.64 86.3618 22.8008 86.3446 22.9641C86.2978 23.4095 86.246 23.8623 86.1869 24.32L86.15 24.612C86.0785 25.144 85.9972 25.6958 85.9012 26.2946C85.8864 26.3911 85.8248 26.7474 85.8248 26.7474C85.7509 27.1853 85.6696 27.6307 85.5834 28.0785C85.5834 28.0785 85.5095 28.4621 85.4799 28.6155C85.3691 29.1672 85.2533 29.7091 85.1375 30.2337L85.0932 30.439C84.9602 31.0205 84.8124 31.6292 84.6375 32.3047C84.603 32.4358 84.5685 32.567 84.534 32.7006L84.497 32.8367C84.3689 33.3167 84.2359 33.8041 84.0955 34.294C84.0955 34.294 83.9748 34.7122 83.9305 34.8656C83.7063 35.6227 83.5117 36.2562 83.3146 36.8649C83.2038 37.2063 82.8934 37.4463 82.5337 37.4612C82.5214 37.4612 82.5066 37.4612 82.4943 37.4612L82.4894 37.4661Z" fill="#FF5C5C"/>
<path d="M81.2966 1.73447C81.5676 1.73447 81.8361 1.7889 82.0874 1.89035C82.5653 2.08582 82.9766 2.44955 83.2008 2.97905C83.2501 3.09782 83.2993 3.21659 83.3511 3.34278C83.3634 3.37247 83.3732 3.39721 83.3856 3.4269C83.4619 3.61743 83.5383 3.82032 83.6171 4.03064C83.6368 4.08755 83.659 4.14693 83.6787 4.20384C83.7378 4.36962 83.7969 4.54035 83.8585 4.71603C83.8807 4.78531 83.9053 4.85211 83.9275 4.9214C84.0014 5.14408 84.0753 5.3742 84.1492 5.61421C84.1541 5.63153 84.159 5.64637 84.164 5.66369C84.2403 5.91855 84.3167 6.1833 84.3931 6.45548C84.4152 6.53465 84.4349 6.61383 84.4571 6.69301C84.5138 6.9058 84.5704 7.12107 84.6246 7.34376C84.6443 7.42789 84.6665 7.50954 84.6862 7.59614C84.7576 7.89801 84.8291 8.20482 84.8981 8.52401C84.903 8.54133 84.9054 8.56112 84.9104 8.58092C84.9744 8.88031 85.0335 9.19208 85.0927 9.50879C85.1099 9.60776 85.1296 9.70921 85.1469 9.81066C85.1937 10.068 85.2355 10.3327 85.2774 10.6024C85.2922 10.7014 85.3094 10.8004 85.3242 10.9018C85.3784 11.2631 85.4277 11.6293 85.472 12.0079C85.4794 12.0648 85.4843 12.1242 85.4917 12.1835C85.5287 12.5101 85.5632 12.8442 85.5952 13.1832C85.6075 13.3044 85.6174 13.4281 85.6272 13.5518C85.6543 13.8636 85.6765 14.1803 85.6962 14.502C85.7036 14.6084 85.711 14.7123 85.7159 14.8187C85.7381 15.2418 85.7578 15.6723 85.7676 16.1128C85.7676 16.1994 85.7701 16.2884 85.7725 16.375C85.7799 16.7363 85.7824 17.105 85.7824 17.4786C85.7824 17.6196 85.7824 17.7607 85.7799 17.9042C85.775 18.2728 85.7676 18.6465 85.7553 19.0275C85.7528 19.1364 85.7504 19.2428 85.7455 19.3516C85.7257 19.8341 85.7011 20.3241 85.6666 20.8239C85.6592 20.9426 85.6469 21.0664 85.6395 21.1876C85.61 21.5835 85.5755 21.9843 85.5361 22.3901C85.5213 22.5485 85.504 22.7093 85.4868 22.8701C85.44 23.3081 85.3883 23.7535 85.3316 24.2063C85.3193 24.3028 85.3094 24.3968 85.2947 24.4958C85.2208 25.0401 85.1395 25.5919 85.0483 26.1536C85.0237 26.302 84.9966 26.453 84.972 26.6014C84.8981 27.0344 84.8192 27.4724 84.7355 27.9153C84.701 28.091 84.669 28.2691 84.632 28.4448C84.5261 28.9693 84.4152 29.5013 84.2921 30.0407C84.2773 30.11 84.2625 30.1768 84.2477 30.2461C84.1098 30.8498 83.9571 31.4659 83.7969 32.087C83.7526 32.2602 83.7033 32.4383 83.6565 32.6115C83.5309 33.0866 83.3979 33.5691 83.2575 34.0541C83.2033 34.2421 83.1491 34.4302 83.0949 34.6207C82.9027 35.2714 82.7032 35.9271 82.4864 36.5977C80.4936 31.9361 77.4686 28.4275 74.0026 25.7775C69.7115 22.4965 64.7379 20.5368 60.1733 19.3714L60.1659 19.3665L79.9763 2.22933C80.3655 1.89282 80.8335 1.73447 81.2966 1.73447ZM81.2966 0.00244141C80.4 0.00244141 79.5329 0.326578 78.853 0.915467L59.0427 18.0551C58.6485 18.3941 58.4293 18.8964 58.4441 19.416C58.4588 19.9381 58.7052 20.423 59.1166 20.7422C59.3013 20.8857 59.523 20.9946 59.7496 21.0515C64.9498 22.3777 69.3937 24.4314 72.9606 27.1581C76.5226 29.8799 79.1954 33.287 80.905 37.2855C81.1784 37.9239 81.8016 38.3347 82.4889 38.3347C82.516 38.3347 82.5406 38.3347 82.5677 38.3347C83.2846 38.3025 83.9078 37.8274 84.1295 37.142C84.329 36.5259 84.5261 35.8851 84.7527 35.123C84.7971 34.9696 84.8414 34.8186 84.8833 34.6677L84.9202 34.544C85.0631 34.0467 85.2011 33.5493 85.3291 33.0668L85.3735 32.9035C85.408 32.7773 85.44 32.6536 85.472 32.5299C85.6494 31.842 85.7996 31.2235 85.9327 30.6445C85.9425 30.5999 85.9524 30.5554 85.9622 30.5084L85.9795 30.4341C86.0977 29.9071 86.216 29.3553 86.3268 28.7961C86.3638 28.618 86.3958 28.4398 86.4303 28.2642V28.2518C86.5189 27.799 86.6002 27.3462 86.6766 26.9008L86.7037 26.7425C86.7209 26.641 86.7382 26.542 86.7554 26.4406C86.8515 25.8467 86.9377 25.2727 87.0092 24.7358C87.0165 24.6714 87.0264 24.6096 87.0338 24.5477L87.0461 24.4364C87.1052 23.9786 87.1594 23.5159 87.2062 23.0631C87.2235 22.8974 87.2407 22.7316 87.2555 22.5683C87.2949 22.1551 87.3319 21.7394 87.3614 21.3286L87.3713 21.1901C87.3787 21.1109 87.3836 21.0317 87.3885 20.9525C87.423 20.4379 87.4501 19.9257 87.4698 19.4308C87.4723 19.3591 87.4747 19.2873 87.4772 19.218V19.0968C87.4944 18.6984 87.5018 18.3075 87.5068 17.9339C87.5068 17.7879 87.5092 17.6394 87.5092 17.4934C87.5092 17.105 87.5068 16.7214 87.4994 16.3503V16.2488C87.4994 16.1919 87.4969 16.1326 87.4944 16.0756C87.4821 15.6352 87.4649 15.1824 87.4402 14.7321C87.4353 14.6603 87.4304 14.5886 87.4279 14.5168L87.4205 14.403C87.3984 14.0615 87.3762 13.7275 87.3491 13.4157C87.3392 13.2871 87.3269 13.1609 87.3171 13.0347C87.2851 12.6784 87.2481 12.3295 87.2087 11.993L87.2013 11.9287C87.1964 11.8891 87.1939 11.8495 87.189 11.8099C87.1446 11.4388 87.0929 11.0627 87.0338 10.6569C87.0239 10.5826 87.0116 10.5109 86.9993 10.4391L86.9845 10.3451C86.9402 10.0581 86.8934 9.77849 86.8466 9.51869L86.8367 9.4593C86.8219 9.3727 86.8072 9.28858 86.7899 9.20445C86.7234 8.84815 86.6618 8.52896 86.5978 8.23204L86.5855 8.17513C86.5214 7.87079 86.4475 7.5516 86.3638 7.20025C86.3465 7.13097 86.3317 7.06416 86.3145 6.99735L86.2997 6.9355C86.2406 6.70043 86.1815 6.4728 86.1223 6.25011L86.1026 6.17835C86.0854 6.11897 86.0706 6.05711 86.0534 6.0002C85.9672 5.68596 85.8883 5.41379 85.812 5.16388L85.7972 5.11439C85.7233 4.86944 85.6445 4.62943 85.5607 4.37705C85.541 4.31519 85.5188 4.25333 85.4991 4.19147L85.4893 4.1593C85.4252 3.97373 85.3612 3.7931 85.2996 3.61743L85.2823 3.56794C85.2651 3.5234 85.2503 3.47887 85.2331 3.43433C85.1493 3.20422 85.0656 2.98648 84.9867 2.791L84.9596 2.7242L84.9498 2.69945C84.8956 2.56337 84.8414 2.43718 84.7897 2.31098C84.3931 1.38311 83.6664 0.668034 82.7352 0.289463C82.2746 0.101414 81.7893 0.00739005 81.2942 0.00739005L81.2966 0.00244141Z" fill="black"/>
<path d="M9.18803 37.4661C8.82838 37.4488 8.51799 37.2113 8.40714 36.8698C8.21007 36.2612 8.01547 35.6277 7.7913 34.8731C7.74696 34.7246 7.70508 34.5786 7.66321 34.4302L7.62626 34.299C7.48585 33.8066 7.35036 33.3217 7.22227 32.8392C7.22227 32.8392 7.11142 32.4259 7.08186 32.3072C6.90449 31.6193 6.75669 31.0106 6.62613 30.444L6.58179 30.2362C6.46355 29.7141 6.34777 29.1697 6.23939 28.6204C6.20244 28.4398 6.16795 28.2617 6.13593 28.0835C6.04971 27.6357 5.97088 27.1903 5.89452 26.7523C5.89452 26.7523 5.83293 26.396 5.81815 26.2971C5.72455 25.7156 5.64079 25.149 5.56935 24.6145C5.56196 24.5576 5.5324 24.3225 5.5324 24.3225C5.47328 23.8648 5.42155 23.412 5.37475 22.9666C5.3575 22.8033 5.34272 22.6425 5.32548 22.4792C5.28607 22.066 5.25158 21.6602 5.22202 21.2593C5.22202 21.2593 5.19985 20.9624 5.19246 20.8907C5.15797 20.3809 5.13088 19.8787 5.11117 19.3937C5.10871 19.3269 5.10132 19.0646 5.10132 19.0646C5.089 18.6786 5.07915 18.2976 5.07668 17.9215C5.07668 17.7755 5.07422 17.632 5.07422 17.4885C5.07422 17.1074 5.07668 16.7338 5.08407 16.3651C5.08407 16.3651 5.08654 16.1523 5.089 16.0954C5.10132 15.6624 5.11856 15.217 5.14319 14.7766C5.14812 14.7073 5.1629 14.4549 5.1629 14.4549C5.18261 14.1259 5.20478 13.8042 5.23187 13.485C5.23187 13.485 5.25404 13.2153 5.2639 13.1089C5.29592 12.7625 5.33041 12.4235 5.36982 12.0895L5.38953 11.9138C5.43633 11.5253 5.48806 11.1492 5.54226 10.7806L5.58906 10.4762C5.63094 10.2016 5.67774 9.93188 5.72208 9.66713L5.77628 9.36031C5.8354 9.03617 5.89698 8.71698 5.96349 8.41017L5.97581 8.35573C6.04478 8.02665 6.11868 7.70994 6.19258 7.40312C6.21229 7.31652 6.23446 7.22992 6.25663 7.14332C6.31329 6.91815 6.36994 6.69299 6.42907 6.47772L6.49558 6.23276C6.57194 5.95317 6.65077 5.68099 6.73206 5.41871L6.74191 5.38407C6.8232 5.11932 6.89957 4.88426 6.97593 4.65415L7.04737 4.44135C7.10895 4.26073 7.17054 4.08505 7.23212 3.9168L7.29617 3.74112C7.37746 3.52338 7.45629 3.31306 7.53511 3.11512L7.57206 3.02604C7.62379 2.89738 7.67552 2.77613 7.72479 2.65489C8.03025 1.93981 8.59189 1.38804 9.31119 1.09607C9.66838 0.950084 10.0428 0.875854 10.4271 0.875854C11.1168 0.875854 11.7844 1.12576 12.3091 1.57856L32.1194 18.7182C32.3165 18.8889 32.4273 19.1413 32.4175 19.4036C32.4076 19.6659 32.282 19.9108 32.0726 20.0667C31.9815 20.136 31.8706 20.1904 31.7598 20.2176C26.4463 21.5736 21.8965 23.6767 18.2384 26.4727C14.5557 29.286 11.7918 32.8119 10.0231 36.9465C9.88762 37.2657 9.57477 37.4711 9.23237 37.4711C9.22005 37.4711 9.20527 37.4711 9.19295 37.4711L9.18803 37.4661Z" fill="#FF5C5C"/>
<path d="M10.4186 1.73447C10.8817 1.73447 11.3473 1.89035 11.739 2.22933L31.5493 19.369L31.5419 19.3739C26.9748 20.5393 22.0013 22.5015 17.7126 25.7799C14.2442 28.4299 11.2217 31.9385 9.2288 36.6002C9.01202 35.9321 8.81249 35.2739 8.62035 34.6232C8.56369 34.4326 8.51196 34.2446 8.45777 34.0565C8.31735 33.5716 8.18433 33.0891 8.0587 32.614C8.0119 32.4383 7.96509 32.2627 7.91829 32.0895C7.75817 31.4684 7.60544 30.8523 7.4675 30.2486C7.45272 30.1793 7.43794 30.1125 7.42316 30.0432C7.30245 29.5038 7.18914 28.9718 7.08321 28.4473C7.04873 28.2691 7.01424 28.0934 6.97975 27.9178C6.896 27.4748 6.81471 27.0369 6.74327 26.6039C6.71864 26.4554 6.69154 26.3045 6.6669 26.156C6.57576 25.5944 6.49201 25.0401 6.42057 24.4982C6.40825 24.4017 6.3984 24.3052 6.38362 24.2087C6.3245 23.7584 6.27277 23.313 6.22843 22.8726C6.21118 22.7118 6.1964 22.5509 6.17916 22.3926C6.13975 21.9868 6.10526 21.586 6.0757 21.1901C6.06585 21.0688 6.05599 20.9451 6.0486 20.8263C6.01412 20.3265 5.98948 19.8341 5.96977 19.3541C5.96485 19.2453 5.96238 19.1389 5.95992 19.03C5.9476 18.6489 5.93775 18.2753 5.93529 17.9066C5.93529 17.7631 5.93282 17.6221 5.93282 17.4811C5.93282 17.1074 5.93529 16.7388 5.94268 16.3775C5.94268 16.2909 5.94268 16.2018 5.9476 16.1152C5.95992 15.6748 5.97716 15.2443 5.99933 14.8212C6.00426 14.7148 6.01165 14.6108 6.01904 14.5044C6.03875 14.1828 6.06092 13.8661 6.08802 13.5543C6.09787 13.4306 6.10772 13.3094 6.12004 13.1856C6.15206 12.8467 6.18655 12.5126 6.2235 12.186C6.23089 12.1291 6.23582 12.0672 6.24321 12.0103C6.28755 11.6318 6.33928 11.2631 6.39101 10.9043C6.40579 10.8029 6.42303 10.7064 6.43781 10.6049C6.47969 10.3352 6.52403 10.0729 6.56837 9.81313C6.58561 9.71169 6.60286 9.61024 6.62256 9.51126C6.68169 9.19455 6.74081 8.88279 6.80485 8.58339C6.80978 8.56607 6.81224 8.54628 6.81717 8.52648C6.88614 8.2073 6.95512 7.89801 7.02902 7.59861C7.04873 7.51449 7.0709 7.43036 7.0906 7.34623C7.1448 7.12354 7.20145 6.9058 7.25811 6.69549C7.28028 6.61631 7.29999 6.53465 7.32216 6.45795C7.39852 6.18577 7.47489 5.91855 7.55125 5.66617C7.55618 5.64885 7.5611 5.634 7.56603 5.61668C7.63993 5.37667 7.71383 5.14656 7.78773 4.92387C7.8099 4.85459 7.83454 4.78531 7.85671 4.7185C7.91583 4.54282 7.97741 4.3721 8.03653 4.20632C8.05624 4.14941 8.07841 4.09002 8.09812 4.03311C8.17448 3.8228 8.25331 3.6199 8.32967 3.42938C8.34199 3.39969 8.35184 3.37247 8.36416 3.34525C8.41589 3.21906 8.46516 3.10029 8.51442 2.98153C8.73859 2.45202 9.14997 2.0883 9.62786 1.89282C9.87912 1.79138 10.1476 1.73694 10.4186 1.73694M10.4186 0.00491573C9.92346 0.00491573 9.44065 0.101414 8.97753 0.289463C8.04638 0.668034 7.31969 1.38311 6.92802 2.30109C6.87136 2.43718 6.81717 2.56584 6.76298 2.69945L6.75312 2.7242L6.72849 2.78853C6.6472 2.9939 6.56591 3.20916 6.48215 3.43185L6.43535 3.56052L6.41564 3.61495C6.3516 3.78816 6.29001 3.96878 6.22596 4.15683L6.21611 4.18405C6.19394 4.24591 6.17423 4.31024 6.15206 4.37457C6.06831 4.62943 5.99194 4.86696 5.91804 5.1045L5.9008 5.15646C5.82444 5.40884 5.74561 5.68101 5.65939 5.99278C5.64215 6.05216 5.62737 6.11402 5.61012 6.17588L5.59288 6.24516C5.53376 6.46785 5.47464 6.69549 5.41552 6.93055L5.4032 6.98003C5.38596 7.05179 5.36872 7.12107 5.35147 7.1953C5.26772 7.54913 5.19382 7.86584 5.12977 8.17018L5.11992 8.22214C5.05587 8.52648 4.99429 8.84567 4.92777 9.1995C4.91299 9.2861 4.89575 9.3727 4.88097 9.46178L4.87112 9.51374C4.82431 9.77354 4.77997 10.0531 4.73563 10.3402L4.72085 10.4342C4.70854 10.5059 4.69868 10.5777 4.68637 10.6495C4.62724 11.0552 4.57551 11.4338 4.53117 11.805C4.52625 11.8446 4.52132 11.8841 4.51886 11.9237L4.51147 11.9856C4.47205 12.3171 4.43757 12.6685 4.40308 13.0273C4.39076 13.1535 4.38091 13.2821 4.37106 13.4083C4.34396 13.7226 4.32179 14.0566 4.29962 14.3956L4.29223 14.5094C4.2873 14.5812 4.28238 14.6504 4.27991 14.7247C4.25528 15.1775 4.23803 15.6303 4.22572 16.0682C4.22572 16.1251 4.22572 16.182 4.22325 16.239V16.3404C4.2134 16.714 4.21094 17.1 4.21094 17.4835C4.21094 17.6295 4.21094 17.7755 4.2134 17.924C4.21833 18.2976 4.22572 18.6885 4.23803 19.0869V19.2081C4.24296 19.2799 4.24542 19.3492 4.24789 19.4234C4.26759 19.9183 4.29469 20.4305 4.32918 20.9451C4.33411 21.0243 4.3415 21.1035 4.34642 21.1851L4.35628 21.3212C4.38584 21.7295 4.42279 22.1452 4.4622 22.5608C4.47698 22.7241 4.49422 22.8899 4.51147 23.0557C4.55827 23.506 4.61246 23.9687 4.67159 24.4314L4.68637 24.5453C4.69376 24.6071 4.70115 24.6665 4.70854 24.7284C4.77997 25.2653 4.86619 25.8393 4.96226 26.4356C4.9795 26.5346 4.99675 26.6361 5.01399 26.7375L5.04109 26.8959C5.11745 27.3412 5.19874 27.7965 5.28496 28.2468L5.28989 28.2741C5.32191 28.4448 5.3564 28.618 5.39089 28.7912C5.50174 29.3479 5.61998 29.8997 5.73822 30.4292L5.75546 30.5034C5.76532 30.548 5.77517 30.595 5.78502 30.6395C5.91804 31.2185 6.06831 31.8371 6.24567 32.5249C6.27769 32.6487 6.30972 32.7724 6.3442 32.8961L6.38855 33.0619C6.51664 33.5444 6.65459 34.0417 6.79746 34.539L6.83441 34.6702C6.87629 34.8186 6.92063 34.9696 6.96497 35.118C7.18914 35.8801 7.38867 36.5234 7.5882 37.1371C7.8099 37.8225 8.43313 38.2975 9.14997 38.3297C9.17707 38.3297 9.2017 38.3297 9.2288 38.3297C9.91607 38.3297 10.5393 37.919 10.8127 37.2806C12.5223 33.2846 15.195 29.8774 18.7571 27.1532C22.3215 24.4265 26.7679 22.3728 31.968 21.0466C32.1947 20.9897 32.4065 20.8857 32.5913 20.7447C33.0051 20.428 33.2564 19.9381 33.2712 19.416C33.2859 18.8939 33.0692 18.3916 32.6775 18.0502L12.8622 0.915467C12.1824 0.326578 11.3128 0.00244141 10.4186 0.00244141V0.00491573Z" fill="black"/>
<path d="M74.0056 26.6459C73.8184 26.6459 73.6336 26.584 73.4834 26.4702C69.8253 23.6742 65.2755 21.5686 59.962 20.2151C59.8511 20.1879 59.7477 20.136 59.6565 20.0692C59.4472 19.9108 59.3166 19.6658 59.3092 19.4036C59.2994 19.1413 59.4077 18.8864 59.6048 18.7157L79.4151 1.57112C79.9398 1.11831 80.6074 0.868408 81.2971 0.868408C81.679 0.868408 82.0559 0.942638 82.413 1.08862C82.7284 1.21729 82.9377 1.51916 82.9501 1.86061C83.2752 11.0824 77.3188 21.9744 74.7421 26.2302C74.6165 26.4405 74.4047 26.5865 74.1657 26.6311C74.1115 26.641 74.0598 26.6459 74.0056 26.6459Z" fill="#FF5C5C"/>
<path d="M81.2966 1.7345C81.5676 1.7345 81.8361 1.78894 82.0874 1.89038C82.1958 4.99566 81.5799 13.2648 74.0026 25.78C69.7115 22.499 64.7379 20.5394 60.1733 19.374L60.1659 19.369L79.9763 2.22937C80.3655 1.89286 80.8335 1.7345 81.2966 1.7345ZM81.2966 0.00247432C80.4 0.00247432 79.5329 0.326611 78.853 0.9155L59.0427 18.0551C58.6485 18.3941 58.4293 18.8964 58.4441 19.416C58.4588 19.9381 58.7052 20.4231 59.1166 20.7423C59.3013 20.8858 59.523 20.9946 59.7496 21.0515C64.9498 22.3778 69.3937 24.4315 72.9606 27.1582C73.2636 27.3883 73.6307 27.512 74.0051 27.512C74.111 27.512 74.2194 27.5021 74.3253 27.4823C74.8057 27.3908 75.2245 27.0988 75.4782 26.6806C78.8481 21.1159 81.24 15.7614 82.5924 10.7608C83.7132 6.61634 83.8733 3.61746 83.8117 1.82852C83.7871 1.14561 83.3658 0.541877 82.7377 0.284547C82.277 0.0964986 81.7918 0 81.2966 0V0.00247432Z" fill="black"/>
<path d="M82.4887 37.4662C82.1463 37.4662 81.8334 37.2608 81.698 36.9417C79.9293 32.8071 77.1654 29.2836 73.4827 26.4678C73.1304 26.2006 73.0393 25.7082 73.2683 25.3297C80.7594 12.9556 81.3284 4.83731 81.2275 1.92256C81.2176 1.62812 81.3555 1.35099 81.5945 1.18274C81.7423 1.07882 81.9147 1.02686 82.0896 1.02686C82.198 1.02686 82.3089 1.04665 82.4148 1.09119C83.1341 1.38316 83.6957 1.93493 83.9963 2.64011C84.0505 2.76878 84.1022 2.8925 84.1539 3.02363L84.1884 3.10529C84.2697 3.30818 84.3485 3.51602 84.4274 3.73377L84.4914 3.91192C84.553 4.08264 84.6146 4.25832 84.6762 4.43895L84.7476 4.65174C84.8239 4.87938 84.9003 5.11691 84.9742 5.36187L84.9915 5.41383C85.0703 5.67363 85.1491 5.94828 85.2279 6.22788L85.2944 6.47284C85.3536 6.68811 85.4102 6.91327 85.4669 7.14091L85.5309 7.39824C85.6048 7.70505 85.6787 8.02177 85.7477 8.34838L85.7551 8.38797C85.8241 8.7121 85.8857 9.03129 85.9448 9.35543C85.962 9.4544 85.9793 9.55337 85.9965 9.65482C86.0458 9.927 86.0901 10.1992 86.132 10.4738L86.1788 10.7782C86.233 11.1468 86.2847 11.5205 86.3315 11.9089L86.3512 12.0871C86.3906 12.4211 86.4251 12.7626 86.4572 13.109C86.4695 13.2327 86.4793 13.3589 86.4892 13.4826C86.5163 13.8018 86.5384 14.1234 86.5582 14.4525L86.5779 14.7767C86.6025 15.222 86.6197 15.665 86.6321 16.0955C86.6321 16.1474 86.637 16.3627 86.637 16.3627C86.6444 16.7314 86.6493 17.1075 86.6468 17.4885C86.6468 17.632 86.6468 17.7755 86.6444 17.9215C86.6394 18.2952 86.6321 18.6762 86.6197 19.0622C86.6197 19.0622 86.6123 19.3245 86.6099 19.3913C86.5902 19.8762 86.5631 20.381 86.5286 20.8882C86.5237 20.9674 86.499 21.2594 86.499 21.2594C86.4695 21.6602 86.435 22.066 86.3956 22.4792C86.3808 22.6425 86.3636 22.8034 86.3463 22.9667C86.2995 23.4121 86.2478 23.8649 86.1886 24.3226L86.1517 24.6146C86.0803 25.1466 85.999 25.6983 85.9029 26.2971C85.8881 26.3936 85.8265 26.7499 85.8265 26.7499C85.7526 27.1879 85.6713 27.6333 85.5851 28.0811C85.5851 28.0811 85.5112 28.4646 85.4817 28.618C85.3708 29.1698 85.255 29.7117 85.1393 30.2362L85.0949 30.4416C84.9619 31.0231 84.8141 31.6318 84.6392 32.3072C84.6047 32.4384 84.5702 32.5695 84.5357 32.7031L84.4988 32.8392C84.3707 33.3192 84.2377 33.8067 84.0973 34.2966L84.0652 34.4129C84.0209 34.5638 83.979 34.7172 83.9322 34.8706C83.708 35.6278 83.5134 36.2612 83.3164 36.8699C83.2055 37.2114 82.8951 37.4514 82.5355 37.4662C82.5232 37.4662 82.5084 37.4662 82.4961 37.4662H82.4887Z" fill="#FFDBDB"/>
<path d="M82.0875 1.89038C82.5654 2.08586 82.9768 2.44958 83.2009 2.97909C83.2502 3.09785 83.2995 3.21662 83.3512 3.34281C83.3635 3.3725 83.3734 3.39725 83.3857 3.42694C83.4621 3.61746 83.5384 3.82036 83.6173 4.03067C83.637 4.08758 83.6591 4.14697 83.6788 4.20388C83.738 4.36966 83.7971 4.54038 83.8587 4.71606C83.8808 4.78534 83.9055 4.85215 83.9276 4.92143C84.0015 5.14412 84.0754 5.37423 84.1493 5.61424C84.1543 5.63156 84.1592 5.64641 84.1641 5.66373C84.2405 5.91858 84.3168 6.18333 84.3932 6.45551C84.4154 6.53469 84.4351 6.61387 84.4573 6.69305C84.5139 6.90584 84.5706 7.1211 84.6248 7.34379C84.6445 7.42792 84.6666 7.50957 84.6863 7.59617C84.7578 7.89804 84.8292 8.20486 84.8982 8.52404C84.9031 8.54136 84.9056 8.56116 84.9105 8.58095C84.9746 8.88035 85.0337 9.19211 85.0928 9.50883C85.1101 9.6078 85.1298 9.70925 85.147 9.81069C85.1938 10.068 85.2357 10.3328 85.2776 10.6025C85.2923 10.7014 85.3096 10.8004 85.3244 10.9019C85.3785 11.2631 85.4278 11.6293 85.4722 12.0079C85.4795 12.0648 85.4845 12.1242 85.4919 12.1836C85.5288 12.5102 85.5633 12.8442 85.5953 13.1832C85.6076 13.3044 85.6175 13.4282 85.6274 13.5519C85.6544 13.8636 85.6766 14.1803 85.6963 14.502C85.7037 14.6084 85.7111 14.7123 85.716 14.8187C85.7382 15.2418 85.7579 15.6724 85.7678 16.1128C85.7678 16.1994 85.7702 16.2885 85.7727 16.3751C85.7801 16.7363 85.7825 17.105 85.7825 17.4786C85.7825 17.6197 85.7825 17.7607 85.7801 17.9042C85.7752 18.2729 85.7678 18.6465 85.7554 19.0275C85.753 19.1364 85.7505 19.2428 85.7456 19.3517C85.7259 19.8342 85.7013 20.3241 85.6668 20.8239C85.6594 20.9427 85.6471 21.0664 85.6397 21.1876C85.6101 21.5835 85.5756 21.9844 85.5362 22.3902C85.5214 22.5485 85.5042 22.7093 85.4869 22.8702C85.4401 23.3081 85.3884 23.7535 85.3318 24.2063C85.3194 24.3028 85.3096 24.3968 85.2948 24.4958C85.2209 25.0402 85.1396 25.5919 85.0485 26.1536C85.0238 26.3021 84.9967 26.453 84.9721 26.6014C84.8982 27.0345 84.8194 27.4724 84.7356 27.9153C84.7011 28.091 84.6691 28.2691 84.6322 28.4448C84.5262 28.9694 84.4154 29.5014 84.2922 30.0408C84.2774 30.11 84.2627 30.1768 84.2479 30.2461C84.1099 30.8499 83.9572 31.466 83.7971 32.087C83.7527 32.2602 83.7035 32.4384 83.6567 32.6116C83.531 33.0867 83.398 33.5691 83.2576 34.0541C83.2034 34.2422 83.1492 34.4302 83.095 34.6207C82.9029 35.2715 82.7033 35.9272 82.4866 36.5977C80.4937 31.9361 77.4687 28.4275 74.0028 25.7775C81.5801 13.2624 82.1959 4.99319 82.0875 1.88791M82.0875 0.155884C81.7402 0.155884 81.3928 0.26228 81.0997 0.467649C80.6218 0.804156 80.3435 1.36088 80.3656 1.94729C80.4666 4.78534 79.9025 12.7032 72.5321 24.8744C72.074 25.6315 72.2587 26.6163 72.9608 27.1532C76.5228 29.875 79.1955 33.2821 80.9051 37.2806C81.1785 37.919 81.8018 38.3297 82.489 38.3297C82.5161 38.3297 82.5408 38.3297 82.5679 38.3297C83.2847 38.2976 83.9079 37.8225 84.1296 37.1371C84.3292 36.521 84.5262 35.8802 84.7529 35.1181C84.7972 34.9647 84.8415 34.8137 84.8859 34.6603L84.9204 34.5391C85.0632 34.0417 85.2012 33.5444 85.3293 33.0619L85.3736 32.8961C85.4081 32.7699 85.4401 32.6462 85.4722 32.5225C85.6495 31.8346 85.7998 31.2161 85.9328 30.6371C85.9427 30.5925 85.9525 30.548 85.9624 30.501L85.9796 30.4268C86.0979 29.8997 86.2161 29.3479 86.3269 28.7887C86.3639 28.6106 86.3959 28.4324 86.4304 28.2568V28.2444C86.5191 27.7916 86.6004 27.3388 86.6767 26.8934L86.7038 26.7351C86.7211 26.6336 86.7383 26.5346 86.7556 26.4332C86.8516 25.8394 86.9379 25.2653 87.0093 24.7284C87.0167 24.6641 87.0265 24.6022 87.0339 24.5403L87.0462 24.429C87.1054 23.9712 87.1596 23.5085 87.2064 23.0557C87.2236 22.89 87.2409 22.7242 87.2556 22.5609C87.295 22.1477 87.332 21.732 87.3616 21.3212L87.3714 21.1827C87.3788 21.1035 87.3837 21.0243 87.3887 20.9476C87.4231 20.433 87.4502 19.9208 87.4699 19.4259C87.4724 19.3542 87.4749 19.2849 87.4773 19.2131V19.0919C87.4946 18.6935 87.502 18.3026 87.5069 17.9289C87.5069 17.783 87.5094 17.6345 87.5094 17.4885C87.5094 17.1 87.5069 16.7165 87.4995 16.3454V16.2439C87.4995 16.187 87.497 16.1276 87.4946 16.0707C87.4823 15.6303 87.465 15.1775 87.4404 14.7272C87.4355 14.6554 87.433 14.5837 87.4281 14.5119L87.4207 14.3981C87.3985 14.0542 87.3763 13.7226 87.3492 13.4108C87.3394 13.2822 87.3271 13.156 87.3172 13.0298C87.2852 12.6735 87.2482 12.3221 87.2088 11.9881L87.2014 11.9262C87.1965 11.8867 87.194 11.8471 87.1891 11.8075C87.1448 11.4363 87.093 11.0602 87.0339 10.6544C87.0241 10.5802 87.0118 10.5085 86.9994 10.4367L86.9847 10.3427C86.9403 10.0557 86.8935 9.77853 86.8467 9.51625L86.8369 9.45686C86.8221 9.37026 86.8073 9.28614 86.7901 9.20201C86.7235 8.84571 86.662 8.52652 86.5979 8.2296L86.5856 8.17517C86.5216 7.87082 86.4476 7.55164 86.3639 7.19781C86.3466 7.12853 86.3294 7.06172 86.3146 6.99244L86.2999 6.93305C86.2407 6.70047 86.1816 6.47036 86.1225 6.24767L86.1028 6.17839C86.0855 6.119 86.0708 6.05714 86.0535 5.99776C85.9673 5.68352 85.8885 5.41135 85.8121 5.16144L85.7973 5.11195C85.721 4.86699 85.6446 4.62699 85.5608 4.3746C85.5387 4.31027 85.519 4.24841 85.4968 4.18656L85.4869 4.15686C85.4229 3.97129 85.3588 3.79066 85.2973 3.61499L85.28 3.56303C85.2628 3.51849 85.248 3.47395 85.2308 3.42941C85.147 3.1993 85.0632 2.98404 84.9844 2.78609L84.9573 2.71928L84.9475 2.69454C84.8933 2.55845 84.8391 2.43226 84.7873 2.30607C84.3907 1.3782 83.6641 0.66312 82.7329 0.284549C82.5235 0.200422 82.3043 0.158358 82.085 0.158358L82.0875 0.155884Z" fill="black"/>
<path d="M17.676 26.6459C17.6218 26.6459 17.5701 26.641 17.5159 26.6311C17.2769 26.5865 17.0651 26.4405 16.9395 26.2302C14.3628 21.9744 8.40638 11.0824 8.73155 1.86061C8.74386 1.51916 8.95325 1.21729 9.26856 1.08862C9.62575 0.942638 10.0026 0.868408 10.3845 0.868408C11.0742 0.868408 11.7418 1.11831 12.2665 1.57112L32.0768 18.7108C32.2739 18.8815 32.3847 19.1339 32.3749 19.3961C32.365 19.6584 32.2394 19.9034 32.03 20.0593C31.9388 20.1285 31.828 20.183 31.7171 20.2102C26.4037 21.5661 21.8539 23.6693 18.1958 26.4653C18.0455 26.5816 17.8608 26.641 17.6735 26.641L17.676 26.6459Z" fill="#FF5C5C"/>
<path d="M10.3826 1.73447C10.8457 1.73447 11.3112 1.89035 11.7029 2.22933L31.5132 19.369L31.5058 19.3739C26.9388 20.5393 21.9653 22.5015 17.6766 25.7799C10.0993 13.2648 9.48343 4.99563 9.59182 1.89035C9.84309 1.7889 10.1116 1.73447 10.3826 1.73447ZM10.3826 0.00244141C9.88743 0.00244141 9.40461 0.09894 8.9415 0.286989C8.31088 0.544318 7.89211 1.14805 7.86747 1.83097C7.80343 3.61743 7.96601 6.61878 9.08683 10.7633C10.4392 15.7614 12.8336 21.1183 16.201 26.6831C16.4547 27.1012 16.8735 27.3932 17.3539 27.4847C17.4598 27.5045 17.5682 27.5144 17.6741 27.5144C18.0485 27.5144 18.4156 27.3932 18.7186 27.1606C22.2855 24.4339 26.7294 22.3802 31.9295 21.054C32.1562 20.9971 32.368 20.8932 32.5528 20.7521C32.9666 20.4354 33.2179 19.9455 33.2327 19.4234C33.2474 18.9013 33.0307 18.399 32.639 18.0576L12.8287 0.915467C12.1488 0.326578 11.2792 0.00244141 10.385 0.00244141H10.3826Z" fill="black"/>
<path d="M9.15092 37.4662C8.79127 37.4489 8.48088 37.2114 8.37003 36.8699C8.17296 36.2612 7.97836 35.6278 7.75419 34.8731C7.70985 34.7247 7.66798 34.5762 7.6261 34.4302L7.58915 34.3016C7.44874 33.8092 7.31325 33.3242 7.18516 32.8417C7.18516 32.8417 7.07431 32.4285 7.04475 32.3097C6.86738 31.6219 6.71958 31.0132 6.58902 30.4441L6.54468 30.2362C6.42644 29.7142 6.31067 29.1698 6.20228 28.6205C6.16533 28.4399 6.13084 28.2617 6.09882 28.0836C6.0126 27.6357 5.93377 27.1903 5.85741 26.7524C5.85741 26.7524 5.79582 26.3961 5.78104 26.2971C5.68744 25.7157 5.60122 25.149 5.53224 24.6146C5.52485 24.5552 5.49529 24.3226 5.49529 24.3226C5.43617 23.8649 5.38444 23.4121 5.33764 22.9667C5.3204 22.8034 5.30562 22.6425 5.28837 22.4792C5.24896 22.066 5.21447 21.6602 5.18491 21.2594C5.18491 21.2594 5.16274 20.9625 5.15535 20.8907C5.12086 20.3785 5.09377 19.8738 5.07406 19.3913C5.0716 19.3245 5.06421 19.0622 5.06421 19.0622C5.05189 18.6762 5.04204 18.2952 5.03957 17.9191C5.03957 17.7731 5.03711 17.6296 5.03711 17.4861C5.03711 17.105 5.03957 16.7314 5.04696 16.3627C5.04696 16.3627 5.04943 16.1499 5.05189 16.093C5.06421 15.66 5.08145 15.2146 5.10608 14.7742C5.11101 14.7049 5.12579 14.4525 5.12579 14.4525C5.1455 14.1234 5.16767 13.8018 5.19476 13.4826L5.19969 13.4282C5.20954 13.3193 5.21693 13.2129 5.22679 13.1065C5.25881 12.7601 5.2933 12.4211 5.33271 12.0871L5.35242 11.9114C5.39922 11.5229 5.45095 11.1468 5.50515 10.7782L5.55195 10.4738C5.59383 10.1992 5.64063 9.92947 5.68497 9.66472L5.73917 9.3579C5.79829 9.03377 5.86233 8.71458 5.92638 8.40776L5.93623 8.35333C6.00521 8.02424 6.07911 7.70753 6.15301 7.40071C6.17272 7.31411 6.19489 7.22998 6.21706 7.14338C6.27371 6.91574 6.33037 6.69058 6.38949 6.47532L6.456 6.23036C6.53237 5.95076 6.61119 5.67858 6.69249 5.4163L6.70234 5.38166C6.78363 5.11691 6.85999 4.88185 6.93636 4.65174L7.0078 4.43895C7.06938 4.25832 7.13096 4.08264 7.19255 3.91439L7.25659 3.73871C7.33789 3.52097 7.41671 3.31066 7.49554 3.11271L7.53249 3.02363C7.58422 2.8925 7.63595 2.76878 7.68768 2.64754C7.99068 1.93493 8.55232 1.38563 9.27162 1.09119C9.37508 1.04912 9.48593 1.02686 9.59678 1.02686C9.77168 1.02686 9.94412 1.07882 10.0919 1.18274C10.3309 1.35099 10.4688 1.63059 10.459 1.92256C10.3555 4.83979 10.927 12.958 18.4181 25.3297C18.6472 25.7082 18.556 26.2006 18.2038 26.4678C14.521 29.2812 11.7571 32.8071 9.98846 36.9417C9.85297 37.2608 9.54013 37.4662 9.19772 37.4662C9.1854 37.4662 9.17062 37.4662 9.15831 37.4662H9.15092Z" fill="#FFDBDB"/>
<path d="M9.59177 1.89032C9.48338 4.99559 10.0992 13.2648 17.6765 25.7799C14.2081 28.4299 11.1856 31.9385 9.19271 36.6001C8.97593 35.9321 8.7764 35.2739 8.58426 34.6231C8.5276 34.4326 8.47587 34.2446 8.42168 34.0565C8.28127 33.5716 8.14824 33.0891 8.02261 32.614C7.97581 32.4383 7.92901 32.2626 7.8822 32.0894C7.72208 31.4684 7.56936 30.8523 7.43141 30.2485C7.41663 30.1793 7.40185 30.1124 7.38707 30.0432C7.26636 29.5038 7.15305 28.9718 7.04712 28.4472C7.01264 28.2691 6.97815 28.0934 6.94366 27.9177C6.85991 27.4748 6.77862 27.0369 6.70718 26.6039C6.68255 26.4554 6.65545 26.3045 6.63082 26.156C6.53967 25.5943 6.45592 25.0401 6.38448 24.4982C6.37216 24.4017 6.36231 24.3052 6.34753 24.2087C6.28841 23.7584 6.23668 23.313 6.19234 22.8726C6.1751 22.7117 6.16031 22.5509 6.14307 22.3926C6.10366 21.9868 6.06917 21.5859 6.03961 21.19C6.02976 21.0688 6.0199 20.9451 6.01251 20.8263C5.97803 20.3265 5.95339 19.8341 5.93369 19.3541C5.92876 19.2452 5.9263 19.1388 5.92383 19.03C5.91152 18.6489 5.90166 18.2753 5.8992 17.9066C5.8992 17.7631 5.89674 17.6221 5.89674 17.481C5.89674 17.1074 5.8992 16.7387 5.90659 16.3775C5.90659 16.2909 5.90659 16.2018 5.91152 16.1152C5.92383 15.6748 5.94108 15.2442 5.96325 14.8211C5.96817 14.7147 5.97556 14.6108 5.98295 14.5044C6.00266 14.1828 6.02483 13.866 6.05193 13.5543C6.06178 13.4306 6.07163 13.3093 6.08395 13.1856C6.11597 12.8466 6.15046 12.5126 6.18741 12.186C6.1948 12.1291 6.19973 12.0672 6.20712 12.0103C6.25146 11.6317 6.30319 11.2631 6.35492 10.9043C6.3697 10.8028 6.38694 10.7063 6.40172 10.6049C6.4436 10.3352 6.48794 10.0729 6.53228 9.8131C6.54953 9.71165 6.56677 9.61021 6.58648 9.51123C6.6456 9.19452 6.70472 8.88276 6.76876 8.58336C6.77369 8.56604 6.77615 8.54625 6.78108 8.52645C6.85005 8.20727 6.91903 7.89798 6.99293 7.59858C7.01264 7.51446 7.03481 7.43033 7.05451 7.3462C7.10871 7.12351 7.16536 6.90577 7.22202 6.69545C7.24419 6.61628 7.2639 6.53462 7.28607 6.45792C7.36243 6.18574 7.4388 5.91852 7.51516 5.66614C7.52009 5.64882 7.52501 5.63397 7.52994 5.61665C7.60384 5.37664 7.67774 5.14653 7.75164 4.92384C7.77381 4.85456 7.79845 4.78528 7.82062 4.71847C7.87974 4.54279 7.94132 4.37206 8.00044 4.20628C8.02015 4.14938 8.04232 4.08999 8.06203 4.03308C8.13839 3.82277 8.21722 3.61987 8.29358 3.42935C8.3059 3.39966 8.31575 3.37244 8.32807 3.34522C8.3798 3.21903 8.42907 3.10026 8.47833 2.98149C8.7025 2.45199 9.11388 2.08826 9.59177 1.89279M9.59177 0.160767C9.37253 0.160767 9.15329 0.20283 8.94391 0.286957C8.01276 0.665529 7.28607 1.38061 6.8944 2.29858C6.83774 2.43467 6.78354 2.56333 6.72935 2.69695L6.7195 2.72169L6.6924 2.7885C6.61604 2.98397 6.53228 3.19924 6.44606 3.43182L6.39926 3.56049L6.37955 3.6174C6.31551 3.7906 6.25392 3.97122 6.18988 4.15927L6.18002 4.18649C6.15785 4.25082 6.13814 4.31268 6.11597 4.37701C6.03222 4.62939 5.95586 4.8694 5.88196 5.10694L5.86471 5.1589C5.78835 5.41128 5.70952 5.68346 5.6233 5.99522C5.60606 6.0546 5.59128 6.11646 5.57404 6.17585L5.55433 6.24513C5.49521 6.46782 5.43609 6.69545 5.37697 6.93052L5.36465 6.97753C5.34741 7.04928 5.33016 7.12104 5.31046 7.19279C5.2267 7.54662 5.1528 7.86334 5.08875 8.16768L5.0789 8.21964C5.01485 8.52398 4.95327 8.84317 4.88676 9.19699C4.87198 9.2836 4.85474 9.3702 4.83995 9.45927L4.8301 9.51123C4.7833 9.77104 4.73896 10.0506 4.69462 10.3377L4.67984 10.4317C4.66752 10.5034 4.65767 10.5752 4.64535 10.6494C4.58623 11.0552 4.5345 11.4338 4.49016 11.8049C4.48523 11.8445 4.4803 11.8841 4.47784 11.9237L4.47045 11.988C4.43104 12.3196 4.39655 12.6709 4.36206 13.0297C4.34975 13.1559 4.33989 13.2846 4.33004 13.4132C4.30294 13.7275 4.28077 14.059 4.2586 14.4005L4.25121 14.5143C4.24629 14.5861 4.24136 14.6554 4.2389 14.7296C4.21426 15.1824 4.19702 15.6352 4.1847 16.0731C4.1847 16.13 4.1847 16.187 4.18224 16.2439V16.3453C4.17239 16.7189 4.16992 17.1049 4.16992 17.4885C4.16992 17.6344 4.16992 17.7804 4.17239 17.9289C4.17731 18.3 4.1847 18.691 4.19702 19.0918V19.2131C4.20195 19.2848 4.20441 19.3541 4.20687 19.4283C4.22658 19.9232 4.25368 20.4354 4.28816 20.95C4.29309 21.0292 4.30048 21.1084 4.30541 21.19L4.31526 21.3261C4.34482 21.7344 4.38177 22.1501 4.42118 22.5658C4.43596 22.7291 4.45321 22.8948 4.47045 23.0606C4.51726 23.511 4.57145 23.9737 4.63057 24.4364L4.64535 24.5502C4.65274 24.612 4.66013 24.6714 4.66752 24.7333C4.73896 25.2702 4.82517 25.8442 4.92125 26.4406C4.93849 26.5395 4.95573 26.641 4.97298 26.7399L5.00007 26.9008C5.07644 27.3462 5.15773 27.8014 5.24395 28.2518L5.24887 28.279C5.2809 28.4497 5.31538 28.6229 5.34987 28.7961C5.46072 29.3528 5.57896 29.9046 5.6972 30.4341L5.71445 30.5083C5.7243 30.5529 5.73415 30.5999 5.74401 30.6444C5.87703 31.2234 6.02729 31.842 6.20466 32.5299C6.23668 32.6536 6.2687 32.7773 6.30319 32.901L6.34753 33.0668C6.47562 33.5493 6.61357 34.0466 6.75645 34.544L6.7934 34.6726C6.83527 34.8211 6.87962 34.972 6.92396 35.123C7.14812 35.885 7.34765 36.5259 7.54719 37.142C7.76889 37.8274 8.39212 38.3025 9.10895 38.3346C9.13605 38.3346 9.16068 38.3346 9.18778 38.3346C9.87506 38.3346 10.4983 37.9239 10.7717 37.2855C12.4813 33.2895 15.154 29.8823 18.716 27.1581C19.4181 26.6212 19.6029 25.6364 19.1447 24.8793C11.7792 12.7056 11.2151 4.79023 11.3161 1.95218C11.3358 1.36576 11.0599 0.809039 10.582 0.472531C10.2889 0.267163 9.94157 0.160767 9.59423 0.160767H9.59177Z" fill="black"/>
<path d="M45.8315 77.9387C30.4996 77.9387 18.5498 74.6429 10.3148 68.1429C3.74998 62.9592 1.56498 57.246 0.931895 55.0314C0.683096 54.1654 1.15113 53.2425 1.99607 52.9357C3.09226 52.5348 4.34365 51.9163 5.20089 51.4684C3.85097 50.3179 2.24486 48.4918 1.40732 47.507C0.828434 46.8241 0.865385 45.8245 1.496 45.1787C7.49921 39.0473 8.33182 36.3924 8.34167 36.3676C8.35153 36.3256 8.36138 36.2983 8.37863 36.2587C11.7239 28.4374 18.1926 22.838 27.6076 19.6189C34.9977 17.0902 42.0675 16.818 44.7624 16.818C45.329 16.818 45.696 16.8304 45.8192 16.8353H45.8389C45.9621 16.8304 46.3316 16.818 46.8957 16.818C49.5931 16.818 56.6604 17.0902 64.0505 19.6189C73.463 22.8405 79.9318 28.4374 83.277 36.2587C83.2943 36.2983 83.3066 36.3379 83.3189 36.38C83.3238 36.3924 84.1564 39.0473 90.1596 45.1787C90.7903 45.8245 90.8297 46.8241 90.2483 47.507C89.4108 48.4918 87.8047 50.3179 86.4572 51.4833C87.3145 51.9163 88.5658 52.5348 89.662 52.9357C90.507 53.245 90.975 54.1654 90.7262 55.0314C90.0931 57.246 87.9081 62.9592 81.3433 68.1404C73.1083 74.6405 61.161 77.9362 45.8291 77.9362L45.8315 77.9387Z" fill="#FF5C5C"/>
<path d="M46.8983 17.6815C52.1009 17.6815 74.8426 18.7257 82.4889 36.6002C82.4889 36.6002 83.1959 39.2947 89.5489 45.7849C89.8593 46.1016 89.8863 46.6039 89.5981 46.9428C88.8025 47.8781 87.2111 49.6918 85.8982 50.825C85.44 51.2209 85.5262 51.9533 86.0608 52.2329C86.9623 52.7055 88.2384 53.334 89.369 53.7472C89.7952 53.9031 90.0243 54.3534 89.8987 54.7914C88.731 58.8691 81.5232 77.0702 45.8292 77.0702C10.1351 77.0702 2.92736 58.8691 1.75973 54.7914C1.6341 54.3559 1.86566 53.9031 2.28935 53.7472C3.42003 53.334 4.69605 52.7055 5.59764 52.2329C6.13219 51.9533 6.21841 51.2209 5.76022 50.825C4.44726 49.6893 2.85593 47.8757 2.06026 46.9428C1.77205 46.6039 1.79915 46.1016 2.10953 45.7849C8.46253 39.2947 9.16951 36.6002 9.16951 36.6002C16.8158 18.7232 39.56 17.6815 44.7601 17.6815C45.3414 17.6815 45.7036 17.6939 45.7996 17.6988H45.8538C45.9524 17.6939 46.312 17.6815 46.8934 17.6815M46.8934 15.9495C46.3514 15.9495 45.9893 15.9594 45.8267 15.9668C45.6789 15.9618 45.307 15.9495 44.7601 15.9495C42.0208 15.9495 34.8377 16.2266 27.3269 18.7974C23.0333 20.2672 19.2742 22.2664 16.1556 24.7432C12.3448 27.7693 9.46265 31.5278 7.58557 35.9148C7.54123 36.0162 7.52891 36.036 7.50674 36.1325C7.40082 36.4146 6.31694 39.0151 0.880313 44.57C-0.0680794 45.5374 -0.122273 47.0418 0.749755 48.0662C1.41486 48.8481 2.55786 50.152 3.68608 51.2581C3.0456 51.5673 2.34108 51.8841 1.69815 52.1191C0.429519 52.5818 -0.272538 53.9674 0.0994289 55.2689C0.757145 57.5651 3.01604 63.4812 9.77796 68.8208C13.5592 71.8073 18.1879 74.1604 23.5383 75.8182C29.9307 77.7976 37.4291 78.8022 45.8267 78.8022C54.2243 78.8022 61.7228 77.7976 68.1152 75.8182C73.4631 74.1604 78.0943 71.8073 81.8755 68.8208C88.6374 63.4812 90.8963 57.5651 91.554 55.2689C91.926 53.965 91.224 52.5818 89.9553 52.1191C89.3124 51.8841 88.6079 51.5673 87.9674 51.2581C89.0981 50.152 90.2386 48.8481 90.9037 48.0662C91.7757 47.0393 91.7215 45.5374 90.7732 44.57C85.3365 39.0151 84.2526 36.4146 84.1467 36.1325C84.127 36.0385 84.1122 36.0187 84.0679 35.9148C82.1908 31.5278 79.3087 27.7668 75.4979 24.7432C72.3793 22.2664 68.6202 20.2672 64.3265 18.7974C56.8133 16.2266 49.6302 15.9495 46.8909 15.9495H46.8934Z" fill="black"/>
<path d="M89.3711 53.7472C88.2404 53.334 86.9644 52.7055 86.0628 52.2329C85.6859 52.0375 85.5381 51.6168 85.6391 51.2482C81.3085 49.5631 61.8456 42.5583 45.8337 46.1733C29.8219 42.5583 10.3589 49.5631 6.02833 51.2482C6.12687 51.6168 5.97907 52.035 5.60464 52.2329C4.70305 52.7055 3.42703 53.334 2.29635 53.7472C1.87019 53.9031 1.64109 54.3534 1.76672 54.7914C2.93436 58.8691 10.1421 77.0702 45.8362 77.0702C81.5302 77.0702 88.7405 58.8666 89.9057 54.7914C90.0313 54.3559 89.7997 53.9031 89.376 53.7472H89.3711Z" fill="#FFDBDB"/>
<path d="M50.2162 45.2875C49.7334 44.5873 49.0313 44.0355 48.2578 43.694C47.5016 43.36 46.6591 43.1497 45.8314 43.1101C45.0062 43.1497 44.1612 43.36 43.405 43.694C42.6315 44.038 41.9294 44.5873 41.4466 45.2875C40.9392 46.0249 40.5105 47.1606 41.0648 47.987C41.4959 48.6278 42.3753 48.8679 43.0848 49.0237C43.9863 49.2217 44.915 49.244 45.8314 49.244C46.7478 49.244 47.6789 49.2217 48.578 49.0237C49.2875 48.8679 50.1669 48.6278 50.598 47.987C51.1522 47.163 50.7236 46.0249 50.2162 45.2875Z" fill="black"/>
<path d="M44.7369 48.1256C44.8626 49.912 44.5744 51.9014 43.6235 53.4503C43.1604 54.205 42.3894 54.9745 41.4853 55.1551C40.3522 55.3827 39.5639 54.5835 39.0047 53.6854C38.4184 52.7426 36.9256 53.6111 37.5168 54.5588C38.9776 56.9044 41.5149 57.6888 43.7762 55.8652C46.0376 54.0417 46.6485 50.7953 46.4613 48.1231C46.3849 47.0171 44.6581 47.0096 44.7369 48.1231V48.1256Z" fill="black"/>
<path d="M44.7362 48.1256C44.549 50.7954 45.2412 54.1134 47.4213 55.8677C49.6014 57.622 52.2174 56.9094 53.6807 54.5613C54.2719 53.6136 52.7791 52.7426 52.1928 53.6878C51.6459 54.5662 50.838 55.4075 49.7122 55.1576C48.8008 54.9547 48.0494 54.2272 47.574 53.4528C46.6232 51.9038 46.3349 49.917 46.4606 48.128C46.5394 47.0146 44.8126 47.0195 44.7362 48.128V48.1256Z" fill="black"/>
<path d="M27.911 41.2543C26.6793 41.2543 25.3319 41.0861 23.8711 40.6852C23.2158 40.5046 22.8291 39.8242 23.0089 39.166C23.1887 38.5078 23.8637 38.1193 24.5214 38.3C31.5789 40.2398 35.3528 35.6153 35.5105 35.4174C35.9342 34.8854 36.7077 34.7939 37.2397 35.217C37.7718 35.6401 37.8654 36.4121 37.4467 36.949C37.2841 37.1568 34.0029 41.2568 27.911 41.2568V41.2543Z" fill="black"/>
<path d="M63.6998 41.2543C57.6054 41.2543 54.3267 37.1544 54.1641 36.9465C53.7454 36.4096 53.839 35.6302 54.3735 35.2096C54.9081 34.7865 55.684 34.883 56.1028 35.4199C56.2555 35.6129 60.0319 40.2399 67.0894 38.2975C67.7471 38.1169 68.4245 38.5054 68.6019 39.1635C68.7817 39.8217 68.395 40.5021 67.7397 40.6828C66.2789 41.0836 64.9315 41.2519 63.6998 41.2519V41.2543Z" fill="black"/>
<path d="M61.6738 50.0506C61.6763 49.7091 61.7428 49.3875 61.829 49.0683C62.0015 48.4274 62.2478 47.8113 62.5188 47.2076C62.8587 46.4529 63.2405 45.718 63.6741 45.0129C63.9007 44.6417 64.1372 44.2755 64.4279 43.9489C64.5141 43.8524 64.6126 43.7683 64.7111 43.6866C64.8023 43.6099 64.9058 43.6099 64.9969 43.6866C65.1151 43.7905 65.2334 43.8945 65.3368 44.0157C65.6792 44.419 65.9551 44.8693 66.2212 45.3246C66.7262 46.1931 67.1696 47.0913 67.5317 48.0291C67.7115 48.4918 67.8667 48.9594 67.9677 49.4468C68.1057 50.11 68.0219 50.7459 67.7386 51.3521C67.3223 52.2404 66.6424 52.8367 65.7014 53.089C64.5904 53.3884 63.5854 53.146 62.7232 52.3764C62.1 51.8197 61.7674 51.1096 61.6886 50.2782C61.6812 50.199 61.6812 50.1199 61.6763 50.0481L61.6738 50.0506Z" fill="#5DADEC"/>
<path d="M35 75.5C35 76.9378 33.6722 78.5662 30.7535 79.8929C27.925 81.1786 23.9472 82 19.5 82C15.0528 82 11.075 81.1786 8.24654 79.8929C5.32777 78.5662 4 76.9378 4 75.5C4 74.0622 5.32777 72.4338 8.24654 71.1071C11.075 69.8214 15.0528 69 19.5 69C23.9472 69 27.925 69.8214 30.7535 71.1071C33.6722 72.4338 35 74.0622 35 75.5Z" fill="#FF5C5C" stroke="black" stroke-width="2"/>
<path d="M87 75.5C87 76.9378 85.6722 78.5662 82.7535 79.8929C79.925 81.1786 75.9472 82 71.5 82C67.0528 82 63.075 81.1786 60.2465 79.8929C57.3278 78.5662 56 76.9378 56 75.5C56 74.0622 57.3278 72.4338 60.2465 71.1071C63.075 69.8214 67.0528 69 71.5 69C75.9472 69 79.925 69.8214 82.7535 71.1071C85.6722 72.4338 87 74.0622 87 75.5Z" fill="#FF5C5C" stroke="black" stroke-width="2"/>
</g>
</svg>
