<svg width="18" height="22" viewBox="0 0 18 22" fill="none" xmlns="http://www.w3.org/2000/svg">
<path d="M13.4268 2.29091V7.43636C13.4268 8.14545 12.8043 8.72727 12.0237 8.72727C11.2529 8.72727 10.6205 8.15455 10.6205 7.43636V2.29091C10.6205 1.58182 9.99801 1 9.21739 1H8.81225C8.04152 1 7.40912 1.57273 7.40912 2.29091V7.43636C7.40912 8.14545 6.7866 8.72727 6.00598 8.72727C5.23524 8.72727 4.60284 8.15455 4.60284 7.43636V2.29091C4.60284 1.58182 3.98032 1 3.1997 1H2.8835C2.15228 1 1.54952 1.50909 1.49024 2.18182L1.02582 7.32727C0.739261 10.4545 2.86373 13.3455 6.12455 14.2636C6.836 14.4636 7.25102 15.1455 7.07315 15.8091L5.7293 19.4C5.51191 20.2091 6.17396 21 7.08303 21H10.917C11.826 21 12.498 20.2091 12.2707 19.4L10.9268 15.8091C10.749 15.1455 11.164 14.4636 11.8754 14.2636C15.1363 13.3364 17.2607 10.4545 16.9742 7.32727L16.5098 2.18182C16.4505 1.51818 15.8477 1 15.1165 1H14.8003C14.0296 1 13.4268 1.57273 13.4268 2.29091Z" stroke="#7985A7" stroke-width="2"/>
</svg>
