<svg width="16" height="20" viewBox="0 0 16 20" fill="none" xmlns="http://www.w3.org/2000/svg">
<path d="M12.4268 1.29091V6.43636C12.4268 7.14545 11.8043 7.72727 11.0237 7.72727C10.2529 7.72727 9.62053 7.15455 9.62053 6.43636V1.29091C9.62053 0.581818 8.99801 0 8.21739 0H7.81225C7.04152 0 6.40912 0.572727 6.40912 1.29091V6.43636C6.40912 7.14545 5.7866 7.72727 5.00598 7.72727C4.23524 7.72727 3.60284 7.15455 3.60284 6.43636V1.29091C3.60284 0.581818 2.98032 0 2.1997 0H1.8835C1.15228 0 0.549524 0.509091 0.490237 1.18182L0.0258175 6.32727C-0.260739 9.45455 1.86373 12.3455 5.12455 13.2636C5.836 13.4636 6.25102 14.1455 6.07315 14.8091L4.7293 18.4C4.51191 19.2091 5.17396 20 6.08303 20H9.91696C10.826 20 11.498 19.2091 11.2707 18.4L9.92685 14.8091C9.74898 14.1455 10.164 13.4636 10.8754 13.2636C14.1363 12.3364 16.2607 9.45455 15.9742 6.32727L15.5098 1.18182C15.4505 0.518182 14.8477 0 14.1165 0H13.8003C13.0296 0 12.4268 0.572727 12.4268 1.29091Z" fill="#FF5C5C"/>
</svg>
