<svg width="18" height="18" viewBox="0 0 18 18" fill="none" xmlns="http://www.w3.org/2000/svg">
<path d="M16 0H1.99C0.88 0 0.00999999 0.89 0.00999999 2L0 16C0 17.1 0.88 18 1.99 18H16C17.1 18 18 17.1 18 16V2C18 0.89 17.1 0 16 0ZM16 11C16 11.5523 15.5523 12 15 12H13C12.4477 12 12.0163 12.46 11.8354 12.9818C11.4275 14.1579 10.308 15 9 15C7.69198 15 6.57249 14.1579 6.16463 12.9818C5.98367 12.46 5.55228 12 5 12H2.99C2.43771 12 1.99 11.5523 1.99 11V3C1.99 2.44772 2.43772 2 2.99 2H15C15.5523 2 16 2.44772 16 3V11Z" fill="#FF5C5C"/>
</svg>
