<svg width="24" height="24" viewBox="0 0 24 24" fill="none" xmlns="http://www.w3.org/2000/svg">
<circle cx="12" cy="12" r="12" fill="#9C9FBA"/>
<g clip-path="url(#clip0_71_5582)">
<path d="M17.3334 6.66665H15.22V6.66665C14.4427 5.81713 13.3443 5.33331 12.1928 5.33331H11.8073C10.6558 5.33331 9.55735 5.81713 8.78004 6.66665V6.66665H6.66671C5.93337 6.66665 5.33337 7.26665 5.33337 7.99998V16C5.33337 16.7333 5.93337 17.3333 6.66671 17.3333H17.3334C18.0667 17.3333 18.6667 16.7333 18.6667 16V7.99998C18.6667 7.26665 18.0667 6.66665 17.3334 6.66665ZM17.3334 15C17.3334 15.5523 16.8857 16 16.3334 16H7.66671C7.11442 16 6.66671 15.5523 6.66671 15V8.99998C6.66671 8.4477 7.11442 7.99998 7.66671 7.99998H9.36671L9.63263 7.70936C10.2405 7.04501 11.0996 6.66665 12 6.66665V6.66665C12.9005 6.66665 13.7596 7.04501 14.3675 7.70936L14.6334 7.99998H16.3334C16.8857 7.99998 17.3334 8.4477 17.3334 8.99998V15ZM12 8.66665C10.16 8.66665 8.66671 10.16 8.66671 12C8.66671 13.84 10.16 15.3333 12 15.3333C13.84 15.3333 15.3334 13.84 15.3334 12C15.3334 10.16 13.84 8.66665 12 8.66665ZM12 14C10.9 14 10 13.1 10 12C10 10.9 10.9 9.99998 12 9.99998C13.1 9.99998 14 10.9 14 12C14 13.1 13.1 14 12 14Z" fill="white"/>
</g>
<defs>
<clipPath id="clip0_71_5582">
<rect width="16" height="16" fill="white" transform="translate(4 4)"/>
</clipPath>
</defs>
</svg>
