<svg width="161" height="79" viewBox="0 0 161 79" fill="none" xmlns="http://www.w3.org/2000/svg">
<path d="M28.5469 0.242188H24.2227V12.6172H21.2344V0.769531H17.0156V30.6875H21.2344V16.2383H24.2227V32.2344H28.5469V0.242188ZM2.25 24.4297H4.42969C7.73438 24.4473 11.3906 24.2188 15.6797 23.4805L15.2227 19.6133C12.1465 20.2109 9.31641 20.4395 6.75 20.5098V3.79297H2.25V24.4297ZM66.2344 28.0859H48.375V22.3906H43.875V31.6719H66.2344V28.0859ZM40.3594 20.4219H69.5391V16.8359H57.1289V12.3008H52.6992V16.8359H40.3594V20.4219ZM41.9062 10.7539L43.6641 14.2695C48.9727 13.4609 52.8574 11.0527 54.8613 7.76562C56.8652 11.0703 60.8027 13.4082 66.1992 14.2695L67.9219 10.7539C60.7148 9.83984 57.1816 6.0957 57.1992 2.14062V1.15625H52.6289V2.14062C52.6113 5.90234 48.9551 9.76953 41.9062 10.7539ZM96.8555 0.242188H92.3555V23.5508H96.8555V13.1445H101.18V9.41797H96.8555V0.242188ZM71.6836 10.4375C71.666 15.1309 75.5508 18.5586 80.4727 18.5586C85.377 18.5586 89.1914 15.1309 89.1914 10.4375C89.1914 5.67383 85.377 2.29883 80.4727 2.31641C75.5508 2.29883 71.666 5.67383 71.6836 10.4375ZM76.1133 31.6719H98.0156V28.0859H80.5781V21.0898H76.1133V31.6719ZM76.1133 10.4375C76.0781 7.76562 78.0293 6.20117 80.4727 6.21875C82.9336 6.20117 84.8145 7.76562 84.832 10.4375C84.8145 13.0391 82.9336 14.6562 80.4727 14.6562C78.0293 14.6562 76.0781 13.0391 76.1133 10.4375ZM112.957 2.38672C107.912 2.36914 104.045 5.63867 104.062 10.2266C104.045 14.832 107.912 18.084 112.957 18.1016C118.037 18.084 121.799 14.832 121.816 10.2266C121.799 5.63867 118.037 2.36914 112.957 2.38672ZM102.727 22.1094L103.254 25.7656C108.844 25.7656 116.438 25.7129 123.539 24.3242L123.188 21.0898C116.35 22.0566 108.439 22.127 102.727 22.1094ZM108.527 10.2266C108.51 7.73047 110.426 6.25391 112.957 6.25391C115.506 6.25391 117.439 7.73047 117.457 10.2266C117.439 12.7578 115.506 14.2168 112.957 14.1992C110.426 14.2168 108.51 12.7578 108.527 10.2266ZM125.016 32.3047H129.48V0.242188H125.016V32.3047ZM30.2344 70.8164H17.7539V64.2773H26.9648V48.5977H4.04297V64.2773H13.2891V70.8164H0.949219V74.5078H30.2344V70.8164ZM8.47266 60.7617V52.1836H22.5352V60.7617H8.47266ZM61.3125 62.0273H32.0625V65.6133H61.3125V62.0273ZM35.5781 77.6367H58.2891V74.0508H40.0078V68.1094H35.5781V77.6367ZM35.6133 59.4258H58.1133V55.8398H40.0781V50.9883H57.7969V47.4023H35.6133V59.4258ZM86.0625 46.8398C78.9785 46.8223 74.3906 49.1953 74.3906 53.0977C74.3906 56.9824 78.9785 59.3027 86.0625 59.2852C93.1816 59.3027 97.6816 56.9824 97.6992 53.0977C97.6816 49.1953 93.1816 46.8223 86.0625 46.8398ZM71.4727 64.7344H100.652V61.1484H71.4727V64.7344ZM74.8477 77.8828H97.1719V66.9844H74.8477V77.8828ZM79.0664 53.0977C79.0312 51.252 81.5801 50.3203 86.0625 50.3203C90.4746 50.3203 93.0586 51.252 93.0586 53.0977C93.0586 54.8906 90.4746 55.8047 86.0625 55.8047C81.5801 55.8047 79.0312 54.8906 79.0664 53.0977ZM79.2773 74.2969V70.5352H92.7773V74.2969H79.2773ZM114.855 50.7773V47.7188H110.18V50.7773C110.18 54.8555 107.824 59.0215 102.48 60.7266L104.73 64.2422C108.492 63.0293 111.094 60.5332 112.535 57.3867C113.959 60.3047 116.49 62.5898 120.129 63.75L122.379 60.2344C117.105 58.6523 114.82 54.7676 114.855 50.7773ZM107.367 70.2891H124.875V78.2344H129.375V66.7031H107.367V70.2891ZM124.875 65.332H129.375V46.2422H124.875V65.332ZM160.664 46.2422H156.199V53.625H151.137V57.2812H156.199V64.7344H160.664V46.2422ZM133.523 61.2539L135.809 64.7695C139.57 63.5742 142.137 61.0254 143.543 57.8262C144.932 60.709 147.375 63.0469 150.926 64.207L153.141 60.6562C148.148 58.9863 145.846 55.1367 145.793 51.4805H152.156V47.8594H134.789V51.4805H141.223C141.1 55.5059 138.709 59.584 133.523 61.2539ZM139.148 77.8828H160.664V66.0703H139.148V77.8828ZM143.648 74.2969V69.5859H156.27V74.2969H143.648Z" fill="#54576F"/>
</svg>
