<svg width="60" height="27" viewBox="0 0 60 27" fill="none" xmlns="http://www.w3.org/2000/svg">
<path d="M11.7019 13.667C11.7019 12.4378 11.8995 11.4213 12.2947 10.6174C12.6499 9.85805 13.1792 9.19329 13.8398 8.67715C14.4715 8.19435 15.1953 7.84593 15.9667 7.65335C17.4892 7.25918 19.087 7.25918 20.6095 7.65335C21.381 7.84593 22.1048 8.19435 22.7365 8.67715C23.3973 9.1932 23.9298 9.85512 24.2924 10.6111C24.6938 11.415 24.8945 12.4316 24.8945 13.6607V15.755C24.8945 16.9831 24.6938 17.9992 24.2924 18.803C23.9298 19.5591 23.3973 20.221 22.7365 20.737C22.1048 21.2198 21.381 21.5683 20.6095 21.7608C19.0944 22.1549 17.5036 22.1549 15.9885 21.7608C15.2176 21.5683 14.4942 21.2198 13.8631 20.737C13.2025 20.2208 12.67 19.5589 12.3072 18.803C11.9037 18.0033 11.7019 16.9894 11.7019 15.7612V13.667ZM20.3264 13.4631C20.3359 13.109 20.274 12.7566 20.1443 12.4269C20.0366 12.1667 19.8779 11.9308 19.6776 11.733C19.4934 11.5539 19.2718 11.4178 19.0287 11.3347C18.5575 11.1687 18.0437 11.1687 17.5724 11.3347C17.3296 11.4175 17.1085 11.5536 16.9251 11.733C16.7238 11.93 16.5649 12.1661 16.4584 12.4269C16.3279 12.7564 16.266 13.1089 16.2763 13.4631V15.9651C16.2663 16.3192 16.3282 16.6718 16.4584 17.0013C16.5653 17.2619 16.7241 17.498 16.9251 17.6952C17.109 17.8736 17.33 18.0091 17.5724 18.092C18.0433 18.26 18.5578 18.26 19.0287 18.092C19.2714 18.0088 19.4929 17.8734 19.6776 17.6952C19.8776 17.4971 20.0362 17.2612 20.1443 17.0013C20.2738 16.6716 20.3357 16.3192 20.3264 15.9651V13.4631Z" fill="#9C9FBA"/>
<path d="M26.2263 13.667C26.2263 12.4378 26.4234 11.4213 26.8175 10.6174C27.1737 9.85824 27.7035 9.19357 28.3641 8.67715C28.9966 8.19461 29.7208 7.84624 30.4926 7.65336C32.0146 7.25918 33.6119 7.25918 35.1339 7.65336C35.9057 7.84624 36.6299 8.19461 37.2624 8.67715C37.9233 9.19312 38.4558 9.85506 38.8183 10.6112C39.2197 11.415 39.4204 12.4316 39.4204 13.6607V15.755C39.4204 16.9831 39.2197 17.9992 38.8183 18.803C38.4558 19.5591 37.9233 20.2211 37.2624 20.737C36.6299 21.2196 35.9057 21.568 35.1339 21.7608C33.6193 22.155 32.029 22.155 30.5144 21.7608C29.7431 21.568 29.0193 21.2196 28.3875 20.737C27.7266 20.221 27.1941 19.5591 26.8315 18.803C26.4301 17.9992 26.2294 16.9831 26.2294 15.755L26.2263 13.667ZM34.8492 13.4631C34.859 13.1091 34.7976 12.7568 34.6687 12.4269C34.5603 12.1671 34.4017 11.9313 34.2019 11.733C34.0181 11.5542 33.7971 11.4182 33.5546 11.3347C33.0829 11.1687 32.5686 11.1687 32.0968 11.3347C31.8542 11.4179 31.6331 11.5539 31.4495 11.733C31.2486 11.9304 31.0898 12.1664 30.9827 12.4269C30.8528 12.7565 30.7914 13.1091 30.8022 13.4631V15.9651C30.7917 16.3191 30.8531 16.6716 30.9827 17.0013C31.0902 17.2616 31.249 17.4975 31.4495 17.6952C31.6336 17.8733 31.8545 18.0087 32.0968 18.092C32.5683 18.2594 33.0831 18.2594 33.5546 18.092C33.7956 18.01 34.0159 17.8768 34.2004 17.7015C34.3998 17.5029 34.5584 17.2671 34.6671 17.0075C34.7961 16.6777 34.8574 16.3253 34.8476 15.9713L34.8492 13.4631Z" fill="#9C9FBA"/>
<path d="M7.69092 7.29388H9.43199C9.94176 7.30825 10.4258 7.52085 10.7813 7.8865C11.1368 8.25215 11.3357 8.74202 11.3357 9.252C11.3357 9.76197 11.1368 10.2518 10.7813 10.6175C10.4258 10.9831 9.94176 11.1957 9.43199 11.2101H7.72048V20.0508C7.72048 20.5658 7.5159 21.0597 7.15174 21.4239C6.78759 21.788 6.29369 21.9926 5.7787 21.9926H4.81714C4.30215 21.9926 3.80825 21.788 3.44409 21.4239C3.07994 21.0597 2.87536 20.5658 2.87536 20.0508V11.2101H1.95892C1.91683 11.2126 1.87463 11.2074 1.83445 11.1946C1.33749 11.1686 0.869636 10.9522 0.528038 10.5903C0.18644 10.2284 -0.00265147 9.74885 2.80939e-05 9.25122C0.000178955 9.11555 0.0158397 8.98035 0.0467054 8.84824C0.142377 8.36859 0.415117 7.94253 0.81066 7.65485C1.10648 7.45959 1.4469 7.34237 1.80022 7.31411C1.82667 7.31411 1.92936 7.30632 2.06162 7.30166C2.3728 7.29077 2.86914 7.27987 2.86914 7.30166V6.78976C2.86914 5.56214 2.90025 4.28785 3.20988 3.09135C3.59886 1.59923 4.49973 0.371609 6.08521 0.0775409C6.95497 -0.0780507 7.84028 0.0308648 8.69604 0.139779C9.06791 0.188722 9.43635 0.260955 9.79918 0.356051C9.93042 0.390688 10.0597 0.432237 10.1866 0.480525C10.6042 0.656707 10.9476 0.972323 11.1584 1.37352C11.3692 1.77471 11.4342 2.23662 11.3424 2.68042C11.2506 3.12422 11.0077 3.52241 10.655 3.80705C10.3023 4.09168 9.86183 4.24512 9.40865 4.24117C9.17102 4.21907 8.93154 4.22744 8.69604 4.26606C8.55723 4.31092 8.42877 4.38302 8.31816 4.47813C8.20756 4.57323 8.11703 4.68945 8.05189 4.81997C7.83406 5.21984 7.78116 5.69906 7.74071 6.14561C7.70803 6.44746 7.69247 6.75086 7.6878 7.05427C7.69403 7.06671 7.69092 7.29388 7.69092 7.29388Z" fill="#9C9FBA"/>
<path d="M46.1279 11.2102V20.0509C46.1275 20.566 45.9225 21.0599 45.5581 21.424C45.1937 21.7881 44.6997 21.9927 44.1845 21.9927H43.2214C42.7064 21.9927 42.2125 21.7881 41.8484 21.4239C41.4842 21.0598 41.2796 20.5659 41.2796 20.0509V9.78184C41.2794 9.46345 41.342 9.14813 41.4637 8.85393C41.5855 8.55973 41.764 8.29242 41.9892 8.06728C42.2143 7.84214 42.4816 7.66359 42.7758 7.54183C43.07 7.42008 43.3853 7.35752 43.7037 7.35773C44.3467 7.35773 44.9632 7.61313 45.4179 8.06773C45.8725 8.52234 46.1279 9.13893 46.1279 9.78184V11.2102Z" fill="#9C9FBA"/>
<path d="M59.9997 9.6447C60.0059 9.93903 59.9468 10.2347 59.8379 10.5082L59.3275 11.7359L57.4604 16.3087L56.2484 19.2883V19.3023L56.1892 19.4345L53.8149 25.2474C53.8009 25.263 53.8009 25.291 53.7853 25.3065C53.5919 25.7377 53.2391 26.0774 52.8009 26.2543C52.3626 26.4312 51.873 26.4317 51.4344 26.2556L50.6004 25.9056C50.3783 25.8171 50.1759 25.6855 50.0048 25.5184C49.8338 25.3514 49.6974 25.1521 49.6037 24.9321C49.51 24.7122 49.4607 24.4758 49.4588 24.2367C49.4568 23.9976 49.5021 23.7605 49.5922 23.539L51.3161 19.3023L51.3737 19.4345L51.3301 19.2883L50.616 17.5456L50.076 16.2449L48.2494 11.7327L47.7391 10.5051C47.6302 10.2316 47.5772 9.93903 47.5835 9.6447C47.5798 9.11522 47.761 8.60106 48.0959 8.19094C48.4308 7.78083 48.8984 7.50049 49.418 7.39832C49.9375 7.29614 50.4764 7.37854 50.9417 7.63129C51.407 7.88403 51.7694 8.29127 51.9665 8.78272L52.4768 10.0275L53.7916 13.2544L55.1063 10.0275L55.6182 8.78272C55.8159 8.29229 56.1785 7.88613 56.6434 7.63417C57.1083 7.38221 57.6465 7.3002 58.1653 7.40228C58.6842 7.50435 59.1512 7.78412 59.486 8.19341C59.8208 8.6027 60.0025 9.11592 59.9997 9.6447Z" fill="#9C9FBA"/>
<path d="M43.703 5.44064C45.0418 5.44064 46.1271 4.35532 46.1271 3.01652C46.1271 1.67772 45.0418 0.592407 43.703 0.592407C42.3642 0.592407 41.2789 1.67772 41.2789 3.01652C41.2789 4.35532 42.3642 5.44064 43.703 5.44064Z" fill="#9C9FBA"/>
</svg>
