<svg width="20" height="20" viewBox="0 0 20 20" fill="none" xmlns="http://www.w3.org/2000/svg">
<path d="M19.5348 0.00702322C19.4752 -0.00236735 19.4146 0.00559298 19.3553 0.0167071C19.2964 0.0277676 19.2385 0.0442489 19.1826 0.0659411L14.0209 2.06681C13.5771 2.23883 13.0865 2.24696 12.6373 2.08973L7.31496 0.226902C6.89481 0.0798493 6.4376 0.0771663 6.01576 0.219278L0.4 2.11111C0.166667 2.18889 0 2.38889 0 2.64444V19.4444C0 19.7247 0.198415 19.9509 0.465237 19.993C0.524808 20.0024 0.585384 19.9944 0.644658 19.9833C0.703649 19.9722 0.761493 19.9558 0.817455 19.9341L5.97911 17.9332C6.42288 17.7612 6.91345 17.753 7.36268 17.9103L12.685 19.7731C13.1052 19.9202 13.5624 19.9228 13.9842 19.7807L19.6 17.8889C19.8333 17.8111 20 17.6111 20 17.3556V0.555556C20 0.275263 19.8016 0.0490832 19.5348 0.00702322ZM7.77778 2.74444L12.2222 4.3V17.2556L7.77778 15.7V2.74444ZM2.22222 3.84444L5.55556 2.72222V15.7222L2.22222 17.0111V3.84444ZM17.7778 16.1556L14.4444 17.2778V4.28889L17.7778 3V16.1556Z" fill="#9C9FBA"/>
</svg>
