<svg width="295" height="108" viewBox="0 0 295 108" fill="none" xmlns="http://www.w3.org/2000/svg">
<path d="M62.3506 8.62891H60.5186V3.85742H59.001V16.1895H60.5186V9.87305H62.3506V8.62891ZM51.2764 13.1406H52.3154C54.1475 13.1338 56.123 13.0244 58.208 12.6074L58.0439 11.3223C56.1777 11.7119 54.4277 11.8555 52.7803 11.8828V5.06055H51.2764V13.1406ZM66.6299 4.62305C64.6885 4.62305 63.2666 5.84668 63.2803 7.60352C63.2666 9.12793 64.3398 10.249 65.8916 10.5225V12.3818C64.7842 12.4092 63.7178 12.416 62.7881 12.416L63.0068 13.6602C65.126 13.6875 67.9492 13.6738 70.54 13.209L70.4307 12.0742C69.4668 12.2041 68.4414 12.2793 67.4092 12.334V10.5088C68.9131 10.2285 69.9795 9.11426 69.9932 7.60352C69.9795 5.84668 68.5303 4.62305 66.6299 4.62305ZM64.7568 7.60352C64.75 6.56445 65.5498 5.92188 66.6299 5.9082C67.6895 5.92188 68.4824 6.56445 68.4893 7.60352C68.4824 8.63574 67.6895 9.29883 66.6299 9.28516C65.5498 9.29883 64.75 8.63574 64.7568 7.60352ZM71.1416 16.2168H72.6592V10.0781H74.4502V8.79297H72.6592V3.85742H71.1416V16.2168ZM88.1084 3.85742H86.5908V10.3789H88.1084V7.78125H89.8311V6.53711H88.1084V3.85742ZM78.333 9.39453L78.9756 10.6113C82.6943 9.86621 84.7588 7.91113 84.7725 4.71875H78.9209V5.92188H83.0703C82.8926 7.4873 81.4229 8.82715 78.333 9.39453ZM80.0693 16.0664H88.4365V14.9316H81.6006V14.002H88.0264V12.9082H81.6006V12.0059H88.1494V10.8848H80.0693V16.0664ZM96.0791 4.04883C93.2695 4.05566 91.6221 4.80078 91.6221 6.16797C91.6221 7.54883 93.2695 8.29395 96.0791 8.30078C98.8955 8.29395 100.529 7.54883 100.536 6.16797C100.529 4.80078 98.8955 4.05566 96.0791 4.04883ZM90.46 10.1738H101.726V8.95703H90.46V10.1738ZM91.7861 12.1289H98.8271V12.9492H91.7998V16.1074H100.659V14.9453H93.29V14.0293H100.317V11.0078H91.7861V12.1289ZM93.2217 6.16797C93.2148 5.53223 94.1992 5.16992 96.0791 5.16992C97.9863 5.16992 98.9639 5.53223 98.9639 6.16797C98.9639 6.85156 97.9863 7.16602 96.0791 7.16602C94.1992 7.16602 93.2148 6.85156 93.2217 6.16797ZM114.126 4.08984H112.731V15.6289H114.126V9.98242H115.247V16.2168H116.683V3.85742H115.247V8.73828H114.126V4.08984ZM106.142 13.1406H106.675C107.283 13.1406 107.994 13.127 108.944 12.9219L108.821 11.6504C108.35 11.7666 107.919 11.8281 107.536 11.8555V6.5918H108.794V5.36133H106.142V13.1406ZM109.3 13.1406H109.833C110.578 13.1406 111.344 13.1338 112.308 12.9082L112.198 11.6367C111.631 11.7871 111.132 11.8418 110.667 11.8691V6.5918H112.021V5.36133H109.3V13.1406Z" fill="#23273D"/>
<path d="M190.351 8.62891H188.519V3.85742H187.001V16.1895H188.519V9.87305H190.351V8.62891ZM179.276 13.1406H180.315C182.147 13.1338 184.123 13.0244 186.208 12.6074L186.044 11.3223C184.178 11.7119 182.428 11.8555 180.78 11.8828V5.06055H179.276V13.1406ZM194.63 4.62305C192.688 4.62305 191.267 5.84668 191.28 7.60352C191.267 9.12793 192.34 10.249 193.892 10.5225V12.3818C192.784 12.4092 191.718 12.416 190.788 12.416L191.007 13.6602C193.126 13.6875 195.949 13.6738 198.54 13.209L198.431 12.0742C197.467 12.2041 196.441 12.2793 195.409 12.334V10.5088C196.913 10.2285 197.979 9.11426 197.993 7.60352C197.979 5.84668 196.53 4.62305 194.63 4.62305ZM192.757 7.60352C192.75 6.56445 193.55 5.92188 194.63 5.9082C195.689 5.92188 196.482 6.56445 196.489 7.60352C196.482 8.63574 195.689 9.29883 194.63 9.28516C193.55 9.29883 192.75 8.63574 192.757 7.60352ZM199.142 16.2168H200.659V10.0781H202.45V8.79297H200.659V3.85742H199.142V16.2168ZM216.04 3.85742H214.522V16.2305H216.04V9.79102H217.94V8.54688H216.04V3.85742ZM206.866 13.209H207.892C210.12 13.209 211.781 13.1543 213.702 12.8262L213.524 11.541C211.829 11.835 210.305 11.9307 208.384 11.9375V6.26367H212.649V5.0332H206.866V13.209ZM229.739 9.46289H218.446V10.6113H229.739V9.46289ZM219.759 12.416H226.868V13.1816H219.772V16.0801H228.741V15.0273H221.29V14.166H228.372V11.3496H219.759V12.416ZM219.841 5.18359H226.827V5.93555H219.882V8.76562H228.563V7.72656H221.386V6.91992H228.345V4.13086H219.841V5.18359ZM242.126 4.08984H240.731V15.6289H242.126V9.98242H243.247V16.2168H244.683V3.85742H243.247V8.73828H242.126V4.08984ZM234.142 13.1406H234.675C235.283 13.1406 235.994 13.127 236.944 12.9219L236.821 11.6504C236.35 11.7666 235.919 11.8281 235.536 11.8555V6.5918H236.794V5.36133H234.142V13.1406ZM237.3 13.1406H237.833C238.578 13.1406 239.344 13.1338 240.308 12.9082L240.198 11.6367C239.631 11.7871 239.132 11.8418 238.667 11.8691V6.5918H240.021V5.36133H237.3V13.1406Z" fill="#23273D"/>
<path d="M124 68C124 90.0914 106.091 108 84 108C61.9086 108 44 90.0914 44 68C44 45.9086 61.9086 28 84 28C106.091 28 124 45.9086 124 68ZM48 68C48 87.8823 64.1177 104 84 104C103.882 104 120 87.8823 120 68C120 48.1177 103.882 32 84 32C64.1177 32 48 48.1177 48 68Z" fill="#F1F4FF"/>
<path d="M84 30C84 28.8954 84.8961 27.9948 85.9992 28.05C92.8906 28.3948 99.5881 30.5176 105.433 34.2269C111.842 38.2941 116.961 44.1008 120.193 50.9688C123.425 57.8369 124.636 65.4827 123.685 73.0133C122.733 80.5439 119.659 87.6484 114.821 93.497C109.982 99.3455 103.58 103.697 96.3607 106.042C89.1417 108.388 81.4044 108.631 74.0524 106.743C66.7004 104.856 60.0373 100.915 54.8413 95.3819C50.1024 90.3355 46.7623 84.1544 45.1322 77.4497C44.8713 76.3764 45.5881 75.3275 46.6731 75.1205C47.7581 74.9135 48.7999 75.6271 49.0668 76.6989C50.5507 82.6583 53.5379 88.1507 57.7571 92.6437C62.4336 97.6236 68.4304 101.17 75.0472 102.869C81.664 104.568 88.6276 104.349 95.1246 102.238C101.622 100.127 107.384 96.211 111.738 90.9473C116.093 85.6836 118.86 79.2895 119.716 72.512C120.572 65.7345 119.482 58.8532 116.574 52.6719C113.665 46.4907 109.058 41.2646 103.29 37.6042C98.0858 34.3016 92.1309 32.3965 85.999 32.0555C84.8962 31.9942 84 31.1046 84 30Z" fill="#FF5C5C"/>
<path d="M75.8965 55.6445H79.3145C79.2598 52.2949 76.4023 49.9297 72.2051 49.9297C68.0352 49.9297 64.9316 52.2539 64.9316 55.7539C64.9316 58.5977 66.9551 60.2383 70.209 61.0859L72.4512 61.6602C74.5977 62.207 76.0195 62.8633 76.0332 64.4219C76.0195 66.1172 74.4062 67.252 72.0684 67.2656C69.8125 67.252 68.0762 66.2402 67.9121 64.1758H64.4121C64.5625 68.0859 67.4883 70.3008 72.0957 70.3008C76.8398 70.3008 79.5879 67.9219 79.5879 64.4492C79.5879 61.0039 76.7441 59.4453 73.791 58.7617L71.9316 58.2695C70.291 57.8867 68.5273 57.2031 68.541 55.5352C68.5547 54.0449 69.8945 52.9512 72.1504 52.9648C74.2832 52.9512 75.7188 53.9355 75.8965 55.6445Z" fill="#FF5C5C"/>
<path d="M73.4336 89H75.0156L78.6953 81.8164V80.5156H72.8477V81.793H77.1133V81.8516L73.4336 89ZM79.9258 89H85.8203V87.7227H82.0469V87.6641L83.5586 86.1641C85.2285 84.5879 85.6855 83.8145 85.6914 82.8594C85.6855 81.4355 84.5195 80.3984 82.7852 80.3984C81.0918 80.3984 79.8848 81.4414 79.8906 83.0469H81.3438C81.3379 82.1855 81.9004 81.6406 82.7734 81.6406C83.5996 81.6406 84.2266 82.1387 84.2266 82.9297C84.2266 83.6445 83.7812 84.1484 82.9258 85.0039L79.9258 87.8984V89ZM89.2422 84.6523C90.4434 84.6582 91.1113 83.7734 91.1172 82.4609C91.1113 81.1719 90.4668 80.2812 89.2422 80.2812C88.0645 80.2812 87.373 81.1719 87.3789 82.4609C87.373 83.7617 88.0352 84.6582 89.2422 84.6523ZM88.457 82.4609C88.4629 81.7285 88.7266 81.2188 89.2422 81.2188C89.793 81.2129 90.0273 81.7227 90.0273 82.4609C90.0273 83.2227 89.7754 83.7148 89.2422 83.7148C88.7266 83.7148 88.4629 83.2227 88.457 82.4609ZM88.4688 89H89.6523L95.4883 80.5156H94.3047L88.4688 89ZM92.9219 87.043C92.916 88.332 93.5781 89.2285 94.7852 89.2227C95.9863 89.2285 96.6543 88.3438 96.6602 87.043C96.6543 85.748 96.0039 84.8516 94.7852 84.8516C93.6074 84.8516 92.916 85.748 92.9219 87.043ZM94 87.043C94.0059 86.2988 94.2695 85.7949 94.7852 85.7891C95.3359 85.7832 95.5703 86.293 95.5703 87.043C95.5703 87.793 95.3184 88.291 94.7852 88.2852C94.2695 88.291 94.0059 87.793 94 87.043Z" fill="#9C9FBA"/>
<g clip-path="url(#clip0_1591_9962)">
<path d="M101.333 50.6667C101.333 52.6667 98.9447 54.6667 95.9993 54.6667C93.054 54.6667 90.666 52.6667 90.666 50.6667C90.666 47.7213 94.666 48 95.9993 48C97.3327 48 101.333 47.7213 101.333 50.6667Z" fill="#66757F"/>
<path d="M100.204 56H91.7957C91.4801 56 91.1747 56.1119 90.9338 56.3159C90.693 56.5199 90.5323 56.8027 90.4804 57.114L88.2584 70.4473C88.2265 70.6384 88.2367 70.834 88.2881 71.0208C88.3395 71.2075 88.431 71.3807 88.5562 71.5285C88.6814 71.6763 88.8373 71.795 89.013 71.8764C89.1887 71.9579 89.3801 72 89.5737 72H102.426C102.619 72 102.811 71.9579 102.986 71.8764C103.162 71.795 103.318 71.6763 103.443 71.5285C103.568 71.3807 103.66 71.2075 103.711 71.0208C103.763 70.834 103.773 70.6384 103.741 70.4473L101.519 57.114C101.467 56.8027 101.306 56.52 101.065 56.316C100.825 56.1121 100.519 56.0001 100.204 56Z" fill="#CCD6DD"/>
<path d="M96.8966 57.3333H92.3619C92.2041 57.3333 92.0513 57.3893 91.931 57.4914C91.8106 57.5934 91.7303 57.7349 91.7046 57.8907L89.7046 69.8907C89.6885 69.9861 89.6934 70.0839 89.719 70.1773C89.7446 70.2706 89.7902 70.3572 89.8528 70.4311C89.9153 70.505 89.9932 70.5644 90.081 70.605C90.1688 70.6457 90.2645 70.6668 90.3612 70.6667H97.3126L96.8966 57.3333ZM100.297 57.8907C100.271 57.735 100.191 57.5936 100.071 57.4915C99.9504 57.3895 99.7977 57.3334 99.6399 57.3333H98.0312L98.6372 70.6667H101.641C101.737 70.6666 101.833 70.6455 101.921 70.6048C102.009 70.5641 102.086 70.5047 102.149 70.4309C102.212 70.3571 102.257 70.2705 102.283 70.1772C102.309 70.0839 102.314 69.9861 102.298 69.8907L100.297 57.8907Z" fill="#F5F8FA"/>
<path d="M93.9992 49.4C94.441 49.4 94.7992 49.2209 94.7992 49C94.7992 48.7791 94.441 48.6 93.9992 48.6C93.5574 48.6 93.1992 48.7791 93.1992 49C93.1992 49.2209 93.5574 49.4 93.9992 49.4Z" fill="#CCD6DD"/>
<path d="M97.9992 49.4C98.441 49.4 98.7992 49.2209 98.7992 49C98.7992 48.7791 98.441 48.6 97.9992 48.6C97.5574 48.6 97.1992 48.7791 97.1992 49C97.1992 49.2209 97.5574 49.4 97.9992 49.4Z" fill="#CCD6DD"/>
<path d="M95.9992 50.7333C96.441 50.7333 96.7992 50.5542 96.7992 50.3333C96.7992 50.1124 96.441 49.9333 95.9992 49.9333C95.5574 49.9333 95.1992 50.1124 95.1992 50.3333C95.1992 50.5542 95.5574 50.7333 95.9992 50.7333Z" fill="#CCD6DD"/>
<path d="M100.667 56H91.334V54.352C91.334 53.7893 91.79 53.5107 92.3527 53.5107H99.6487C100.211 53.5107 100.667 53.7893 100.667 54.352V56Z" fill="#66757F"/>
<path d="M99.6487 53.3333H92.3527C91.9147 53.3333 91.544 53.6113 91.4 54H100.601C100.457 53.6113 100.087 53.3333 99.6487 53.3333ZM91.334 54.6667H100.667V55.3333H91.334V54.6667ZM91.334 56H100.667V56.3333H91.334V56Z" fill="#CCD6DD"/>
</g>
<path d="M252 68C252 90.0914 234.091 108 212 108C189.909 108 172 90.0914 172 68C172 45.9086 189.909 28 212 28C234.091 28 252 45.9086 252 68ZM176 68C176 87.8823 192.118 104 212 104C231.882 104 248 87.8823 248 68C248 48.1177 231.882 32 212 32C192.118 32 176 48.1177 176 68Z" fill="#F1F4FF"/>
<path d="M212 30C212 28.8954 212.896 27.9948 213.999 28.05C223.665 28.5333 232.854 32.5087 239.837 39.2749C247.299 46.5062 251.654 56.3576 251.98 66.7436C252.307 77.1295 248.579 87.2349 241.585 94.9205C234.592 102.606 224.882 107.269 214.512 107.921C204.141 108.574 193.924 105.165 186.022 98.4162C178.121 91.6678 173.155 82.1093 172.178 71.7643C171.2 61.4193 174.286 51.0998 180.783 42.9903C186.862 35.4023 195.481 30.3065 205.009 28.6155C206.097 28.4225 207.099 29.2038 207.237 30.2996C207.376 31.3955 206.598 32.3905 205.512 32.5895C197.014 34.1463 189.334 38.7144 183.905 45.4913C178.057 52.7898 175.28 62.0774 176.16 71.3879C177.04 80.6984 181.509 89.301 188.62 95.3746C195.731 101.448 204.927 104.516 214.26 103.929C223.594 103.342 232.333 99.1455 238.627 92.2285C244.921 85.3114 248.276 76.2166 247.982 66.8692C247.688 57.5218 243.769 48.6556 237.053 42.1475C230.817 36.1045 222.625 32.535 213.999 32.0555C212.896 31.9942 212 31.1046 212 30Z" fill="#9C9FBA"/>
<path d="M192.111 53.1836H198.236V70H201.791V53.1836H207.889V50.2031H192.111V53.1836Z" fill="#9C9FBA"/>
<path d="M204.066 80.3984C202.186 80.3867 200.938 81.6465 200.938 83.3047C200.943 84.9102 202.115 86.0645 203.633 86.0586C204.564 86.0645 205.385 85.625 205.812 84.8867H205.906C205.895 86.709 205.203 87.793 203.973 87.793C203.205 87.793 202.684 87.3652 202.531 86.6914H201.02C201.207 88.0977 202.338 89.1172 203.973 89.1172C206.059 89.1172 207.383 87.4238 207.383 84.5C207.377 81.4004 205.725 80.4102 204.066 80.3984ZM202.426 83.2695C202.414 82.3613 203.123 81.6348 204.078 81.6289C205.027 81.6348 205.719 82.3965 205.719 83.2578C205.725 84.1367 204.998 84.8984 204.055 84.8984C203.105 84.8984 202.426 84.1836 202.426 83.2695ZM211.73 89.1172C213.605 89.1172 214.947 88.1094 214.953 86.7266C214.947 85.6484 214.139 84.7695 213.125 84.6055V84.5586C214.004 84.3711 214.625 83.6035 214.625 82.6719C214.625 81.3594 213.395 80.3984 211.73 80.3984C210.055 80.3984 208.83 81.3594 208.824 82.6719C208.83 83.5977 209.434 84.3711 210.324 84.5586V84.6055C209.305 84.7695 208.502 85.6484 208.508 86.7266C208.502 88.1094 209.838 89.1172 211.73 89.1172ZM210.078 86.5859C210.072 85.7832 210.775 85.1973 211.73 85.2031C212.686 85.1973 213.377 85.7891 213.383 86.5859C213.377 87.3711 212.727 87.9102 211.73 87.9102C210.723 87.9102 210.072 87.3711 210.078 86.5859ZM210.312 82.8125C210.318 82.0918 210.881 81.5938 211.73 81.5938C212.562 81.5938 213.137 82.0918 213.137 82.8125C213.137 83.5566 212.545 84.0664 211.73 84.0664C210.904 84.0664 210.318 83.5566 210.312 82.8125ZM218.305 84.6523C219.506 84.6582 220.174 83.7734 220.18 82.4609C220.174 81.1719 219.529 80.2812 218.305 80.2812C217.127 80.2812 216.436 81.1719 216.441 82.4609C216.436 83.7617 217.098 84.6582 218.305 84.6523ZM217.52 82.4609C217.525 81.7285 217.789 81.2188 218.305 81.2188C218.855 81.2129 219.09 81.7227 219.09 82.4609C219.09 83.2227 218.838 83.7148 218.305 83.7148C217.789 83.7148 217.525 83.2227 217.52 82.4609ZM217.531 89H218.715L224.551 80.5156H223.367L217.531 89ZM221.984 87.043C221.979 88.332 222.641 89.2285 223.848 89.2227C225.049 89.2285 225.717 88.3438 225.723 87.043C225.717 85.748 225.066 84.8516 223.848 84.8516C222.67 84.8516 221.979 85.748 221.984 87.043ZM223.062 87.043C223.068 86.2988 223.332 85.7949 223.848 85.7891C224.398 85.7832 224.633 86.293 224.633 87.043C224.633 87.793 224.381 88.291 223.848 88.2852C223.332 88.291 223.068 87.793 223.062 87.043Z" fill="#9C9FBA"/>
<path d="M236 57C236 53.9613 233.043 51.4887 229.333 51.3473V51.3333H218.667V51.3473C214.957 51.4887 212 53.9613 212 57C212 58.2407 212.498 59.384 213.333 60.3173V68.6667C213.333 69.3739 213.614 70.0522 214.114 70.5523C214.614 71.0524 215.293 71.3333 216 71.3333H232C232.707 71.3333 233.386 71.0524 233.886 70.5523C234.386 70.0522 234.667 69.3739 234.667 68.6667V60.3173C235.502 59.384 236 58.2407 236 57Z" fill="#D99E82"/>
<path d="M224.666 60.3173H234.666V61.3173H224.666V60.3173Z" fill="#CC927A"/>
<path d="M226.001 57C226.001 54.6927 223.642 52.806 220.667 52.674C220.557 52.6693 219.113 52.6667 219.001 52.6667C215.871 52.6667 213.334 54.6067 213.334 57C213.334 58.0633 213.837 59.0353 214.667 59.7893V68C214.667 68.5304 214.878 69.0391 215.253 69.4142C215.628 69.7893 216.137 70 216.667 70H222.667C223.198 70 223.706 69.7893 224.082 69.4142C224.457 69.0391 224.667 68.5304 224.667 68V59.786C225.497 59.032 226.001 58.062 226.001 57Z" fill="#FFE8B6"/>
<defs>
<clipPath id="clip0_1591_9962">
<rect width="24" height="24" fill="white" transform="translate(84 48)"/>
</clipPath>
</defs>
</svg>
