<svg width="24" height="24" viewBox="0 0 24 24" fill="none" xmlns="http://www.w3.org/2000/svg">
<path d="M21.5348 2.00702C21.4752 1.99763 21.4146 2.00559 21.3553 2.01671C21.2964 2.02777 21.2385 2.04425 21.1826 2.06594L16.0209 4.06681C15.5771 4.23883 15.0865 4.24696 14.6373 4.08973L9.31496 2.2269C8.89481 2.07985 8.4376 2.07717 8.01576 2.21928L2.4 4.11111C2.16667 4.18889 2 4.38889 2 4.64444V21.4444C2 21.7247 2.19841 21.9509 2.46524 21.993C2.52481 22.0024 2.58538 21.9944 2.64466 21.9833C2.70365 21.9722 2.76149 21.9558 2.81745 21.9341L7.97911 19.9332C8.42288 19.7612 8.91345 19.753 9.36268 19.9103L14.685 21.7731C15.1052 21.9202 15.5624 21.9228 15.9842 21.7807L21.6 19.8889C21.8333 19.8111 22 19.6111 22 19.3556V2.55556C22 2.27526 21.8016 2.04908 21.5348 2.00702ZM9.77778 4.74444L14.2222 6.3V19.2556L9.77778 17.7V4.74444ZM4.22222 5.84444L7.55556 4.72222V17.7222L4.22222 19.0111V5.84444ZM19.7778 18.1556L16.4444 19.2778V6.28889L19.7778 5V18.1556Z" fill="#FF5C5C"/>
</svg>
