<svg width="50" height="50" viewBox="0 0 50 50" fill="none" xmlns="http://www.w3.org/2000/svg">
<circle cx="25" cy="25" r="25" fill="#FF5C5C"/>
<path fill-rule="evenodd" clip-rule="evenodd" d="M24.4996 12.5C23.395 12.5 22.4996 13.3954 22.4996 14.5V22.5001H14.5C13.3954 22.5001 12.5 23.3955 12.5 24.5001V25.5001C12.5 26.6047 13.3954 27.5001 14.5 27.5001H22.4996V35.5C22.4996 36.6046 23.395 37.5 24.4996 37.5H25.4996C26.6041 37.5 27.4996 36.6046 27.4996 35.5V27.5001H35.5C36.6046 27.5001 37.5 26.6047 37.5 25.5001V24.5001C37.5 23.3955 36.6046 22.5001 35.5 22.5001H27.4996V14.5C27.4996 13.3954 26.6041 12.5 25.4996 12.5H24.4996Z" fill="white"/>
</svg>
