<svg width="24" height="24" viewBox="0 0 24 24" fill="none" xmlns="http://www.w3.org/2000/svg">
<rect x="2" y="5" width="20" height="2" rx="1" fill="#FF5C5C"/>
<path fill-rule="evenodd" clip-rule="evenodd" d="M4 8C2.89543 8 2 8.89543 2 10V20C2 21.1046 2.89543 22 4 22H20C21.1046 22 22 21.1046 22 20V10C22 8.89543 21.1046 8 20 8H4ZM5 10C4.44772 10 4 10.4477 4 11V19C4 19.5523 4.44772 20 5 20H19C19.5523 20 20 19.5523 20 19V11C20 10.4477 19.5523 10 19 10H5Z" fill="#FF5C5C"/>
<rect x="2" y="2" width="20" height="2" rx="1" fill="#FF5C5C"/>
</svg>
