<svg width="42" height="26" viewBox="0 0 42 26" fill="none" xmlns="http://www.w3.org/2000/svg">
<path fill-rule="evenodd" clip-rule="evenodd" d="M0.307763 15.0275C1.30545 21.3462 6.75172 26 13.1487 26H28.8514C35.2483 26 40.6946 21.3462 41.6923 15.0275C41.9044 13.6842 41.9044 12.3158 41.6923 10.9725C40.6946 4.65381 35.2483 0 28.8514 0H13.1487C6.75173 0 1.30545 4.65381 0.307763 10.9725C0.0956545 12.3158 0.0956544 13.6842 0.307763 15.0275ZM29.0001 20C32.5697 20 35.5557 17.274 35.9281 13.7363C35.9794 13.2491 35.9794 12.7509 35.9281 12.2637C35.5557 8.72604 32.5697 6 29.0001 6C25.4304 6 22.4444 8.72604 22.072 12.2637C22.0208 12.7509 22.0208 13.2491 22.072 13.7363C22.4444 17.274 25.4304 20 29.0001 20Z" fill="#FF5C5C"/>
</svg>
