<svg width="42" height="26" viewBox="0 0 42 26" fill="none" xmlns="http://www.w3.org/2000/svg">
<path fill-rule="evenodd" clip-rule="evenodd" d="M41.6923 15.0275C40.6946 21.3462 35.2483 26 28.8514 26H13.1487C6.75172 26 1.30545 21.3462 0.307763 15.0275C0.0956546 13.6842 0.0956544 12.3158 0.307763 10.9725C1.30545 4.65381 6.75172 0 13.1487 0H28.8514C35.2483 0 40.6946 4.65381 41.6923 10.9725C41.9044 12.3158 41.9044 13.6842 41.6923 15.0275ZM13 20C9.43033 20 6.44436 17.274 6.07197 13.7363C6.02069 13.2491 6.02069 12.7509 6.07197 12.2637C6.44436 8.72604 9.43033 6 13 6C16.5697 6 19.5556 8.72604 19.928 12.2637C19.9793 12.7509 19.9793 13.2491 19.928 13.7363C19.5556 17.274 16.5697 20 13 20Z" fill="#9C9FBA"/>
</svg>
