<svg width="24" height="24" viewBox="0 0 24 24" fill="none" xmlns="http://www.w3.org/2000/svg">
<path d="M4.5 4.49999C4.5 3.70434 4.81607 2.94128 5.37868 2.37867C5.94129 1.81606 6.70435 1.49999 7.5 1.49999C8.29565 1.49999 9.05871 1.81606 9.62132 2.37867C10.1839 2.94128 10.5 3.70434 10.5 4.49999C10.5 5.29564 10.1839 6.0587 9.62132 6.62131C9.05871 7.18392 8.29565 7.49999 7.5 7.49999C6.70435 7.49999 5.94129 7.18392 5.37868 6.62131C4.81607 6.0587 4.5 5.29564 4.5 4.49999ZM7.5 2.99999C7.10218 2.99999 6.72064 3.15802 6.43934 3.43933C6.15804 3.72063 6 4.10216 6 4.49999C6 4.89781 6.15804 5.27934 6.43934 5.56065C6.72064 5.84195 7.10218 5.99999 7.5 5.99999C7.89782 5.99999 8.27936 5.84195 8.56066 5.56065C8.84196 5.27934 9 4.89781 9 4.49999C9 4.10216 8.84196 3.72063 8.56066 3.43933C8.27936 3.15802 7.89782 2.99999 7.5 2.99999ZM14.6685 6.87599C14.3542 6.63628 14.0904 6.33683 13.8923 5.99485C13.6941 5.65288 13.5655 5.27511 13.5137 4.88326C13.462 4.49142 13.4882 4.09321 13.5909 3.71153C13.6935 3.32984 13.8706 2.97221 14.1119 2.65917C14.3532 2.34613 14.654 2.08386 14.997 1.88742C15.3399 1.69099 15.7184 1.56427 16.1105 1.51453C16.5026 1.4648 16.9006 1.49304 17.2818 1.59763C17.663 1.70222 18.0197 1.8811 18.3315 2.12399C18.9454 2.61509 19.3421 3.32758 19.436 4.10814C19.53 4.8887 19.3138 5.67496 18.8339 6.29773C18.3541 6.9205 17.6489 7.33002 16.8702 7.43816C16.0915 7.5463 15.2999 7.34443 14.6685 6.87599ZM16.5 2.99999C16.1022 2.99999 15.7206 3.15802 15.4393 3.43933C15.158 3.72063 15 4.10216 15 4.49999C15 4.89781 15.158 5.27934 15.4393 5.56065C15.7206 5.84195 16.1022 5.99999 16.5 5.99999C16.8978 5.99999 17.2794 5.84195 17.5607 5.56065C17.842 5.27934 18 4.89781 18 4.49999C18 4.10216 17.842 3.72063 17.5607 3.43933C17.2794 3.15802 16.8978 2.99999 16.5 2.99999ZM3.75 8.99999H7.755C7.59 9.46949 7.5 9.97499 7.5 10.5H3.75C3.55109 10.5 3.36032 10.579 3.21967 10.7197C3.07902 10.8603 3 11.0511 3 11.25C3 12.4755 3.4875 13.3845 4.257 14.0025C4.611 14.2875 5.0355 14.517 5.5155 14.685C5.16301 15.0597 4.89138 15.5028 4.7175 15.987C4.214 15.7847 3.74257 15.5104 3.318 15.1725C2.19 14.265 1.5 12.924 1.5 11.25C1.5 10.6532 1.73705 10.081 2.15901 9.659C2.58097 9.23704 3.15326 8.99999 3.75 8.99999ZM9.402 8.99999C9.00418 9.68942 8.89652 10.5086 9.10272 11.2774C9.30891 12.0463 9.81207 12.7017 10.5015 13.0995C11.1909 13.4973 12.0102 13.605 12.779 13.3988C13.5478 13.1926 14.2032 12.6894 14.601 12C14.9988 11.3106 15.1065 10.4913 14.9003 9.72252C14.6941 8.95372 14.1909 8.29831 13.5015 7.90049C12.8121 7.50266 11.9928 7.39501 11.224 7.6012C10.4552 7.8074 9.79983 8.31056 9.402 8.99999ZM11.664 9.03749C11.8838 8.98784 12.1119 8.98819 12.3315 9.03851C12.5511 9.08883 12.7567 9.18784 12.9329 9.32822C13.1091 9.46861 13.2516 9.64678 13.3497 9.84959C13.4479 10.0524 13.4992 10.2747 13.5 10.5C13.4999 10.7822 13.4201 11.0587 13.27 11.2976C13.1198 11.5366 12.9052 11.7283 12.6509 11.8508C12.3966 11.9732 12.113 12.0215 11.8325 11.99C11.5521 11.9585 11.2862 11.8485 11.0654 11.6726C10.8447 11.4968 10.678 11.2622 10.5846 10.9959C10.4911 10.7296 10.4747 10.4423 10.5373 10.1671C10.5998 9.89188 10.7387 9.63989 10.938 9.44006C11.1373 9.24024 11.3889 9.10071 11.664 9.03749ZM19.743 14.0025C19.389 14.2875 18.9645 14.517 18.4845 14.685C18.8365 15.0598 19.1076 15.503 19.281 15.987C19.791 15.7785 20.2635 15.507 20.682 15.1725C21.81 14.265 22.5 12.924 22.5 11.25C22.5 10.6532 22.2629 10.081 21.841 9.659C21.419 9.23704 20.8467 8.99999 20.25 8.99999H16.245C16.41 9.46949 16.5 9.97499 16.5 10.5H20.25C20.4489 10.5 20.6397 10.579 20.7803 10.7197C20.921 10.8603 21 11.0511 21 11.25C21 12.4755 20.5125 13.3845 19.743 14.0025ZM15.75 15C16.3467 15 16.919 15.237 17.341 15.659C17.7629 16.081 18 16.6532 18 17.25C18 18.924 17.3115 20.265 16.182 21.1725C15.0705 22.065 13.5795 22.5 12 22.5C10.4205 22.5 8.9295 22.065 7.818 21.1725C6.69 20.265 6 18.924 6 17.25C5.99921 16.9543 6.05687 16.6614 6.16966 16.388C6.28245 16.1147 6.44815 15.8663 6.65724 15.6572C6.86633 15.4481 7.11469 15.2824 7.38803 15.1696C7.66137 15.0569 7.9543 14.9992 8.25 15H15.75ZM15.75 16.5H8.25C8.05109 16.5 7.86032 16.579 7.71967 16.7197C7.57902 16.8603 7.5 17.0511 7.5 17.25C7.5 18.4755 7.9875 19.3845 8.757 20.0025C9.546 20.6355 10.68 21 12 21C13.32 21 14.454 20.6355 15.243 20.0025C16.0125 19.3845 16.5 18.4755 16.5 17.25C16.5 17.0511 16.421 16.8603 16.2803 16.7197C16.1397 16.579 15.9489 16.5 15.75 16.5Z" fill="#C2C4E1"/>
</svg>
