<svg width="24" height="24" viewBox="0 0 24 24" fill="none" xmlns="http://www.w3.org/2000/svg">
<path d="M21.0442 17.1576C20.7734 17.1576 20.5466 17.0586 20.3637 16.8605C20.1802 16.6632 20.0884 16.4183 20.0884 16.1261V10.0401L12.4182 14.553C12.2748 14.639 12.1273 14.7033 11.9756 14.7459C11.8246 14.7892 11.6615 14.8109 11.4863 14.8109C11.311 14.8109 11.1479 14.7892 10.9969 14.7459C10.8452 14.7033 10.6977 14.639 10.5544 14.553L2.50179 9.80802C2.34249 9.72206 2.2192 9.59725 2.1319 9.43358C2.04397 9.2706 2 9.09456 2 8.90544C2 8.71633 2.04397 8.54029 2.1319 8.37731C2.2192 8.21364 2.34249 8.08882 2.50179 8.00286L10.5783 3.25788C10.7216 3.17192 10.8688 3.10728 11.0198 3.06395C11.1715 3.02132 11.327 3 11.4863 3C11.6456 3 11.801 3.02132 11.9527 3.06395C12.1037 3.10728 12.2509 3.17192 12.3943 3.25788L21.4982 8.62178C21.6575 8.70774 21.7811 8.83221 21.8691 8.99519C21.9564 9.15885 22 9.33524 22 9.52436V16.1261C22 16.4183 21.9082 16.6632 21.7247 16.8605C21.5419 17.0586 21.315 17.1576 21.0442 17.1576ZM11.4863 21C11.327 21 11.1715 20.9787 11.0198 20.936C10.8688 20.8927 10.7216 20.8281 10.5783 20.7421L5.79928 17.957C5.48069 17.7679 5.23377 17.5145 5.05854 17.1968C4.88331 16.8784 4.7957 16.5215 4.7957 16.1261V12.2063L10.2198 15.3782C10.4269 15.4986 10.634 15.6058 10.8411 15.7001C11.0482 15.795 11.2632 15.8424 11.4863 15.8424C11.7093 15.8424 11.9285 15.7908 12.1438 15.6877C12.3586 15.5845 12.5695 15.4728 12.7766 15.3524L18.1768 12.2063V16.1261C18.1768 16.5215 18.0892 16.8784 17.914 17.1968C17.7387 17.5145 17.4918 17.7679 17.1732 17.957L12.3943 20.7421C12.2509 20.8281 12.1037 20.8927 11.9527 20.936C11.801 20.9787 11.6456 21 11.4863 21Z" fill="white"/>
</svg>
